G04 #@! TF.GenerationSoftware,KiCad,Pcbnew,(5.1.6)-1*
G04 #@! TF.CreationDate,2020-10-14T11:51:14+02:00*
G04 #@! TF.ProjectId,DynOSSAT-EDU-OBC,44796e4f-5353-4415-942d-4544552d4f42,rev?*
G04 #@! TF.SameCoordinates,Original*
G04 #@! TF.FileFunction,Soldermask,Bot*
G04 #@! TF.FilePolarity,Negative*
%FSLAX46Y46*%
G04 Gerber Fmt 4.6, Leading zero omitted, Abs format (unit mm)*
G04 Created by KiCad (PCBNEW (5.1.6)-1) date 2020-10-14 11:51:14*
%MOMM*%
%LPD*%
G01*
G04 APERTURE LIST*
%ADD10C,0.100000*%
G04 APERTURE END LIST*
D10*
G36*
X145646680Y-103020176D02*
G01*
X146027393Y-103095904D01*
X146437049Y-103265589D01*
X146805729Y-103511934D01*
X147119266Y-103825471D01*
X147365611Y-104194151D01*
X147535296Y-104603807D01*
X147621800Y-105038696D01*
X147621800Y-105482104D01*
X147535296Y-105916993D01*
X147365611Y-106326649D01*
X147119266Y-106695329D01*
X146805729Y-107008866D01*
X146437049Y-107255211D01*
X146027393Y-107424896D01*
X145646680Y-107500624D01*
X145592505Y-107511400D01*
X145149095Y-107511400D01*
X145094920Y-107500624D01*
X144714207Y-107424896D01*
X144304551Y-107255211D01*
X143935871Y-107008866D01*
X143622334Y-106695329D01*
X143375989Y-106326649D01*
X143206304Y-105916993D01*
X143119800Y-105482104D01*
X143119800Y-105038696D01*
X143206304Y-104603807D01*
X143375989Y-104194151D01*
X143622334Y-103825471D01*
X143935871Y-103511934D01*
X144304551Y-103265589D01*
X144714207Y-103095904D01*
X145094920Y-103020176D01*
X145149095Y-103009400D01*
X145592505Y-103009400D01*
X145646680Y-103020176D01*
G37*
G36*
X109646280Y-103020176D02*
G01*
X110026993Y-103095904D01*
X110436649Y-103265589D01*
X110805329Y-103511934D01*
X111118866Y-103825471D01*
X111365211Y-104194151D01*
X111534896Y-104603807D01*
X111621400Y-105038696D01*
X111621400Y-105482104D01*
X111534896Y-105916993D01*
X111365211Y-106326649D01*
X111118866Y-106695329D01*
X110805329Y-107008866D01*
X110436649Y-107255211D01*
X110026993Y-107424896D01*
X109646280Y-107500624D01*
X109592105Y-107511400D01*
X109148695Y-107511400D01*
X109094520Y-107500624D01*
X108713807Y-107424896D01*
X108304151Y-107255211D01*
X107935471Y-107008866D01*
X107621934Y-106695329D01*
X107375589Y-106326649D01*
X107205904Y-105916993D01*
X107119400Y-105482104D01*
X107119400Y-105038696D01*
X107205904Y-104603807D01*
X107375589Y-104194151D01*
X107621934Y-103825471D01*
X107935471Y-103511934D01*
X108304151Y-103265589D01*
X108713807Y-103095904D01*
X109094520Y-103020176D01*
X109148695Y-103009400D01*
X109592105Y-103009400D01*
X109646280Y-103020176D01*
G37*
G36*
X146178615Y-101133173D02*
G01*
X146282479Y-101164679D01*
X146309655Y-101179205D01*
X146378200Y-101215843D01*
X146462101Y-101284699D01*
X146530957Y-101368600D01*
X146567595Y-101437145D01*
X146582121Y-101464321D01*
X146613627Y-101568185D01*
X146624266Y-101676200D01*
X146613627Y-101784215D01*
X146582121Y-101888079D01*
X146582119Y-101888082D01*
X146530957Y-101983800D01*
X146462101Y-102067701D01*
X146378200Y-102136557D01*
X146309655Y-102173195D01*
X146282479Y-102187721D01*
X146178615Y-102219227D01*
X146097667Y-102227200D01*
X145443533Y-102227200D01*
X145362585Y-102219227D01*
X145258721Y-102187721D01*
X145231545Y-102173195D01*
X145163000Y-102136557D01*
X145079099Y-102067701D01*
X145010243Y-101983800D01*
X144959081Y-101888082D01*
X144959079Y-101888079D01*
X144927573Y-101784215D01*
X144916934Y-101676200D01*
X144927573Y-101568185D01*
X144959079Y-101464321D01*
X144973605Y-101437145D01*
X145010243Y-101368600D01*
X145079099Y-101284699D01*
X145163000Y-101215843D01*
X145231545Y-101179205D01*
X145258721Y-101164679D01*
X145362585Y-101133173D01*
X145443533Y-101125200D01*
X146097667Y-101125200D01*
X146178615Y-101133173D01*
G37*
G36*
X142248615Y-101129173D02*
G01*
X142352479Y-101160679D01*
X142359962Y-101164679D01*
X142448200Y-101211843D01*
X142532101Y-101280699D01*
X142600957Y-101364600D01*
X142637595Y-101433145D01*
X142652121Y-101460321D01*
X142683627Y-101564185D01*
X142694266Y-101672200D01*
X142683627Y-101780215D01*
X142652121Y-101884079D01*
X142652119Y-101884082D01*
X142600957Y-101979800D01*
X142532101Y-102063701D01*
X142448200Y-102132557D01*
X142379655Y-102169195D01*
X142352479Y-102183721D01*
X142248615Y-102215227D01*
X142167667Y-102223200D01*
X141013533Y-102223200D01*
X140932585Y-102215227D01*
X140828721Y-102183721D01*
X140801545Y-102169195D01*
X140733000Y-102132557D01*
X140649099Y-102063701D01*
X140580243Y-101979800D01*
X140529081Y-101884082D01*
X140529079Y-101884079D01*
X140497573Y-101780215D01*
X140486934Y-101672200D01*
X140497573Y-101564185D01*
X140529079Y-101460321D01*
X140543605Y-101433145D01*
X140580243Y-101364600D01*
X140649099Y-101280699D01*
X140733000Y-101211843D01*
X140821238Y-101164679D01*
X140828721Y-101160679D01*
X140932585Y-101129173D01*
X141013533Y-101121200D01*
X142167667Y-101121200D01*
X142248615Y-101129173D01*
G37*
G36*
X142144772Y-99913649D02*
G01*
X142144774Y-99913650D01*
X142144775Y-99913650D01*
X142213203Y-99941993D01*
X142274786Y-99983142D01*
X142327158Y-100035514D01*
X142368307Y-100097097D01*
X142396650Y-100165525D01*
X142411100Y-100238167D01*
X142411100Y-100312233D01*
X142396650Y-100384875D01*
X142368307Y-100453303D01*
X142327158Y-100514886D01*
X142274786Y-100567258D01*
X142213203Y-100608407D01*
X142144775Y-100636750D01*
X142144774Y-100636750D01*
X142144772Y-100636751D01*
X142072134Y-100651200D01*
X141998066Y-100651200D01*
X141925428Y-100636751D01*
X141925426Y-100636750D01*
X141925425Y-100636750D01*
X141856997Y-100608407D01*
X141795414Y-100567258D01*
X141743042Y-100514886D01*
X141701893Y-100453303D01*
X141673550Y-100384875D01*
X141659100Y-100312233D01*
X141659100Y-100238167D01*
X141673550Y-100165525D01*
X141701893Y-100097097D01*
X141743042Y-100035514D01*
X141795414Y-99983142D01*
X141856997Y-99941993D01*
X141925425Y-99913650D01*
X141925426Y-99913650D01*
X141925428Y-99913649D01*
X141998066Y-99899200D01*
X142072134Y-99899200D01*
X142144772Y-99913649D01*
G37*
G36*
X108303952Y-97363331D02*
G01*
X108386027Y-97397328D01*
X108386029Y-97397329D01*
X108423213Y-97422175D01*
X108459895Y-97446685D01*
X108522715Y-97509505D01*
X108572072Y-97583373D01*
X108606069Y-97665448D01*
X108623400Y-97752579D01*
X108623400Y-97841421D01*
X108606069Y-97928552D01*
X108572072Y-98010627D01*
X108572071Y-98010629D01*
X108522714Y-98084496D01*
X108459896Y-98147314D01*
X108386029Y-98196671D01*
X108386028Y-98196672D01*
X108386027Y-98196672D01*
X108303952Y-98230669D01*
X108216821Y-98248000D01*
X108127979Y-98248000D01*
X108040848Y-98230669D01*
X107958773Y-98196672D01*
X107958772Y-98196672D01*
X107958771Y-98196671D01*
X107884904Y-98147314D01*
X107822086Y-98084496D01*
X107772729Y-98010629D01*
X107772728Y-98010627D01*
X107738731Y-97928552D01*
X107721400Y-97841421D01*
X107721400Y-97752579D01*
X107738731Y-97665448D01*
X107772728Y-97583373D01*
X107822085Y-97509505D01*
X107884905Y-97446685D01*
X107921587Y-97422175D01*
X107958771Y-97397329D01*
X107958773Y-97397328D01*
X108040848Y-97363331D01*
X108127979Y-97346000D01*
X108216821Y-97346000D01*
X108303952Y-97363331D01*
G37*
G36*
X108303952Y-95063331D02*
G01*
X108386027Y-95097328D01*
X108386029Y-95097329D01*
X108423213Y-95122175D01*
X108459895Y-95146685D01*
X108522715Y-95209505D01*
X108572072Y-95283373D01*
X108606069Y-95365448D01*
X108623400Y-95452579D01*
X108623400Y-95541421D01*
X108606069Y-95628552D01*
X108572072Y-95710627D01*
X108572071Y-95710629D01*
X108522714Y-95784496D01*
X108459896Y-95847314D01*
X108386029Y-95896671D01*
X108386028Y-95896672D01*
X108386027Y-95896672D01*
X108303952Y-95930669D01*
X108216821Y-95948000D01*
X108127979Y-95948000D01*
X108040848Y-95930669D01*
X107958773Y-95896672D01*
X107958772Y-95896672D01*
X107958771Y-95896671D01*
X107884904Y-95847314D01*
X107822086Y-95784496D01*
X107772729Y-95710629D01*
X107772728Y-95710627D01*
X107738731Y-95628552D01*
X107721400Y-95541421D01*
X107721400Y-95452579D01*
X107738731Y-95365448D01*
X107772728Y-95283373D01*
X107822085Y-95209505D01*
X107884905Y-95146685D01*
X107921587Y-95122175D01*
X107958771Y-95097329D01*
X107958773Y-95097328D01*
X108040848Y-95063331D01*
X108127979Y-95046000D01*
X108216821Y-95046000D01*
X108303952Y-95063331D01*
G37*
G36*
X142144772Y-94071649D02*
G01*
X142144774Y-94071650D01*
X142144775Y-94071650D01*
X142213203Y-94099993D01*
X142274786Y-94141142D01*
X142327158Y-94193514D01*
X142368307Y-94255097D01*
X142396650Y-94323525D01*
X142411100Y-94396167D01*
X142411100Y-94470233D01*
X142396650Y-94542875D01*
X142368307Y-94611303D01*
X142327158Y-94672886D01*
X142274786Y-94725258D01*
X142213203Y-94766407D01*
X142144775Y-94794750D01*
X142144774Y-94794750D01*
X142144772Y-94794751D01*
X142072134Y-94809200D01*
X141998066Y-94809200D01*
X141925428Y-94794751D01*
X141925426Y-94794750D01*
X141925425Y-94794750D01*
X141856997Y-94766407D01*
X141795414Y-94725258D01*
X141743042Y-94672886D01*
X141701893Y-94611303D01*
X141673550Y-94542875D01*
X141659100Y-94470233D01*
X141659100Y-94396167D01*
X141673550Y-94323525D01*
X141701893Y-94255097D01*
X141743042Y-94193514D01*
X141795414Y-94141142D01*
X141856997Y-94099993D01*
X141925425Y-94071650D01*
X141925426Y-94071650D01*
X141925428Y-94071649D01*
X141998066Y-94057200D01*
X142072134Y-94057200D01*
X142144772Y-94071649D01*
G37*
G36*
X146178615Y-92493173D02*
G01*
X146282479Y-92524679D01*
X146309655Y-92539205D01*
X146378200Y-92575843D01*
X146462101Y-92644699D01*
X146530957Y-92728600D01*
X146567595Y-92797145D01*
X146582121Y-92824321D01*
X146613627Y-92928185D01*
X146624266Y-93036200D01*
X146613627Y-93144215D01*
X146582121Y-93248079D01*
X146582119Y-93248082D01*
X146530957Y-93343800D01*
X146462101Y-93427701D01*
X146378200Y-93496557D01*
X146309655Y-93533195D01*
X146282479Y-93547721D01*
X146178615Y-93579227D01*
X146097667Y-93587200D01*
X145443533Y-93587200D01*
X145362585Y-93579227D01*
X145258721Y-93547721D01*
X145231545Y-93533195D01*
X145163000Y-93496557D01*
X145079099Y-93427701D01*
X145010243Y-93343800D01*
X144959081Y-93248082D01*
X144959079Y-93248079D01*
X144927573Y-93144215D01*
X144916934Y-93036200D01*
X144927573Y-92928185D01*
X144959079Y-92824321D01*
X144973605Y-92797145D01*
X145010243Y-92728600D01*
X145079099Y-92644699D01*
X145163000Y-92575843D01*
X145231545Y-92539205D01*
X145258721Y-92524679D01*
X145362585Y-92493173D01*
X145443533Y-92485200D01*
X146097667Y-92485200D01*
X146178615Y-92493173D01*
G37*
G36*
X142248615Y-92489173D02*
G01*
X142352479Y-92520679D01*
X142359962Y-92524679D01*
X142448200Y-92571843D01*
X142532101Y-92640699D01*
X142600957Y-92724600D01*
X142637595Y-92793145D01*
X142652121Y-92820321D01*
X142683627Y-92924185D01*
X142694266Y-93032200D01*
X142683627Y-93140215D01*
X142652121Y-93244079D01*
X142652119Y-93244082D01*
X142600957Y-93339800D01*
X142532101Y-93423701D01*
X142448200Y-93492557D01*
X142379655Y-93529195D01*
X142352479Y-93543721D01*
X142248615Y-93575227D01*
X142167667Y-93583200D01*
X141013533Y-93583200D01*
X140932585Y-93575227D01*
X140828721Y-93543721D01*
X140801545Y-93529195D01*
X140733000Y-93492557D01*
X140649099Y-93423701D01*
X140580243Y-93339800D01*
X140529081Y-93244082D01*
X140529079Y-93244079D01*
X140497573Y-93140215D01*
X140486934Y-93032200D01*
X140497573Y-92924185D01*
X140529079Y-92820321D01*
X140543605Y-92793145D01*
X140580243Y-92724600D01*
X140649099Y-92640699D01*
X140733000Y-92571843D01*
X140821238Y-92524679D01*
X140828721Y-92520679D01*
X140932585Y-92489173D01*
X141013533Y-92481200D01*
X142167667Y-92481200D01*
X142248615Y-92489173D01*
G37*
G36*
X145917000Y-91267800D02*
G01*
X143815000Y-91267800D01*
X143815000Y-89715800D01*
X145917000Y-89715800D01*
X145917000Y-91267800D01*
G37*
G36*
X137617000Y-91267800D02*
G01*
X135515000Y-91267800D01*
X135515000Y-89715800D01*
X137617000Y-89715800D01*
X137617000Y-91267800D01*
G37*
G36*
X143067000Y-87267800D02*
G01*
X141465000Y-87267800D01*
X141465000Y-78665800D01*
X143067000Y-78665800D01*
X143067000Y-87267800D01*
G37*
G36*
X145917000Y-77517800D02*
G01*
X143815000Y-77517800D01*
X143815000Y-75965800D01*
X145917000Y-75965800D01*
X145917000Y-77517800D01*
G37*
G36*
X137617000Y-77517800D02*
G01*
X135515000Y-77517800D01*
X135515000Y-75965800D01*
X137617000Y-75965800D01*
X137617000Y-77517800D01*
G37*
G36*
X131007400Y-72976200D02*
G01*
X130155400Y-72976200D01*
X130155400Y-70774200D01*
X131007400Y-70774200D01*
X131007400Y-72976200D01*
G37*
G36*
X133547400Y-72976200D02*
G01*
X132695400Y-72976200D01*
X132695400Y-70774200D01*
X133547400Y-70774200D01*
X133547400Y-72976200D01*
G37*
G36*
X134817400Y-72976200D02*
G01*
X133965400Y-72976200D01*
X133965400Y-70774200D01*
X134817400Y-70774200D01*
X134817400Y-72976200D01*
G37*
G36*
X129737400Y-72976200D02*
G01*
X128885400Y-72976200D01*
X128885400Y-70774200D01*
X129737400Y-70774200D01*
X129737400Y-72976200D01*
G37*
G36*
X136087400Y-72976200D02*
G01*
X135235400Y-72976200D01*
X135235400Y-70774200D01*
X136087400Y-70774200D01*
X136087400Y-72976200D01*
G37*
G36*
X137357400Y-72976200D02*
G01*
X136505400Y-72976200D01*
X136505400Y-70774200D01*
X137357400Y-70774200D01*
X137357400Y-72976200D01*
G37*
G36*
X138627400Y-72976200D02*
G01*
X137775400Y-72976200D01*
X137775400Y-70774200D01*
X138627400Y-70774200D01*
X138627400Y-72976200D01*
G37*
G36*
X139897400Y-72976200D02*
G01*
X139045400Y-72976200D01*
X139045400Y-70774200D01*
X139897400Y-70774200D01*
X139897400Y-72976200D01*
G37*
G36*
X132277400Y-72976200D02*
G01*
X131425400Y-72976200D01*
X131425400Y-70774200D01*
X132277400Y-70774200D01*
X132277400Y-72976200D01*
G37*
G36*
X127197400Y-72976200D02*
G01*
X126345400Y-72976200D01*
X126345400Y-70774200D01*
X127197400Y-70774200D01*
X127197400Y-72976200D01*
G37*
G36*
X124657400Y-72976200D02*
G01*
X123805400Y-72976200D01*
X123805400Y-70774200D01*
X124657400Y-70774200D01*
X124657400Y-72976200D01*
G37*
G36*
X123387400Y-72976200D02*
G01*
X122535400Y-72976200D01*
X122535400Y-70774200D01*
X123387400Y-70774200D01*
X123387400Y-72976200D01*
G37*
G36*
X122117400Y-72976200D02*
G01*
X121265400Y-72976200D01*
X121265400Y-70774200D01*
X122117400Y-70774200D01*
X122117400Y-72976200D01*
G37*
G36*
X120847400Y-72976200D02*
G01*
X119995400Y-72976200D01*
X119995400Y-70774200D01*
X120847400Y-70774200D01*
X120847400Y-72976200D01*
G37*
G36*
X119577400Y-72976200D02*
G01*
X118725400Y-72976200D01*
X118725400Y-70774200D01*
X119577400Y-70774200D01*
X119577400Y-72976200D01*
G37*
G36*
X118307400Y-72976200D02*
G01*
X117455400Y-72976200D01*
X117455400Y-70774200D01*
X118307400Y-70774200D01*
X118307400Y-72976200D01*
G37*
G36*
X117037400Y-72976200D02*
G01*
X116185400Y-72976200D01*
X116185400Y-70774200D01*
X117037400Y-70774200D01*
X117037400Y-72976200D01*
G37*
G36*
X128467400Y-72976200D02*
G01*
X127615400Y-72976200D01*
X127615400Y-70774200D01*
X128467400Y-70774200D01*
X128467400Y-72976200D01*
G37*
G36*
X115767400Y-72976200D02*
G01*
X114915400Y-72976200D01*
X114915400Y-70774200D01*
X115767400Y-70774200D01*
X115767400Y-72976200D01*
G37*
G36*
X125927400Y-72976200D02*
G01*
X125075400Y-72976200D01*
X125075400Y-70774200D01*
X125927400Y-70774200D01*
X125927400Y-72976200D01*
G37*
G36*
X145646680Y-67022776D02*
G01*
X146027393Y-67098504D01*
X146437049Y-67268189D01*
X146805729Y-67514534D01*
X147119266Y-67828071D01*
X147365611Y-68196751D01*
X147535296Y-68606407D01*
X147621800Y-69041296D01*
X147621800Y-69484704D01*
X147535296Y-69919593D01*
X147365611Y-70329249D01*
X147119266Y-70697929D01*
X146805729Y-71011466D01*
X146437049Y-71257811D01*
X146027393Y-71427496D01*
X145646680Y-71503224D01*
X145592505Y-71514000D01*
X145149095Y-71514000D01*
X145094920Y-71503224D01*
X144714207Y-71427496D01*
X144304551Y-71257811D01*
X143935871Y-71011466D01*
X143622334Y-70697929D01*
X143375989Y-70329249D01*
X143206304Y-69919593D01*
X143119800Y-69484704D01*
X143119800Y-69041296D01*
X143206304Y-68606407D01*
X143375989Y-68196751D01*
X143622334Y-67828071D01*
X143935871Y-67514534D01*
X144304551Y-67268189D01*
X144714207Y-67098504D01*
X145094920Y-67022776D01*
X145149095Y-67012000D01*
X145592505Y-67012000D01*
X145646680Y-67022776D01*
G37*
G36*
X109646280Y-67022776D02*
G01*
X110026993Y-67098504D01*
X110436649Y-67268189D01*
X110805329Y-67514534D01*
X111118866Y-67828071D01*
X111365211Y-68196751D01*
X111534896Y-68606407D01*
X111621400Y-69041296D01*
X111621400Y-69484704D01*
X111534896Y-69919593D01*
X111365211Y-70329249D01*
X111118866Y-70697929D01*
X110805329Y-71011466D01*
X110436649Y-71257811D01*
X110026993Y-71427496D01*
X109646280Y-71503224D01*
X109592105Y-71514000D01*
X109148695Y-71514000D01*
X109094520Y-71503224D01*
X108713807Y-71427496D01*
X108304151Y-71257811D01*
X107935471Y-71011466D01*
X107621934Y-70697929D01*
X107375589Y-70329249D01*
X107205904Y-69919593D01*
X107119400Y-69484704D01*
X107119400Y-69041296D01*
X107205904Y-68606407D01*
X107375589Y-68196751D01*
X107621934Y-67828071D01*
X107935471Y-67514534D01*
X108304151Y-67268189D01*
X108713807Y-67098504D01*
X109094520Y-67022776D01*
X109148695Y-67012000D01*
X109592105Y-67012000D01*
X109646280Y-67022776D01*
G37*
G36*
X128467400Y-69376200D02*
G01*
X127615400Y-69376200D01*
X127615400Y-67174200D01*
X128467400Y-67174200D01*
X128467400Y-69376200D01*
G37*
G36*
X125927400Y-69376200D02*
G01*
X125075400Y-69376200D01*
X125075400Y-67174200D01*
X125927400Y-67174200D01*
X125927400Y-69376200D01*
G37*
G36*
X129737400Y-69376200D02*
G01*
X128885400Y-69376200D01*
X128885400Y-67174200D01*
X129737400Y-67174200D01*
X129737400Y-69376200D01*
G37*
G36*
X124657400Y-69376200D02*
G01*
X123805400Y-69376200D01*
X123805400Y-67174200D01*
X124657400Y-67174200D01*
X124657400Y-69376200D01*
G37*
G36*
X123387400Y-69376200D02*
G01*
X122535400Y-69376200D01*
X122535400Y-67174200D01*
X123387400Y-67174200D01*
X123387400Y-69376200D01*
G37*
G36*
X122117400Y-69376200D02*
G01*
X121265400Y-69376200D01*
X121265400Y-67174200D01*
X122117400Y-67174200D01*
X122117400Y-69376200D01*
G37*
G36*
X120847400Y-69376200D02*
G01*
X119995400Y-69376200D01*
X119995400Y-67174200D01*
X120847400Y-67174200D01*
X120847400Y-69376200D01*
G37*
G36*
X119577400Y-69376200D02*
G01*
X118725400Y-69376200D01*
X118725400Y-67174200D01*
X119577400Y-67174200D01*
X119577400Y-69376200D01*
G37*
G36*
X118307400Y-69376200D02*
G01*
X117455400Y-69376200D01*
X117455400Y-67174200D01*
X118307400Y-67174200D01*
X118307400Y-69376200D01*
G37*
G36*
X117037400Y-69376200D02*
G01*
X116185400Y-69376200D01*
X116185400Y-67174200D01*
X117037400Y-67174200D01*
X117037400Y-69376200D01*
G37*
G36*
X115767400Y-69376200D02*
G01*
X114915400Y-69376200D01*
X114915400Y-67174200D01*
X115767400Y-67174200D01*
X115767400Y-69376200D01*
G37*
G36*
X134817400Y-69376200D02*
G01*
X133965400Y-69376200D01*
X133965400Y-67174200D01*
X134817400Y-67174200D01*
X134817400Y-69376200D01*
G37*
G36*
X137357400Y-69376200D02*
G01*
X136505400Y-69376200D01*
X136505400Y-67174200D01*
X137357400Y-67174200D01*
X137357400Y-69376200D01*
G37*
G36*
X133547400Y-69376200D02*
G01*
X132695400Y-69376200D01*
X132695400Y-67174200D01*
X133547400Y-67174200D01*
X133547400Y-69376200D01*
G37*
G36*
X138627400Y-69376200D02*
G01*
X137775400Y-69376200D01*
X137775400Y-67174200D01*
X138627400Y-67174200D01*
X138627400Y-69376200D01*
G37*
G36*
X132277400Y-69376200D02*
G01*
X131425400Y-69376200D01*
X131425400Y-67174200D01*
X132277400Y-67174200D01*
X132277400Y-69376200D01*
G37*
G36*
X139897400Y-69376200D02*
G01*
X139045400Y-69376200D01*
X139045400Y-67174200D01*
X139897400Y-67174200D01*
X139897400Y-69376200D01*
G37*
G36*
X131007400Y-69376200D02*
G01*
X130155400Y-69376200D01*
X130155400Y-67174200D01*
X131007400Y-67174200D01*
X131007400Y-69376200D01*
G37*
G36*
X136087400Y-69376200D02*
G01*
X135235400Y-69376200D01*
X135235400Y-67174200D01*
X136087400Y-67174200D01*
X136087400Y-69376200D01*
G37*
G36*
X127197400Y-69376200D02*
G01*
X126345400Y-69376200D01*
X126345400Y-67174200D01*
X127197400Y-67174200D01*
X127197400Y-69376200D01*
G37*
M02*
