G04 #@! TF.GenerationSoftware,KiCad,Pcbnew,(5.1.6)-1*
G04 #@! TF.CreationDate,2020-10-14T11:51:14+02:00*
G04 #@! TF.ProjectId,DynOSSAT-EDU-OBC,44796e4f-5353-4415-942d-4544552d4f42,rev?*
G04 #@! TF.SameCoordinates,Original*
G04 #@! TF.FileFunction,Other,Fab,Top*
%FSLAX46Y46*%
G04 Gerber Fmt 4.6, Leading zero omitted, Abs format (unit mm)*
G04 Created by KiCad (PCBNEW (5.1.6)-1) date 2020-10-14 11:51:14*
%MOMM*%
%LPD*%
G01*
G04 APERTURE LIST*
%ADD10C,0.150000*%
%ADD11C,0.100000*%
%ADD12C,0.120000*%
%ADD13C,0.127000*%
%ADD14C,0.075000*%
%ADD15C,0.040000*%
%ADD16C,0.060000*%
%ADD17C,0.110000*%
G04 APERTURE END LIST*
D10*
X101600000Y-63500000D02*
X152400000Y-63500000D01*
D11*
X122901900Y-99845900D02*
X122901900Y-101245900D01*
X125941900Y-101245900D02*
X122901900Y-101245900D01*
X125371900Y-99845900D02*
X125941900Y-100395900D01*
X125941900Y-100395900D02*
X125941900Y-101245900D01*
X125371900Y-99845900D02*
X122921900Y-99845900D01*
X127046800Y-99461700D02*
X127046800Y-100461700D01*
X126546800Y-99461700D02*
X127046800Y-99461700D01*
X126546800Y-100461700D02*
X126546800Y-99461700D01*
X127046800Y-100461700D02*
X126546800Y-100461700D01*
X139671400Y-67481000D02*
X139671400Y-68526000D01*
X139271400Y-67481000D02*
X139671400Y-67481000D01*
X139271400Y-68526000D02*
X139271400Y-67481000D01*
X139671400Y-72981000D02*
X139671400Y-71936000D01*
X139271400Y-72981000D02*
X139671400Y-72981000D01*
X139271400Y-71936000D02*
X139271400Y-72981000D01*
X138401400Y-67481000D02*
X138401400Y-68526000D01*
X138001400Y-67481000D02*
X138401400Y-67481000D01*
X138001400Y-68526000D02*
X138001400Y-67481000D01*
X138401400Y-72981000D02*
X138401400Y-71936000D01*
X138001400Y-72981000D02*
X138401400Y-72981000D01*
X138001400Y-71936000D02*
X138001400Y-72981000D01*
X137131400Y-67481000D02*
X137131400Y-68526000D01*
X136731400Y-67481000D02*
X137131400Y-67481000D01*
X136731400Y-68526000D02*
X136731400Y-67481000D01*
X137131400Y-72981000D02*
X137131400Y-71936000D01*
X136731400Y-72981000D02*
X137131400Y-72981000D01*
X136731400Y-71936000D02*
X136731400Y-72981000D01*
X135861400Y-67481000D02*
X135861400Y-68526000D01*
X135461400Y-67481000D02*
X135861400Y-67481000D01*
X135461400Y-68526000D02*
X135461400Y-67481000D01*
X135861400Y-72981000D02*
X135861400Y-71936000D01*
X135461400Y-72981000D02*
X135861400Y-72981000D01*
X135461400Y-71936000D02*
X135461400Y-72981000D01*
X134591400Y-67481000D02*
X134591400Y-68526000D01*
X134191400Y-67481000D02*
X134591400Y-67481000D01*
X134191400Y-68526000D02*
X134191400Y-67481000D01*
X134591400Y-72981000D02*
X134591400Y-71936000D01*
X134191400Y-72981000D02*
X134591400Y-72981000D01*
X134191400Y-71936000D02*
X134191400Y-72981000D01*
X133321400Y-67481000D02*
X133321400Y-68526000D01*
X132921400Y-67481000D02*
X133321400Y-67481000D01*
X132921400Y-68526000D02*
X132921400Y-67481000D01*
X133321400Y-72981000D02*
X133321400Y-71936000D01*
X132921400Y-72981000D02*
X133321400Y-72981000D01*
X132921400Y-71936000D02*
X132921400Y-72981000D01*
X132051400Y-67481000D02*
X132051400Y-68526000D01*
X131651400Y-67481000D02*
X132051400Y-67481000D01*
X131651400Y-68526000D02*
X131651400Y-67481000D01*
X132051400Y-72981000D02*
X132051400Y-71936000D01*
X131651400Y-72981000D02*
X132051400Y-72981000D01*
X131651400Y-71936000D02*
X131651400Y-72981000D01*
X130781400Y-67481000D02*
X130781400Y-68526000D01*
X130381400Y-67481000D02*
X130781400Y-67481000D01*
X130381400Y-68526000D02*
X130381400Y-67481000D01*
X130781400Y-72981000D02*
X130781400Y-71936000D01*
X130381400Y-72981000D02*
X130781400Y-72981000D01*
X130381400Y-71936000D02*
X130381400Y-72981000D01*
X129511400Y-67481000D02*
X129511400Y-68526000D01*
X129111400Y-67481000D02*
X129511400Y-67481000D01*
X129111400Y-68526000D02*
X129111400Y-67481000D01*
X129511400Y-72981000D02*
X129511400Y-71936000D01*
X129111400Y-72981000D02*
X129511400Y-72981000D01*
X129111400Y-71936000D02*
X129111400Y-72981000D01*
X128241400Y-67481000D02*
X128241400Y-68526000D01*
X127841400Y-67481000D02*
X128241400Y-67481000D01*
X127841400Y-68526000D02*
X127841400Y-67481000D01*
X128241400Y-72981000D02*
X128241400Y-71936000D01*
X127841400Y-72981000D02*
X128241400Y-72981000D01*
X127841400Y-71936000D02*
X127841400Y-72981000D01*
X126971400Y-67481000D02*
X126971400Y-68526000D01*
X126571400Y-67481000D02*
X126971400Y-67481000D01*
X126571400Y-68526000D02*
X126571400Y-67481000D01*
X126971400Y-72981000D02*
X126971400Y-71936000D01*
X126571400Y-72981000D02*
X126971400Y-72981000D01*
X126571400Y-71936000D02*
X126571400Y-72981000D01*
X125701400Y-67481000D02*
X125701400Y-68526000D01*
X125301400Y-67481000D02*
X125701400Y-67481000D01*
X125301400Y-68526000D02*
X125301400Y-67481000D01*
X125701400Y-72981000D02*
X125701400Y-71936000D01*
X125301400Y-72981000D02*
X125701400Y-72981000D01*
X125301400Y-71936000D02*
X125301400Y-72981000D01*
X124431400Y-67481000D02*
X124431400Y-68526000D01*
X124031400Y-67481000D02*
X124431400Y-67481000D01*
X124031400Y-68526000D02*
X124031400Y-67481000D01*
X124431400Y-72981000D02*
X124431400Y-71936000D01*
X124031400Y-72981000D02*
X124431400Y-72981000D01*
X124031400Y-71936000D02*
X124031400Y-72981000D01*
X123161400Y-67481000D02*
X123161400Y-68526000D01*
X122761400Y-67481000D02*
X123161400Y-67481000D01*
X122761400Y-68526000D02*
X122761400Y-67481000D01*
X123161400Y-72981000D02*
X123161400Y-71936000D01*
X122761400Y-72981000D02*
X123161400Y-72981000D01*
X122761400Y-71936000D02*
X122761400Y-72981000D01*
X121891400Y-67481000D02*
X121891400Y-68526000D01*
X121491400Y-67481000D02*
X121891400Y-67481000D01*
X121491400Y-68526000D02*
X121491400Y-67481000D01*
X121891400Y-72981000D02*
X121891400Y-71936000D01*
X121491400Y-72981000D02*
X121891400Y-72981000D01*
X121491400Y-71936000D02*
X121491400Y-72981000D01*
X120621400Y-67481000D02*
X120621400Y-68526000D01*
X120221400Y-67481000D02*
X120621400Y-67481000D01*
X120221400Y-68526000D02*
X120221400Y-67481000D01*
X120621400Y-72981000D02*
X120621400Y-71936000D01*
X120221400Y-72981000D02*
X120621400Y-72981000D01*
X120221400Y-71936000D02*
X120221400Y-72981000D01*
X119351400Y-67481000D02*
X119351400Y-68526000D01*
X118951400Y-67481000D02*
X119351400Y-67481000D01*
X118951400Y-68526000D02*
X118951400Y-67481000D01*
X119351400Y-72981000D02*
X119351400Y-71936000D01*
X118951400Y-72981000D02*
X119351400Y-72981000D01*
X118951400Y-71936000D02*
X118951400Y-72981000D01*
X118081400Y-67481000D02*
X118081400Y-68526000D01*
X117681400Y-67481000D02*
X118081400Y-67481000D01*
X117681400Y-68526000D02*
X117681400Y-67481000D01*
X118081400Y-72981000D02*
X118081400Y-71936000D01*
X117681400Y-72981000D02*
X118081400Y-72981000D01*
X117681400Y-71936000D02*
X117681400Y-72981000D01*
X116811400Y-67481000D02*
X116811400Y-68526000D01*
X116411400Y-67481000D02*
X116811400Y-67481000D01*
X116411400Y-68526000D02*
X116411400Y-67481000D01*
X116811400Y-72981000D02*
X116811400Y-71936000D01*
X116411400Y-72981000D02*
X116811400Y-72981000D01*
X116411400Y-71936000D02*
X116411400Y-72981000D01*
X115541400Y-67481000D02*
X115541400Y-68526000D01*
X115141400Y-67481000D02*
X115541400Y-67481000D01*
X115141400Y-68526000D02*
X115141400Y-67481000D01*
X115541400Y-72981000D02*
X115541400Y-71936000D01*
X115141400Y-72981000D02*
X115541400Y-72981000D01*
X115141400Y-71936000D02*
X115141400Y-72981000D01*
X114706400Y-68526000D02*
X140106400Y-68526000D01*
X115141400Y-71936000D02*
X114706400Y-71501000D01*
X140106400Y-71936000D02*
X115141400Y-71936000D01*
X114706400Y-71501000D02*
X114706400Y-68526000D01*
X140106400Y-68526000D02*
X140106400Y-71936000D01*
X134531200Y-103054200D02*
X136131200Y-103054200D01*
X134531200Y-103854200D02*
X134531200Y-103054200D01*
X136131200Y-103854200D02*
X134531200Y-103854200D01*
X136131200Y-103054200D02*
X136131200Y-103854200D01*
X130086000Y-103752600D02*
X128486000Y-103752600D01*
X130086000Y-102952600D02*
X130086000Y-103752600D01*
X128486000Y-102952600D02*
X130086000Y-102952600D01*
X128486000Y-103752600D02*
X128486000Y-102952600D01*
X146970800Y-90233400D02*
X147770800Y-90233400D01*
X146970800Y-88633400D02*
X146970800Y-90233400D01*
X147470800Y-88633400D02*
X146970800Y-88633400D01*
X147770800Y-88933400D02*
X147470800Y-88633400D01*
X147770800Y-90233400D02*
X147770800Y-88933400D01*
X130136800Y-98342400D02*
X128536800Y-98342400D01*
X130136800Y-97542400D02*
X130136800Y-98342400D01*
X128536800Y-97542400D02*
X130136800Y-97542400D01*
X128536800Y-98342400D02*
X128536800Y-97542400D01*
X113991200Y-88076000D02*
X113991200Y-86676000D01*
X110951200Y-86676000D02*
X113991200Y-86676000D01*
X111521200Y-88076000D02*
X110951200Y-87526000D01*
X110951200Y-87526000D02*
X110951200Y-86676000D01*
X111521200Y-88076000D02*
X113971200Y-88076000D01*
X113991200Y-84342200D02*
X113991200Y-82942200D01*
X110951200Y-82942200D02*
X113991200Y-82942200D01*
X111521200Y-84342200D02*
X110951200Y-83792200D01*
X110951200Y-83792200D02*
X110951200Y-82942200D01*
X111521200Y-84342200D02*
X113971200Y-84342200D01*
X139873800Y-99576000D02*
X139873800Y-100576000D01*
X139373800Y-99576000D02*
X139873800Y-99576000D01*
X139373800Y-100576000D02*
X139373800Y-99576000D01*
X139873800Y-100576000D02*
X139373800Y-100576000D01*
X139373800Y-95140400D02*
X139373800Y-94140400D01*
X139873800Y-95140400D02*
X139373800Y-95140400D01*
X139873800Y-94140400D02*
X139873800Y-95140400D01*
X139373800Y-94140400D02*
X139873800Y-94140400D01*
X137579100Y-98342400D02*
X135979100Y-98342400D01*
X137579100Y-97542400D02*
X137579100Y-98342400D01*
X135979100Y-97542400D02*
X137579100Y-97542400D01*
X135979100Y-98342400D02*
X135979100Y-97542400D01*
X132396000Y-101977000D02*
X133796000Y-101977000D01*
X133796000Y-98937000D02*
X133796000Y-101977000D01*
X132396000Y-99507000D02*
X132946000Y-98937000D01*
X132946000Y-98937000D02*
X133796000Y-98937000D01*
X132396000Y-99507000D02*
X132396000Y-101957000D01*
X134491977Y-75688930D02*
X133784870Y-74981823D01*
X134845530Y-75335377D02*
X134491977Y-75688930D01*
X134138423Y-74628270D02*
X134845530Y-75335377D01*
X133784870Y-74981823D02*
X134138423Y-74628270D01*
X131573023Y-77193670D02*
X132280130Y-77900777D01*
X131219470Y-77547223D02*
X131573023Y-77193670D01*
X131926577Y-78254330D02*
X131219470Y-77547223D01*
X132280130Y-77900777D02*
X131926577Y-78254330D01*
X130023623Y-78717670D02*
X130730730Y-79424777D01*
X129670070Y-79071223D02*
X130023623Y-78717670D01*
X130377177Y-79778330D02*
X129670070Y-79071223D01*
X130730730Y-79424777D02*
X130377177Y-79778330D01*
X139163530Y-92787223D02*
X138456423Y-93494330D01*
X138809977Y-92433670D02*
X139163530Y-92787223D01*
X138102870Y-93140777D02*
X138809977Y-92433670D01*
X138456423Y-93494330D02*
X138102870Y-93140777D01*
X129538977Y-90497130D02*
X128831870Y-89790023D01*
X129892530Y-90143577D02*
X129538977Y-90497130D01*
X129185423Y-89436470D02*
X129892530Y-90143577D01*
X128831870Y-89790023D02*
X129185423Y-89436470D01*
X130811023Y-77955670D02*
X131518130Y-78662777D01*
X130457470Y-78309223D02*
X130811023Y-77955670D01*
X131164577Y-79016330D02*
X130457470Y-78309223D01*
X131518130Y-78662777D02*
X131164577Y-79016330D01*
X127021400Y-87053800D02*
X127021400Y-88053800D01*
X126521400Y-87053800D02*
X127021400Y-87053800D01*
X126521400Y-88053800D02*
X126521400Y-87053800D01*
X127021400Y-88053800D02*
X126521400Y-88053800D01*
X120912000Y-89589800D02*
X121912000Y-89589800D01*
X120912000Y-90089800D02*
X120912000Y-89589800D01*
X121912000Y-90089800D02*
X120912000Y-90089800D01*
X121912000Y-89589800D02*
X121912000Y-90089800D01*
X125061600Y-90089800D02*
X124061600Y-90089800D01*
X125061600Y-89589800D02*
X125061600Y-90089800D01*
X124061600Y-89589800D02*
X125061600Y-89589800D01*
X124061600Y-90089800D02*
X124061600Y-89589800D01*
X108754800Y-88667400D02*
X107754800Y-88667400D01*
X108754800Y-88167400D02*
X108754800Y-88667400D01*
X107754800Y-88167400D02*
X108754800Y-88167400D01*
X107754800Y-88667400D02*
X107754800Y-88167400D01*
X122754200Y-94013400D02*
X122754200Y-95013400D01*
X122254200Y-94013400D02*
X122754200Y-94013400D01*
X122254200Y-95013400D02*
X122254200Y-94013400D01*
X122754200Y-95013400D02*
X122254200Y-95013400D01*
X138045000Y-103119300D02*
X138045000Y-104119300D01*
X137545000Y-103119300D02*
X138045000Y-103119300D01*
X137545000Y-104119300D02*
X137545000Y-103119300D01*
X138045000Y-104119300D02*
X137545000Y-104119300D01*
X114634200Y-87114000D02*
X114634200Y-86114000D01*
X115134200Y-87114000D02*
X114634200Y-87114000D01*
X115134200Y-86114000D02*
X115134200Y-87114000D01*
X114634200Y-86114000D02*
X115134200Y-86114000D01*
X130247200Y-93353000D02*
X130247200Y-94353000D01*
X129747200Y-93353000D02*
X130247200Y-93353000D01*
X129747200Y-94353000D02*
X129747200Y-93353000D01*
X130247200Y-94353000D02*
X129747200Y-94353000D01*
X145686400Y-82749200D02*
X144686400Y-82749200D01*
X145686400Y-82249200D02*
X145686400Y-82749200D01*
X144686400Y-82249200D02*
X145686400Y-82249200D01*
X144686400Y-82749200D02*
X144686400Y-82249200D01*
X147120800Y-86910800D02*
X147120800Y-85910800D01*
X147620800Y-86910800D02*
X147120800Y-86910800D01*
X147620800Y-85910800D02*
X147620800Y-86910800D01*
X147120800Y-85910800D02*
X147620800Y-85910800D01*
X107958000Y-73181400D02*
X108958000Y-73181400D01*
X107958000Y-73681400D02*
X107958000Y-73181400D01*
X108958000Y-73681400D02*
X107958000Y-73681400D01*
X108958000Y-73181400D02*
X108958000Y-73681400D01*
X108754800Y-89912000D02*
X107754800Y-89912000D01*
X108754800Y-89412000D02*
X108754800Y-89912000D01*
X107754800Y-89412000D02*
X108754800Y-89412000D01*
X107754800Y-89912000D02*
X107754800Y-89412000D01*
X107958000Y-80801400D02*
X108958000Y-80801400D01*
X107958000Y-81301400D02*
X107958000Y-80801400D01*
X108958000Y-81301400D02*
X107958000Y-81301400D01*
X108958000Y-80801400D02*
X108958000Y-81301400D01*
X130737800Y-94353000D02*
X130737800Y-93353000D01*
X131237800Y-94353000D02*
X130737800Y-94353000D01*
X131237800Y-93353000D02*
X131237800Y-94353000D01*
X130737800Y-93353000D02*
X131237800Y-93353000D01*
X112971200Y-81301400D02*
X111971200Y-81301400D01*
X112971200Y-80801400D02*
X112971200Y-81301400D01*
X111971200Y-80801400D02*
X112971200Y-80801400D01*
X111971200Y-81301400D02*
X111971200Y-80801400D01*
D12*
X108483400Y-93853000D02*
X109245400Y-93853000D01*
X108483400Y-93091000D02*
X108483400Y-93853000D01*
X109245400Y-100203000D02*
X109245400Y-93091000D01*
X107340400Y-100203000D02*
X109245400Y-100203000D01*
X107340400Y-100076000D02*
X107340400Y-100203000D01*
X107340400Y-93091000D02*
X107340400Y-100076000D01*
X109245400Y-93091000D02*
X107340400Y-93091000D01*
D11*
X135305200Y-99684000D02*
X138405200Y-99684000D01*
X138405200Y-99684000D02*
X138405200Y-101484000D01*
X135955200Y-101484000D02*
X138405200Y-101484000D01*
X135305200Y-99684000D02*
X135305200Y-100834000D01*
X135955200Y-101484000D02*
X135305200Y-100834000D01*
X127812200Y-99684000D02*
X130912200Y-99684000D01*
X130912200Y-99684000D02*
X130912200Y-101484000D01*
X128462200Y-101484000D02*
X130912200Y-101484000D01*
X127812200Y-99684000D02*
X127812200Y-100834000D01*
X128462200Y-101484000D02*
X127812200Y-100834000D01*
X122821000Y-85368000D02*
X125071000Y-85368000D01*
X125071000Y-85368000D02*
X125071000Y-88368000D01*
X125071000Y-88368000D02*
X122071000Y-88368000D01*
X122071000Y-88368000D02*
X122071000Y-86118000D01*
X122071000Y-86118000D02*
X122821000Y-85368000D01*
X127763400Y-94780800D02*
X127013400Y-95530800D01*
X127763400Y-92530800D02*
X127763400Y-94780800D01*
X124763400Y-92530800D02*
X127763400Y-92530800D01*
X124763400Y-95530800D02*
X124763400Y-92530800D01*
X127013400Y-95530800D02*
X124763400Y-95530800D01*
X131888429Y-76711443D02*
X132736957Y-77559971D01*
X132736957Y-77559971D02*
X134151171Y-76145757D01*
X134151171Y-76145757D02*
X133302643Y-75297229D01*
X133302643Y-75297229D02*
X131888429Y-76711443D01*
X132383404Y-77206417D02*
X133090511Y-77206417D01*
D13*
X135559800Y-78501532D02*
X142630868Y-85572600D01*
X142630868Y-85572600D02*
X135559800Y-92643668D01*
X135559800Y-92643668D02*
X128488732Y-85572600D01*
X128488732Y-85572600D02*
X135559800Y-78501532D01*
D11*
X134422363Y-79031862D02*
G75*
G03*
X134422363Y-79031862I-100000J0D01*
G01*
X133653400Y-96224600D02*
X133653400Y-93724600D01*
X133653400Y-93724600D02*
X137541000Y-93724600D01*
X137541000Y-93724600D02*
X137541000Y-96724600D01*
X137541000Y-96724600D02*
X134153400Y-96724600D01*
X133653400Y-96224600D02*
X134153400Y-96724600D01*
X132515800Y-95747600D02*
X132515800Y-94747600D01*
X133015800Y-95747600D02*
X132515800Y-95747600D01*
X133015800Y-94747600D02*
X133015800Y-95747600D01*
X132515800Y-94747600D02*
X133015800Y-94747600D01*
X141707623Y-80851270D02*
X142414730Y-81558377D01*
X141354070Y-81204823D02*
X141707623Y-80851270D01*
X142061177Y-81911930D02*
X141354070Y-81204823D01*
X142414730Y-81558377D02*
X142061177Y-81911930D01*
X142469623Y-80165470D02*
X143176730Y-80872577D01*
X142116070Y-80519023D02*
X142469623Y-80165470D01*
X142823177Y-81226130D02*
X142116070Y-80519023D01*
X143176730Y-80872577D02*
X142823177Y-81226130D01*
X144319730Y-87554823D02*
X143612623Y-88261930D01*
X143966177Y-87201270D02*
X144319730Y-87554823D01*
X143259070Y-87908377D02*
X143966177Y-87201270D01*
X143612623Y-88261930D02*
X143259070Y-87908377D01*
X143661377Y-80387930D02*
X142954270Y-79680823D01*
X144014930Y-80034377D02*
X143661377Y-80387930D01*
X143307823Y-79327270D02*
X144014930Y-80034377D01*
X142954270Y-79680823D02*
X143307823Y-79327270D01*
X109284200Y-75440600D02*
X110284200Y-76440600D01*
X106784200Y-78940600D02*
X110284200Y-78940600D01*
X110284200Y-78940600D02*
X110284200Y-75440600D01*
X110284200Y-75440600D02*
X106784200Y-75440600D01*
X106784200Y-75440600D02*
X106784200Y-78940600D01*
X110034200Y-77190600D02*
G75*
G03*
X110034200Y-77190600I-1500000J0D01*
G01*
D14*
X124374280Y-100819709D02*
X124326661Y-100795900D01*
X124279042Y-100748280D01*
X124207614Y-100676852D01*
X124159995Y-100653042D01*
X124112376Y-100653042D01*
X124136185Y-100772090D02*
X124088566Y-100748280D01*
X124040947Y-100700661D01*
X124017138Y-100605423D01*
X124017138Y-100438757D01*
X124040947Y-100343519D01*
X124088566Y-100295900D01*
X124136185Y-100272090D01*
X124231423Y-100272090D01*
X124279042Y-100295900D01*
X124326661Y-100343519D01*
X124350471Y-100438757D01*
X124350471Y-100605423D01*
X124326661Y-100700661D01*
X124279042Y-100748280D01*
X124231423Y-100772090D01*
X124136185Y-100772090D01*
X124779042Y-100438757D02*
X124779042Y-100772090D01*
X124659995Y-100248280D02*
X124540947Y-100605423D01*
X124850471Y-100605423D01*
D15*
X126909895Y-100122414D02*
X126790847Y-100205747D01*
X126909895Y-100265271D02*
X126659895Y-100265271D01*
X126659895Y-100170033D01*
X126671800Y-100146223D01*
X126683704Y-100134319D01*
X126707514Y-100122414D01*
X126743228Y-100122414D01*
X126767038Y-100134319D01*
X126778942Y-100146223D01*
X126790847Y-100170033D01*
X126790847Y-100265271D01*
X126909895Y-99884319D02*
X126909895Y-100027176D01*
X126909895Y-99955747D02*
X126659895Y-99955747D01*
X126695609Y-99979557D01*
X126719419Y-100003366D01*
X126731323Y-100027176D01*
X126659895Y-99800985D02*
X126659895Y-99646223D01*
X126755133Y-99729557D01*
X126755133Y-99693842D01*
X126767038Y-99670033D01*
X126778942Y-99658128D01*
X126802752Y-99646223D01*
X126862276Y-99646223D01*
X126886085Y-99658128D01*
X126897990Y-99670033D01*
X126909895Y-99693842D01*
X126909895Y-99765271D01*
X126897990Y-99789080D01*
X126886085Y-99800985D01*
D10*
X127073066Y-69683380D02*
X127073066Y-70397666D01*
X127025447Y-70540523D01*
X126930209Y-70635761D01*
X126787352Y-70683380D01*
X126692114Y-70683380D01*
X128073066Y-70683380D02*
X127501638Y-70683380D01*
X127787352Y-70683380D02*
X127787352Y-69683380D01*
X127692114Y-69826238D01*
X127596876Y-69921476D01*
X127501638Y-69969095D01*
D16*
X135264533Y-103597057D02*
X135245485Y-103616104D01*
X135188342Y-103635152D01*
X135150247Y-103635152D01*
X135093104Y-103616104D01*
X135055009Y-103578009D01*
X135035961Y-103539914D01*
X135016914Y-103463723D01*
X135016914Y-103406580D01*
X135035961Y-103330390D01*
X135055009Y-103292295D01*
X135093104Y-103254200D01*
X135150247Y-103235152D01*
X135188342Y-103235152D01*
X135245485Y-103254200D01*
X135264533Y-103273247D01*
X135645485Y-103635152D02*
X135416914Y-103635152D01*
X135531200Y-103635152D02*
X135531200Y-103235152D01*
X135493104Y-103292295D01*
X135455009Y-103330390D01*
X135416914Y-103349438D01*
X129219333Y-103495457D02*
X129200285Y-103514504D01*
X129143142Y-103533552D01*
X129105047Y-103533552D01*
X129047904Y-103514504D01*
X129009809Y-103476409D01*
X128990761Y-103438314D01*
X128971714Y-103362123D01*
X128971714Y-103304980D01*
X128990761Y-103228790D01*
X129009809Y-103190695D01*
X129047904Y-103152600D01*
X129105047Y-103133552D01*
X129143142Y-103133552D01*
X129200285Y-103152600D01*
X129219333Y-103171647D01*
X129352666Y-103133552D02*
X129600285Y-103133552D01*
X129466952Y-103285933D01*
X129524095Y-103285933D01*
X129562190Y-103304980D01*
X129581238Y-103324028D01*
X129600285Y-103362123D01*
X129600285Y-103457361D01*
X129581238Y-103495457D01*
X129562190Y-103514504D01*
X129524095Y-103533552D01*
X129409809Y-103533552D01*
X129371714Y-103514504D01*
X129352666Y-103495457D01*
X147551752Y-89728638D02*
X147151752Y-89728638D01*
X147151752Y-89633400D01*
X147170800Y-89576257D01*
X147208895Y-89538161D01*
X147246990Y-89519114D01*
X147323180Y-89500066D01*
X147380323Y-89500066D01*
X147456514Y-89519114D01*
X147494609Y-89538161D01*
X147532704Y-89576257D01*
X147551752Y-89633400D01*
X147551752Y-89728638D01*
X147189847Y-89347685D02*
X147170800Y-89328638D01*
X147151752Y-89290542D01*
X147151752Y-89195304D01*
X147170800Y-89157209D01*
X147189847Y-89138161D01*
X147227942Y-89119114D01*
X147266038Y-89119114D01*
X147323180Y-89138161D01*
X147551752Y-89366733D01*
X147551752Y-89119114D01*
X129244733Y-98085257D02*
X129225685Y-98104304D01*
X129168542Y-98123352D01*
X129130447Y-98123352D01*
X129073304Y-98104304D01*
X129035209Y-98066209D01*
X129016161Y-98028114D01*
X128997114Y-97951923D01*
X128997114Y-97894780D01*
X129016161Y-97818590D01*
X129035209Y-97780495D01*
X129073304Y-97742400D01*
X129130447Y-97723352D01*
X129168542Y-97723352D01*
X129225685Y-97742400D01*
X129244733Y-97761447D01*
X129587590Y-97723352D02*
X129511400Y-97723352D01*
X129473304Y-97742400D01*
X129454257Y-97761447D01*
X129416161Y-97818590D01*
X129397114Y-97894780D01*
X129397114Y-98047161D01*
X129416161Y-98085257D01*
X129435209Y-98104304D01*
X129473304Y-98123352D01*
X129549495Y-98123352D01*
X129587590Y-98104304D01*
X129606638Y-98085257D01*
X129625685Y-98047161D01*
X129625685Y-97951923D01*
X129606638Y-97913828D01*
X129587590Y-97894780D01*
X129549495Y-97875733D01*
X129473304Y-97875733D01*
X129435209Y-97894780D01*
X129416161Y-97913828D01*
X129397114Y-97951923D01*
D14*
X112423580Y-87649809D02*
X112375961Y-87626000D01*
X112328342Y-87578380D01*
X112256914Y-87506952D01*
X112209295Y-87483142D01*
X112161676Y-87483142D01*
X112185485Y-87602190D02*
X112137866Y-87578380D01*
X112090247Y-87530761D01*
X112066438Y-87435523D01*
X112066438Y-87268857D01*
X112090247Y-87173619D01*
X112137866Y-87126000D01*
X112185485Y-87102190D01*
X112280723Y-87102190D01*
X112328342Y-87126000D01*
X112375961Y-87173619D01*
X112399771Y-87268857D01*
X112399771Y-87435523D01*
X112375961Y-87530761D01*
X112328342Y-87578380D01*
X112280723Y-87602190D01*
X112185485Y-87602190D01*
X112875961Y-87602190D02*
X112590247Y-87602190D01*
X112733104Y-87602190D02*
X112733104Y-87102190D01*
X112685485Y-87173619D01*
X112637866Y-87221238D01*
X112590247Y-87245047D01*
X112423580Y-83916009D02*
X112375961Y-83892200D01*
X112328342Y-83844580D01*
X112256914Y-83773152D01*
X112209295Y-83749342D01*
X112161676Y-83749342D01*
X112185485Y-83868390D02*
X112137866Y-83844580D01*
X112090247Y-83796961D01*
X112066438Y-83701723D01*
X112066438Y-83535057D01*
X112090247Y-83439819D01*
X112137866Y-83392200D01*
X112185485Y-83368390D01*
X112280723Y-83368390D01*
X112328342Y-83392200D01*
X112375961Y-83439819D01*
X112399771Y-83535057D01*
X112399771Y-83701723D01*
X112375961Y-83796961D01*
X112328342Y-83844580D01*
X112280723Y-83868390D01*
X112185485Y-83868390D01*
X112590247Y-83416009D02*
X112614057Y-83392200D01*
X112661676Y-83368390D01*
X112780723Y-83368390D01*
X112828342Y-83392200D01*
X112852152Y-83416009D01*
X112875961Y-83463628D01*
X112875961Y-83511247D01*
X112852152Y-83582676D01*
X112566438Y-83868390D01*
X112875961Y-83868390D01*
D15*
X139736895Y-100117666D02*
X139617847Y-100201000D01*
X139736895Y-100260523D02*
X139486895Y-100260523D01*
X139486895Y-100165285D01*
X139498800Y-100141476D01*
X139510704Y-100129571D01*
X139534514Y-100117666D01*
X139570228Y-100117666D01*
X139594038Y-100129571D01*
X139605942Y-100141476D01*
X139617847Y-100165285D01*
X139617847Y-100260523D01*
X139510704Y-100022428D02*
X139498800Y-100010523D01*
X139486895Y-99986714D01*
X139486895Y-99927190D01*
X139498800Y-99903380D01*
X139510704Y-99891476D01*
X139534514Y-99879571D01*
X139558323Y-99879571D01*
X139594038Y-99891476D01*
X139736895Y-100034333D01*
X139736895Y-99879571D01*
X139736895Y-94682066D02*
X139617847Y-94765400D01*
X139736895Y-94824923D02*
X139486895Y-94824923D01*
X139486895Y-94729685D01*
X139498800Y-94705876D01*
X139510704Y-94693971D01*
X139534514Y-94682066D01*
X139570228Y-94682066D01*
X139594038Y-94693971D01*
X139605942Y-94705876D01*
X139617847Y-94729685D01*
X139617847Y-94824923D01*
X139486895Y-94598733D02*
X139486895Y-94443971D01*
X139582133Y-94527304D01*
X139582133Y-94491590D01*
X139594038Y-94467780D01*
X139605942Y-94455876D01*
X139629752Y-94443971D01*
X139689276Y-94443971D01*
X139713085Y-94455876D01*
X139724990Y-94467780D01*
X139736895Y-94491590D01*
X139736895Y-94563019D01*
X139724990Y-94586828D01*
X139713085Y-94598733D01*
D16*
X136521957Y-98085257D02*
X136502909Y-98104304D01*
X136445766Y-98123352D01*
X136407671Y-98123352D01*
X136350528Y-98104304D01*
X136312433Y-98066209D01*
X136293385Y-98028114D01*
X136274338Y-97951923D01*
X136274338Y-97894780D01*
X136293385Y-97818590D01*
X136312433Y-97780495D01*
X136350528Y-97742400D01*
X136407671Y-97723352D01*
X136445766Y-97723352D01*
X136502909Y-97742400D01*
X136521957Y-97761447D01*
X136902909Y-98123352D02*
X136674338Y-98123352D01*
X136788623Y-98123352D02*
X136788623Y-97723352D01*
X136750528Y-97780495D01*
X136712433Y-97818590D01*
X136674338Y-97837638D01*
X137036242Y-97723352D02*
X137302909Y-97723352D01*
X137131480Y-98123352D01*
D14*
X133369809Y-100504619D02*
X133346000Y-100552238D01*
X133298380Y-100599857D01*
X133226952Y-100671285D01*
X133203142Y-100718904D01*
X133203142Y-100766523D01*
X133322190Y-100742714D02*
X133298380Y-100790333D01*
X133250761Y-100837952D01*
X133155523Y-100861761D01*
X132988857Y-100861761D01*
X132893619Y-100837952D01*
X132846000Y-100790333D01*
X132822190Y-100742714D01*
X132822190Y-100647476D01*
X132846000Y-100599857D01*
X132893619Y-100552238D01*
X132988857Y-100528428D01*
X133155523Y-100528428D01*
X133250761Y-100552238D01*
X133298380Y-100599857D01*
X133322190Y-100647476D01*
X133322190Y-100742714D01*
X132822190Y-100361761D02*
X132822190Y-100052238D01*
X133012666Y-100218904D01*
X133012666Y-100147476D01*
X133036476Y-100099857D01*
X133060285Y-100076047D01*
X133107904Y-100052238D01*
X133226952Y-100052238D01*
X133274571Y-100076047D01*
X133298380Y-100099857D01*
X133322190Y-100147476D01*
X133322190Y-100290333D01*
X133298380Y-100337952D01*
X133274571Y-100361761D01*
D15*
X134222602Y-75192271D02*
X134205766Y-75192271D01*
X134172095Y-75175435D01*
X134155259Y-75158600D01*
X134138423Y-75124928D01*
X134138423Y-75091256D01*
X134146841Y-75066002D01*
X134172095Y-75023912D01*
X134197348Y-74998659D01*
X134239438Y-74973405D01*
X134264692Y-74964987D01*
X134298364Y-74964987D01*
X134332035Y-74981823D01*
X134348871Y-74998659D01*
X134365707Y-75032330D01*
X134365707Y-75049166D01*
X134475140Y-75242779D02*
X134357289Y-75360630D01*
X134500394Y-75133346D02*
X134332035Y-75217525D01*
X134441469Y-75326958D01*
X131657202Y-77757671D02*
X131640366Y-77757671D01*
X131606695Y-77740835D01*
X131589859Y-77724000D01*
X131573023Y-77690328D01*
X131573023Y-77656656D01*
X131581441Y-77631402D01*
X131606695Y-77589312D01*
X131631948Y-77564059D01*
X131674038Y-77538805D01*
X131699292Y-77530387D01*
X131732964Y-77530387D01*
X131766635Y-77547223D01*
X131783471Y-77564059D01*
X131800307Y-77597730D01*
X131800307Y-77614566D01*
X131977084Y-77757671D02*
X131892904Y-77673492D01*
X131800307Y-77749253D01*
X131817143Y-77749253D01*
X131842397Y-77757671D01*
X131884487Y-77799761D01*
X131892904Y-77825015D01*
X131892904Y-77841851D01*
X131884487Y-77867104D01*
X131842397Y-77909194D01*
X131817143Y-77917612D01*
X131800307Y-77917612D01*
X131775053Y-77909194D01*
X131732964Y-77867104D01*
X131724546Y-77841851D01*
X131724546Y-77825015D01*
X130107802Y-79281671D02*
X130090966Y-79281671D01*
X130057295Y-79264835D01*
X130040459Y-79248000D01*
X130023623Y-79214328D01*
X130023623Y-79180656D01*
X130032041Y-79155402D01*
X130057295Y-79113312D01*
X130082548Y-79088059D01*
X130124638Y-79062805D01*
X130149892Y-79054387D01*
X130183564Y-79054387D01*
X130217235Y-79071223D01*
X130234071Y-79088059D01*
X130250907Y-79121730D01*
X130250907Y-79138566D01*
X130292997Y-79298507D02*
X130284579Y-79273253D01*
X130284579Y-79256417D01*
X130292997Y-79231164D01*
X130301415Y-79222746D01*
X130326669Y-79214328D01*
X130343504Y-79214328D01*
X130368758Y-79222746D01*
X130402430Y-79256417D01*
X130410848Y-79281671D01*
X130410848Y-79298507D01*
X130402430Y-79323761D01*
X130394012Y-79332179D01*
X130368758Y-79340597D01*
X130351922Y-79340597D01*
X130326669Y-79332179D01*
X130292997Y-79298507D01*
X130267743Y-79290089D01*
X130250907Y-79290089D01*
X130225653Y-79298507D01*
X130191982Y-79332179D01*
X130183564Y-79357433D01*
X130183564Y-79374269D01*
X130191982Y-79399522D01*
X130225653Y-79433194D01*
X130250907Y-79441612D01*
X130267743Y-79441612D01*
X130292997Y-79433194D01*
X130326669Y-79399522D01*
X130335087Y-79374269D01*
X130335087Y-79357433D01*
X130326669Y-79332179D01*
X138666871Y-93056597D02*
X138666871Y-93073433D01*
X138650035Y-93107104D01*
X138633200Y-93123940D01*
X138599528Y-93140776D01*
X138565856Y-93140776D01*
X138540602Y-93132358D01*
X138498512Y-93107104D01*
X138473259Y-93081851D01*
X138448005Y-93039761D01*
X138439587Y-93014507D01*
X138439587Y-92980835D01*
X138456423Y-92947164D01*
X138473259Y-92930328D01*
X138506930Y-92913492D01*
X138523766Y-92913492D01*
X138767887Y-92989253D02*
X138801558Y-92955582D01*
X138809976Y-92930328D01*
X138809976Y-92913492D01*
X138801558Y-92871402D01*
X138776304Y-92829312D01*
X138708961Y-92761969D01*
X138683707Y-92753551D01*
X138666871Y-92753551D01*
X138641617Y-92761969D01*
X138607946Y-92795641D01*
X138599528Y-92820895D01*
X138599528Y-92837730D01*
X138607946Y-92862984D01*
X138650035Y-92905074D01*
X138675289Y-92913492D01*
X138692125Y-92913492D01*
X138717379Y-92905074D01*
X138751051Y-92871402D01*
X138759469Y-92846148D01*
X138759469Y-92829312D01*
X138751051Y-92804059D01*
X129185423Y-89916292D02*
X129168587Y-89916292D01*
X129134915Y-89899456D01*
X129118079Y-89882620D01*
X129101243Y-89848948D01*
X129101243Y-89815277D01*
X129109661Y-89790023D01*
X129134915Y-89747933D01*
X129160169Y-89722679D01*
X129202259Y-89697425D01*
X129227512Y-89689008D01*
X129261184Y-89689008D01*
X129294856Y-89705843D01*
X129311692Y-89722679D01*
X129328528Y-89756351D01*
X129328528Y-89773187D01*
X129336946Y-90101487D02*
X129235930Y-90000471D01*
X129286438Y-90050979D02*
X129463215Y-89874202D01*
X129421125Y-89882620D01*
X129387453Y-89882620D01*
X129362200Y-89874202D01*
X129623156Y-90034143D02*
X129639991Y-90050979D01*
X129648409Y-90076233D01*
X129648409Y-90093069D01*
X129639991Y-90118322D01*
X129614738Y-90160412D01*
X129572648Y-90202502D01*
X129530558Y-90227756D01*
X129505304Y-90236174D01*
X129488469Y-90236174D01*
X129463215Y-90227756D01*
X129446379Y-90210920D01*
X129437961Y-90185666D01*
X129437961Y-90168830D01*
X129446379Y-90143576D01*
X129471633Y-90101487D01*
X129513722Y-90059397D01*
X129555812Y-90034143D01*
X129581066Y-90025725D01*
X129597902Y-90025725D01*
X129623156Y-90034143D01*
X130811023Y-78435492D02*
X130794187Y-78435492D01*
X130760515Y-78418656D01*
X130743679Y-78401820D01*
X130726843Y-78368148D01*
X130726843Y-78334477D01*
X130735261Y-78309223D01*
X130760515Y-78267133D01*
X130785769Y-78241879D01*
X130827859Y-78216625D01*
X130853112Y-78208208D01*
X130886784Y-78208208D01*
X130920456Y-78225043D01*
X130937292Y-78241879D01*
X130954128Y-78275551D01*
X130954128Y-78292387D01*
X130962546Y-78620687D02*
X130861530Y-78519671D01*
X130912038Y-78570179D02*
X131088815Y-78393402D01*
X131046725Y-78401820D01*
X131013053Y-78401820D01*
X130987800Y-78393402D01*
X131130904Y-78789045D02*
X131029889Y-78688030D01*
X131080397Y-78738538D02*
X131257174Y-78561761D01*
X131215084Y-78570179D01*
X131181412Y-78570179D01*
X131156158Y-78561761D01*
X126860685Y-87714514D02*
X126872590Y-87726419D01*
X126884495Y-87762133D01*
X126884495Y-87785942D01*
X126872590Y-87821657D01*
X126848780Y-87845466D01*
X126824971Y-87857371D01*
X126777352Y-87869276D01*
X126741638Y-87869276D01*
X126694019Y-87857371D01*
X126670209Y-87845466D01*
X126646400Y-87821657D01*
X126634495Y-87785942D01*
X126634495Y-87762133D01*
X126646400Y-87726419D01*
X126658304Y-87714514D01*
X126884495Y-87476419D02*
X126884495Y-87619276D01*
X126884495Y-87547847D02*
X126634495Y-87547847D01*
X126670209Y-87571657D01*
X126694019Y-87595466D01*
X126705923Y-87619276D01*
X126658304Y-87381180D02*
X126646400Y-87369276D01*
X126634495Y-87345466D01*
X126634495Y-87285942D01*
X126646400Y-87262133D01*
X126658304Y-87250228D01*
X126682114Y-87238323D01*
X126705923Y-87238323D01*
X126741638Y-87250228D01*
X126884495Y-87393085D01*
X126884495Y-87238323D01*
X121251285Y-89929085D02*
X121239380Y-89940990D01*
X121203666Y-89952895D01*
X121179857Y-89952895D01*
X121144142Y-89940990D01*
X121120333Y-89917180D01*
X121108428Y-89893371D01*
X121096523Y-89845752D01*
X121096523Y-89810038D01*
X121108428Y-89762419D01*
X121120333Y-89738609D01*
X121144142Y-89714800D01*
X121179857Y-89702895D01*
X121203666Y-89702895D01*
X121239380Y-89714800D01*
X121251285Y-89726704D01*
X121489380Y-89952895D02*
X121346523Y-89952895D01*
X121417952Y-89952895D02*
X121417952Y-89702895D01*
X121394142Y-89738609D01*
X121370333Y-89762419D01*
X121346523Y-89774323D01*
X121572714Y-89702895D02*
X121727476Y-89702895D01*
X121644142Y-89798133D01*
X121679857Y-89798133D01*
X121703666Y-89810038D01*
X121715571Y-89821942D01*
X121727476Y-89845752D01*
X121727476Y-89905276D01*
X121715571Y-89929085D01*
X121703666Y-89940990D01*
X121679857Y-89952895D01*
X121608428Y-89952895D01*
X121584619Y-89940990D01*
X121572714Y-89929085D01*
X124400885Y-89929085D02*
X124388980Y-89940990D01*
X124353266Y-89952895D01*
X124329457Y-89952895D01*
X124293742Y-89940990D01*
X124269933Y-89917180D01*
X124258028Y-89893371D01*
X124246123Y-89845752D01*
X124246123Y-89810038D01*
X124258028Y-89762419D01*
X124269933Y-89738609D01*
X124293742Y-89714800D01*
X124329457Y-89702895D01*
X124353266Y-89702895D01*
X124388980Y-89714800D01*
X124400885Y-89726704D01*
X124638980Y-89952895D02*
X124496123Y-89952895D01*
X124567552Y-89952895D02*
X124567552Y-89702895D01*
X124543742Y-89738609D01*
X124519933Y-89762419D01*
X124496123Y-89774323D01*
X124853266Y-89786228D02*
X124853266Y-89952895D01*
X124793742Y-89690990D02*
X124734219Y-89869561D01*
X124888980Y-89869561D01*
X108094085Y-88506685D02*
X108082180Y-88518590D01*
X108046466Y-88530495D01*
X108022657Y-88530495D01*
X107986942Y-88518590D01*
X107963133Y-88494780D01*
X107951228Y-88470971D01*
X107939323Y-88423352D01*
X107939323Y-88387638D01*
X107951228Y-88340019D01*
X107963133Y-88316209D01*
X107986942Y-88292400D01*
X108022657Y-88280495D01*
X108046466Y-88280495D01*
X108082180Y-88292400D01*
X108094085Y-88304304D01*
X108332180Y-88530495D02*
X108189323Y-88530495D01*
X108260752Y-88530495D02*
X108260752Y-88280495D01*
X108236942Y-88316209D01*
X108213133Y-88340019D01*
X108189323Y-88351923D01*
X108558371Y-88280495D02*
X108439323Y-88280495D01*
X108427419Y-88399542D01*
X108439323Y-88387638D01*
X108463133Y-88375733D01*
X108522657Y-88375733D01*
X108546466Y-88387638D01*
X108558371Y-88399542D01*
X108570276Y-88423352D01*
X108570276Y-88482876D01*
X108558371Y-88506685D01*
X108546466Y-88518590D01*
X108522657Y-88530495D01*
X108463133Y-88530495D01*
X108439323Y-88518590D01*
X108427419Y-88506685D01*
X122593485Y-94674114D02*
X122605390Y-94686019D01*
X122617295Y-94721733D01*
X122617295Y-94745542D01*
X122605390Y-94781257D01*
X122581580Y-94805066D01*
X122557771Y-94816971D01*
X122510152Y-94828876D01*
X122474438Y-94828876D01*
X122426819Y-94816971D01*
X122403009Y-94805066D01*
X122379200Y-94781257D01*
X122367295Y-94745542D01*
X122367295Y-94721733D01*
X122379200Y-94686019D01*
X122391104Y-94674114D01*
X122617295Y-94436019D02*
X122617295Y-94578876D01*
X122617295Y-94507447D02*
X122367295Y-94507447D01*
X122403009Y-94531257D01*
X122426819Y-94555066D01*
X122438723Y-94578876D01*
X122367295Y-94221733D02*
X122367295Y-94269352D01*
X122379200Y-94293161D01*
X122391104Y-94305066D01*
X122426819Y-94328876D01*
X122474438Y-94340780D01*
X122569676Y-94340780D01*
X122593485Y-94328876D01*
X122605390Y-94316971D01*
X122617295Y-94293161D01*
X122617295Y-94245542D01*
X122605390Y-94221733D01*
X122593485Y-94209828D01*
X122569676Y-94197923D01*
X122510152Y-94197923D01*
X122486342Y-94209828D01*
X122474438Y-94221733D01*
X122462533Y-94245542D01*
X122462533Y-94293161D01*
X122474438Y-94316971D01*
X122486342Y-94328876D01*
X122510152Y-94340780D01*
X137908095Y-103660966D02*
X137789047Y-103744300D01*
X137908095Y-103803823D02*
X137658095Y-103803823D01*
X137658095Y-103708585D01*
X137670000Y-103684776D01*
X137681904Y-103672871D01*
X137705714Y-103660966D01*
X137741428Y-103660966D01*
X137765238Y-103672871D01*
X137777142Y-103684776D01*
X137789047Y-103708585D01*
X137789047Y-103803823D01*
X137908095Y-103422871D02*
X137908095Y-103565728D01*
X137908095Y-103494300D02*
X137658095Y-103494300D01*
X137693809Y-103518109D01*
X137717619Y-103541919D01*
X137729523Y-103565728D01*
X114997295Y-86655666D02*
X114878247Y-86739000D01*
X114997295Y-86798523D02*
X114747295Y-86798523D01*
X114747295Y-86703285D01*
X114759200Y-86679476D01*
X114771104Y-86667571D01*
X114794914Y-86655666D01*
X114830628Y-86655666D01*
X114854438Y-86667571D01*
X114866342Y-86679476D01*
X114878247Y-86703285D01*
X114878247Y-86798523D01*
X114830628Y-86441380D02*
X114997295Y-86441380D01*
X114735390Y-86500904D02*
X114913961Y-86560428D01*
X114913961Y-86405666D01*
X130110295Y-93894666D02*
X129991247Y-93978000D01*
X130110295Y-94037523D02*
X129860295Y-94037523D01*
X129860295Y-93942285D01*
X129872200Y-93918476D01*
X129884104Y-93906571D01*
X129907914Y-93894666D01*
X129943628Y-93894666D01*
X129967438Y-93906571D01*
X129979342Y-93918476D01*
X129991247Y-93942285D01*
X129991247Y-94037523D01*
X129860295Y-93668476D02*
X129860295Y-93787523D01*
X129979342Y-93799428D01*
X129967438Y-93787523D01*
X129955533Y-93763714D01*
X129955533Y-93704190D01*
X129967438Y-93680380D01*
X129979342Y-93668476D01*
X130003152Y-93656571D01*
X130062676Y-93656571D01*
X130086485Y-93668476D01*
X130098390Y-93680380D01*
X130110295Y-93704190D01*
X130110295Y-93763714D01*
X130098390Y-93787523D01*
X130086485Y-93799428D01*
X145144733Y-82612295D02*
X145061400Y-82493247D01*
X145001876Y-82612295D02*
X145001876Y-82362295D01*
X145097114Y-82362295D01*
X145120923Y-82374200D01*
X145132828Y-82386104D01*
X145144733Y-82409914D01*
X145144733Y-82445628D01*
X145132828Y-82469438D01*
X145120923Y-82481342D01*
X145097114Y-82493247D01*
X145001876Y-82493247D01*
X145359019Y-82362295D02*
X145311400Y-82362295D01*
X145287590Y-82374200D01*
X145275685Y-82386104D01*
X145251876Y-82421819D01*
X145239971Y-82469438D01*
X145239971Y-82564676D01*
X145251876Y-82588485D01*
X145263780Y-82600390D01*
X145287590Y-82612295D01*
X145335209Y-82612295D01*
X145359019Y-82600390D01*
X145370923Y-82588485D01*
X145382828Y-82564676D01*
X145382828Y-82505152D01*
X145370923Y-82481342D01*
X145359019Y-82469438D01*
X145335209Y-82457533D01*
X145287590Y-82457533D01*
X145263780Y-82469438D01*
X145251876Y-82481342D01*
X145239971Y-82505152D01*
X147483895Y-86452466D02*
X147364847Y-86535800D01*
X147483895Y-86595323D02*
X147233895Y-86595323D01*
X147233895Y-86500085D01*
X147245800Y-86476276D01*
X147257704Y-86464371D01*
X147281514Y-86452466D01*
X147317228Y-86452466D01*
X147341038Y-86464371D01*
X147352942Y-86476276D01*
X147364847Y-86500085D01*
X147364847Y-86595323D01*
X147233895Y-86369133D02*
X147233895Y-86202466D01*
X147483895Y-86309609D01*
X108416333Y-73544495D02*
X108333000Y-73425447D01*
X108273476Y-73544495D02*
X108273476Y-73294495D01*
X108368714Y-73294495D01*
X108392523Y-73306400D01*
X108404428Y-73318304D01*
X108416333Y-73342114D01*
X108416333Y-73377828D01*
X108404428Y-73401638D01*
X108392523Y-73413542D01*
X108368714Y-73425447D01*
X108273476Y-73425447D01*
X108559190Y-73401638D02*
X108535380Y-73389733D01*
X108523476Y-73377828D01*
X108511571Y-73354019D01*
X108511571Y-73342114D01*
X108523476Y-73318304D01*
X108535380Y-73306400D01*
X108559190Y-73294495D01*
X108606809Y-73294495D01*
X108630619Y-73306400D01*
X108642523Y-73318304D01*
X108654428Y-73342114D01*
X108654428Y-73354019D01*
X108642523Y-73377828D01*
X108630619Y-73389733D01*
X108606809Y-73401638D01*
X108559190Y-73401638D01*
X108535380Y-73413542D01*
X108523476Y-73425447D01*
X108511571Y-73449257D01*
X108511571Y-73496876D01*
X108523476Y-73520685D01*
X108535380Y-73532590D01*
X108559190Y-73544495D01*
X108606809Y-73544495D01*
X108630619Y-73532590D01*
X108642523Y-73520685D01*
X108654428Y-73496876D01*
X108654428Y-73449257D01*
X108642523Y-73425447D01*
X108630619Y-73413542D01*
X108606809Y-73401638D01*
X108213133Y-89775095D02*
X108129800Y-89656047D01*
X108070276Y-89775095D02*
X108070276Y-89525095D01*
X108165514Y-89525095D01*
X108189323Y-89537000D01*
X108201228Y-89548904D01*
X108213133Y-89572714D01*
X108213133Y-89608428D01*
X108201228Y-89632238D01*
X108189323Y-89644142D01*
X108165514Y-89656047D01*
X108070276Y-89656047D01*
X108332180Y-89775095D02*
X108379800Y-89775095D01*
X108403609Y-89763190D01*
X108415514Y-89751285D01*
X108439323Y-89715571D01*
X108451228Y-89667952D01*
X108451228Y-89572714D01*
X108439323Y-89548904D01*
X108427419Y-89537000D01*
X108403609Y-89525095D01*
X108355990Y-89525095D01*
X108332180Y-89537000D01*
X108320276Y-89548904D01*
X108308371Y-89572714D01*
X108308371Y-89632238D01*
X108320276Y-89656047D01*
X108332180Y-89667952D01*
X108355990Y-89679857D01*
X108403609Y-89679857D01*
X108427419Y-89667952D01*
X108439323Y-89656047D01*
X108451228Y-89632238D01*
X108297285Y-81164495D02*
X108213952Y-81045447D01*
X108154428Y-81164495D02*
X108154428Y-80914495D01*
X108249666Y-80914495D01*
X108273476Y-80926400D01*
X108285380Y-80938304D01*
X108297285Y-80962114D01*
X108297285Y-80997828D01*
X108285380Y-81021638D01*
X108273476Y-81033542D01*
X108249666Y-81045447D01*
X108154428Y-81045447D01*
X108535380Y-81164495D02*
X108392523Y-81164495D01*
X108463952Y-81164495D02*
X108463952Y-80914495D01*
X108440142Y-80950209D01*
X108416333Y-80974019D01*
X108392523Y-80985923D01*
X108690142Y-80914495D02*
X108713952Y-80914495D01*
X108737761Y-80926400D01*
X108749666Y-80938304D01*
X108761571Y-80962114D01*
X108773476Y-81009733D01*
X108773476Y-81069257D01*
X108761571Y-81116876D01*
X108749666Y-81140685D01*
X108737761Y-81152590D01*
X108713952Y-81164495D01*
X108690142Y-81164495D01*
X108666333Y-81152590D01*
X108654428Y-81140685D01*
X108642523Y-81116876D01*
X108630619Y-81069257D01*
X108630619Y-81009733D01*
X108642523Y-80962114D01*
X108654428Y-80938304D01*
X108666333Y-80926400D01*
X108690142Y-80914495D01*
X131100895Y-94013714D02*
X130981847Y-94097047D01*
X131100895Y-94156571D02*
X130850895Y-94156571D01*
X130850895Y-94061333D01*
X130862800Y-94037523D01*
X130874704Y-94025619D01*
X130898514Y-94013714D01*
X130934228Y-94013714D01*
X130958038Y-94025619D01*
X130969942Y-94037523D01*
X130981847Y-94061333D01*
X130981847Y-94156571D01*
X131100895Y-93775619D02*
X131100895Y-93918476D01*
X131100895Y-93847047D02*
X130850895Y-93847047D01*
X130886609Y-93870857D01*
X130910419Y-93894666D01*
X130922323Y-93918476D01*
X131100895Y-93537523D02*
X131100895Y-93680380D01*
X131100895Y-93608952D02*
X130850895Y-93608952D01*
X130886609Y-93632761D01*
X130910419Y-93656571D01*
X130922323Y-93680380D01*
X112310485Y-81164495D02*
X112227152Y-81045447D01*
X112167628Y-81164495D02*
X112167628Y-80914495D01*
X112262866Y-80914495D01*
X112286676Y-80926400D01*
X112298580Y-80938304D01*
X112310485Y-80962114D01*
X112310485Y-80997828D01*
X112298580Y-81021638D01*
X112286676Y-81033542D01*
X112262866Y-81045447D01*
X112167628Y-81045447D01*
X112548580Y-81164495D02*
X112405723Y-81164495D01*
X112477152Y-81164495D02*
X112477152Y-80914495D01*
X112453342Y-80950209D01*
X112429533Y-80974019D01*
X112405723Y-80985923D01*
X112643819Y-80938304D02*
X112655723Y-80926400D01*
X112679533Y-80914495D01*
X112739057Y-80914495D01*
X112762866Y-80926400D01*
X112774771Y-80938304D01*
X112786676Y-80962114D01*
X112786676Y-80985923D01*
X112774771Y-81021638D01*
X112631914Y-81164495D01*
X112786676Y-81164495D01*
D11*
X108472257Y-97701000D02*
X108500828Y-97615285D01*
X108500828Y-97472428D01*
X108472257Y-97415285D01*
X108443685Y-97386714D01*
X108386542Y-97358142D01*
X108329400Y-97358142D01*
X108272257Y-97386714D01*
X108243685Y-97415285D01*
X108215114Y-97472428D01*
X108186542Y-97586714D01*
X108157971Y-97643857D01*
X108129400Y-97672428D01*
X108072257Y-97701000D01*
X108015114Y-97701000D01*
X107957971Y-97672428D01*
X107929400Y-97643857D01*
X107900828Y-97586714D01*
X107900828Y-97443857D01*
X107929400Y-97358142D01*
X107900828Y-97158142D02*
X108500828Y-97015285D01*
X108072257Y-96901000D01*
X108500828Y-96786714D01*
X107900828Y-96643857D01*
X108500828Y-96101000D02*
X108500828Y-96443857D01*
X108500828Y-96272428D02*
X107900828Y-96272428D01*
X107986542Y-96329571D01*
X108043685Y-96386714D01*
X108072257Y-96443857D01*
D14*
X136474247Y-100310190D02*
X136474247Y-100714952D01*
X136498057Y-100762571D01*
X136521866Y-100786380D01*
X136569485Y-100810190D01*
X136664723Y-100810190D01*
X136712342Y-100786380D01*
X136736152Y-100762571D01*
X136759961Y-100714952D01*
X136759961Y-100310190D01*
X136974247Y-100357809D02*
X136998057Y-100334000D01*
X137045676Y-100310190D01*
X137164723Y-100310190D01*
X137212342Y-100334000D01*
X137236152Y-100357809D01*
X137259961Y-100405428D01*
X137259961Y-100453047D01*
X137236152Y-100524476D01*
X136950438Y-100810190D01*
X137259961Y-100810190D01*
X128981247Y-100310190D02*
X128981247Y-100714952D01*
X129005057Y-100762571D01*
X129028866Y-100786380D01*
X129076485Y-100810190D01*
X129171723Y-100810190D01*
X129219342Y-100786380D01*
X129243152Y-100762571D01*
X129266961Y-100714952D01*
X129266961Y-100310190D01*
X129457438Y-100310190D02*
X129766961Y-100310190D01*
X129600295Y-100500666D01*
X129671723Y-100500666D01*
X129719342Y-100524476D01*
X129743152Y-100548285D01*
X129766961Y-100595904D01*
X129766961Y-100714952D01*
X129743152Y-100762571D01*
X129719342Y-100786380D01*
X129671723Y-100810190D01*
X129528866Y-100810190D01*
X129481247Y-100786380D01*
X129457438Y-100762571D01*
D17*
X122999571Y-86457285D02*
X122999571Y-87064428D01*
X123035285Y-87135857D01*
X123071000Y-87171571D01*
X123142428Y-87207285D01*
X123285285Y-87207285D01*
X123356714Y-87171571D01*
X123392428Y-87135857D01*
X123428142Y-87064428D01*
X123428142Y-86457285D01*
X124142428Y-86457285D02*
X123785285Y-86457285D01*
X123749571Y-86814428D01*
X123785285Y-86778714D01*
X123856714Y-86743000D01*
X124035285Y-86743000D01*
X124106714Y-86778714D01*
X124142428Y-86814428D01*
X124178142Y-86885857D01*
X124178142Y-87064428D01*
X124142428Y-87135857D01*
X124106714Y-87171571D01*
X124035285Y-87207285D01*
X123856714Y-87207285D01*
X123785285Y-87171571D01*
X123749571Y-87135857D01*
X125691971Y-93620085D02*
X125691971Y-94227228D01*
X125727685Y-94298657D01*
X125763400Y-94334371D01*
X125834828Y-94370085D01*
X125977685Y-94370085D01*
X126049114Y-94334371D01*
X126084828Y-94298657D01*
X126120542Y-94227228D01*
X126120542Y-93620085D01*
X126406257Y-93620085D02*
X126906257Y-93620085D01*
X126584828Y-94370085D01*
D14*
X132843023Y-76588540D02*
X133011382Y-76756899D01*
X132539977Y-76521197D02*
X132843023Y-76588540D01*
X132775679Y-76285495D01*
X133432278Y-76336002D02*
X133230248Y-76538033D01*
X133331263Y-76437017D02*
X132977710Y-76083464D01*
X132994546Y-76167643D01*
X132994546Y-76234987D01*
X132977710Y-76285495D01*
D11*
X134770066Y-95757933D02*
X135336733Y-95757933D01*
X135403400Y-95724600D01*
X135436733Y-95691266D01*
X135470066Y-95624600D01*
X135470066Y-95491266D01*
X135436733Y-95424600D01*
X135403400Y-95391266D01*
X135336733Y-95357933D01*
X134770066Y-95357933D01*
X135470066Y-94657933D02*
X135470066Y-95057933D01*
X135470066Y-94857933D02*
X134770066Y-94857933D01*
X134870066Y-94924600D01*
X134936733Y-94991266D01*
X134970066Y-95057933D01*
D15*
X132855085Y-95289266D02*
X132866990Y-95301171D01*
X132878895Y-95336885D01*
X132878895Y-95360695D01*
X132866990Y-95396409D01*
X132843180Y-95420219D01*
X132819371Y-95432123D01*
X132771752Y-95444028D01*
X132736038Y-95444028D01*
X132688419Y-95432123D01*
X132664609Y-95420219D01*
X132640800Y-95396409D01*
X132628895Y-95360695D01*
X132628895Y-95336885D01*
X132640800Y-95301171D01*
X132652704Y-95289266D01*
X132652704Y-95194028D02*
X132640800Y-95182123D01*
X132628895Y-95158314D01*
X132628895Y-95098790D01*
X132640800Y-95074980D01*
X132652704Y-95063076D01*
X132676514Y-95051171D01*
X132700323Y-95051171D01*
X132736038Y-95063076D01*
X132878895Y-95205933D01*
X132878895Y-95051171D01*
X141791802Y-81415271D02*
X141774966Y-81415271D01*
X141741295Y-81398435D01*
X141724459Y-81381600D01*
X141707623Y-81347928D01*
X141707623Y-81314256D01*
X141716041Y-81289002D01*
X141741295Y-81246912D01*
X141766548Y-81221659D01*
X141808638Y-81196405D01*
X141833892Y-81187987D01*
X141867564Y-81187987D01*
X141901235Y-81204823D01*
X141918071Y-81221659D01*
X141934907Y-81255330D01*
X141934907Y-81272166D01*
X142010669Y-81314256D02*
X142128520Y-81432107D01*
X141875982Y-81533122D01*
X142469623Y-80645292D02*
X142452787Y-80645292D01*
X142419115Y-80628456D01*
X142402279Y-80611620D01*
X142385443Y-80577948D01*
X142385443Y-80544277D01*
X142393861Y-80519023D01*
X142419115Y-80476933D01*
X142444369Y-80451679D01*
X142486459Y-80426425D01*
X142511712Y-80418008D01*
X142545384Y-80418008D01*
X142579056Y-80434843D01*
X142595892Y-80451679D01*
X142612728Y-80485351D01*
X142612728Y-80502187D01*
X142621146Y-80830487D02*
X142520130Y-80729471D01*
X142570638Y-80779979D02*
X142747415Y-80603202D01*
X142705325Y-80611620D01*
X142671653Y-80611620D01*
X142646400Y-80603202D01*
X142823176Y-80830487D02*
X142814758Y-80805233D01*
X142814758Y-80788397D01*
X142823176Y-80763143D01*
X142831594Y-80754725D01*
X142856848Y-80746307D01*
X142873684Y-80746307D01*
X142898938Y-80754725D01*
X142932609Y-80788397D01*
X142941027Y-80813651D01*
X142941027Y-80830487D01*
X142932609Y-80855740D01*
X142924191Y-80864158D01*
X142898938Y-80872576D01*
X142882102Y-80872576D01*
X142856848Y-80864158D01*
X142823176Y-80830487D01*
X142797922Y-80822069D01*
X142781087Y-80822069D01*
X142755833Y-80830487D01*
X142722161Y-80864158D01*
X142713743Y-80889412D01*
X142713743Y-80906248D01*
X142722161Y-80931502D01*
X142755833Y-80965174D01*
X142781087Y-80973591D01*
X142797922Y-80973591D01*
X142823176Y-80965174D01*
X142856848Y-80931502D01*
X142865266Y-80906248D01*
X142865266Y-80889412D01*
X142856848Y-80864158D01*
X143738892Y-87908376D02*
X143738892Y-87925212D01*
X143722056Y-87958884D01*
X143705220Y-87975720D01*
X143671548Y-87992556D01*
X143637877Y-87992556D01*
X143612623Y-87984138D01*
X143570533Y-87958884D01*
X143545279Y-87933630D01*
X143520025Y-87891540D01*
X143511608Y-87866287D01*
X143511608Y-87832615D01*
X143528443Y-87798943D01*
X143545279Y-87782107D01*
X143578951Y-87765271D01*
X143595787Y-87765271D01*
X143924087Y-87756853D02*
X143823071Y-87857869D01*
X143873579Y-87807361D02*
X143696802Y-87630584D01*
X143705220Y-87672674D01*
X143705220Y-87706346D01*
X143696802Y-87731599D01*
X144008266Y-87672674D02*
X144041938Y-87639002D01*
X144050356Y-87613748D01*
X144050356Y-87596912D01*
X144041938Y-87554823D01*
X144016684Y-87512733D01*
X143949340Y-87445390D01*
X143924087Y-87436972D01*
X143907251Y-87436972D01*
X143881997Y-87445390D01*
X143848325Y-87479061D01*
X143839907Y-87504315D01*
X143839907Y-87521151D01*
X143848325Y-87546405D01*
X143890415Y-87588495D01*
X143915669Y-87596912D01*
X143932504Y-87596912D01*
X143957758Y-87588495D01*
X143991430Y-87554823D01*
X143999848Y-87529569D01*
X143999848Y-87512733D01*
X143991430Y-87487479D01*
X143307823Y-79807092D02*
X143290987Y-79807092D01*
X143257315Y-79790256D01*
X143240479Y-79773420D01*
X143223643Y-79739748D01*
X143223643Y-79706077D01*
X143232061Y-79680823D01*
X143257315Y-79638733D01*
X143282569Y-79613479D01*
X143324659Y-79588225D01*
X143349912Y-79579808D01*
X143383584Y-79579808D01*
X143417256Y-79596643D01*
X143434092Y-79613479D01*
X143450928Y-79647151D01*
X143450928Y-79663987D01*
X143518271Y-79731330D02*
X143535107Y-79731330D01*
X143560361Y-79739748D01*
X143602451Y-79781838D01*
X143610869Y-79807092D01*
X143610869Y-79823928D01*
X143602451Y-79849182D01*
X143585615Y-79866017D01*
X143551943Y-79882853D01*
X143349912Y-79882853D01*
X143459346Y-79992287D01*
X143745556Y-79924943D02*
X143762391Y-79941779D01*
X143770809Y-79967033D01*
X143770809Y-79983869D01*
X143762391Y-80009122D01*
X143737138Y-80051212D01*
X143695048Y-80093302D01*
X143652958Y-80118556D01*
X143627704Y-80126974D01*
X143610869Y-80126974D01*
X143585615Y-80118556D01*
X143568779Y-80101720D01*
X143560361Y-80076466D01*
X143560361Y-80059630D01*
X143568779Y-80034376D01*
X143594033Y-79992287D01*
X143636122Y-79950197D01*
X143678212Y-79924943D01*
X143703466Y-79916525D01*
X143720302Y-79916525D01*
X143745556Y-79924943D01*
D11*
X108760390Y-77559647D02*
X108260390Y-77559647D01*
X108260390Y-77440600D01*
X108284200Y-77369171D01*
X108331819Y-77321552D01*
X108379438Y-77297742D01*
X108474676Y-77273933D01*
X108546104Y-77273933D01*
X108641342Y-77297742D01*
X108688961Y-77321552D01*
X108736580Y-77369171D01*
X108760390Y-77440600D01*
X108760390Y-77559647D01*
X108260390Y-77107266D02*
X108260390Y-76797742D01*
X108450866Y-76964409D01*
X108450866Y-76892980D01*
X108474676Y-76845361D01*
X108498485Y-76821552D01*
X108546104Y-76797742D01*
X108665152Y-76797742D01*
X108712771Y-76821552D01*
X108736580Y-76845361D01*
X108760390Y-76892980D01*
X108760390Y-77035838D01*
X108736580Y-77083457D01*
X108712771Y-77107266D01*
D10*
X102798971Y-72915380D02*
X102798971Y-71915380D01*
X103132304Y-72629666D01*
X103465638Y-71915380D01*
X103465638Y-72915380D01*
X104084685Y-72915380D02*
X103989447Y-72867761D01*
X103941828Y-72820142D01*
X103894209Y-72724904D01*
X103894209Y-72439190D01*
X103941828Y-72343952D01*
X103989447Y-72296333D01*
X104084685Y-72248714D01*
X104227542Y-72248714D01*
X104322780Y-72296333D01*
X104370400Y-72343952D01*
X104418019Y-72439190D01*
X104418019Y-72724904D01*
X104370400Y-72820142D01*
X104322780Y-72867761D01*
X104227542Y-72915380D01*
X104084685Y-72915380D01*
X105275161Y-72248714D02*
X105275161Y-72915380D01*
X104846590Y-72248714D02*
X104846590Y-72772523D01*
X104894209Y-72867761D01*
X104989447Y-72915380D01*
X105132304Y-72915380D01*
X105227542Y-72867761D01*
X105275161Y-72820142D01*
X105751352Y-72248714D02*
X105751352Y-72915380D01*
X105751352Y-72343952D02*
X105798971Y-72296333D01*
X105894209Y-72248714D01*
X106037066Y-72248714D01*
X106132304Y-72296333D01*
X106179923Y-72391571D01*
X106179923Y-72915380D01*
X106513257Y-72248714D02*
X106894209Y-72248714D01*
X106656114Y-71915380D02*
X106656114Y-72772523D01*
X106703733Y-72867761D01*
X106798971Y-72915380D01*
X106894209Y-72915380D01*
X107227542Y-72915380D02*
X107227542Y-72248714D01*
X107227542Y-71915380D02*
X107179923Y-71963000D01*
X107227542Y-72010619D01*
X107275161Y-71963000D01*
X107227542Y-71915380D01*
X107227542Y-72010619D01*
X107703733Y-72248714D02*
X107703733Y-72915380D01*
X107703733Y-72343952D02*
X107751352Y-72296333D01*
X107846590Y-72248714D01*
X107989447Y-72248714D01*
X108084685Y-72296333D01*
X108132304Y-72391571D01*
X108132304Y-72915380D01*
X109037066Y-72248714D02*
X109037066Y-73058238D01*
X108989447Y-73153476D01*
X108941828Y-73201095D01*
X108846590Y-73248714D01*
X108703733Y-73248714D01*
X108608495Y-73201095D01*
X109037066Y-72867761D02*
X108941828Y-72915380D01*
X108751352Y-72915380D01*
X108656114Y-72867761D01*
X108608495Y-72820142D01*
X108560876Y-72724904D01*
X108560876Y-72439190D01*
X108608495Y-72343952D01*
X108656114Y-72296333D01*
X108751352Y-72248714D01*
X108941828Y-72248714D01*
X109037066Y-72296333D01*
X109513257Y-72915380D02*
X109513257Y-71915380D01*
X109513257Y-72391571D02*
X110084685Y-72391571D01*
X110084685Y-72915380D02*
X110084685Y-71915380D01*
X110703733Y-72915380D02*
X110608495Y-72867761D01*
X110560876Y-72820142D01*
X110513257Y-72724904D01*
X110513257Y-72439190D01*
X110560876Y-72343952D01*
X110608495Y-72296333D01*
X110703733Y-72248714D01*
X110846590Y-72248714D01*
X110941828Y-72296333D01*
X110989447Y-72343952D01*
X111037066Y-72439190D01*
X111037066Y-72724904D01*
X110989447Y-72820142D01*
X110941828Y-72867761D01*
X110846590Y-72915380D01*
X110703733Y-72915380D01*
X111608495Y-72915380D02*
X111513257Y-72867761D01*
X111465638Y-72772523D01*
X111465638Y-71915380D01*
X112370400Y-72867761D02*
X112275161Y-72915380D01*
X112084685Y-72915380D01*
X111989447Y-72867761D01*
X111941828Y-72772523D01*
X111941828Y-72391571D01*
X111989447Y-72296333D01*
X112084685Y-72248714D01*
X112275161Y-72248714D01*
X112370400Y-72296333D01*
X112418019Y-72391571D01*
X112418019Y-72486809D01*
X111941828Y-72582047D01*
X112608495Y-73010619D02*
X113370400Y-73010619D01*
X113608495Y-72915380D02*
X113608495Y-71915380D01*
X113989447Y-71915380D01*
X114084685Y-71963000D01*
X114132304Y-72010619D01*
X114179923Y-72105857D01*
X114179923Y-72248714D01*
X114132304Y-72343952D01*
X114084685Y-72391571D01*
X113989447Y-72439190D01*
X113608495Y-72439190D01*
X115037066Y-72915380D02*
X115037066Y-72391571D01*
X114989447Y-72296333D01*
X114894209Y-72248714D01*
X114703733Y-72248714D01*
X114608495Y-72296333D01*
X115037066Y-72867761D02*
X114941828Y-72915380D01*
X114703733Y-72915380D01*
X114608495Y-72867761D01*
X114560876Y-72772523D01*
X114560876Y-72677285D01*
X114608495Y-72582047D01*
X114703733Y-72534428D01*
X114941828Y-72534428D01*
X115037066Y-72486809D01*
X115941828Y-72915380D02*
X115941828Y-71915380D01*
X115941828Y-72867761D02*
X115846590Y-72915380D01*
X115656114Y-72915380D01*
X115560876Y-72867761D01*
X115513257Y-72820142D01*
X115465638Y-72724904D01*
X115465638Y-72439190D01*
X115513257Y-72343952D01*
X115560876Y-72296333D01*
X115656114Y-72248714D01*
X115846590Y-72248714D01*
X115941828Y-72296333D01*
X108908495Y-69715380D02*
X108908495Y-68715380D01*
X108908495Y-69191571D02*
X109479923Y-69191571D01*
X109479923Y-69715380D02*
X109479923Y-68715380D01*
X110479923Y-69715380D02*
X109908495Y-69715380D01*
X110194209Y-69715380D02*
X110194209Y-68715380D01*
X110098971Y-68858238D01*
X110003733Y-68953476D01*
X109908495Y-69001095D01*
X138799371Y-72915380D02*
X138799371Y-71915380D01*
X139132704Y-72629666D01*
X139466038Y-71915380D01*
X139466038Y-72915380D01*
X140085085Y-72915380D02*
X139989847Y-72867761D01*
X139942228Y-72820142D01*
X139894609Y-72724904D01*
X139894609Y-72439190D01*
X139942228Y-72343952D01*
X139989847Y-72296333D01*
X140085085Y-72248714D01*
X140227942Y-72248714D01*
X140323180Y-72296333D01*
X140370800Y-72343952D01*
X140418419Y-72439190D01*
X140418419Y-72724904D01*
X140370800Y-72820142D01*
X140323180Y-72867761D01*
X140227942Y-72915380D01*
X140085085Y-72915380D01*
X141275561Y-72248714D02*
X141275561Y-72915380D01*
X140846990Y-72248714D02*
X140846990Y-72772523D01*
X140894609Y-72867761D01*
X140989847Y-72915380D01*
X141132704Y-72915380D01*
X141227942Y-72867761D01*
X141275561Y-72820142D01*
X141751752Y-72248714D02*
X141751752Y-72915380D01*
X141751752Y-72343952D02*
X141799371Y-72296333D01*
X141894609Y-72248714D01*
X142037466Y-72248714D01*
X142132704Y-72296333D01*
X142180323Y-72391571D01*
X142180323Y-72915380D01*
X142513657Y-72248714D02*
X142894609Y-72248714D01*
X142656514Y-71915380D02*
X142656514Y-72772523D01*
X142704133Y-72867761D01*
X142799371Y-72915380D01*
X142894609Y-72915380D01*
X143227942Y-72915380D02*
X143227942Y-72248714D01*
X143227942Y-71915380D02*
X143180323Y-71963000D01*
X143227942Y-72010619D01*
X143275561Y-71963000D01*
X143227942Y-71915380D01*
X143227942Y-72010619D01*
X143704133Y-72248714D02*
X143704133Y-72915380D01*
X143704133Y-72343952D02*
X143751752Y-72296333D01*
X143846990Y-72248714D01*
X143989847Y-72248714D01*
X144085085Y-72296333D01*
X144132704Y-72391571D01*
X144132704Y-72915380D01*
X145037466Y-72248714D02*
X145037466Y-73058238D01*
X144989847Y-73153476D01*
X144942228Y-73201095D01*
X144846990Y-73248714D01*
X144704133Y-73248714D01*
X144608895Y-73201095D01*
X145037466Y-72867761D02*
X144942228Y-72915380D01*
X144751752Y-72915380D01*
X144656514Y-72867761D01*
X144608895Y-72820142D01*
X144561276Y-72724904D01*
X144561276Y-72439190D01*
X144608895Y-72343952D01*
X144656514Y-72296333D01*
X144751752Y-72248714D01*
X144942228Y-72248714D01*
X145037466Y-72296333D01*
X145513657Y-72915380D02*
X145513657Y-71915380D01*
X145513657Y-72391571D02*
X146085085Y-72391571D01*
X146085085Y-72915380D02*
X146085085Y-71915380D01*
X146704133Y-72915380D02*
X146608895Y-72867761D01*
X146561276Y-72820142D01*
X146513657Y-72724904D01*
X146513657Y-72439190D01*
X146561276Y-72343952D01*
X146608895Y-72296333D01*
X146704133Y-72248714D01*
X146846990Y-72248714D01*
X146942228Y-72296333D01*
X146989847Y-72343952D01*
X147037466Y-72439190D01*
X147037466Y-72724904D01*
X146989847Y-72820142D01*
X146942228Y-72867761D01*
X146846990Y-72915380D01*
X146704133Y-72915380D01*
X147608895Y-72915380D02*
X147513657Y-72867761D01*
X147466038Y-72772523D01*
X147466038Y-71915380D01*
X148370800Y-72867761D02*
X148275561Y-72915380D01*
X148085085Y-72915380D01*
X147989847Y-72867761D01*
X147942228Y-72772523D01*
X147942228Y-72391571D01*
X147989847Y-72296333D01*
X148085085Y-72248714D01*
X148275561Y-72248714D01*
X148370800Y-72296333D01*
X148418419Y-72391571D01*
X148418419Y-72486809D01*
X147942228Y-72582047D01*
X148608895Y-73010619D02*
X149370800Y-73010619D01*
X149608895Y-72915380D02*
X149608895Y-71915380D01*
X149989847Y-71915380D01*
X150085085Y-71963000D01*
X150132704Y-72010619D01*
X150180323Y-72105857D01*
X150180323Y-72248714D01*
X150132704Y-72343952D01*
X150085085Y-72391571D01*
X149989847Y-72439190D01*
X149608895Y-72439190D01*
X151037466Y-72915380D02*
X151037466Y-72391571D01*
X150989847Y-72296333D01*
X150894609Y-72248714D01*
X150704133Y-72248714D01*
X150608895Y-72296333D01*
X151037466Y-72867761D02*
X150942228Y-72915380D01*
X150704133Y-72915380D01*
X150608895Y-72867761D01*
X150561276Y-72772523D01*
X150561276Y-72677285D01*
X150608895Y-72582047D01*
X150704133Y-72534428D01*
X150942228Y-72534428D01*
X151037466Y-72486809D01*
X151942228Y-72915380D02*
X151942228Y-71915380D01*
X151942228Y-72867761D02*
X151846990Y-72915380D01*
X151656514Y-72915380D01*
X151561276Y-72867761D01*
X151513657Y-72820142D01*
X151466038Y-72724904D01*
X151466038Y-72439190D01*
X151513657Y-72343952D01*
X151561276Y-72296333D01*
X151656514Y-72248714D01*
X151846990Y-72248714D01*
X151942228Y-72296333D01*
X144908895Y-69715380D02*
X144908895Y-68715380D01*
X144908895Y-69191571D02*
X145480323Y-69191571D01*
X145480323Y-69715380D02*
X145480323Y-68715380D01*
X145908895Y-68810619D02*
X145956514Y-68763000D01*
X146051752Y-68715380D01*
X146289847Y-68715380D01*
X146385085Y-68763000D01*
X146432704Y-68810619D01*
X146480323Y-68905857D01*
X146480323Y-69001095D01*
X146432704Y-69143952D01*
X145861276Y-69715380D01*
X146480323Y-69715380D01*
X102798971Y-108912780D02*
X102798971Y-107912780D01*
X103132304Y-108627066D01*
X103465638Y-107912780D01*
X103465638Y-108912780D01*
X104084685Y-108912780D02*
X103989447Y-108865161D01*
X103941828Y-108817542D01*
X103894209Y-108722304D01*
X103894209Y-108436590D01*
X103941828Y-108341352D01*
X103989447Y-108293733D01*
X104084685Y-108246114D01*
X104227542Y-108246114D01*
X104322780Y-108293733D01*
X104370400Y-108341352D01*
X104418019Y-108436590D01*
X104418019Y-108722304D01*
X104370400Y-108817542D01*
X104322780Y-108865161D01*
X104227542Y-108912780D01*
X104084685Y-108912780D01*
X105275161Y-108246114D02*
X105275161Y-108912780D01*
X104846590Y-108246114D02*
X104846590Y-108769923D01*
X104894209Y-108865161D01*
X104989447Y-108912780D01*
X105132304Y-108912780D01*
X105227542Y-108865161D01*
X105275161Y-108817542D01*
X105751352Y-108246114D02*
X105751352Y-108912780D01*
X105751352Y-108341352D02*
X105798971Y-108293733D01*
X105894209Y-108246114D01*
X106037066Y-108246114D01*
X106132304Y-108293733D01*
X106179923Y-108388971D01*
X106179923Y-108912780D01*
X106513257Y-108246114D02*
X106894209Y-108246114D01*
X106656114Y-107912780D02*
X106656114Y-108769923D01*
X106703733Y-108865161D01*
X106798971Y-108912780D01*
X106894209Y-108912780D01*
X107227542Y-108912780D02*
X107227542Y-108246114D01*
X107227542Y-107912780D02*
X107179923Y-107960400D01*
X107227542Y-108008019D01*
X107275161Y-107960400D01*
X107227542Y-107912780D01*
X107227542Y-108008019D01*
X107703733Y-108246114D02*
X107703733Y-108912780D01*
X107703733Y-108341352D02*
X107751352Y-108293733D01*
X107846590Y-108246114D01*
X107989447Y-108246114D01*
X108084685Y-108293733D01*
X108132304Y-108388971D01*
X108132304Y-108912780D01*
X109037066Y-108246114D02*
X109037066Y-109055638D01*
X108989447Y-109150876D01*
X108941828Y-109198495D01*
X108846590Y-109246114D01*
X108703733Y-109246114D01*
X108608495Y-109198495D01*
X109037066Y-108865161D02*
X108941828Y-108912780D01*
X108751352Y-108912780D01*
X108656114Y-108865161D01*
X108608495Y-108817542D01*
X108560876Y-108722304D01*
X108560876Y-108436590D01*
X108608495Y-108341352D01*
X108656114Y-108293733D01*
X108751352Y-108246114D01*
X108941828Y-108246114D01*
X109037066Y-108293733D01*
X109513257Y-108912780D02*
X109513257Y-107912780D01*
X109513257Y-108388971D02*
X110084685Y-108388971D01*
X110084685Y-108912780D02*
X110084685Y-107912780D01*
X110703733Y-108912780D02*
X110608495Y-108865161D01*
X110560876Y-108817542D01*
X110513257Y-108722304D01*
X110513257Y-108436590D01*
X110560876Y-108341352D01*
X110608495Y-108293733D01*
X110703733Y-108246114D01*
X110846590Y-108246114D01*
X110941828Y-108293733D01*
X110989447Y-108341352D01*
X111037066Y-108436590D01*
X111037066Y-108722304D01*
X110989447Y-108817542D01*
X110941828Y-108865161D01*
X110846590Y-108912780D01*
X110703733Y-108912780D01*
X111608495Y-108912780D02*
X111513257Y-108865161D01*
X111465638Y-108769923D01*
X111465638Y-107912780D01*
X112370400Y-108865161D02*
X112275161Y-108912780D01*
X112084685Y-108912780D01*
X111989447Y-108865161D01*
X111941828Y-108769923D01*
X111941828Y-108388971D01*
X111989447Y-108293733D01*
X112084685Y-108246114D01*
X112275161Y-108246114D01*
X112370400Y-108293733D01*
X112418019Y-108388971D01*
X112418019Y-108484209D01*
X111941828Y-108579447D01*
X112608495Y-109008019D02*
X113370400Y-109008019D01*
X113608495Y-108912780D02*
X113608495Y-107912780D01*
X113989447Y-107912780D01*
X114084685Y-107960400D01*
X114132304Y-108008019D01*
X114179923Y-108103257D01*
X114179923Y-108246114D01*
X114132304Y-108341352D01*
X114084685Y-108388971D01*
X113989447Y-108436590D01*
X113608495Y-108436590D01*
X115037066Y-108912780D02*
X115037066Y-108388971D01*
X114989447Y-108293733D01*
X114894209Y-108246114D01*
X114703733Y-108246114D01*
X114608495Y-108293733D01*
X115037066Y-108865161D02*
X114941828Y-108912780D01*
X114703733Y-108912780D01*
X114608495Y-108865161D01*
X114560876Y-108769923D01*
X114560876Y-108674685D01*
X114608495Y-108579447D01*
X114703733Y-108531828D01*
X114941828Y-108531828D01*
X115037066Y-108484209D01*
X115941828Y-108912780D02*
X115941828Y-107912780D01*
X115941828Y-108865161D02*
X115846590Y-108912780D01*
X115656114Y-108912780D01*
X115560876Y-108865161D01*
X115513257Y-108817542D01*
X115465638Y-108722304D01*
X115465638Y-108436590D01*
X115513257Y-108341352D01*
X115560876Y-108293733D01*
X115656114Y-108246114D01*
X115846590Y-108246114D01*
X115941828Y-108293733D01*
X108908495Y-105712780D02*
X108908495Y-104712780D01*
X108908495Y-105188971D02*
X109479923Y-105188971D01*
X109479923Y-105712780D02*
X109479923Y-104712780D01*
X109860876Y-104712780D02*
X110479923Y-104712780D01*
X110146590Y-105093733D01*
X110289447Y-105093733D01*
X110384685Y-105141352D01*
X110432304Y-105188971D01*
X110479923Y-105284209D01*
X110479923Y-105522304D01*
X110432304Y-105617542D01*
X110384685Y-105665161D01*
X110289447Y-105712780D01*
X110003733Y-105712780D01*
X109908495Y-105665161D01*
X109860876Y-105617542D01*
X138799371Y-108912780D02*
X138799371Y-107912780D01*
X139132704Y-108627066D01*
X139466038Y-107912780D01*
X139466038Y-108912780D01*
X140085085Y-108912780D02*
X139989847Y-108865161D01*
X139942228Y-108817542D01*
X139894609Y-108722304D01*
X139894609Y-108436590D01*
X139942228Y-108341352D01*
X139989847Y-108293733D01*
X140085085Y-108246114D01*
X140227942Y-108246114D01*
X140323180Y-108293733D01*
X140370800Y-108341352D01*
X140418419Y-108436590D01*
X140418419Y-108722304D01*
X140370800Y-108817542D01*
X140323180Y-108865161D01*
X140227942Y-108912780D01*
X140085085Y-108912780D01*
X141275561Y-108246114D02*
X141275561Y-108912780D01*
X140846990Y-108246114D02*
X140846990Y-108769923D01*
X140894609Y-108865161D01*
X140989847Y-108912780D01*
X141132704Y-108912780D01*
X141227942Y-108865161D01*
X141275561Y-108817542D01*
X141751752Y-108246114D02*
X141751752Y-108912780D01*
X141751752Y-108341352D02*
X141799371Y-108293733D01*
X141894609Y-108246114D01*
X142037466Y-108246114D01*
X142132704Y-108293733D01*
X142180323Y-108388971D01*
X142180323Y-108912780D01*
X142513657Y-108246114D02*
X142894609Y-108246114D01*
X142656514Y-107912780D02*
X142656514Y-108769923D01*
X142704133Y-108865161D01*
X142799371Y-108912780D01*
X142894609Y-108912780D01*
X143227942Y-108912780D02*
X143227942Y-108246114D01*
X143227942Y-107912780D02*
X143180323Y-107960400D01*
X143227942Y-108008019D01*
X143275561Y-107960400D01*
X143227942Y-107912780D01*
X143227942Y-108008019D01*
X143704133Y-108246114D02*
X143704133Y-108912780D01*
X143704133Y-108341352D02*
X143751752Y-108293733D01*
X143846990Y-108246114D01*
X143989847Y-108246114D01*
X144085085Y-108293733D01*
X144132704Y-108388971D01*
X144132704Y-108912780D01*
X145037466Y-108246114D02*
X145037466Y-109055638D01*
X144989847Y-109150876D01*
X144942228Y-109198495D01*
X144846990Y-109246114D01*
X144704133Y-109246114D01*
X144608895Y-109198495D01*
X145037466Y-108865161D02*
X144942228Y-108912780D01*
X144751752Y-108912780D01*
X144656514Y-108865161D01*
X144608895Y-108817542D01*
X144561276Y-108722304D01*
X144561276Y-108436590D01*
X144608895Y-108341352D01*
X144656514Y-108293733D01*
X144751752Y-108246114D01*
X144942228Y-108246114D01*
X145037466Y-108293733D01*
X145513657Y-108912780D02*
X145513657Y-107912780D01*
X145513657Y-108388971D02*
X146085085Y-108388971D01*
X146085085Y-108912780D02*
X146085085Y-107912780D01*
X146704133Y-108912780D02*
X146608895Y-108865161D01*
X146561276Y-108817542D01*
X146513657Y-108722304D01*
X146513657Y-108436590D01*
X146561276Y-108341352D01*
X146608895Y-108293733D01*
X146704133Y-108246114D01*
X146846990Y-108246114D01*
X146942228Y-108293733D01*
X146989847Y-108341352D01*
X147037466Y-108436590D01*
X147037466Y-108722304D01*
X146989847Y-108817542D01*
X146942228Y-108865161D01*
X146846990Y-108912780D01*
X146704133Y-108912780D01*
X147608895Y-108912780D02*
X147513657Y-108865161D01*
X147466038Y-108769923D01*
X147466038Y-107912780D01*
X148370800Y-108865161D02*
X148275561Y-108912780D01*
X148085085Y-108912780D01*
X147989847Y-108865161D01*
X147942228Y-108769923D01*
X147942228Y-108388971D01*
X147989847Y-108293733D01*
X148085085Y-108246114D01*
X148275561Y-108246114D01*
X148370800Y-108293733D01*
X148418419Y-108388971D01*
X148418419Y-108484209D01*
X147942228Y-108579447D01*
X148608895Y-109008019D02*
X149370800Y-109008019D01*
X149608895Y-108912780D02*
X149608895Y-107912780D01*
X149989847Y-107912780D01*
X150085085Y-107960400D01*
X150132704Y-108008019D01*
X150180323Y-108103257D01*
X150180323Y-108246114D01*
X150132704Y-108341352D01*
X150085085Y-108388971D01*
X149989847Y-108436590D01*
X149608895Y-108436590D01*
X151037466Y-108912780D02*
X151037466Y-108388971D01*
X150989847Y-108293733D01*
X150894609Y-108246114D01*
X150704133Y-108246114D01*
X150608895Y-108293733D01*
X151037466Y-108865161D02*
X150942228Y-108912780D01*
X150704133Y-108912780D01*
X150608895Y-108865161D01*
X150561276Y-108769923D01*
X150561276Y-108674685D01*
X150608895Y-108579447D01*
X150704133Y-108531828D01*
X150942228Y-108531828D01*
X151037466Y-108484209D01*
X151942228Y-108912780D02*
X151942228Y-107912780D01*
X151942228Y-108865161D02*
X151846990Y-108912780D01*
X151656514Y-108912780D01*
X151561276Y-108865161D01*
X151513657Y-108817542D01*
X151466038Y-108722304D01*
X151466038Y-108436590D01*
X151513657Y-108341352D01*
X151561276Y-108293733D01*
X151656514Y-108246114D01*
X151846990Y-108246114D01*
X151942228Y-108293733D01*
X144908895Y-105712780D02*
X144908895Y-104712780D01*
X144908895Y-105188971D02*
X145480323Y-105188971D01*
X145480323Y-105712780D02*
X145480323Y-104712780D01*
X146385085Y-105046114D02*
X146385085Y-105712780D01*
X146146990Y-104665161D02*
X145908895Y-105379447D01*
X146527942Y-105379447D01*
M02*
