M48
; DRILL file {KiCad (5.1.6)-1} date 10/14/20 11:51:22
; FORMAT={3:3/ absolute / metric / suppress leading zeros}
; #@! TF.CreationDate,2020-10-14T11:51:22+02:00
; #@! TF.GenerationSoftware,Kicad,Pcbnew,(5.1.6)-1
; #@! TF.FileFunction,Plated,1,4,PTH
FMAT,2
METRIC,TZ
T1C0.300
T2C0.400
T3C0.600
T4C2.200
%
G90
G05
T1
X106934Y-86182
X108229Y-85522
X108255Y-83541
X108255Y-87503
X108737Y-80112
X109042Y-83566
X109245Y-81940
X109728Y-91694
X109753Y-88748
X110607Y-87442
X110668Y-72415
X110668Y-75463
X112471Y-87325
X112497Y-90297
X112598Y-103784
X113373Y-83248
X114008Y-79553
X114376Y-91338
X114757Y-81991
X114884Y-89764
X115341Y-68275
X115341Y-72181
X115570Y-80772
X115646Y-103784
X115824Y-92710
X115926Y-86893
X116154Y-89662
X116611Y-68275
X116611Y-72181
X117881Y-68281
X117881Y-72187
X118618Y-80772
X118694Y-103784
X118821Y-85801
X118872Y-89662
X118872Y-92710
X118872Y-94310
X119151Y-68281
X119151Y-72181
X119913Y-88036
X120421Y-68281
X120421Y-72181
X120777Y-83388
X121082Y-73914
X121336Y-88773
X121691Y-68281
X121691Y-72181
X121691Y-76048
X121742Y-103784
X122225Y-73939
X122326Y-78918
X122377Y-99543
X122758Y-93040
X122961Y-68281
X122961Y-72181
X122987Y-76505
X123114Y-97892
X123317Y-87147
X123368Y-84303
X123571Y-73965
X124171Y-86325
X124231Y-68281
X124231Y-72181
X124233Y-77392
X124397Y-103022
X124816Y-73990
X124841Y-90932
X125387Y-98641
X125425Y-93726
X125476Y-95021
X125501Y-68281
X125501Y-72181
X125501Y-77902
X126035Y-88951
X126076Y-87868
X126086Y-73990
X126162Y-94361
X126771Y-68281
X126771Y-72181
X126949Y-93675
X127330Y-73965
X127381Y-101676
X127457Y-103327
X128041Y-68275
X128041Y-72181
X128245Y-75438
X128256Y-74579
X128376Y-92375
X128473Y-90170
X128499Y-105943
X128981Y-74016
X129159Y-79654
X129311Y-68275
X129311Y-72181
X129540Y-75489
X129997Y-92397
X130073Y-80035
X130099Y-86208
X130168Y-90754
X130353Y-80747
X130566Y-75295
X130581Y-68275
X130581Y-72181
X130581Y-86665
X130861Y-76835
X131013Y-96672
X131081Y-87081
X131091Y-73782
X131191Y-75921
X131216Y-85268
X131420Y-91872
X131453Y-79742
X131521Y-87859
X131775Y-73806
X131851Y-68281
X131851Y-72181
X131978Y-75540
X132055Y-103378
X132093Y-98603
X132105Y-102387
X132207Y-87274
X132232Y-92050
X132715Y-75328
X133121Y-68281
X133121Y-72181
X133147Y-82118
X133147Y-87576
X133604Y-93828
X133731Y-89254
X134137Y-95885
X134391Y-68281
X134391Y-72181
X134391Y-89738
X134772Y-78308
X135001Y-97409
X135026Y-74447
X135128Y-76860
X135128Y-83998
X135661Y-68281
X135661Y-72181
X135785Y-78000
X136119Y-104534
X136310Y-75261
X136566Y-92618
X136576Y-89129
X136779Y-78054
X136881Y-81102
X136906Y-76733
X136931Y-68281
X136931Y-72181
X137109Y-70104
X137160Y-75260
X137541Y-81610
X137719Y-93878
X138100Y-82144
X138201Y-68281
X138201Y-72181
X138608Y-92177
X138786Y-94666
X138913Y-78638
X138989Y-83337
X139471Y-68281
X139471Y-72181
X139497Y-78207
X139548Y-87478
X139598Y-105639
X139700Y-83541
X139802Y-91491
X140132Y-87020
X140614Y-73609
X140741Y-86182
X141224Y-70079
X142037Y-95275
X142113Y-67513
X142346Y-98751
X142469Y-74066
X143129Y-97765
X143337Y-95485
X143612Y-83490
X143612Y-85598
X143815Y-78816
X144120Y-88722
X144221Y-79426
X144678Y-83642
X144704Y-86843
X145669Y-81686
X145720Y-83820
X145720Y-97307
X146329Y-90221
T2
X107720Y-69263
X108204Y-68096
X108204Y-70430
X109370Y-67613
X109370Y-70913
X110537Y-68096
X110537Y-70430
X111020Y-69263
X107720Y-105260
X108204Y-104094
X108204Y-106427
X109370Y-103610
X109370Y-106910
X110537Y-104094
X110537Y-106427
X111020Y-105260
X143721Y-69263
X144204Y-68096
X144204Y-70430
X145371Y-67613
X145371Y-70913
X146538Y-68096
X146538Y-70430
X147021Y-69263
X143721Y-105260
X144204Y-104094
X144204Y-106427
X145371Y-103610
X145371Y-106910
X146538Y-104094
X146538Y-106427
X147021Y-105260
T4
X145371Y-69263
X145371Y-105260
X109370Y-69263
X109370Y-105260
T3
G00X141041Y-93032
M15
G01X142141Y-93032
M16
G05
G00X141041Y-101672
M15
G01X142141Y-101672
M16
G05
G00X145471Y-93036
M15
G01X146071Y-93036
M16
G05
G00X145471Y-101676
M15
G01X146071Y-101676
M16
G05
T0
M30
