G04 #@! TF.GenerationSoftware,KiCad,Pcbnew,(5.1.6)-1*
G04 #@! TF.CreationDate,2020-10-14T11:51:14+02:00*
G04 #@! TF.ProjectId,DynOSSAT-EDU-OBC,44796e4f-5353-4415-942d-4544552d4f42,rev?*
G04 #@! TF.SameCoordinates,Original*
G04 #@! TF.FileFunction,Other,Fab,Bot*
%FSLAX46Y46*%
G04 Gerber Fmt 4.6, Leading zero omitted, Abs format (unit mm)*
G04 Created by KiCad (PCBNEW (5.1.6)-1) date 2020-10-14 11:51:14*
%MOMM*%
%LPD*%
G01*
G04 APERTURE LIST*
%ADD10C,0.100000*%
%ADD11C,0.150000*%
G04 APERTURE END LIST*
D10*
X139671400Y-72630200D02*
X139671400Y-71345200D01*
X139271400Y-72630200D02*
X139671400Y-72630200D01*
X139271400Y-71345200D02*
X139271400Y-72630200D01*
X139671400Y-67520200D02*
X139271400Y-67520200D01*
X139671400Y-68805200D02*
X139671400Y-67520200D01*
X139271400Y-67520200D02*
X139271400Y-68805200D01*
X138401400Y-72630200D02*
X138401400Y-71345200D01*
X138001400Y-72630200D02*
X138401400Y-72630200D01*
X138001400Y-71345200D02*
X138001400Y-72630200D01*
X138401400Y-67520200D02*
X138001400Y-67520200D01*
X138401400Y-68805200D02*
X138401400Y-67520200D01*
X138001400Y-67520200D02*
X138001400Y-68805200D01*
X137131400Y-72630200D02*
X137131400Y-71345200D01*
X136731400Y-72630200D02*
X137131400Y-72630200D01*
X136731400Y-71345200D02*
X136731400Y-72630200D01*
X137131400Y-67520200D02*
X136731400Y-67520200D01*
X137131400Y-68805200D02*
X137131400Y-67520200D01*
X136731400Y-67520200D02*
X136731400Y-68805200D01*
X135861400Y-72630200D02*
X135861400Y-71345200D01*
X135461400Y-72630200D02*
X135861400Y-72630200D01*
X135461400Y-71345200D02*
X135461400Y-72630200D01*
X135861400Y-67520200D02*
X135461400Y-67520200D01*
X135861400Y-68805200D02*
X135861400Y-67520200D01*
X135461400Y-67520200D02*
X135461400Y-68805200D01*
X134591400Y-72630200D02*
X134591400Y-71345200D01*
X134191400Y-72630200D02*
X134591400Y-72630200D01*
X134191400Y-71345200D02*
X134191400Y-72630200D01*
X134591400Y-67520200D02*
X134191400Y-67520200D01*
X134591400Y-68805200D02*
X134591400Y-67520200D01*
X134191400Y-67520200D02*
X134191400Y-68805200D01*
X133321400Y-72630200D02*
X133321400Y-71345200D01*
X132921400Y-72630200D02*
X133321400Y-72630200D01*
X132921400Y-71345200D02*
X132921400Y-72630200D01*
X133321400Y-67520200D02*
X132921400Y-67520200D01*
X133321400Y-68805200D02*
X133321400Y-67520200D01*
X132921400Y-67520200D02*
X132921400Y-68805200D01*
X132051400Y-72630200D02*
X132051400Y-71345200D01*
X131651400Y-72630200D02*
X132051400Y-72630200D01*
X131651400Y-71345200D02*
X131651400Y-72630200D01*
X132051400Y-67520200D02*
X131651400Y-67520200D01*
X132051400Y-68805200D02*
X132051400Y-67520200D01*
X131651400Y-67520200D02*
X131651400Y-68805200D01*
X130781400Y-72630200D02*
X130781400Y-71345200D01*
X130381400Y-72630200D02*
X130781400Y-72630200D01*
X130381400Y-71345200D02*
X130381400Y-72630200D01*
X130781400Y-67520200D02*
X130381400Y-67520200D01*
X130781400Y-68805200D02*
X130781400Y-67520200D01*
X130381400Y-67520200D02*
X130381400Y-68805200D01*
X129511400Y-72630200D02*
X129511400Y-71345200D01*
X129111400Y-72630200D02*
X129511400Y-72630200D01*
X129111400Y-71345200D02*
X129111400Y-72630200D01*
X129511400Y-67520200D02*
X129111400Y-67520200D01*
X129511400Y-68805200D02*
X129511400Y-67520200D01*
X129111400Y-67520200D02*
X129111400Y-68805200D01*
X128241400Y-72630200D02*
X128241400Y-71345200D01*
X127841400Y-72630200D02*
X128241400Y-72630200D01*
X127841400Y-71345200D02*
X127841400Y-72630200D01*
X128241400Y-67520200D02*
X127841400Y-67520200D01*
X128241400Y-68805200D02*
X128241400Y-67520200D01*
X127841400Y-67520200D02*
X127841400Y-68805200D01*
X126971400Y-72630200D02*
X126971400Y-71345200D01*
X126571400Y-72630200D02*
X126971400Y-72630200D01*
X126571400Y-71345200D02*
X126571400Y-72630200D01*
X126971400Y-67520200D02*
X126571400Y-67520200D01*
X126971400Y-68805200D02*
X126971400Y-67520200D01*
X126571400Y-67520200D02*
X126571400Y-68805200D01*
X125701400Y-72630200D02*
X125701400Y-71345200D01*
X125301400Y-72630200D02*
X125701400Y-72630200D01*
X125301400Y-71345200D02*
X125301400Y-72630200D01*
X125701400Y-67520200D02*
X125301400Y-67520200D01*
X125701400Y-68805200D02*
X125701400Y-67520200D01*
X125301400Y-67520200D02*
X125301400Y-68805200D01*
X124431400Y-72630200D02*
X124431400Y-71345200D01*
X124031400Y-72630200D02*
X124431400Y-72630200D01*
X124031400Y-71345200D02*
X124031400Y-72630200D01*
X124431400Y-67520200D02*
X124031400Y-67520200D01*
X124431400Y-68805200D02*
X124431400Y-67520200D01*
X124031400Y-67520200D02*
X124031400Y-68805200D01*
X123161400Y-72630200D02*
X123161400Y-71345200D01*
X122761400Y-72630200D02*
X123161400Y-72630200D01*
X122761400Y-71345200D02*
X122761400Y-72630200D01*
X123161400Y-67520200D02*
X122761400Y-67520200D01*
X123161400Y-68805200D02*
X123161400Y-67520200D01*
X122761400Y-67520200D02*
X122761400Y-68805200D01*
X121891400Y-72630200D02*
X121891400Y-71345200D01*
X121491400Y-72630200D02*
X121891400Y-72630200D01*
X121491400Y-71345200D02*
X121491400Y-72630200D01*
X121891400Y-67520200D02*
X121491400Y-67520200D01*
X121891400Y-68805200D02*
X121891400Y-67520200D01*
X121491400Y-67520200D02*
X121491400Y-68805200D01*
X120621400Y-72630200D02*
X120621400Y-71345200D01*
X120221400Y-72630200D02*
X120621400Y-72630200D01*
X120221400Y-71345200D02*
X120221400Y-72630200D01*
X120621400Y-67520200D02*
X120221400Y-67520200D01*
X120621400Y-68805200D02*
X120621400Y-67520200D01*
X120221400Y-67520200D02*
X120221400Y-68805200D01*
X119351400Y-72630200D02*
X119351400Y-71345200D01*
X118951400Y-72630200D02*
X119351400Y-72630200D01*
X118951400Y-71345200D02*
X118951400Y-72630200D01*
X119351400Y-67520200D02*
X118951400Y-67520200D01*
X119351400Y-68805200D02*
X119351400Y-67520200D01*
X118951400Y-67520200D02*
X118951400Y-68805200D01*
X118081400Y-72630200D02*
X118081400Y-71345200D01*
X117681400Y-72630200D02*
X118081400Y-72630200D01*
X117681400Y-71345200D02*
X117681400Y-72630200D01*
X118081400Y-67520200D02*
X117681400Y-67520200D01*
X118081400Y-68805200D02*
X118081400Y-67520200D01*
X117681400Y-67520200D02*
X117681400Y-68805200D01*
X116811400Y-72630200D02*
X116811400Y-71345200D01*
X116411400Y-72630200D02*
X116811400Y-72630200D01*
X116411400Y-71345200D02*
X116411400Y-72630200D01*
X116811400Y-67520200D02*
X116411400Y-67520200D01*
X116811400Y-68805200D02*
X116811400Y-67520200D01*
X116411400Y-67520200D02*
X116411400Y-68805200D01*
X115541400Y-72630200D02*
X115541400Y-71345200D01*
X115141400Y-72630200D02*
X115541400Y-72630200D01*
X115141400Y-71345200D02*
X115141400Y-72630200D01*
X115541400Y-67520200D02*
X115141400Y-67520200D01*
X115541400Y-68805200D02*
X115541400Y-67520200D01*
X115141400Y-67520200D02*
X115141400Y-68805200D01*
X140106400Y-68805200D02*
X114706400Y-68805200D01*
X140106400Y-71345200D02*
X140106400Y-68805200D01*
X115341400Y-71345200D02*
X140106400Y-71345200D01*
X114706400Y-70710200D02*
X115341400Y-71345200D01*
X114706400Y-68805200D02*
X114706400Y-70710200D01*
X132716000Y-76816800D02*
X146416000Y-76816800D01*
X146416000Y-76816800D02*
X146416000Y-90416800D01*
X146416000Y-90416800D02*
X132716000Y-90416800D01*
X132716000Y-90416800D02*
X132716000Y-76816800D01*
D11*
X142058780Y-66860914D02*
X141058780Y-66860914D01*
X141773066Y-67194247D01*
X141058780Y-67527580D01*
X142058780Y-67527580D01*
X142058780Y-68432342D02*
X141534971Y-68432342D01*
X141439733Y-68384723D01*
X141392114Y-68289485D01*
X141392114Y-68099009D01*
X141439733Y-68003771D01*
X142011161Y-68432342D02*
X142058780Y-68337104D01*
X142058780Y-68099009D01*
X142011161Y-68003771D01*
X141915923Y-67956152D01*
X141820685Y-67956152D01*
X141725447Y-68003771D01*
X141677828Y-68099009D01*
X141677828Y-68337104D01*
X141630209Y-68432342D01*
X142058780Y-68908533D02*
X141392114Y-68908533D01*
X141058780Y-68908533D02*
X141106400Y-68860914D01*
X141154019Y-68908533D01*
X141106400Y-68956152D01*
X141058780Y-68908533D01*
X141154019Y-68908533D01*
X141392114Y-69384723D02*
X142058780Y-69384723D01*
X141487352Y-69384723D02*
X141439733Y-69432342D01*
X141392114Y-69527580D01*
X141392114Y-69670438D01*
X141439733Y-69765676D01*
X141534971Y-69813295D01*
X142058780Y-69813295D01*
X141534971Y-71384723D02*
X141582590Y-71527580D01*
X141630209Y-71575200D01*
X141725447Y-71622819D01*
X141868304Y-71622819D01*
X141963542Y-71575200D01*
X142011161Y-71527580D01*
X142058780Y-71432342D01*
X142058780Y-71051390D01*
X141058780Y-71051390D01*
X141058780Y-71384723D01*
X141106400Y-71479961D01*
X141154019Y-71527580D01*
X141249257Y-71575200D01*
X141344495Y-71575200D01*
X141439733Y-71527580D01*
X141487352Y-71479961D01*
X141534971Y-71384723D01*
X141534971Y-71051390D01*
X141392114Y-72479961D02*
X142058780Y-72479961D01*
X141392114Y-72051390D02*
X141915923Y-72051390D01*
X142011161Y-72099009D01*
X142058780Y-72194247D01*
X142058780Y-72337104D01*
X142011161Y-72432342D01*
X141963542Y-72479961D01*
X142011161Y-72908533D02*
X142058780Y-73003771D01*
X142058780Y-73194247D01*
X142011161Y-73289485D01*
X141915923Y-73337104D01*
X141868304Y-73337104D01*
X141773066Y-73289485D01*
X141725447Y-73194247D01*
X141725447Y-73051390D01*
X141677828Y-72956152D01*
X141582590Y-72908533D01*
X141534971Y-72908533D01*
X141439733Y-72956152D01*
X141392114Y-73051390D01*
X141392114Y-73194247D01*
X141439733Y-73289485D01*
X127739733Y-69527580D02*
X127739733Y-70241866D01*
X127787352Y-70384723D01*
X127882590Y-70479961D01*
X128025447Y-70527580D01*
X128120685Y-70527580D01*
X127311161Y-69622819D02*
X127263542Y-69575200D01*
X127168304Y-69527580D01*
X126930209Y-69527580D01*
X126834971Y-69575200D01*
X126787352Y-69622819D01*
X126739733Y-69718057D01*
X126739733Y-69813295D01*
X126787352Y-69956152D01*
X127358780Y-70527580D01*
X126739733Y-70527580D01*
X131948380Y-78402514D02*
X130948380Y-78402514D01*
X131662666Y-78735847D01*
X130948380Y-79069180D01*
X131948380Y-79069180D01*
X131948380Y-79545371D02*
X131281714Y-79545371D01*
X130948380Y-79545371D02*
X130996000Y-79497752D01*
X131043619Y-79545371D01*
X130996000Y-79592990D01*
X130948380Y-79545371D01*
X131043619Y-79545371D01*
X131900761Y-80450133D02*
X131948380Y-80354895D01*
X131948380Y-80164419D01*
X131900761Y-80069180D01*
X131853142Y-80021561D01*
X131757904Y-79973942D01*
X131472190Y-79973942D01*
X131376952Y-80021561D01*
X131329333Y-80069180D01*
X131281714Y-80164419D01*
X131281714Y-80354895D01*
X131329333Y-80450133D01*
X131948380Y-80878704D02*
X131281714Y-80878704D01*
X131472190Y-80878704D02*
X131376952Y-80926323D01*
X131329333Y-80973942D01*
X131281714Y-81069180D01*
X131281714Y-81164419D01*
X131948380Y-81640609D02*
X131900761Y-81545371D01*
X131853142Y-81497752D01*
X131757904Y-81450133D01*
X131472190Y-81450133D01*
X131376952Y-81497752D01*
X131329333Y-81545371D01*
X131281714Y-81640609D01*
X131281714Y-81783466D01*
X131329333Y-81878704D01*
X131376952Y-81926323D01*
X131472190Y-81973942D01*
X131757904Y-81973942D01*
X131853142Y-81926323D01*
X131900761Y-81878704D01*
X131948380Y-81783466D01*
X131948380Y-81640609D01*
X132043619Y-82164419D02*
X132043619Y-82926323D01*
X131900761Y-83116800D02*
X131948380Y-83259657D01*
X131948380Y-83497752D01*
X131900761Y-83592990D01*
X131853142Y-83640609D01*
X131757904Y-83688228D01*
X131662666Y-83688228D01*
X131567428Y-83640609D01*
X131519809Y-83592990D01*
X131472190Y-83497752D01*
X131424571Y-83307276D01*
X131376952Y-83212038D01*
X131329333Y-83164419D01*
X131234095Y-83116800D01*
X131138857Y-83116800D01*
X131043619Y-83164419D01*
X130996000Y-83212038D01*
X130948380Y-83307276D01*
X130948380Y-83545371D01*
X130996000Y-83688228D01*
X131948380Y-84116800D02*
X130948380Y-84116800D01*
X130948380Y-84354895D01*
X130996000Y-84497752D01*
X131091238Y-84592990D01*
X131186476Y-84640609D01*
X131376952Y-84688228D01*
X131519809Y-84688228D01*
X131710285Y-84640609D01*
X131805523Y-84592990D01*
X131900761Y-84497752D01*
X131948380Y-84354895D01*
X131948380Y-84116800D01*
X132043619Y-84878704D02*
X132043619Y-85640609D01*
X131853142Y-86450133D02*
X131900761Y-86402514D01*
X131948380Y-86259657D01*
X131948380Y-86164419D01*
X131900761Y-86021561D01*
X131805523Y-85926323D01*
X131710285Y-85878704D01*
X131519809Y-85831085D01*
X131376952Y-85831085D01*
X131186476Y-85878704D01*
X131091238Y-85926323D01*
X130996000Y-86021561D01*
X130948380Y-86164419D01*
X130948380Y-86259657D01*
X130996000Y-86402514D01*
X131043619Y-86450133D01*
X131948380Y-87307276D02*
X131424571Y-87307276D01*
X131329333Y-87259657D01*
X131281714Y-87164419D01*
X131281714Y-86973942D01*
X131329333Y-86878704D01*
X131900761Y-87307276D02*
X131948380Y-87212038D01*
X131948380Y-86973942D01*
X131900761Y-86878704D01*
X131805523Y-86831085D01*
X131710285Y-86831085D01*
X131615047Y-86878704D01*
X131567428Y-86973942D01*
X131567428Y-87212038D01*
X131519809Y-87307276D01*
X131948380Y-87783466D02*
X131281714Y-87783466D01*
X131472190Y-87783466D02*
X131376952Y-87831085D01*
X131329333Y-87878704D01*
X131281714Y-87973942D01*
X131281714Y-88069180D01*
X131948380Y-88831085D02*
X130948380Y-88831085D01*
X131900761Y-88831085D02*
X131948380Y-88735847D01*
X131948380Y-88545371D01*
X131900761Y-88450133D01*
X131853142Y-88402514D01*
X131757904Y-88354895D01*
X131472190Y-88354895D01*
X131376952Y-88402514D01*
X131329333Y-88450133D01*
X131281714Y-88545371D01*
X131281714Y-88735847D01*
X131329333Y-88831085D01*
X139018380Y-83283466D02*
X139732666Y-83283466D01*
X139875523Y-83235847D01*
X139970761Y-83140609D01*
X140018380Y-82997752D01*
X140018380Y-82902514D01*
X139018380Y-83664419D02*
X139018380Y-84283466D01*
X139399333Y-83950133D01*
X139399333Y-84092990D01*
X139446952Y-84188228D01*
X139494571Y-84235847D01*
X139589809Y-84283466D01*
X139827904Y-84283466D01*
X139923142Y-84235847D01*
X139970761Y-84188228D01*
X140018380Y-84092990D01*
X140018380Y-83807276D01*
X139970761Y-83712038D01*
X139923142Y-83664419D01*
M02*
