G04 #@! TF.GenerationSoftware,KiCad,Pcbnew,(5.1.6)-1*
G04 #@! TF.CreationDate,2020-11-06T20:40:43+01:00*
G04 #@! TF.ProjectId,DynOSSAT-EDU-OBC,44796e4f-5353-4415-942d-4544552d4f42,rev?*
G04 #@! TF.SameCoordinates,Original*
G04 #@! TF.FileFunction,Copper,L4,Bot*
G04 #@! TF.FilePolarity,Positive*
%FSLAX46Y46*%
G04 Gerber Fmt 4.6, Leading zero omitted, Abs format (unit mm)*
G04 Created by KiCad (PCBNEW (5.1.6)-1) date 2020-11-06 20:40:43*
%MOMM*%
%LPD*%
G01*
G04 APERTURE LIST*
G04 #@! TA.AperFunction,SMDPad,CuDef*
%ADD10R,0.750000X2.100000*%
G04 #@! TD*
G04 #@! TA.AperFunction,SMDPad,CuDef*
%ADD11R,2.000000X1.450000*%
G04 #@! TD*
G04 #@! TA.AperFunction,SMDPad,CuDef*
%ADD12R,1.500000X0.800000*%
G04 #@! TD*
G04 #@! TA.AperFunction,ComponentPad*
%ADD13O,2.100000X1.000000*%
G04 #@! TD*
G04 #@! TA.AperFunction,ComponentPad*
%ADD14O,1.600000X1.000000*%
G04 #@! TD*
G04 #@! TA.AperFunction,ComponentPad*
%ADD15C,4.400000*%
G04 #@! TD*
G04 #@! TA.AperFunction,ComponentPad*
%ADD16C,0.700000*%
G04 #@! TD*
G04 #@! TA.AperFunction,ViaPad*
%ADD17C,0.450000*%
G04 #@! TD*
G04 #@! TA.AperFunction,Conductor*
%ADD18C,0.200000*%
G04 #@! TD*
G04 #@! TA.AperFunction,Conductor*
%ADD19C,0.250000*%
G04 #@! TD*
G04 #@! TA.AperFunction,Conductor*
%ADD20C,0.500000*%
G04 #@! TD*
G04 #@! TA.AperFunction,Conductor*
%ADD21C,0.300000*%
G04 #@! TD*
G04 #@! TA.AperFunction,Conductor*
%ADD22C,0.254000*%
G04 #@! TD*
G04 APERTURE END LIST*
D10*
X139471400Y-68275200D03*
X139471400Y-71875200D03*
X138201400Y-68275200D03*
X138201400Y-71875200D03*
X136931400Y-68275200D03*
X136931400Y-71875200D03*
X135661400Y-68275200D03*
X135661400Y-71875200D03*
X134391400Y-68275200D03*
X134391400Y-71875200D03*
X133121400Y-68275200D03*
X133121400Y-71875200D03*
X131851400Y-68275200D03*
X131851400Y-71875200D03*
X130581400Y-68275200D03*
X130581400Y-71875200D03*
X129311400Y-68275200D03*
X129311400Y-71875200D03*
X128041400Y-68275200D03*
X128041400Y-71875200D03*
X126771400Y-68275200D03*
X126771400Y-71875200D03*
X125501400Y-68275200D03*
X125501400Y-71875200D03*
X124231400Y-68275200D03*
X124231400Y-71875200D03*
X122961400Y-68275200D03*
X122961400Y-71875200D03*
X121691400Y-68275200D03*
X121691400Y-71875200D03*
X120421400Y-68275200D03*
X120421400Y-71875200D03*
X119151400Y-68275200D03*
X119151400Y-71875200D03*
X117881400Y-68275200D03*
X117881400Y-71875200D03*
X116611400Y-68275200D03*
X116611400Y-71875200D03*
X115341400Y-68275200D03*
X115341400Y-71875200D03*
D11*
X144866000Y-76741800D03*
X144866000Y-90491800D03*
X136566000Y-90491800D03*
X136566000Y-76741800D03*
D12*
X142266000Y-79116800D03*
X142266000Y-80216800D03*
X142266000Y-81316800D03*
X142266000Y-82416800D03*
X142266000Y-83516800D03*
X142266000Y-84616800D03*
X142266000Y-85716800D03*
X142266000Y-86816800D03*
D13*
X141590600Y-101672200D03*
D14*
X145770600Y-93036200D03*
D13*
X141590600Y-93032200D03*
D14*
X145770600Y-101676200D03*
D15*
X109370400Y-69263000D03*
D16*
X111020400Y-69263000D03*
X110537126Y-70429726D03*
X109370400Y-70913000D03*
X108203674Y-70429726D03*
X107720400Y-69263000D03*
X108203674Y-68096274D03*
X109370400Y-67613000D03*
X110537126Y-68096274D03*
X146537526Y-68096274D03*
X145370800Y-67613000D03*
X144204074Y-68096274D03*
X143720800Y-69263000D03*
X144204074Y-70429726D03*
X145370800Y-70913000D03*
X146537526Y-70429726D03*
X147020800Y-69263000D03*
D15*
X145370800Y-69263000D03*
X109370400Y-105260400D03*
D16*
X111020400Y-105260400D03*
X110537126Y-106427126D03*
X109370400Y-106910400D03*
X108203674Y-106427126D03*
X107720400Y-105260400D03*
X108203674Y-104093674D03*
X109370400Y-103610400D03*
X110537126Y-104093674D03*
X146537526Y-104093674D03*
X145370800Y-103610400D03*
X144204074Y-104093674D03*
X143720800Y-105260400D03*
X144204074Y-106427126D03*
X145370800Y-106910400D03*
X146537526Y-106427126D03*
X147020800Y-105260400D03*
D15*
X145370800Y-105260400D03*
D17*
X108229400Y-85521800D03*
X122326400Y-78917800D03*
X118821200Y-85801200D03*
X119913400Y-88036400D03*
X114376200Y-91338400D03*
X118872000Y-94310200D03*
X131216400Y-85267800D03*
X142468600Y-74066400D03*
X114757200Y-81991200D03*
X132054600Y-103378000D03*
X139471400Y-72181000D03*
X134391400Y-68281000D03*
X119151400Y-68281000D03*
X109728000Y-91694000D03*
X110667800Y-75463400D03*
X110667800Y-72415400D03*
X114007900Y-79552800D03*
X112598200Y-103784400D03*
X115646200Y-103784400D03*
X118694200Y-103784400D03*
X121742200Y-103784400D03*
X139598400Y-105638600D03*
X138785600Y-94665800D03*
X124171000Y-86325000D03*
X124841000Y-90932000D03*
X120777000Y-83388200D03*
X109042200Y-83566000D03*
X145719800Y-83820000D03*
X123317000Y-87147400D03*
X128041400Y-72181000D03*
X136906000Y-76733400D03*
X130860800Y-76835000D03*
X133146800Y-82118200D03*
X131521200Y-87858600D03*
X130167994Y-90753653D03*
X128375900Y-92375498D03*
X139700000Y-83540600D03*
X122758200Y-93040200D03*
X125425200Y-93726000D03*
X140741400Y-86182200D03*
X144703800Y-86842600D03*
X136575800Y-89128600D03*
X136566032Y-92618168D03*
X138607800Y-92176600D03*
X142113000Y-67513200D03*
X135128000Y-76860402D03*
X144221200Y-79425800D03*
X108254800Y-87503000D03*
X109753400Y-88747600D03*
X136931400Y-68281000D03*
X131013200Y-96672400D03*
X144678400Y-83642200D03*
X137109200Y-70104000D03*
X141224000Y-70078600D03*
X117881400Y-68281000D03*
X131453400Y-79742381D03*
X128244600Y-75438000D03*
X120421400Y-68281000D03*
X121081800Y-73914000D03*
X121691400Y-68281000D03*
X122224800Y-73939388D03*
X122961400Y-68281000D03*
X123571000Y-73964800D03*
X138201400Y-72181000D03*
X124231400Y-68281000D03*
X124815600Y-73990200D03*
X125501400Y-68281000D03*
X126085600Y-73990200D03*
X126771400Y-72181000D03*
X130581400Y-86664800D03*
X126771400Y-68281000D03*
X127330200Y-73964800D03*
X120421400Y-72181000D03*
X134391400Y-89738200D03*
X121691400Y-72181000D03*
X133731000Y-89254005D03*
X121691400Y-76047600D03*
X131851400Y-72181000D03*
X131191000Y-75920600D03*
X130352800Y-80746600D03*
X130581400Y-72181000D03*
X130565774Y-75295374D03*
X129159000Y-79654400D03*
X138201400Y-68281000D03*
X139471400Y-68281000D03*
X140614400Y-73609200D03*
X108254800Y-83540600D03*
X106934000Y-86182200D03*
X121335800Y-88773000D03*
X109245400Y-81940400D03*
X110606727Y-87441927D03*
X126076200Y-87868000D03*
X123367800Y-84302600D03*
X123113800Y-97891600D03*
X124396500Y-103022400D03*
X142036800Y-95275400D03*
X142345811Y-98750989D03*
X135661400Y-68281000D03*
X126949200Y-93675200D03*
X135128000Y-83997800D03*
X136880600Y-81102200D03*
X136779000Y-78054200D03*
X136310461Y-75261376D03*
X135661400Y-72181000D03*
X137541000Y-81610200D03*
X138912600Y-78638400D03*
X112471200Y-87325200D03*
X112496600Y-90297000D03*
X114884200Y-89763600D03*
X113372900Y-83248500D03*
X136931400Y-72181000D03*
X138099800Y-82143600D03*
X139496800Y-78206600D03*
X131419600Y-91871800D03*
X126161804Y-94361000D03*
X143129000Y-97764600D03*
X143337000Y-95484768D03*
X129311400Y-68275200D03*
X135785461Y-78000453D03*
X131090775Y-73782497D03*
X135026400Y-74447400D03*
X134137400Y-95885000D03*
X139801600Y-91490800D03*
X122961400Y-72181000D03*
X122986800Y-76504800D03*
X133146800Y-87575701D03*
X124231400Y-72181000D03*
X124232888Y-77392312D03*
X132207000Y-87274400D03*
X125501400Y-72181000D03*
X125501400Y-77901800D03*
X131080745Y-87080921D03*
X119151400Y-72181000D03*
X132232400Y-92049600D03*
X126034800Y-88950804D03*
X143611600Y-85598000D03*
X129311400Y-72181000D03*
X130098800Y-86207600D03*
X128256207Y-74578575D03*
X116611400Y-72181000D03*
X115341400Y-72180976D03*
X122377200Y-99542600D03*
X136118600Y-104533700D03*
X115570000Y-80772000D03*
X118618000Y-80772000D03*
X115824000Y-92710000D03*
X118872000Y-92710000D03*
X118872000Y-89662000D03*
X116154200Y-89662000D03*
X108737400Y-80111600D03*
X133121400Y-72180990D03*
X134391400Y-72181000D03*
X115341400Y-68275200D03*
X116611400Y-68275200D03*
X132105400Y-102387400D03*
X146329400Y-90220796D03*
X115925600Y-86893400D03*
X127381000Y-101676200D03*
X127457200Y-103327200D03*
X137718800Y-93878400D03*
X130073400Y-80035400D03*
X143611600Y-83489800D03*
X138988800Y-83337400D03*
X129540000Y-75488800D03*
X128473200Y-90170000D03*
X129997200Y-92396810D03*
X133604000Y-93827600D03*
X143814800Y-78816200D03*
X125476000Y-95021400D03*
X135001000Y-97409000D03*
X144119600Y-88722200D03*
X145669000Y-81686400D03*
X128498500Y-105943290D03*
X125387100Y-98640900D03*
X132092700Y-98602800D03*
X117881400Y-72186800D03*
X131851400Y-68281000D03*
X139547600Y-87477600D03*
X131978400Y-75539600D03*
X133121400Y-68281000D03*
X140131800Y-87020400D03*
X132715000Y-75328010D03*
X145719800Y-97307400D03*
X130581400Y-68275200D03*
X131774677Y-73806000D03*
X137160000Y-75260200D03*
X128041400Y-68275200D03*
X128981200Y-74015600D03*
X134772400Y-78308200D03*
D18*
X128041400Y-71875200D02*
X128041400Y-72181000D01*
X136566000Y-76741800D02*
X136897600Y-76741800D01*
X136897600Y-76741800D02*
X136906000Y-76733400D01*
X136566000Y-90491800D02*
X136566000Y-89138400D01*
X136566000Y-89138400D02*
X136575800Y-89128600D01*
X136931400Y-68275200D02*
X136931400Y-68281000D01*
D19*
X135738802Y-96672400D02*
X139014200Y-93397002D01*
X131013200Y-96672400D02*
X135738802Y-96672400D01*
X139014200Y-93397002D02*
X139014200Y-93395800D01*
X139014200Y-93395800D02*
X142240000Y-90170000D01*
X142240000Y-90170000D02*
X142240000Y-89052400D01*
X143891000Y-87401400D02*
X143891000Y-86410800D01*
X142240000Y-89052400D02*
X143891000Y-87401400D01*
X143891000Y-86410800D02*
X144678400Y-85623400D01*
X144678400Y-85623400D02*
X144678400Y-83642200D01*
X136931400Y-68281000D02*
X136931400Y-69926200D01*
X136931400Y-69926200D02*
X137109200Y-70104000D01*
D18*
X120421400Y-68275200D02*
X120421400Y-68281000D01*
X121691400Y-68275200D02*
X121691400Y-68281000D01*
X122961400Y-68275200D02*
X122961400Y-68281000D01*
X138201400Y-71875200D02*
X138201400Y-72181000D01*
X124231400Y-68275200D02*
X124231400Y-68281000D01*
X125501400Y-68275200D02*
X125501400Y-68281000D01*
X126771400Y-71875200D02*
X126771400Y-72181000D01*
X129846799Y-86732601D02*
X130513599Y-86732601D01*
X130513599Y-86732601D02*
X130581400Y-86664800D01*
X126771400Y-71875200D02*
X126771400Y-83657202D01*
X126771400Y-83657202D02*
X129846799Y-86732601D01*
X126771400Y-68275200D02*
X126771400Y-68281000D01*
X120421400Y-71875200D02*
X120421400Y-72181000D01*
X134350594Y-89779006D02*
X129784006Y-89779006D01*
X134391400Y-89738200D02*
X134350594Y-89779006D01*
X124282200Y-84258698D02*
X120421400Y-80397898D01*
X120421400Y-80397898D02*
X120421400Y-71875200D01*
X124282200Y-84277200D02*
X124282200Y-84258698D01*
X129784006Y-89779006D02*
X124282200Y-84277200D01*
X121691400Y-71875200D02*
X121691400Y-72181000D01*
X121691400Y-76047600D02*
X121691400Y-81102200D01*
X133660616Y-89183621D02*
X133731000Y-89254005D01*
X129772821Y-89183621D02*
X133660616Y-89183621D01*
X121691400Y-81102200D02*
X129772821Y-89183621D01*
X131415999Y-79002780D02*
X130603199Y-79815580D01*
X130603199Y-80496201D02*
X130352800Y-80746600D01*
X130603199Y-79815580D02*
X130603199Y-80496201D01*
X131415999Y-76145599D02*
X131415999Y-79002780D01*
X131191000Y-75920600D02*
X131415999Y-76145599D01*
X130581400Y-71875200D02*
X130581400Y-72181000D01*
X129159000Y-76702148D02*
X129159000Y-79654400D01*
X130565774Y-75295374D02*
X129159000Y-76702148D01*
X138201400Y-68275200D02*
X138201400Y-68281000D01*
X139471400Y-68275200D02*
X139471400Y-68281000D01*
X140614400Y-73609200D02*
X140614400Y-68808600D01*
X140086800Y-68281000D02*
X139471400Y-68281000D01*
X140614400Y-68808600D02*
X140086800Y-68281000D01*
X108254800Y-83540600D02*
X108254800Y-82931000D01*
X108254800Y-82931000D02*
X109245400Y-81940400D01*
X109347000Y-86182200D02*
X110606727Y-87441927D01*
X106934000Y-86182200D02*
X109347000Y-86182200D01*
X106934000Y-84861400D02*
X108254800Y-83540600D01*
X106934000Y-86182200D02*
X106934000Y-84861400D01*
D20*
X110606727Y-91556727D02*
X116941600Y-97891600D01*
X116941600Y-97891600D02*
X123113800Y-97891600D01*
X110606727Y-87441927D02*
X110606727Y-91556727D01*
X135661400Y-68431000D02*
X135661400Y-68281000D01*
D18*
X135661400Y-68275200D02*
X135661400Y-68281000D01*
X131383802Y-93675200D02*
X135128000Y-89931002D01*
X126949200Y-93675200D02*
X131383802Y-93675200D01*
X135128000Y-89931002D02*
X135128000Y-83997800D01*
X136880600Y-81102200D02*
X136880600Y-78155800D01*
X136880600Y-78155800D02*
X136779000Y-78054200D01*
X135661400Y-71875200D02*
X135661400Y-72181000D01*
X138912600Y-78638400D02*
X138912600Y-80238600D01*
X138912600Y-80238600D02*
X137541000Y-81610200D01*
X112471200Y-87325200D02*
X112471200Y-88290400D01*
X112471200Y-88290400D02*
X112471200Y-90271600D01*
X112471200Y-90271600D02*
X112496600Y-90297000D01*
X114884200Y-89763600D02*
X113372900Y-88252300D01*
X113372900Y-88252300D02*
X113372900Y-83248500D01*
X136931400Y-71875200D02*
X136931400Y-72181000D01*
X138099800Y-82143600D02*
X139496800Y-80746600D01*
X139496800Y-80746600D02*
X139496800Y-78206600D01*
X126161804Y-93685594D02*
X126161804Y-94361000D01*
X127996901Y-91850497D02*
X126161804Y-93685594D01*
X131398297Y-91850497D02*
X127996901Y-91850497D01*
X131419600Y-91871800D02*
X131398297Y-91850497D01*
X143129000Y-97764600D02*
X143129000Y-95692768D01*
X143129000Y-95692768D02*
X143337000Y-95484768D01*
X135785461Y-81251661D02*
X135785461Y-78000453D01*
X137202401Y-82668601D02*
X135785461Y-81251661D01*
X142266000Y-82416800D02*
X142014199Y-82668601D01*
X142014199Y-82668601D02*
X137202401Y-82668601D01*
X131090775Y-74100695D02*
X131390281Y-74400201D01*
X131090775Y-73782497D02*
X131090775Y-74100695D01*
X134979201Y-74400201D02*
X135026400Y-74447400D01*
X131390281Y-74400201D02*
X134979201Y-74400201D01*
X134137400Y-95885000D02*
X138531600Y-91490800D01*
X138531600Y-91490800D02*
X139801600Y-91490800D01*
X122961400Y-71875200D02*
X122961400Y-72181000D01*
X122986800Y-76504800D02*
X122986800Y-81788000D01*
X131938890Y-88783611D02*
X133146800Y-87575701D01*
X122986800Y-81788000D02*
X129982411Y-88783611D01*
X129982411Y-88783611D02*
X131938890Y-88783611D01*
X124231400Y-71875200D02*
X124231400Y-72181000D01*
X124232888Y-77392312D02*
X124232888Y-82322888D01*
X131773201Y-88383601D02*
X132207000Y-87949802D01*
X124232888Y-82322888D02*
X130293601Y-88383601D01*
X132207000Y-87949802D02*
X132207000Y-87274400D01*
X130293601Y-88383601D02*
X131773201Y-88383601D01*
X125501400Y-71875200D02*
X125501400Y-72181000D01*
X129738300Y-87189801D02*
X130971865Y-87189801D01*
X125501400Y-77901800D02*
X125501400Y-82952901D01*
X130971865Y-87189801D02*
X131080745Y-87080921D01*
X125501400Y-82952901D02*
X129738300Y-87189801D01*
X119151400Y-79984600D02*
X122593100Y-83426300D01*
X131779652Y-91278654D02*
X128362650Y-91278654D01*
X119151400Y-71875200D02*
X119151400Y-79984600D01*
X132232400Y-91731402D02*
X131779652Y-91278654D01*
X128362650Y-91278654D02*
X126034800Y-88950804D01*
X132232400Y-92049600D02*
X132232400Y-91731402D01*
X122593100Y-85509104D02*
X126034800Y-88950804D01*
X122593100Y-83426300D02*
X122593100Y-85509104D01*
X142384800Y-85598000D02*
X142266000Y-85716800D01*
X143611600Y-85598000D02*
X142384800Y-85598000D01*
X129311400Y-71875200D02*
X129311400Y-72181000D01*
X130098800Y-86207600D02*
X127719599Y-83828399D01*
X127719599Y-83828399D02*
X127719599Y-75115183D01*
X127719599Y-75115183D02*
X128256207Y-74578575D01*
D21*
X134391400Y-71875200D02*
X134391400Y-72181000D01*
D20*
X116611400Y-69240202D02*
X116611400Y-68275200D01*
X117398998Y-70027800D02*
X116611400Y-69240202D01*
X132824000Y-70027800D02*
X117398998Y-70027800D01*
X133121400Y-71875200D02*
X133121400Y-70325200D01*
X133121400Y-70325200D02*
X132824000Y-70027800D01*
X115341400Y-68275200D02*
X116611400Y-68275200D01*
X115341400Y-69825200D02*
X115341400Y-68275200D01*
X115544000Y-70027800D02*
X115341400Y-69825200D01*
X117398998Y-70027800D02*
X115544000Y-70027800D01*
X134391400Y-70325200D02*
X134391400Y-71875200D01*
X134094000Y-70027800D02*
X134391400Y-70325200D01*
X132824000Y-70027800D02*
X134094000Y-70027800D01*
D19*
X108737400Y-80111600D02*
X108737400Y-76441300D01*
X115150900Y-70027800D02*
X115544000Y-70027800D01*
X108737400Y-76441300D02*
X115150900Y-70027800D01*
D18*
X142266000Y-83516800D02*
X143584600Y-83516800D01*
X143584600Y-83516800D02*
X143611600Y-83489800D01*
X125387100Y-97995558D02*
X120990542Y-93599000D01*
X125387100Y-98640900D02*
X125387100Y-97995558D01*
X120990542Y-93599000D02*
X120760799Y-93369257D01*
X125387100Y-98640900D02*
X132054600Y-98640900D01*
D21*
X132054600Y-98640900D02*
X132092700Y-98602800D01*
D18*
X117881400Y-71875200D02*
X117881400Y-72186800D01*
X117881400Y-90489858D02*
X120760799Y-93369257D01*
X117881400Y-71875200D02*
X117881400Y-90489858D01*
X131851400Y-68275200D02*
X131851400Y-68281000D01*
X131978400Y-79908400D02*
X131978400Y-75539600D01*
X139547600Y-87477600D02*
X131978400Y-79908400D01*
X133121400Y-68275200D02*
X133121400Y-68281000D01*
X139903200Y-87020400D02*
X140131800Y-87020400D01*
X132715000Y-75328010D02*
X132715000Y-79832200D01*
X132715000Y-79832200D02*
X139903200Y-87020400D01*
X141316000Y-80216800D02*
X140335000Y-79235800D01*
X140335000Y-78117002D02*
X137478198Y-75260200D01*
X137478198Y-75260200D02*
X137160000Y-75260200D01*
X131774677Y-73806000D02*
X135705800Y-73806000D01*
X140335000Y-79235800D02*
X140335000Y-78117002D01*
X135705800Y-73806000D02*
X137160000Y-75260200D01*
X142266000Y-80216800D02*
X141316000Y-80216800D01*
X134772400Y-80949800D02*
X134772400Y-78308200D01*
X142266000Y-84616800D02*
X138439400Y-84616800D01*
X138439400Y-84616800D02*
X134772400Y-80949800D01*
X130048000Y-74015600D02*
X130835400Y-74803000D01*
X134547401Y-78083201D02*
X134772400Y-78308200D01*
X130835400Y-74803000D02*
X132953998Y-74803000D01*
X134547401Y-76396403D02*
X134547401Y-78083201D01*
X128981200Y-74015600D02*
X130048000Y-74015600D01*
X132953998Y-74803000D02*
X134547401Y-76396403D01*
D22*
G36*
X144617950Y-66781187D02*
G01*
X144148238Y-66975748D01*
X143725509Y-67258207D01*
X143366007Y-67617709D01*
X143083548Y-68040438D01*
X142888987Y-68510150D01*
X142789800Y-69008794D01*
X142789800Y-69517206D01*
X142888987Y-70015850D01*
X143083548Y-70485562D01*
X143366007Y-70908291D01*
X143725509Y-71267793D01*
X144148238Y-71550252D01*
X144617950Y-71744813D01*
X145116594Y-71844000D01*
X145625006Y-71844000D01*
X146123650Y-71744813D01*
X146593362Y-71550252D01*
X147016091Y-71267793D01*
X147375593Y-70908291D01*
X147658052Y-70485562D01*
X147852613Y-70015850D01*
X147916400Y-69695173D01*
X147916401Y-104828232D01*
X147852613Y-104507550D01*
X147658052Y-104037838D01*
X147375593Y-103615109D01*
X147016091Y-103255607D01*
X146593362Y-102973148D01*
X146200761Y-102810528D01*
X146416587Y-102764615D01*
X146622278Y-102676203D01*
X146806769Y-102549361D01*
X146962969Y-102388964D01*
X147084876Y-102201176D01*
X147164719Y-101978074D01*
X147038554Y-101803200D01*
X145897600Y-101803200D01*
X145897600Y-101823200D01*
X145643600Y-101823200D01*
X145643600Y-101803200D01*
X144502646Y-101803200D01*
X144376481Y-101978074D01*
X144456324Y-102201176D01*
X144578231Y-102388964D01*
X144734431Y-102549361D01*
X144918922Y-102676203D01*
X144986544Y-102705269D01*
X144617950Y-102778587D01*
X144148238Y-102973148D01*
X143725509Y-103255607D01*
X143366007Y-103615109D01*
X143083548Y-104037838D01*
X142888987Y-104507550D01*
X142789800Y-105006194D01*
X142789800Y-105514606D01*
X142888987Y-106013250D01*
X143083548Y-106482962D01*
X143366007Y-106905691D01*
X143725509Y-107265193D01*
X144148238Y-107547652D01*
X144617950Y-107742213D01*
X144957731Y-107809800D01*
X143750411Y-107809800D01*
X143729870Y-107743442D01*
X143713859Y-107705352D01*
X143698373Y-107667022D01*
X143695383Y-107661400D01*
X143695383Y-107661399D01*
X143695380Y-107661395D01*
X143602558Y-107489723D01*
X143579442Y-107455451D01*
X143556816Y-107420875D01*
X143552799Y-107415950D01*
X143552793Y-107415942D01*
X143552786Y-107415935D01*
X143428387Y-107265563D01*
X143399057Y-107236437D01*
X143370146Y-107206913D01*
X143365245Y-107202859D01*
X143365239Y-107202853D01*
X143365232Y-107202849D01*
X143213997Y-107079504D01*
X143179553Y-107056619D01*
X143145472Y-107033283D01*
X143139879Y-107030259D01*
X143139871Y-107030254D01*
X143139863Y-107030251D01*
X142967549Y-106938630D01*
X142929354Y-106922887D01*
X142891351Y-106906599D01*
X142885269Y-106904716D01*
X142698432Y-106848307D01*
X142657907Y-106840283D01*
X142617464Y-106831686D01*
X142611132Y-106831021D01*
X142416898Y-106811976D01*
X142416892Y-106811976D01*
X142394798Y-106809800D01*
X112348256Y-106809803D01*
X112328670Y-106811732D01*
X112324089Y-106811700D01*
X112317752Y-106812322D01*
X112123656Y-106832723D01*
X112083167Y-106841034D01*
X112042575Y-106848777D01*
X112036481Y-106850617D01*
X112036475Y-106850619D01*
X111850042Y-106908330D01*
X111811952Y-106924341D01*
X111773622Y-106939827D01*
X111768004Y-106942815D01*
X111767999Y-106942817D01*
X111767995Y-106942820D01*
X111596323Y-107035642D01*
X111562051Y-107058758D01*
X111527475Y-107081384D01*
X111522550Y-107085401D01*
X111522542Y-107085407D01*
X111522535Y-107085414D01*
X111372163Y-107209813D01*
X111343037Y-107239143D01*
X111313513Y-107268054D01*
X111309459Y-107272955D01*
X111309453Y-107272961D01*
X111309449Y-107272968D01*
X111186104Y-107424203D01*
X111163219Y-107458647D01*
X111139883Y-107492728D01*
X111136859Y-107498321D01*
X111136854Y-107498329D01*
X111136851Y-107498337D01*
X111045230Y-107670651D01*
X111029487Y-107708846D01*
X111013199Y-107746849D01*
X111011316Y-107752931D01*
X110994146Y-107809800D01*
X109783469Y-107809800D01*
X110123250Y-107742213D01*
X110592962Y-107547652D01*
X111015691Y-107265193D01*
X111375193Y-106905691D01*
X111657652Y-106482962D01*
X111852213Y-106013250D01*
X111878001Y-105883604D01*
X127892500Y-105883604D01*
X127892500Y-106002976D01*
X127915788Y-106120054D01*
X127961470Y-106230339D01*
X128027789Y-106329592D01*
X128112198Y-106414001D01*
X128211451Y-106480320D01*
X128321736Y-106526002D01*
X128438814Y-106549290D01*
X128558186Y-106549290D01*
X128675264Y-106526002D01*
X128785549Y-106480320D01*
X128884802Y-106414001D01*
X128969211Y-106329592D01*
X129035530Y-106230339D01*
X129081212Y-106120054D01*
X129104500Y-106002976D01*
X129104500Y-105883604D01*
X129081212Y-105766526D01*
X129035530Y-105656241D01*
X128969211Y-105556988D01*
X128884802Y-105472579D01*
X128785549Y-105406260D01*
X128675264Y-105360578D01*
X128558186Y-105337290D01*
X128438814Y-105337290D01*
X128321736Y-105360578D01*
X128211451Y-105406260D01*
X128112198Y-105472579D01*
X128027789Y-105556988D01*
X127961470Y-105656241D01*
X127915788Y-105766526D01*
X127892500Y-105883604D01*
X111878001Y-105883604D01*
X111951400Y-105514606D01*
X111951400Y-105006194D01*
X111852213Y-104507550D01*
X111838322Y-104474014D01*
X135512600Y-104474014D01*
X135512600Y-104593386D01*
X135535888Y-104710464D01*
X135581570Y-104820749D01*
X135647889Y-104920002D01*
X135732298Y-105004411D01*
X135831551Y-105070730D01*
X135941836Y-105116412D01*
X136058914Y-105139700D01*
X136178286Y-105139700D01*
X136295364Y-105116412D01*
X136405649Y-105070730D01*
X136504902Y-105004411D01*
X136589311Y-104920002D01*
X136655630Y-104820749D01*
X136701312Y-104710464D01*
X136724600Y-104593386D01*
X136724600Y-104474014D01*
X136701312Y-104356936D01*
X136655630Y-104246651D01*
X136589311Y-104147398D01*
X136504902Y-104062989D01*
X136405649Y-103996670D01*
X136295364Y-103950988D01*
X136178286Y-103927700D01*
X136058914Y-103927700D01*
X135941836Y-103950988D01*
X135831551Y-103996670D01*
X135732298Y-104062989D01*
X135647889Y-104147398D01*
X135581570Y-104246651D01*
X135535888Y-104356936D01*
X135512600Y-104474014D01*
X111838322Y-104474014D01*
X111657652Y-104037838D01*
X111375193Y-103615109D01*
X111015691Y-103255607D01*
X110592962Y-102973148D01*
X110567773Y-102962714D01*
X123790500Y-102962714D01*
X123790500Y-103082086D01*
X123813788Y-103199164D01*
X123859470Y-103309449D01*
X123925789Y-103408702D01*
X124010198Y-103493111D01*
X124109451Y-103559430D01*
X124219736Y-103605112D01*
X124336814Y-103628400D01*
X124456186Y-103628400D01*
X124573264Y-103605112D01*
X124683549Y-103559430D01*
X124782802Y-103493111D01*
X124867211Y-103408702D01*
X124933530Y-103309449D01*
X124950900Y-103267514D01*
X126851200Y-103267514D01*
X126851200Y-103386886D01*
X126874488Y-103503964D01*
X126920170Y-103614249D01*
X126986489Y-103713502D01*
X127070898Y-103797911D01*
X127170151Y-103864230D01*
X127280436Y-103909912D01*
X127397514Y-103933200D01*
X127516886Y-103933200D01*
X127633964Y-103909912D01*
X127744249Y-103864230D01*
X127843502Y-103797911D01*
X127927911Y-103713502D01*
X127994230Y-103614249D01*
X128039912Y-103503964D01*
X128063200Y-103386886D01*
X128063200Y-103267514D01*
X128039912Y-103150436D01*
X127994230Y-103040151D01*
X127927911Y-102940898D01*
X127843502Y-102856489D01*
X127744249Y-102790170D01*
X127633964Y-102744488D01*
X127516886Y-102721200D01*
X127397514Y-102721200D01*
X127280436Y-102744488D01*
X127170151Y-102790170D01*
X127070898Y-102856489D01*
X126986489Y-102940898D01*
X126920170Y-103040151D01*
X126874488Y-103150436D01*
X126851200Y-103267514D01*
X124950900Y-103267514D01*
X124979212Y-103199164D01*
X125002500Y-103082086D01*
X125002500Y-102962714D01*
X124979212Y-102845636D01*
X124933530Y-102735351D01*
X124867211Y-102636098D01*
X124782802Y-102551689D01*
X124683549Y-102485370D01*
X124573264Y-102439688D01*
X124456186Y-102416400D01*
X124336814Y-102416400D01*
X124219736Y-102439688D01*
X124109451Y-102485370D01*
X124010198Y-102551689D01*
X123925789Y-102636098D01*
X123859470Y-102735351D01*
X123813788Y-102845636D01*
X123790500Y-102962714D01*
X110567773Y-102962714D01*
X110123250Y-102778587D01*
X109624606Y-102679400D01*
X109116194Y-102679400D01*
X108617550Y-102778587D01*
X108147838Y-102973148D01*
X107725109Y-103255607D01*
X107365607Y-103615109D01*
X107083148Y-104037838D01*
X106888587Y-104507550D01*
X106828400Y-104810129D01*
X106828400Y-102327714D01*
X131499400Y-102327714D01*
X131499400Y-102447086D01*
X131522688Y-102564164D01*
X131568370Y-102674449D01*
X131634689Y-102773702D01*
X131719098Y-102858111D01*
X131818351Y-102924430D01*
X131928636Y-102970112D01*
X132045714Y-102993400D01*
X132165086Y-102993400D01*
X132282164Y-102970112D01*
X132392449Y-102924430D01*
X132491702Y-102858111D01*
X132576111Y-102773702D01*
X132642430Y-102674449D01*
X132688112Y-102564164D01*
X132711400Y-102447086D01*
X132711400Y-102327714D01*
X132688112Y-102210636D01*
X132642430Y-102100351D01*
X132576111Y-102001098D01*
X132549087Y-101974074D01*
X139946481Y-101974074D01*
X140026324Y-102197176D01*
X140148231Y-102384964D01*
X140304431Y-102545361D01*
X140488922Y-102672203D01*
X140694613Y-102760615D01*
X140913600Y-102807200D01*
X141463600Y-102807200D01*
X141463600Y-101799200D01*
X141717600Y-101799200D01*
X141717600Y-102807200D01*
X142267600Y-102807200D01*
X142486587Y-102760615D01*
X142692278Y-102672203D01*
X142876769Y-102545361D01*
X143032969Y-102384964D01*
X143154876Y-102197176D01*
X143234719Y-101974074D01*
X143108554Y-101799200D01*
X141717600Y-101799200D01*
X141463600Y-101799200D01*
X140072646Y-101799200D01*
X139946481Y-101974074D01*
X132549087Y-101974074D01*
X132491702Y-101916689D01*
X132392449Y-101850370D01*
X132282164Y-101804688D01*
X132165086Y-101781400D01*
X132045714Y-101781400D01*
X131928636Y-101804688D01*
X131818351Y-101850370D01*
X131719098Y-101916689D01*
X131634689Y-102001098D01*
X131568370Y-102100351D01*
X131522688Y-102210636D01*
X131499400Y-102327714D01*
X106828400Y-102327714D01*
X106828400Y-101616514D01*
X126775000Y-101616514D01*
X126775000Y-101735886D01*
X126798288Y-101852964D01*
X126843970Y-101963249D01*
X126910289Y-102062502D01*
X126994698Y-102146911D01*
X127093951Y-102213230D01*
X127204236Y-102258912D01*
X127321314Y-102282200D01*
X127440686Y-102282200D01*
X127557764Y-102258912D01*
X127668049Y-102213230D01*
X127767302Y-102146911D01*
X127851711Y-102062502D01*
X127918030Y-101963249D01*
X127963712Y-101852964D01*
X127987000Y-101735886D01*
X127987000Y-101616514D01*
X127963712Y-101499436D01*
X127918030Y-101389151D01*
X127905452Y-101370326D01*
X139946481Y-101370326D01*
X140072646Y-101545200D01*
X141463600Y-101545200D01*
X141463600Y-101525200D01*
X141717600Y-101525200D01*
X141717600Y-101545200D01*
X143108554Y-101545200D01*
X143231833Y-101374326D01*
X144376481Y-101374326D01*
X144502646Y-101549200D01*
X145643600Y-101549200D01*
X145643600Y-100541200D01*
X145897600Y-100541200D01*
X145897600Y-101549200D01*
X147038554Y-101549200D01*
X147164719Y-101374326D01*
X147084876Y-101151224D01*
X146962969Y-100963436D01*
X146806769Y-100803039D01*
X146622278Y-100676197D01*
X146416587Y-100587785D01*
X146197600Y-100541200D01*
X145897600Y-100541200D01*
X145643600Y-100541200D01*
X145343600Y-100541200D01*
X145124613Y-100587785D01*
X144918922Y-100676197D01*
X144734431Y-100803039D01*
X144578231Y-100963436D01*
X144456324Y-101151224D01*
X144376481Y-101374326D01*
X143231833Y-101374326D01*
X143234719Y-101370326D01*
X143154876Y-101147224D01*
X143032969Y-100959436D01*
X142876769Y-100799039D01*
X142692278Y-100672197D01*
X142635299Y-100647706D01*
X142660749Y-100609616D01*
X142713969Y-100481133D01*
X142741100Y-100344735D01*
X142741100Y-100205665D01*
X142713969Y-100069267D01*
X142660749Y-99940784D01*
X142583486Y-99825151D01*
X142485149Y-99726814D01*
X142369516Y-99649551D01*
X142241033Y-99596331D01*
X142104635Y-99569200D01*
X141965565Y-99569200D01*
X141829167Y-99596331D01*
X141700684Y-99649551D01*
X141585051Y-99726814D01*
X141486714Y-99825151D01*
X141409451Y-99940784D01*
X141356231Y-100069267D01*
X141329100Y-100205665D01*
X141329100Y-100344735D01*
X141356231Y-100481133D01*
X141379455Y-100537200D01*
X140913600Y-100537200D01*
X140694613Y-100583785D01*
X140488922Y-100672197D01*
X140304431Y-100799039D01*
X140148231Y-100959436D01*
X140026324Y-101147224D01*
X139946481Y-101370326D01*
X127905452Y-101370326D01*
X127851711Y-101289898D01*
X127767302Y-101205489D01*
X127668049Y-101139170D01*
X127557764Y-101093488D01*
X127440686Y-101070200D01*
X127321314Y-101070200D01*
X127204236Y-101093488D01*
X127093951Y-101139170D01*
X126994698Y-101205489D01*
X126910289Y-101289898D01*
X126843970Y-101389151D01*
X126798288Y-101499436D01*
X126775000Y-101616514D01*
X106828400Y-101616514D01*
X106828400Y-99482914D01*
X121771200Y-99482914D01*
X121771200Y-99602286D01*
X121794488Y-99719364D01*
X121840170Y-99829649D01*
X121906489Y-99928902D01*
X121990898Y-100013311D01*
X122090151Y-100079630D01*
X122200436Y-100125312D01*
X122317514Y-100148600D01*
X122436886Y-100148600D01*
X122553964Y-100125312D01*
X122664249Y-100079630D01*
X122763502Y-100013311D01*
X122847911Y-99928902D01*
X122914230Y-99829649D01*
X122959912Y-99719364D01*
X122983200Y-99602286D01*
X122983200Y-99482914D01*
X122959912Y-99365836D01*
X122914230Y-99255551D01*
X122847911Y-99156298D01*
X122763502Y-99071889D01*
X122664249Y-99005570D01*
X122553964Y-98959888D01*
X122436886Y-98936600D01*
X122317514Y-98936600D01*
X122200436Y-98959888D01*
X122090151Y-99005570D01*
X121990898Y-99071889D01*
X121906489Y-99156298D01*
X121840170Y-99255551D01*
X121794488Y-99365836D01*
X121771200Y-99482914D01*
X106828400Y-99482914D01*
X106828400Y-97720078D01*
X107391400Y-97720078D01*
X107391400Y-97873922D01*
X107421413Y-98024809D01*
X107480287Y-98166942D01*
X107565758Y-98294859D01*
X107674541Y-98403642D01*
X107802458Y-98489113D01*
X107944591Y-98547987D01*
X108095478Y-98578000D01*
X108249322Y-98578000D01*
X108400209Y-98547987D01*
X108542342Y-98489113D01*
X108670259Y-98403642D01*
X108779042Y-98294859D01*
X108864513Y-98166942D01*
X108923387Y-98024809D01*
X108953400Y-97873922D01*
X108953400Y-97720078D01*
X108923387Y-97569191D01*
X108864513Y-97427058D01*
X108779042Y-97299141D01*
X108670259Y-97190358D01*
X108542342Y-97104887D01*
X108400209Y-97046013D01*
X108249322Y-97016000D01*
X108095478Y-97016000D01*
X107944591Y-97046013D01*
X107802458Y-97104887D01*
X107674541Y-97190358D01*
X107565758Y-97299141D01*
X107480287Y-97427058D01*
X107421413Y-97569191D01*
X107391400Y-97720078D01*
X106828400Y-97720078D01*
X106828400Y-95420078D01*
X107391400Y-95420078D01*
X107391400Y-95573922D01*
X107421413Y-95724809D01*
X107480287Y-95866942D01*
X107565758Y-95994859D01*
X107674541Y-96103642D01*
X107802458Y-96189113D01*
X107944591Y-96247987D01*
X108095478Y-96278000D01*
X108249322Y-96278000D01*
X108400209Y-96247987D01*
X108542342Y-96189113D01*
X108670259Y-96103642D01*
X108779042Y-95994859D01*
X108864513Y-95866942D01*
X108923387Y-95724809D01*
X108953400Y-95573922D01*
X108953400Y-95420078D01*
X108923387Y-95269191D01*
X108864513Y-95127058D01*
X108779042Y-94999141D01*
X108670259Y-94890358D01*
X108542342Y-94804887D01*
X108400209Y-94746013D01*
X108249322Y-94716000D01*
X108095478Y-94716000D01*
X107944591Y-94746013D01*
X107802458Y-94804887D01*
X107674541Y-94890358D01*
X107565758Y-94999141D01*
X107480287Y-95127058D01*
X107421413Y-95269191D01*
X107391400Y-95420078D01*
X106828400Y-95420078D01*
X106828400Y-86779067D01*
X106874314Y-86788200D01*
X106993686Y-86788200D01*
X107110764Y-86764912D01*
X107221049Y-86719230D01*
X107304903Y-86663200D01*
X109147764Y-86663200D01*
X109975727Y-87491164D01*
X109975728Y-91525727D01*
X109972675Y-91556727D01*
X109984857Y-91680424D01*
X110020938Y-91799368D01*
X110079531Y-91908987D01*
X110138624Y-91980992D01*
X110138627Y-91980995D01*
X110158385Y-92005070D01*
X110182460Y-92024828D01*
X116473499Y-98315868D01*
X116493257Y-98339943D01*
X116589339Y-98418796D01*
X116698958Y-98477389D01*
X116817902Y-98513470D01*
X116910602Y-98522600D01*
X116910611Y-98522600D01*
X116941599Y-98525652D01*
X116972587Y-98522600D01*
X123144798Y-98522600D01*
X123237498Y-98513470D01*
X123356442Y-98477389D01*
X123466061Y-98418796D01*
X123562143Y-98339943D01*
X123640996Y-98243861D01*
X123699589Y-98134242D01*
X123735670Y-98015298D01*
X123747853Y-97891600D01*
X123735670Y-97767902D01*
X123699589Y-97648958D01*
X123640996Y-97539339D01*
X123562143Y-97443257D01*
X123466061Y-97364404D01*
X123356442Y-97305811D01*
X123237498Y-97269730D01*
X123144798Y-97260600D01*
X117202969Y-97260600D01*
X112592683Y-92650314D01*
X115218000Y-92650314D01*
X115218000Y-92769686D01*
X115241288Y-92886764D01*
X115286970Y-92997049D01*
X115353289Y-93096302D01*
X115437698Y-93180711D01*
X115536951Y-93247030D01*
X115647236Y-93292712D01*
X115764314Y-93316000D01*
X115883686Y-93316000D01*
X116000764Y-93292712D01*
X116111049Y-93247030D01*
X116210302Y-93180711D01*
X116294711Y-93096302D01*
X116361030Y-92997049D01*
X116406712Y-92886764D01*
X116430000Y-92769686D01*
X116430000Y-92650314D01*
X116406712Y-92533236D01*
X116361030Y-92422951D01*
X116294711Y-92323698D01*
X116210302Y-92239289D01*
X116111049Y-92172970D01*
X116000764Y-92127288D01*
X115883686Y-92104000D01*
X115764314Y-92104000D01*
X115647236Y-92127288D01*
X115536951Y-92172970D01*
X115437698Y-92239289D01*
X115353289Y-92323698D01*
X115286970Y-92422951D01*
X115241288Y-92533236D01*
X115218000Y-92650314D01*
X112592683Y-92650314D01*
X111237727Y-91295359D01*
X111237727Y-87410929D01*
X111228597Y-87318229D01*
X111212607Y-87265514D01*
X111865200Y-87265514D01*
X111865200Y-87384886D01*
X111888488Y-87501964D01*
X111934170Y-87612249D01*
X111990200Y-87696104D01*
X111990201Y-88266765D01*
X111990200Y-88266775D01*
X111990201Y-89964109D01*
X111959570Y-90009951D01*
X111913888Y-90120236D01*
X111890600Y-90237314D01*
X111890600Y-90356686D01*
X111913888Y-90473764D01*
X111959570Y-90584049D01*
X112025889Y-90683302D01*
X112110298Y-90767711D01*
X112209551Y-90834030D01*
X112319836Y-90879712D01*
X112436914Y-90903000D01*
X112556286Y-90903000D01*
X112673364Y-90879712D01*
X112783649Y-90834030D01*
X112882902Y-90767711D01*
X112967311Y-90683302D01*
X113033630Y-90584049D01*
X113079312Y-90473764D01*
X113102600Y-90356686D01*
X113102600Y-90237314D01*
X113079312Y-90120236D01*
X113033630Y-90009951D01*
X112967311Y-89910698D01*
X112952200Y-89895587D01*
X112952200Y-88485597D01*
X112971028Y-88520822D01*
X113031136Y-88594064D01*
X113049494Y-88609130D01*
X114281813Y-89841450D01*
X114301488Y-89940364D01*
X114347170Y-90050649D01*
X114413489Y-90149902D01*
X114497898Y-90234311D01*
X114597151Y-90300630D01*
X114707436Y-90346312D01*
X114824514Y-90369600D01*
X114943886Y-90369600D01*
X115060964Y-90346312D01*
X115171249Y-90300630D01*
X115270502Y-90234311D01*
X115354911Y-90149902D01*
X115421230Y-90050649D01*
X115466912Y-89940364D01*
X115490200Y-89823286D01*
X115490200Y-89703914D01*
X115469991Y-89602314D01*
X115548200Y-89602314D01*
X115548200Y-89721686D01*
X115571488Y-89838764D01*
X115617170Y-89949049D01*
X115683489Y-90048302D01*
X115767898Y-90132711D01*
X115867151Y-90199030D01*
X115977436Y-90244712D01*
X116094514Y-90268000D01*
X116213886Y-90268000D01*
X116330964Y-90244712D01*
X116441249Y-90199030D01*
X116540502Y-90132711D01*
X116624911Y-90048302D01*
X116691230Y-89949049D01*
X116736912Y-89838764D01*
X116760200Y-89721686D01*
X116760200Y-89602314D01*
X116736912Y-89485236D01*
X116691230Y-89374951D01*
X116624911Y-89275698D01*
X116540502Y-89191289D01*
X116441249Y-89124970D01*
X116330964Y-89079288D01*
X116213886Y-89056000D01*
X116094514Y-89056000D01*
X115977436Y-89079288D01*
X115867151Y-89124970D01*
X115767898Y-89191289D01*
X115683489Y-89275698D01*
X115617170Y-89374951D01*
X115571488Y-89485236D01*
X115548200Y-89602314D01*
X115469991Y-89602314D01*
X115466912Y-89586836D01*
X115421230Y-89476551D01*
X115354911Y-89377298D01*
X115270502Y-89292889D01*
X115171249Y-89226570D01*
X115060964Y-89180888D01*
X114962050Y-89161213D01*
X113853900Y-88053064D01*
X113853900Y-86833714D01*
X115319600Y-86833714D01*
X115319600Y-86953086D01*
X115342888Y-87070164D01*
X115388570Y-87180449D01*
X115454889Y-87279702D01*
X115539298Y-87364111D01*
X115638551Y-87430430D01*
X115748836Y-87476112D01*
X115865914Y-87499400D01*
X115985286Y-87499400D01*
X116102364Y-87476112D01*
X116212649Y-87430430D01*
X116311902Y-87364111D01*
X116396311Y-87279702D01*
X116462630Y-87180449D01*
X116508312Y-87070164D01*
X116531600Y-86953086D01*
X116531600Y-86833714D01*
X116508312Y-86716636D01*
X116462630Y-86606351D01*
X116396311Y-86507098D01*
X116311902Y-86422689D01*
X116212649Y-86356370D01*
X116102364Y-86310688D01*
X115985286Y-86287400D01*
X115865914Y-86287400D01*
X115748836Y-86310688D01*
X115638551Y-86356370D01*
X115539298Y-86422689D01*
X115454889Y-86507098D01*
X115388570Y-86606351D01*
X115342888Y-86716636D01*
X115319600Y-86833714D01*
X113853900Y-86833714D01*
X113853900Y-83619403D01*
X113909930Y-83535549D01*
X113955612Y-83425264D01*
X113978900Y-83308186D01*
X113978900Y-83188814D01*
X113955612Y-83071736D01*
X113909930Y-82961451D01*
X113843611Y-82862198D01*
X113759202Y-82777789D01*
X113659949Y-82711470D01*
X113549664Y-82665788D01*
X113432586Y-82642500D01*
X113313214Y-82642500D01*
X113196136Y-82665788D01*
X113085851Y-82711470D01*
X112986598Y-82777789D01*
X112902189Y-82862198D01*
X112835870Y-82961451D01*
X112790188Y-83071736D01*
X112766900Y-83188814D01*
X112766900Y-83308186D01*
X112790188Y-83425264D01*
X112835870Y-83535549D01*
X112891901Y-83619405D01*
X112891900Y-86888887D01*
X112857502Y-86854489D01*
X112758249Y-86788170D01*
X112647964Y-86742488D01*
X112530886Y-86719200D01*
X112411514Y-86719200D01*
X112294436Y-86742488D01*
X112184151Y-86788170D01*
X112084898Y-86854489D01*
X112000489Y-86938898D01*
X111934170Y-87038151D01*
X111888488Y-87148436D01*
X111865200Y-87265514D01*
X111212607Y-87265514D01*
X111192516Y-87199285D01*
X111133923Y-87089666D01*
X111055070Y-86993584D01*
X110958987Y-86914731D01*
X110849368Y-86856138D01*
X110730424Y-86820057D01*
X110657956Y-86812920D01*
X109703830Y-85858794D01*
X109688764Y-85840436D01*
X109615522Y-85780328D01*
X109531961Y-85735664D01*
X109441292Y-85708160D01*
X109370626Y-85701200D01*
X109347000Y-85698873D01*
X109323374Y-85701200D01*
X107415000Y-85701200D01*
X107415000Y-85060636D01*
X108332650Y-84142987D01*
X108431564Y-84123312D01*
X108541849Y-84077630D01*
X108641102Y-84011311D01*
X108725511Y-83926902D01*
X108791830Y-83827649D01*
X108837512Y-83717364D01*
X108860800Y-83600286D01*
X108860800Y-83480914D01*
X108837512Y-83363836D01*
X108791830Y-83253551D01*
X108735800Y-83169697D01*
X108735800Y-83130236D01*
X109323250Y-82542787D01*
X109422164Y-82523112D01*
X109532449Y-82477430D01*
X109631702Y-82411111D01*
X109716111Y-82326702D01*
X109782430Y-82227449D01*
X109828112Y-82117164D01*
X109851400Y-82000086D01*
X109851400Y-81880714D01*
X109828112Y-81763636D01*
X109782430Y-81653351D01*
X109716111Y-81554098D01*
X109631702Y-81469689D01*
X109532449Y-81403370D01*
X109422164Y-81357688D01*
X109305086Y-81334400D01*
X109185714Y-81334400D01*
X109068636Y-81357688D01*
X108958351Y-81403370D01*
X108859098Y-81469689D01*
X108774689Y-81554098D01*
X108708370Y-81653351D01*
X108662688Y-81763636D01*
X108643013Y-81862550D01*
X107931389Y-82574175D01*
X107913037Y-82589236D01*
X107897976Y-82607588D01*
X107852929Y-82662478D01*
X107808265Y-82746039D01*
X107780760Y-82836708D01*
X107771473Y-82931000D01*
X107773801Y-82954636D01*
X107773801Y-83169696D01*
X107717770Y-83253551D01*
X107672088Y-83363836D01*
X107652413Y-83462750D01*
X106828400Y-84286764D01*
X106828400Y-69713271D01*
X106888587Y-70015850D01*
X107083148Y-70485562D01*
X107365607Y-70908291D01*
X107725109Y-71267793D01*
X108147838Y-71550252D01*
X108617550Y-71744813D01*
X109116194Y-71844000D01*
X109624606Y-71844000D01*
X110123250Y-71744813D01*
X110592962Y-71550252D01*
X111015691Y-71267793D01*
X111375193Y-70908291D01*
X111657652Y-70485562D01*
X111852213Y-70015850D01*
X111951400Y-69517206D01*
X111951400Y-69008794D01*
X111852213Y-68510150D01*
X111657652Y-68040438D01*
X111375193Y-67617709D01*
X111015691Y-67258207D01*
X110592962Y-66975748D01*
X110123250Y-66781187D01*
X109824718Y-66721805D01*
X118388835Y-66721803D01*
X118325215Y-66774015D01*
X118268176Y-66843517D01*
X118256400Y-66842357D01*
X117506400Y-66842357D01*
X117431711Y-66849713D01*
X117359892Y-66871499D01*
X117293704Y-66906878D01*
X117246400Y-66945699D01*
X117199096Y-66906878D01*
X117132908Y-66871499D01*
X117061089Y-66849713D01*
X116986400Y-66842357D01*
X116236400Y-66842357D01*
X116161711Y-66849713D01*
X116089892Y-66871499D01*
X116023704Y-66906878D01*
X115976400Y-66945699D01*
X115929096Y-66906878D01*
X115862908Y-66871499D01*
X115791089Y-66849713D01*
X115716400Y-66842357D01*
X114966400Y-66842357D01*
X114891711Y-66849713D01*
X114819892Y-66871499D01*
X114753704Y-66906878D01*
X114695689Y-66954489D01*
X114648078Y-67012504D01*
X114612699Y-67078692D01*
X114590913Y-67150511D01*
X114583557Y-67225200D01*
X114583557Y-69325200D01*
X114590913Y-69399889D01*
X114612699Y-69471708D01*
X114648078Y-69537896D01*
X114695689Y-69595911D01*
X114710400Y-69607984D01*
X114710400Y-69752708D01*
X108397181Y-76065928D01*
X108377874Y-76081773D01*
X108314642Y-76158821D01*
X108298446Y-76189122D01*
X108267655Y-76246726D01*
X108238722Y-76342108D01*
X108228953Y-76441300D01*
X108231401Y-76466156D01*
X108231400Y-79778111D01*
X108200370Y-79824551D01*
X108154688Y-79934836D01*
X108131400Y-80051914D01*
X108131400Y-80171286D01*
X108154688Y-80288364D01*
X108200370Y-80398649D01*
X108266689Y-80497902D01*
X108351098Y-80582311D01*
X108450351Y-80648630D01*
X108560636Y-80694312D01*
X108677714Y-80717600D01*
X108797086Y-80717600D01*
X108823660Y-80712314D01*
X114964000Y-80712314D01*
X114964000Y-80831686D01*
X114987288Y-80948764D01*
X115032970Y-81059049D01*
X115099289Y-81158302D01*
X115183698Y-81242711D01*
X115282951Y-81309030D01*
X115393236Y-81354712D01*
X115510314Y-81378000D01*
X115629686Y-81378000D01*
X115746764Y-81354712D01*
X115857049Y-81309030D01*
X115956302Y-81242711D01*
X116040711Y-81158302D01*
X116107030Y-81059049D01*
X116152712Y-80948764D01*
X116176000Y-80831686D01*
X116176000Y-80712314D01*
X116152712Y-80595236D01*
X116107030Y-80484951D01*
X116040711Y-80385698D01*
X115956302Y-80301289D01*
X115857049Y-80234970D01*
X115746764Y-80189288D01*
X115629686Y-80166000D01*
X115510314Y-80166000D01*
X115393236Y-80189288D01*
X115282951Y-80234970D01*
X115183698Y-80301289D01*
X115099289Y-80385698D01*
X115032970Y-80484951D01*
X114987288Y-80595236D01*
X114964000Y-80712314D01*
X108823660Y-80712314D01*
X108914164Y-80694312D01*
X109024449Y-80648630D01*
X109123702Y-80582311D01*
X109208111Y-80497902D01*
X109274430Y-80398649D01*
X109320112Y-80288364D01*
X109343400Y-80171286D01*
X109343400Y-80051914D01*
X109320112Y-79934836D01*
X109274430Y-79824551D01*
X109243400Y-79778112D01*
X109243400Y-76650891D01*
X114583557Y-71310735D01*
X114583557Y-72925200D01*
X114590913Y-72999889D01*
X114612699Y-73071708D01*
X114648078Y-73137896D01*
X114695689Y-73195911D01*
X114753704Y-73243522D01*
X114819892Y-73278901D01*
X114891711Y-73300687D01*
X114966400Y-73308043D01*
X115716400Y-73308043D01*
X115791089Y-73300687D01*
X115862908Y-73278901D01*
X115929096Y-73243522D01*
X115976400Y-73204701D01*
X116023704Y-73243522D01*
X116089892Y-73278901D01*
X116161711Y-73300687D01*
X116236400Y-73308043D01*
X116986400Y-73308043D01*
X117061089Y-73300687D01*
X117132908Y-73278901D01*
X117199096Y-73243522D01*
X117246400Y-73204701D01*
X117293704Y-73243522D01*
X117359892Y-73278901D01*
X117400400Y-73291189D01*
X117400401Y-90466222D01*
X117398073Y-90489858D01*
X117407360Y-90584150D01*
X117428496Y-90653824D01*
X117434865Y-90674819D01*
X117479529Y-90758380D01*
X117539637Y-90831622D01*
X117557989Y-90846683D01*
X118815306Y-92104000D01*
X118812314Y-92104000D01*
X118695236Y-92127288D01*
X118584951Y-92172970D01*
X118485698Y-92239289D01*
X118401289Y-92323698D01*
X118334970Y-92422951D01*
X118289288Y-92533236D01*
X118266000Y-92650314D01*
X118266000Y-92769686D01*
X118289288Y-92886764D01*
X118334970Y-92997049D01*
X118401289Y-93096302D01*
X118485698Y-93180711D01*
X118584951Y-93247030D01*
X118695236Y-93292712D01*
X118812314Y-93316000D01*
X118931686Y-93316000D01*
X119048764Y-93292712D01*
X119159049Y-93247030D01*
X119258302Y-93180711D01*
X119342711Y-93096302D01*
X119409030Y-92997049D01*
X119454712Y-92886764D01*
X119478000Y-92769686D01*
X119478000Y-92766695D01*
X120437386Y-93726081D01*
X120437392Y-93726086D01*
X120633718Y-93922412D01*
X124906101Y-98194796D01*
X124906101Y-98269996D01*
X124850070Y-98353851D01*
X124804388Y-98464136D01*
X124781100Y-98581214D01*
X124781100Y-98700586D01*
X124804388Y-98817664D01*
X124850070Y-98927949D01*
X124916389Y-99027202D01*
X125000798Y-99111611D01*
X125100051Y-99177930D01*
X125210336Y-99223612D01*
X125327414Y-99246900D01*
X125446786Y-99246900D01*
X125563864Y-99223612D01*
X125674149Y-99177930D01*
X125758003Y-99121900D01*
X131778817Y-99121900D01*
X131805651Y-99139830D01*
X131915936Y-99185512D01*
X132033014Y-99208800D01*
X132152386Y-99208800D01*
X132269464Y-99185512D01*
X132379749Y-99139830D01*
X132479002Y-99073511D01*
X132563411Y-98989102D01*
X132629730Y-98889849D01*
X132675412Y-98779564D01*
X132692968Y-98691303D01*
X141739811Y-98691303D01*
X141739811Y-98810675D01*
X141763099Y-98927753D01*
X141808781Y-99038038D01*
X141875100Y-99137291D01*
X141959509Y-99221700D01*
X142058762Y-99288019D01*
X142169047Y-99333701D01*
X142286125Y-99356989D01*
X142405497Y-99356989D01*
X142522575Y-99333701D01*
X142632860Y-99288019D01*
X142732113Y-99221700D01*
X142816522Y-99137291D01*
X142882841Y-99038038D01*
X142928523Y-98927753D01*
X142951811Y-98810675D01*
X142951811Y-98691303D01*
X142928523Y-98574225D01*
X142882841Y-98463940D01*
X142816522Y-98364687D01*
X142732113Y-98280278D01*
X142632860Y-98213959D01*
X142522575Y-98168277D01*
X142405497Y-98144989D01*
X142286125Y-98144989D01*
X142169047Y-98168277D01*
X142058762Y-98213959D01*
X141959509Y-98280278D01*
X141875100Y-98364687D01*
X141808781Y-98463940D01*
X141763099Y-98574225D01*
X141739811Y-98691303D01*
X132692968Y-98691303D01*
X132698700Y-98662486D01*
X132698700Y-98543114D01*
X132675412Y-98426036D01*
X132629730Y-98315751D01*
X132563411Y-98216498D01*
X132479002Y-98132089D01*
X132379749Y-98065770D01*
X132269464Y-98020088D01*
X132152386Y-97996800D01*
X132033014Y-97996800D01*
X131915936Y-98020088D01*
X131805651Y-98065770D01*
X131706398Y-98132089D01*
X131678587Y-98159900D01*
X125868100Y-98159900D01*
X125868100Y-98019184D01*
X125870427Y-97995558D01*
X125861140Y-97901265D01*
X125837788Y-97824286D01*
X125833636Y-97810597D01*
X125788972Y-97727036D01*
X125728864Y-97653794D01*
X125710512Y-97638733D01*
X121313954Y-93242176D01*
X121117628Y-93045850D01*
X121117623Y-93045844D01*
X118362400Y-90290622D01*
X118362400Y-89990101D01*
X118401289Y-90048302D01*
X118485698Y-90132711D01*
X118584951Y-90199030D01*
X118695236Y-90244712D01*
X118812314Y-90268000D01*
X118931686Y-90268000D01*
X119048764Y-90244712D01*
X119159049Y-90199030D01*
X119258302Y-90132711D01*
X119342711Y-90048302D01*
X119409030Y-89949049D01*
X119454712Y-89838764D01*
X119478000Y-89721686D01*
X119478000Y-89602314D01*
X119454712Y-89485236D01*
X119409030Y-89374951D01*
X119342711Y-89275698D01*
X119258302Y-89191289D01*
X119159049Y-89124970D01*
X119048764Y-89079288D01*
X118931686Y-89056000D01*
X118812314Y-89056000D01*
X118695236Y-89079288D01*
X118584951Y-89124970D01*
X118485698Y-89191289D01*
X118401289Y-89275698D01*
X118362400Y-89333899D01*
X118362400Y-88713314D01*
X120729800Y-88713314D01*
X120729800Y-88832686D01*
X120753088Y-88949764D01*
X120798770Y-89060049D01*
X120865089Y-89159302D01*
X120949498Y-89243711D01*
X121048751Y-89310030D01*
X121159036Y-89355712D01*
X121276114Y-89379000D01*
X121395486Y-89379000D01*
X121512564Y-89355712D01*
X121622849Y-89310030D01*
X121722102Y-89243711D01*
X121806511Y-89159302D01*
X121872830Y-89060049D01*
X121918512Y-88949764D01*
X121941800Y-88832686D01*
X121941800Y-88713314D01*
X121918512Y-88596236D01*
X121872830Y-88485951D01*
X121806511Y-88386698D01*
X121722102Y-88302289D01*
X121622849Y-88235970D01*
X121512564Y-88190288D01*
X121395486Y-88167000D01*
X121276114Y-88167000D01*
X121159036Y-88190288D01*
X121048751Y-88235970D01*
X120949498Y-88302289D01*
X120865089Y-88386698D01*
X120798770Y-88485951D01*
X120753088Y-88596236D01*
X120729800Y-88713314D01*
X118362400Y-88713314D01*
X118362400Y-81322057D01*
X118441236Y-81354712D01*
X118558314Y-81378000D01*
X118677686Y-81378000D01*
X118794764Y-81354712D01*
X118905049Y-81309030D01*
X119004302Y-81242711D01*
X119088711Y-81158302D01*
X119155030Y-81059049D01*
X119200712Y-80948764D01*
X119224000Y-80831686D01*
X119224000Y-80737436D01*
X122112100Y-83625537D01*
X122112101Y-85485468D01*
X122109773Y-85509104D01*
X122119060Y-85603396D01*
X122139438Y-85670570D01*
X122146565Y-85694065D01*
X122191229Y-85777626D01*
X122251337Y-85850868D01*
X122269689Y-85865929D01*
X125432413Y-89028654D01*
X125452088Y-89127568D01*
X125497770Y-89237853D01*
X125564089Y-89337106D01*
X125648498Y-89421515D01*
X125747751Y-89487834D01*
X125858036Y-89533516D01*
X125956951Y-89553191D01*
X127809190Y-91405431D01*
X127728379Y-91448625D01*
X127655137Y-91508733D01*
X127640076Y-91527085D01*
X125838398Y-93328764D01*
X125820040Y-93343830D01*
X125759932Y-93417072D01*
X125715268Y-93500634D01*
X125699014Y-93554218D01*
X125687764Y-93591302D01*
X125678477Y-93685594D01*
X125680804Y-93709221D01*
X125680804Y-93990096D01*
X125624774Y-94073951D01*
X125579092Y-94184236D01*
X125555804Y-94301314D01*
X125555804Y-94419402D01*
X125535686Y-94415400D01*
X125416314Y-94415400D01*
X125299236Y-94438688D01*
X125188951Y-94484370D01*
X125089698Y-94550689D01*
X125005289Y-94635098D01*
X124938970Y-94734351D01*
X124893288Y-94844636D01*
X124870000Y-94961714D01*
X124870000Y-95081086D01*
X124893288Y-95198164D01*
X124938970Y-95308449D01*
X125005289Y-95407702D01*
X125089698Y-95492111D01*
X125188951Y-95558430D01*
X125299236Y-95604112D01*
X125416314Y-95627400D01*
X125535686Y-95627400D01*
X125652764Y-95604112D01*
X125763049Y-95558430D01*
X125862302Y-95492111D01*
X125946711Y-95407702D01*
X126013030Y-95308449D01*
X126058712Y-95198164D01*
X126082000Y-95081086D01*
X126082000Y-94962998D01*
X126102118Y-94967000D01*
X126221490Y-94967000D01*
X126338568Y-94943712D01*
X126448853Y-94898030D01*
X126548106Y-94831711D01*
X126632515Y-94747302D01*
X126698834Y-94648049D01*
X126744516Y-94537764D01*
X126767804Y-94420686D01*
X126767804Y-94301314D01*
X126757980Y-94251924D01*
X126772436Y-94257912D01*
X126889514Y-94281200D01*
X127008886Y-94281200D01*
X127125964Y-94257912D01*
X127236249Y-94212230D01*
X127320103Y-94156200D01*
X131360176Y-94156200D01*
X131383802Y-94158527D01*
X131407428Y-94156200D01*
X131478094Y-94149240D01*
X131568763Y-94121736D01*
X131652324Y-94077072D01*
X131725566Y-94016964D01*
X131740632Y-93998606D01*
X131971324Y-93767914D01*
X132998000Y-93767914D01*
X132998000Y-93887286D01*
X133021288Y-94004364D01*
X133066970Y-94114649D01*
X133133289Y-94213902D01*
X133217698Y-94298311D01*
X133316951Y-94364630D01*
X133427236Y-94410312D01*
X133544314Y-94433600D01*
X133663686Y-94433600D01*
X133780764Y-94410312D01*
X133891049Y-94364630D01*
X133990302Y-94298311D01*
X134074711Y-94213902D01*
X134141030Y-94114649D01*
X134186712Y-94004364D01*
X134210000Y-93887286D01*
X134210000Y-93767914D01*
X134186712Y-93650836D01*
X134141030Y-93540551D01*
X134074711Y-93441298D01*
X133990302Y-93356889D01*
X133891049Y-93290570D01*
X133780764Y-93244888D01*
X133663686Y-93221600D01*
X133544314Y-93221600D01*
X133427236Y-93244888D01*
X133316951Y-93290570D01*
X133217698Y-93356889D01*
X133133289Y-93441298D01*
X133066970Y-93540551D01*
X133021288Y-93650836D01*
X132998000Y-93767914D01*
X131971324Y-93767914D01*
X134930784Y-90808454D01*
X134927928Y-91216800D01*
X134940188Y-91341282D01*
X134976498Y-91460980D01*
X135035463Y-91571294D01*
X135114815Y-91667985D01*
X135211506Y-91747337D01*
X135321820Y-91806302D01*
X135441518Y-91842612D01*
X135566000Y-91854872D01*
X136280250Y-91851800D01*
X136439000Y-91693050D01*
X136439000Y-90618800D01*
X136419000Y-90618800D01*
X136419000Y-90364800D01*
X136439000Y-90364800D01*
X136439000Y-89290550D01*
X136693000Y-89290550D01*
X136693000Y-90364800D01*
X138042250Y-90364800D01*
X138201000Y-90206050D01*
X138204072Y-89766800D01*
X138191812Y-89642318D01*
X138155502Y-89522620D01*
X138096537Y-89412306D01*
X138017185Y-89315615D01*
X137920494Y-89236263D01*
X137810180Y-89177298D01*
X137690482Y-89140988D01*
X137566000Y-89128728D01*
X136851750Y-89131800D01*
X136693000Y-89290550D01*
X136439000Y-89290550D01*
X136280250Y-89131800D01*
X135609000Y-89128913D01*
X135609000Y-84368703D01*
X135665030Y-84284849D01*
X135667837Y-84278073D01*
X138945213Y-87555450D01*
X138964888Y-87654364D01*
X139010570Y-87764649D01*
X139076889Y-87863902D01*
X139161298Y-87948311D01*
X139260551Y-88014630D01*
X139370836Y-88060312D01*
X139487914Y-88083600D01*
X139607286Y-88083600D01*
X139724364Y-88060312D01*
X139834649Y-88014630D01*
X139933902Y-87948311D01*
X140018311Y-87863902D01*
X140084630Y-87764649D01*
X140130312Y-87654364D01*
X140135874Y-87626400D01*
X140191486Y-87626400D01*
X140308564Y-87603112D01*
X140418849Y-87557430D01*
X140518102Y-87491111D01*
X140602511Y-87406702D01*
X140668830Y-87307449D01*
X140714512Y-87197164D01*
X140737800Y-87080086D01*
X140737800Y-86960714D01*
X140714512Y-86843636D01*
X140668830Y-86733351D01*
X140602511Y-86634098D01*
X140518102Y-86549689D01*
X140418849Y-86483370D01*
X140308564Y-86437688D01*
X140191486Y-86414400D01*
X140072114Y-86414400D01*
X139993145Y-86430108D01*
X138660837Y-85097800D01*
X141142427Y-85097800D01*
X141162299Y-85163308D01*
X141164166Y-85166800D01*
X141162299Y-85170292D01*
X141140513Y-85242111D01*
X141133157Y-85316800D01*
X141133157Y-86116800D01*
X141140513Y-86191489D01*
X141162299Y-86263308D01*
X141164166Y-86266800D01*
X141162299Y-86270292D01*
X141140513Y-86342111D01*
X141133157Y-86416800D01*
X141133157Y-87216800D01*
X141140513Y-87291489D01*
X141162299Y-87363308D01*
X141197678Y-87429496D01*
X141245289Y-87487511D01*
X141303304Y-87535122D01*
X141369492Y-87570501D01*
X141441311Y-87592287D01*
X141516000Y-87599643D01*
X142977165Y-87599643D01*
X141899780Y-88677028D01*
X141880474Y-88692873D01*
X141817242Y-88769921D01*
X141792127Y-88816908D01*
X141770255Y-88857826D01*
X141741322Y-88953208D01*
X141731553Y-89052400D01*
X141734001Y-89077256D01*
X141734000Y-89960408D01*
X140383158Y-91311250D01*
X140338630Y-91203751D01*
X140272311Y-91104498D01*
X140187902Y-91020089D01*
X140088649Y-90953770D01*
X139978364Y-90908088D01*
X139861286Y-90884800D01*
X139741914Y-90884800D01*
X139624836Y-90908088D01*
X139514551Y-90953770D01*
X139430697Y-91009800D01*
X138555223Y-91009800D01*
X138531599Y-91007473D01*
X138507975Y-91009800D01*
X138507974Y-91009800D01*
X138437308Y-91016760D01*
X138346639Y-91044264D01*
X138263078Y-91088928D01*
X138203520Y-91137806D01*
X138201000Y-90777550D01*
X138042250Y-90618800D01*
X136693000Y-90618800D01*
X136693000Y-91693050D01*
X136851750Y-91851800D01*
X137487628Y-91854535D01*
X134059551Y-95282613D01*
X133960636Y-95302288D01*
X133850351Y-95347970D01*
X133751098Y-95414289D01*
X133666689Y-95498698D01*
X133600370Y-95597951D01*
X133554688Y-95708236D01*
X133531400Y-95825314D01*
X133531400Y-95944686D01*
X133554688Y-96061764D01*
X133598030Y-96166400D01*
X131346688Y-96166400D01*
X131300249Y-96135370D01*
X131189964Y-96089688D01*
X131072886Y-96066400D01*
X130953514Y-96066400D01*
X130836436Y-96089688D01*
X130726151Y-96135370D01*
X130626898Y-96201689D01*
X130542489Y-96286098D01*
X130476170Y-96385351D01*
X130430488Y-96495636D01*
X130407200Y-96612714D01*
X130407200Y-96732086D01*
X130430488Y-96849164D01*
X130476170Y-96959449D01*
X130542489Y-97058702D01*
X130626898Y-97143111D01*
X130726151Y-97209430D01*
X130836436Y-97255112D01*
X130953514Y-97278400D01*
X131072886Y-97278400D01*
X131189964Y-97255112D01*
X131300249Y-97209430D01*
X131346688Y-97178400D01*
X134440588Y-97178400D01*
X134418288Y-97232236D01*
X134395000Y-97349314D01*
X134395000Y-97468686D01*
X134418288Y-97585764D01*
X134463970Y-97696049D01*
X134530289Y-97795302D01*
X134614698Y-97879711D01*
X134713951Y-97946030D01*
X134824236Y-97991712D01*
X134941314Y-98015000D01*
X135060686Y-98015000D01*
X135177764Y-97991712D01*
X135288049Y-97946030D01*
X135387302Y-97879711D01*
X135471711Y-97795302D01*
X135532106Y-97704914D01*
X142523000Y-97704914D01*
X142523000Y-97824286D01*
X142546288Y-97941364D01*
X142591970Y-98051649D01*
X142658289Y-98150902D01*
X142742698Y-98235311D01*
X142841951Y-98301630D01*
X142952236Y-98347312D01*
X143069314Y-98370600D01*
X143188686Y-98370600D01*
X143305764Y-98347312D01*
X143416049Y-98301630D01*
X143515302Y-98235311D01*
X143599711Y-98150902D01*
X143666030Y-98051649D01*
X143711712Y-97941364D01*
X143735000Y-97824286D01*
X143735000Y-97704914D01*
X143711712Y-97587836D01*
X143666030Y-97477551D01*
X143610000Y-97393697D01*
X143610000Y-97247714D01*
X145113800Y-97247714D01*
X145113800Y-97367086D01*
X145137088Y-97484164D01*
X145182770Y-97594449D01*
X145249089Y-97693702D01*
X145333498Y-97778111D01*
X145432751Y-97844430D01*
X145543036Y-97890112D01*
X145660114Y-97913400D01*
X145779486Y-97913400D01*
X145896564Y-97890112D01*
X146006849Y-97844430D01*
X146106102Y-97778111D01*
X146190511Y-97693702D01*
X146256830Y-97594449D01*
X146302512Y-97484164D01*
X146325800Y-97367086D01*
X146325800Y-97247714D01*
X146302512Y-97130636D01*
X146256830Y-97020351D01*
X146190511Y-96921098D01*
X146106102Y-96836689D01*
X146006849Y-96770370D01*
X145896564Y-96724688D01*
X145779486Y-96701400D01*
X145660114Y-96701400D01*
X145543036Y-96724688D01*
X145432751Y-96770370D01*
X145333498Y-96836689D01*
X145249089Y-96921098D01*
X145182770Y-97020351D01*
X145137088Y-97130636D01*
X145113800Y-97247714D01*
X143610000Y-97247714D01*
X143610000Y-96027617D01*
X143624049Y-96021798D01*
X143723302Y-95955479D01*
X143807711Y-95871070D01*
X143874030Y-95771817D01*
X143919712Y-95661532D01*
X143943000Y-95544454D01*
X143943000Y-95425082D01*
X143919712Y-95308004D01*
X143874030Y-95197719D01*
X143807711Y-95098466D01*
X143723302Y-95014057D01*
X143624049Y-94947738D01*
X143513764Y-94902056D01*
X143396686Y-94878768D01*
X143277314Y-94878768D01*
X143160236Y-94902056D01*
X143049951Y-94947738D01*
X142950698Y-95014057D01*
X142866289Y-95098466D01*
X142799970Y-95197719D01*
X142754288Y-95308004D01*
X142732458Y-95417753D01*
X142727129Y-95424246D01*
X142682465Y-95507807D01*
X142654960Y-95598476D01*
X142645673Y-95692768D01*
X142648001Y-95716404D01*
X142648000Y-97393696D01*
X142591970Y-97477551D01*
X142546288Y-97587836D01*
X142523000Y-97704914D01*
X135532106Y-97704914D01*
X135538030Y-97696049D01*
X135583712Y-97585764D01*
X135607000Y-97468686D01*
X135607000Y-97349314D01*
X135583712Y-97232236D01*
X135561412Y-97178400D01*
X135713956Y-97178400D01*
X135738802Y-97180847D01*
X135763648Y-97178400D01*
X135763656Y-97178400D01*
X135837995Y-97171078D01*
X135933377Y-97142145D01*
X136021281Y-97095159D01*
X136098329Y-97031927D01*
X136114178Y-97012615D01*
X139354420Y-93772374D01*
X139373727Y-93756529D01*
X139395077Y-93730514D01*
X139966389Y-93159202D01*
X140072645Y-93159202D01*
X139946481Y-93334074D01*
X140026324Y-93557176D01*
X140148231Y-93744964D01*
X140304431Y-93905361D01*
X140488922Y-94032203D01*
X140694613Y-94120615D01*
X140913600Y-94167200D01*
X141381112Y-94167200D01*
X141356231Y-94227267D01*
X141329100Y-94363665D01*
X141329100Y-94502735D01*
X141356231Y-94639133D01*
X141409451Y-94767616D01*
X141486714Y-94883249D01*
X141536639Y-94933174D01*
X141499770Y-94988351D01*
X141454088Y-95098636D01*
X141430800Y-95215714D01*
X141430800Y-95335086D01*
X141454088Y-95452164D01*
X141499770Y-95562449D01*
X141566089Y-95661702D01*
X141650498Y-95746111D01*
X141749751Y-95812430D01*
X141860036Y-95858112D01*
X141977114Y-95881400D01*
X142096486Y-95881400D01*
X142213564Y-95858112D01*
X142323849Y-95812430D01*
X142423102Y-95746111D01*
X142507511Y-95661702D01*
X142573830Y-95562449D01*
X142619512Y-95452164D01*
X142642800Y-95335086D01*
X142642800Y-95215714D01*
X142619512Y-95098636D01*
X142573830Y-94988351D01*
X142535600Y-94931135D01*
X142583486Y-94883249D01*
X142660749Y-94767616D01*
X142713969Y-94639133D01*
X142741100Y-94502735D01*
X142741100Y-94363665D01*
X142713969Y-94227267D01*
X142660749Y-94098784D01*
X142633222Y-94057587D01*
X142692278Y-94032203D01*
X142876769Y-93905361D01*
X143032969Y-93744964D01*
X143154876Y-93557176D01*
X143233287Y-93338074D01*
X144376481Y-93338074D01*
X144456324Y-93561176D01*
X144578231Y-93748964D01*
X144734431Y-93909361D01*
X144918922Y-94036203D01*
X145124613Y-94124615D01*
X145343600Y-94171200D01*
X145643600Y-94171200D01*
X145643600Y-93163200D01*
X145897600Y-93163200D01*
X145897600Y-94171200D01*
X146197600Y-94171200D01*
X146416587Y-94124615D01*
X146622278Y-94036203D01*
X146806769Y-93909361D01*
X146962969Y-93748964D01*
X147084876Y-93561176D01*
X147164719Y-93338074D01*
X147038554Y-93163200D01*
X145897600Y-93163200D01*
X145643600Y-93163200D01*
X144502646Y-93163200D01*
X144376481Y-93338074D01*
X143233287Y-93338074D01*
X143234719Y-93334074D01*
X143108554Y-93159200D01*
X141717600Y-93159200D01*
X141717600Y-93179200D01*
X141463600Y-93179200D01*
X141463600Y-93159200D01*
X141443600Y-93159200D01*
X141443600Y-92905200D01*
X141463600Y-92905200D01*
X141463600Y-91897200D01*
X141717600Y-91897200D01*
X141717600Y-92905200D01*
X143108554Y-92905200D01*
X143231833Y-92734326D01*
X144376481Y-92734326D01*
X144502646Y-92909200D01*
X145643600Y-92909200D01*
X145643600Y-91901200D01*
X145897600Y-91901200D01*
X145897600Y-92909200D01*
X147038554Y-92909200D01*
X147164719Y-92734326D01*
X147084876Y-92511224D01*
X146962969Y-92323436D01*
X146806769Y-92163039D01*
X146622278Y-92036197D01*
X146416587Y-91947785D01*
X146197600Y-91901200D01*
X145897600Y-91901200D01*
X145643600Y-91901200D01*
X145343600Y-91901200D01*
X145124613Y-91947785D01*
X144918922Y-92036197D01*
X144734431Y-92163039D01*
X144578231Y-92323436D01*
X144456324Y-92511224D01*
X144376481Y-92734326D01*
X143231833Y-92734326D01*
X143234719Y-92730326D01*
X143154876Y-92507224D01*
X143032969Y-92319436D01*
X142876769Y-92159039D01*
X142692278Y-92032197D01*
X142486587Y-91943785D01*
X142267600Y-91897200D01*
X141717600Y-91897200D01*
X141463600Y-91897200D01*
X141228392Y-91897200D01*
X141908792Y-91216800D01*
X143227928Y-91216800D01*
X143240188Y-91341282D01*
X143276498Y-91460980D01*
X143335463Y-91571294D01*
X143414815Y-91667985D01*
X143511506Y-91747337D01*
X143621820Y-91806302D01*
X143741518Y-91842612D01*
X143866000Y-91854872D01*
X144580250Y-91851800D01*
X144739000Y-91693050D01*
X144739000Y-90618800D01*
X143389750Y-90618800D01*
X143231000Y-90777550D01*
X143227928Y-91216800D01*
X141908792Y-91216800D01*
X142580220Y-90545372D01*
X142599527Y-90529527D01*
X142662759Y-90452479D01*
X142709745Y-90364575D01*
X142729142Y-90300630D01*
X142738678Y-90269194D01*
X142741818Y-90237314D01*
X142746000Y-90194854D01*
X142746000Y-90194847D01*
X142748447Y-90170001D01*
X142746000Y-90145155D01*
X142746000Y-89261991D01*
X143602162Y-88405830D01*
X143582570Y-88435151D01*
X143536888Y-88545436D01*
X143513600Y-88662514D01*
X143513600Y-88781886D01*
X143536888Y-88898964D01*
X143582570Y-89009249D01*
X143648889Y-89108502D01*
X143695373Y-89154986D01*
X143621820Y-89177298D01*
X143511506Y-89236263D01*
X143414815Y-89315615D01*
X143335463Y-89412306D01*
X143276498Y-89522620D01*
X143240188Y-89642318D01*
X143227928Y-89766800D01*
X143231000Y-90206050D01*
X143389750Y-90364800D01*
X144739000Y-90364800D01*
X144739000Y-89290550D01*
X144993000Y-89290550D01*
X144993000Y-90364800D01*
X145013000Y-90364800D01*
X145013000Y-90618800D01*
X144993000Y-90618800D01*
X144993000Y-91693050D01*
X145151750Y-91851800D01*
X145866000Y-91854872D01*
X145990482Y-91842612D01*
X146110180Y-91806302D01*
X146220494Y-91747337D01*
X146317185Y-91667985D01*
X146396537Y-91571294D01*
X146455502Y-91460980D01*
X146491812Y-91341282D01*
X146504072Y-91216800D01*
X146501188Y-90804498D01*
X146506164Y-90803508D01*
X146616449Y-90757826D01*
X146715702Y-90691507D01*
X146800111Y-90607098D01*
X146866430Y-90507845D01*
X146912112Y-90397560D01*
X146935400Y-90280482D01*
X146935400Y-90161110D01*
X146912112Y-90044032D01*
X146866430Y-89933747D01*
X146800111Y-89834494D01*
X146715702Y-89750085D01*
X146616449Y-89683766D01*
X146506164Y-89638084D01*
X146489524Y-89634774D01*
X146455502Y-89522620D01*
X146396537Y-89412306D01*
X146317185Y-89315615D01*
X146220494Y-89236263D01*
X146110180Y-89177298D01*
X145990482Y-89140988D01*
X145866000Y-89128728D01*
X145151750Y-89131800D01*
X144993000Y-89290550D01*
X144739000Y-89290550D01*
X144580250Y-89131800D01*
X144567070Y-89131743D01*
X144590311Y-89108502D01*
X144656630Y-89009249D01*
X144702312Y-88898964D01*
X144725600Y-88781886D01*
X144725600Y-88662514D01*
X144702312Y-88545436D01*
X144656630Y-88435151D01*
X144590311Y-88335898D01*
X144505902Y-88251489D01*
X144406649Y-88185170D01*
X144296364Y-88139488D01*
X144179286Y-88116200D01*
X144059914Y-88116200D01*
X143942836Y-88139488D01*
X143832551Y-88185170D01*
X143803230Y-88204762D01*
X144231220Y-87776772D01*
X144250527Y-87760927D01*
X144313759Y-87683879D01*
X144360745Y-87595975D01*
X144389678Y-87500593D01*
X144393841Y-87458323D01*
X144399448Y-87401400D01*
X144397000Y-87376546D01*
X144397000Y-86620391D01*
X145018620Y-85998772D01*
X145037927Y-85982927D01*
X145101159Y-85905879D01*
X145148145Y-85817975D01*
X145177078Y-85722593D01*
X145184400Y-85648254D01*
X145184400Y-85648253D01*
X145186848Y-85623400D01*
X145184400Y-85598546D01*
X145184400Y-83975688D01*
X145215430Y-83929249D01*
X145261112Y-83818964D01*
X145284400Y-83701886D01*
X145284400Y-83582514D01*
X145261112Y-83465436D01*
X145215430Y-83355151D01*
X145149111Y-83255898D01*
X145064702Y-83171489D01*
X144965449Y-83105170D01*
X144855164Y-83059488D01*
X144738086Y-83036200D01*
X144618714Y-83036200D01*
X144501636Y-83059488D01*
X144391351Y-83105170D01*
X144292098Y-83171489D01*
X144207689Y-83255898D01*
X144184821Y-83290123D01*
X144148630Y-83202751D01*
X144082311Y-83103498D01*
X143997902Y-83019089D01*
X143898649Y-82952770D01*
X143788364Y-82907088D01*
X143671286Y-82883800D01*
X143551914Y-82883800D01*
X143434836Y-82907088D01*
X143379845Y-82929866D01*
X143391487Y-82891489D01*
X143398843Y-82816800D01*
X143398843Y-82224072D01*
X143467185Y-82167985D01*
X143546537Y-82071294D01*
X143605502Y-81960980D01*
X143641812Y-81841282D01*
X143654072Y-81716800D01*
X143651650Y-81626714D01*
X145063000Y-81626714D01*
X145063000Y-81746086D01*
X145086288Y-81863164D01*
X145131970Y-81973449D01*
X145198289Y-82072702D01*
X145282698Y-82157111D01*
X145381951Y-82223430D01*
X145492236Y-82269112D01*
X145609314Y-82292400D01*
X145728686Y-82292400D01*
X145845764Y-82269112D01*
X145956049Y-82223430D01*
X146055302Y-82157111D01*
X146139711Y-82072702D01*
X146206030Y-81973449D01*
X146251712Y-81863164D01*
X146275000Y-81746086D01*
X146275000Y-81626714D01*
X146251712Y-81509636D01*
X146206030Y-81399351D01*
X146139711Y-81300098D01*
X146055302Y-81215689D01*
X145956049Y-81149370D01*
X145845764Y-81103688D01*
X145728686Y-81080400D01*
X145609314Y-81080400D01*
X145492236Y-81103688D01*
X145381951Y-81149370D01*
X145282698Y-81215689D01*
X145198289Y-81300098D01*
X145131970Y-81399351D01*
X145086288Y-81509636D01*
X145063000Y-81626714D01*
X143651650Y-81626714D01*
X143651000Y-81602550D01*
X143492250Y-81443800D01*
X142393000Y-81443800D01*
X142393000Y-81463800D01*
X142139000Y-81463800D01*
X142139000Y-81443800D01*
X141039750Y-81443800D01*
X140881000Y-81602550D01*
X140877928Y-81716800D01*
X140890188Y-81841282D01*
X140926498Y-81960980D01*
X140985463Y-82071294D01*
X141064815Y-82167985D01*
X141088717Y-82187601D01*
X138736035Y-82187601D01*
X139820213Y-81103424D01*
X139838564Y-81088364D01*
X139898672Y-81015122D01*
X139943336Y-80931561D01*
X139970840Y-80840892D01*
X139977800Y-80770226D01*
X139977800Y-80770225D01*
X139980127Y-80746601D01*
X139977800Y-80722977D01*
X139977800Y-79558755D01*
X139993236Y-79577564D01*
X140011594Y-79592630D01*
X140959170Y-80540206D01*
X140974236Y-80558564D01*
X140983430Y-80566109D01*
X140926498Y-80672620D01*
X140890188Y-80792318D01*
X140877928Y-80916800D01*
X140881000Y-81031050D01*
X141039750Y-81189800D01*
X142139000Y-81189800D01*
X142139000Y-81169800D01*
X142393000Y-81169800D01*
X142393000Y-81189800D01*
X143492250Y-81189800D01*
X143651000Y-81031050D01*
X143654072Y-80916800D01*
X143641812Y-80792318D01*
X143605502Y-80672620D01*
X143546537Y-80562306D01*
X143467185Y-80465615D01*
X143398843Y-80409528D01*
X143398843Y-79816800D01*
X143391487Y-79742111D01*
X143369701Y-79670292D01*
X143367834Y-79666800D01*
X143369701Y-79663308D01*
X143391487Y-79591489D01*
X143398843Y-79516800D01*
X143398843Y-79257256D01*
X143428498Y-79286911D01*
X143527751Y-79353230D01*
X143638036Y-79398912D01*
X143755114Y-79422200D01*
X143874486Y-79422200D01*
X143991564Y-79398912D01*
X144101849Y-79353230D01*
X144201102Y-79286911D01*
X144285511Y-79202502D01*
X144351830Y-79103249D01*
X144397512Y-78992964D01*
X144420800Y-78875886D01*
X144420800Y-78756514D01*
X144397512Y-78639436D01*
X144351830Y-78529151D01*
X144285511Y-78429898D01*
X144201102Y-78345489D01*
X144101849Y-78279170D01*
X143991564Y-78233488D01*
X143874486Y-78210200D01*
X143755114Y-78210200D01*
X143638036Y-78233488D01*
X143527751Y-78279170D01*
X143428498Y-78345489D01*
X143344089Y-78429898D01*
X143312375Y-78477361D01*
X143286711Y-78446089D01*
X143228696Y-78398478D01*
X143162508Y-78363099D01*
X143090689Y-78341313D01*
X143016000Y-78333957D01*
X141516000Y-78333957D01*
X141441311Y-78341313D01*
X141369492Y-78363099D01*
X141303304Y-78398478D01*
X141245289Y-78446089D01*
X141197678Y-78504104D01*
X141162299Y-78570292D01*
X141140513Y-78642111D01*
X141133157Y-78716800D01*
X141133157Y-79353721D01*
X140816000Y-79036564D01*
X140816000Y-78140628D01*
X140818327Y-78117001D01*
X140809040Y-78022709D01*
X140798787Y-77988909D01*
X140781536Y-77932041D01*
X140736872Y-77848480D01*
X140676764Y-77775238D01*
X140658412Y-77760177D01*
X140365035Y-77466800D01*
X143227928Y-77466800D01*
X143240188Y-77591282D01*
X143276498Y-77710980D01*
X143335463Y-77821294D01*
X143414815Y-77917985D01*
X143511506Y-77997337D01*
X143621820Y-78056302D01*
X143741518Y-78092612D01*
X143866000Y-78104872D01*
X144580250Y-78101800D01*
X144739000Y-77943050D01*
X144739000Y-76868800D01*
X144993000Y-76868800D01*
X144993000Y-77943050D01*
X145151750Y-78101800D01*
X145866000Y-78104872D01*
X145990482Y-78092612D01*
X146110180Y-78056302D01*
X146220494Y-77997337D01*
X146317185Y-77917985D01*
X146396537Y-77821294D01*
X146455502Y-77710980D01*
X146491812Y-77591282D01*
X146504072Y-77466800D01*
X146501000Y-77027550D01*
X146342250Y-76868800D01*
X144993000Y-76868800D01*
X144739000Y-76868800D01*
X143389750Y-76868800D01*
X143231000Y-77027550D01*
X143227928Y-77466800D01*
X140365035Y-77466800D01*
X138915035Y-76016800D01*
X143227928Y-76016800D01*
X143231000Y-76456050D01*
X143389750Y-76614800D01*
X144739000Y-76614800D01*
X144739000Y-75540550D01*
X144993000Y-75540550D01*
X144993000Y-76614800D01*
X146342250Y-76614800D01*
X146501000Y-76456050D01*
X146504072Y-76016800D01*
X146491812Y-75892318D01*
X146455502Y-75772620D01*
X146396537Y-75662306D01*
X146317185Y-75565615D01*
X146220494Y-75486263D01*
X146110180Y-75427298D01*
X145990482Y-75390988D01*
X145866000Y-75378728D01*
X145151750Y-75381800D01*
X144993000Y-75540550D01*
X144739000Y-75540550D01*
X144580250Y-75381800D01*
X143866000Y-75378728D01*
X143741518Y-75390988D01*
X143621820Y-75427298D01*
X143511506Y-75486263D01*
X143414815Y-75565615D01*
X143335463Y-75662306D01*
X143276498Y-75772620D01*
X143240188Y-75892318D01*
X143227928Y-76016800D01*
X138915035Y-76016800D01*
X137835028Y-74936794D01*
X137819962Y-74918436D01*
X137746720Y-74858328D01*
X137663159Y-74813664D01*
X137572490Y-74786160D01*
X137535931Y-74782559D01*
X137447049Y-74723170D01*
X137336764Y-74677488D01*
X137237850Y-74657813D01*
X136062630Y-73482594D01*
X136047564Y-73464236D01*
X135974322Y-73404128D01*
X135890761Y-73359464D01*
X135800092Y-73331960D01*
X135729426Y-73325000D01*
X135705800Y-73322673D01*
X135682174Y-73325000D01*
X132145580Y-73325000D01*
X132120203Y-73308043D01*
X132226400Y-73308043D01*
X132301089Y-73300687D01*
X132372908Y-73278901D01*
X132439096Y-73243522D01*
X132486400Y-73204701D01*
X132533704Y-73243522D01*
X132599892Y-73278901D01*
X132671711Y-73300687D01*
X132746400Y-73308043D01*
X133496400Y-73308043D01*
X133571089Y-73300687D01*
X133642908Y-73278901D01*
X133709096Y-73243522D01*
X133756400Y-73204701D01*
X133803704Y-73243522D01*
X133869892Y-73278901D01*
X133941711Y-73300687D01*
X134016400Y-73308043D01*
X134766400Y-73308043D01*
X134841089Y-73300687D01*
X134912908Y-73278901D01*
X134979096Y-73243522D01*
X135026400Y-73204701D01*
X135073704Y-73243522D01*
X135139892Y-73278901D01*
X135211711Y-73300687D01*
X135286400Y-73308043D01*
X136036400Y-73308043D01*
X136111089Y-73300687D01*
X136182908Y-73278901D01*
X136249096Y-73243522D01*
X136296400Y-73204701D01*
X136343704Y-73243522D01*
X136409892Y-73278901D01*
X136481711Y-73300687D01*
X136556400Y-73308043D01*
X137306400Y-73308043D01*
X137381089Y-73300687D01*
X137452908Y-73278901D01*
X137519096Y-73243522D01*
X137566400Y-73204701D01*
X137613704Y-73243522D01*
X137679892Y-73278901D01*
X137751711Y-73300687D01*
X137826400Y-73308043D01*
X138576400Y-73308043D01*
X138588176Y-73306883D01*
X138645215Y-73376385D01*
X138741906Y-73455737D01*
X138852220Y-73514702D01*
X138971918Y-73551012D01*
X139096400Y-73563272D01*
X139185650Y-73560200D01*
X139344400Y-73401450D01*
X139344400Y-72002200D01*
X139324400Y-72002200D01*
X139324400Y-71748200D01*
X139344400Y-71748200D01*
X139344400Y-70348950D01*
X139185650Y-70190200D01*
X139096400Y-70187128D01*
X138971918Y-70199388D01*
X138852220Y-70235698D01*
X138741906Y-70294663D01*
X138645215Y-70374015D01*
X138588176Y-70443517D01*
X138576400Y-70442357D01*
X137826400Y-70442357D01*
X137751711Y-70449713D01*
X137679892Y-70471499D01*
X137613704Y-70506878D01*
X137566400Y-70545699D01*
X137543394Y-70526819D01*
X137579911Y-70490302D01*
X137646230Y-70391049D01*
X137691912Y-70280764D01*
X137715200Y-70163686D01*
X137715200Y-70044314D01*
X137691912Y-69927236D01*
X137646230Y-69816951D01*
X137579911Y-69717698D01*
X137510389Y-69648176D01*
X137519096Y-69643522D01*
X137566400Y-69604701D01*
X137613704Y-69643522D01*
X137679892Y-69678901D01*
X137751711Y-69700687D01*
X137826400Y-69708043D01*
X138576400Y-69708043D01*
X138651089Y-69700687D01*
X138722908Y-69678901D01*
X138789096Y-69643522D01*
X138836400Y-69604701D01*
X138883704Y-69643522D01*
X138949892Y-69678901D01*
X139021711Y-69700687D01*
X139096400Y-69708043D01*
X139846400Y-69708043D01*
X139921089Y-69700687D01*
X139992908Y-69678901D01*
X140059096Y-69643522D01*
X140117111Y-69595911D01*
X140133401Y-69576061D01*
X140133401Y-70258587D01*
X140090580Y-70235698D01*
X139970882Y-70199388D01*
X139846400Y-70187128D01*
X139757150Y-70190200D01*
X139598400Y-70348950D01*
X139598400Y-71748200D01*
X139618400Y-71748200D01*
X139618400Y-72002200D01*
X139598400Y-72002200D01*
X139598400Y-73401450D01*
X139757150Y-73560200D01*
X139846400Y-73563272D01*
X139970882Y-73551012D01*
X140010492Y-73538996D01*
X140008400Y-73549514D01*
X140008400Y-73668886D01*
X140031688Y-73785964D01*
X140077370Y-73896249D01*
X140143689Y-73995502D01*
X140228098Y-74079911D01*
X140327351Y-74146230D01*
X140437636Y-74191912D01*
X140554714Y-74215200D01*
X140674086Y-74215200D01*
X140791164Y-74191912D01*
X140901449Y-74146230D01*
X141000702Y-74079911D01*
X141085111Y-73995502D01*
X141151430Y-73896249D01*
X141197112Y-73785964D01*
X141220400Y-73668886D01*
X141220400Y-73549514D01*
X141197112Y-73432436D01*
X141151430Y-73322151D01*
X141095400Y-73238297D01*
X141095400Y-70670892D01*
X141164314Y-70684600D01*
X141283686Y-70684600D01*
X141400764Y-70661312D01*
X141511049Y-70615630D01*
X141610302Y-70549311D01*
X141694711Y-70464902D01*
X141761030Y-70365649D01*
X141806712Y-70255364D01*
X141830000Y-70138286D01*
X141830000Y-70018914D01*
X141806712Y-69901836D01*
X141761030Y-69791551D01*
X141694711Y-69692298D01*
X141610302Y-69607889D01*
X141511049Y-69541570D01*
X141400764Y-69495888D01*
X141283686Y-69472600D01*
X141164314Y-69472600D01*
X141095400Y-69486308D01*
X141095400Y-68832226D01*
X141097727Y-68808599D01*
X141088440Y-68714307D01*
X141073203Y-68664079D01*
X141060936Y-68623639D01*
X141016272Y-68540078D01*
X140956164Y-68466836D01*
X140937811Y-68451774D01*
X140443630Y-67957594D01*
X140428564Y-67939236D01*
X140355322Y-67879128D01*
X140271761Y-67834464D01*
X140229243Y-67821566D01*
X140229243Y-67225200D01*
X140221887Y-67150511D01*
X140200101Y-67078692D01*
X140164722Y-67012504D01*
X140117111Y-66954489D01*
X140059096Y-66906878D01*
X139992908Y-66871499D01*
X139921089Y-66849713D01*
X139846400Y-66842357D01*
X139096400Y-66842357D01*
X139021711Y-66849713D01*
X138949892Y-66871499D01*
X138883704Y-66906878D01*
X138836400Y-66945699D01*
X138789096Y-66906878D01*
X138722908Y-66871499D01*
X138651089Y-66849713D01*
X138576400Y-66842357D01*
X137826400Y-66842357D01*
X137751711Y-66849713D01*
X137679892Y-66871499D01*
X137613704Y-66906878D01*
X137566400Y-66945699D01*
X137519096Y-66906878D01*
X137452908Y-66871499D01*
X137381089Y-66849713D01*
X137306400Y-66842357D01*
X136556400Y-66842357D01*
X136481711Y-66849713D01*
X136409892Y-66871499D01*
X136343704Y-66906878D01*
X136296400Y-66945699D01*
X136249096Y-66906878D01*
X136182908Y-66871499D01*
X136111089Y-66849713D01*
X136036400Y-66842357D01*
X135286400Y-66842357D01*
X135274624Y-66843517D01*
X135217585Y-66774015D01*
X135153961Y-66721801D01*
X144916512Y-66721799D01*
X144617950Y-66781187D01*
G37*
X144617950Y-66781187D02*
X144148238Y-66975748D01*
X143725509Y-67258207D01*
X143366007Y-67617709D01*
X143083548Y-68040438D01*
X142888987Y-68510150D01*
X142789800Y-69008794D01*
X142789800Y-69517206D01*
X142888987Y-70015850D01*
X143083548Y-70485562D01*
X143366007Y-70908291D01*
X143725509Y-71267793D01*
X144148238Y-71550252D01*
X144617950Y-71744813D01*
X145116594Y-71844000D01*
X145625006Y-71844000D01*
X146123650Y-71744813D01*
X146593362Y-71550252D01*
X147016091Y-71267793D01*
X147375593Y-70908291D01*
X147658052Y-70485562D01*
X147852613Y-70015850D01*
X147916400Y-69695173D01*
X147916401Y-104828232D01*
X147852613Y-104507550D01*
X147658052Y-104037838D01*
X147375593Y-103615109D01*
X147016091Y-103255607D01*
X146593362Y-102973148D01*
X146200761Y-102810528D01*
X146416587Y-102764615D01*
X146622278Y-102676203D01*
X146806769Y-102549361D01*
X146962969Y-102388964D01*
X147084876Y-102201176D01*
X147164719Y-101978074D01*
X147038554Y-101803200D01*
X145897600Y-101803200D01*
X145897600Y-101823200D01*
X145643600Y-101823200D01*
X145643600Y-101803200D01*
X144502646Y-101803200D01*
X144376481Y-101978074D01*
X144456324Y-102201176D01*
X144578231Y-102388964D01*
X144734431Y-102549361D01*
X144918922Y-102676203D01*
X144986544Y-102705269D01*
X144617950Y-102778587D01*
X144148238Y-102973148D01*
X143725509Y-103255607D01*
X143366007Y-103615109D01*
X143083548Y-104037838D01*
X142888987Y-104507550D01*
X142789800Y-105006194D01*
X142789800Y-105514606D01*
X142888987Y-106013250D01*
X143083548Y-106482962D01*
X143366007Y-106905691D01*
X143725509Y-107265193D01*
X144148238Y-107547652D01*
X144617950Y-107742213D01*
X144957731Y-107809800D01*
X143750411Y-107809800D01*
X143729870Y-107743442D01*
X143713859Y-107705352D01*
X143698373Y-107667022D01*
X143695383Y-107661400D01*
X143695383Y-107661399D01*
X143695380Y-107661395D01*
X143602558Y-107489723D01*
X143579442Y-107455451D01*
X143556816Y-107420875D01*
X143552799Y-107415950D01*
X143552793Y-107415942D01*
X143552786Y-107415935D01*
X143428387Y-107265563D01*
X143399057Y-107236437D01*
X143370146Y-107206913D01*
X143365245Y-107202859D01*
X143365239Y-107202853D01*
X143365232Y-107202849D01*
X143213997Y-107079504D01*
X143179553Y-107056619D01*
X143145472Y-107033283D01*
X143139879Y-107030259D01*
X143139871Y-107030254D01*
X143139863Y-107030251D01*
X142967549Y-106938630D01*
X142929354Y-106922887D01*
X142891351Y-106906599D01*
X142885269Y-106904716D01*
X142698432Y-106848307D01*
X142657907Y-106840283D01*
X142617464Y-106831686D01*
X142611132Y-106831021D01*
X142416898Y-106811976D01*
X142416892Y-106811976D01*
X142394798Y-106809800D01*
X112348256Y-106809803D01*
X112328670Y-106811732D01*
X112324089Y-106811700D01*
X112317752Y-106812322D01*
X112123656Y-106832723D01*
X112083167Y-106841034D01*
X112042575Y-106848777D01*
X112036481Y-106850617D01*
X112036475Y-106850619D01*
X111850042Y-106908330D01*
X111811952Y-106924341D01*
X111773622Y-106939827D01*
X111768004Y-106942815D01*
X111767999Y-106942817D01*
X111767995Y-106942820D01*
X111596323Y-107035642D01*
X111562051Y-107058758D01*
X111527475Y-107081384D01*
X111522550Y-107085401D01*
X111522542Y-107085407D01*
X111522535Y-107085414D01*
X111372163Y-107209813D01*
X111343037Y-107239143D01*
X111313513Y-107268054D01*
X111309459Y-107272955D01*
X111309453Y-107272961D01*
X111309449Y-107272968D01*
X111186104Y-107424203D01*
X111163219Y-107458647D01*
X111139883Y-107492728D01*
X111136859Y-107498321D01*
X111136854Y-107498329D01*
X111136851Y-107498337D01*
X111045230Y-107670651D01*
X111029487Y-107708846D01*
X111013199Y-107746849D01*
X111011316Y-107752931D01*
X110994146Y-107809800D01*
X109783469Y-107809800D01*
X110123250Y-107742213D01*
X110592962Y-107547652D01*
X111015691Y-107265193D01*
X111375193Y-106905691D01*
X111657652Y-106482962D01*
X111852213Y-106013250D01*
X111878001Y-105883604D01*
X127892500Y-105883604D01*
X127892500Y-106002976D01*
X127915788Y-106120054D01*
X127961470Y-106230339D01*
X128027789Y-106329592D01*
X128112198Y-106414001D01*
X128211451Y-106480320D01*
X128321736Y-106526002D01*
X128438814Y-106549290D01*
X128558186Y-106549290D01*
X128675264Y-106526002D01*
X128785549Y-106480320D01*
X128884802Y-106414001D01*
X128969211Y-106329592D01*
X129035530Y-106230339D01*
X129081212Y-106120054D01*
X129104500Y-106002976D01*
X129104500Y-105883604D01*
X129081212Y-105766526D01*
X129035530Y-105656241D01*
X128969211Y-105556988D01*
X128884802Y-105472579D01*
X128785549Y-105406260D01*
X128675264Y-105360578D01*
X128558186Y-105337290D01*
X128438814Y-105337290D01*
X128321736Y-105360578D01*
X128211451Y-105406260D01*
X128112198Y-105472579D01*
X128027789Y-105556988D01*
X127961470Y-105656241D01*
X127915788Y-105766526D01*
X127892500Y-105883604D01*
X111878001Y-105883604D01*
X111951400Y-105514606D01*
X111951400Y-105006194D01*
X111852213Y-104507550D01*
X111838322Y-104474014D01*
X135512600Y-104474014D01*
X135512600Y-104593386D01*
X135535888Y-104710464D01*
X135581570Y-104820749D01*
X135647889Y-104920002D01*
X135732298Y-105004411D01*
X135831551Y-105070730D01*
X135941836Y-105116412D01*
X136058914Y-105139700D01*
X136178286Y-105139700D01*
X136295364Y-105116412D01*
X136405649Y-105070730D01*
X136504902Y-105004411D01*
X136589311Y-104920002D01*
X136655630Y-104820749D01*
X136701312Y-104710464D01*
X136724600Y-104593386D01*
X136724600Y-104474014D01*
X136701312Y-104356936D01*
X136655630Y-104246651D01*
X136589311Y-104147398D01*
X136504902Y-104062989D01*
X136405649Y-103996670D01*
X136295364Y-103950988D01*
X136178286Y-103927700D01*
X136058914Y-103927700D01*
X135941836Y-103950988D01*
X135831551Y-103996670D01*
X135732298Y-104062989D01*
X135647889Y-104147398D01*
X135581570Y-104246651D01*
X135535888Y-104356936D01*
X135512600Y-104474014D01*
X111838322Y-104474014D01*
X111657652Y-104037838D01*
X111375193Y-103615109D01*
X111015691Y-103255607D01*
X110592962Y-102973148D01*
X110567773Y-102962714D01*
X123790500Y-102962714D01*
X123790500Y-103082086D01*
X123813788Y-103199164D01*
X123859470Y-103309449D01*
X123925789Y-103408702D01*
X124010198Y-103493111D01*
X124109451Y-103559430D01*
X124219736Y-103605112D01*
X124336814Y-103628400D01*
X124456186Y-103628400D01*
X124573264Y-103605112D01*
X124683549Y-103559430D01*
X124782802Y-103493111D01*
X124867211Y-103408702D01*
X124933530Y-103309449D01*
X124950900Y-103267514D01*
X126851200Y-103267514D01*
X126851200Y-103386886D01*
X126874488Y-103503964D01*
X126920170Y-103614249D01*
X126986489Y-103713502D01*
X127070898Y-103797911D01*
X127170151Y-103864230D01*
X127280436Y-103909912D01*
X127397514Y-103933200D01*
X127516886Y-103933200D01*
X127633964Y-103909912D01*
X127744249Y-103864230D01*
X127843502Y-103797911D01*
X127927911Y-103713502D01*
X127994230Y-103614249D01*
X128039912Y-103503964D01*
X128063200Y-103386886D01*
X128063200Y-103267514D01*
X128039912Y-103150436D01*
X127994230Y-103040151D01*
X127927911Y-102940898D01*
X127843502Y-102856489D01*
X127744249Y-102790170D01*
X127633964Y-102744488D01*
X127516886Y-102721200D01*
X127397514Y-102721200D01*
X127280436Y-102744488D01*
X127170151Y-102790170D01*
X127070898Y-102856489D01*
X126986489Y-102940898D01*
X126920170Y-103040151D01*
X126874488Y-103150436D01*
X126851200Y-103267514D01*
X124950900Y-103267514D01*
X124979212Y-103199164D01*
X125002500Y-103082086D01*
X125002500Y-102962714D01*
X124979212Y-102845636D01*
X124933530Y-102735351D01*
X124867211Y-102636098D01*
X124782802Y-102551689D01*
X124683549Y-102485370D01*
X124573264Y-102439688D01*
X124456186Y-102416400D01*
X124336814Y-102416400D01*
X124219736Y-102439688D01*
X124109451Y-102485370D01*
X124010198Y-102551689D01*
X123925789Y-102636098D01*
X123859470Y-102735351D01*
X123813788Y-102845636D01*
X123790500Y-102962714D01*
X110567773Y-102962714D01*
X110123250Y-102778587D01*
X109624606Y-102679400D01*
X109116194Y-102679400D01*
X108617550Y-102778587D01*
X108147838Y-102973148D01*
X107725109Y-103255607D01*
X107365607Y-103615109D01*
X107083148Y-104037838D01*
X106888587Y-104507550D01*
X106828400Y-104810129D01*
X106828400Y-102327714D01*
X131499400Y-102327714D01*
X131499400Y-102447086D01*
X131522688Y-102564164D01*
X131568370Y-102674449D01*
X131634689Y-102773702D01*
X131719098Y-102858111D01*
X131818351Y-102924430D01*
X131928636Y-102970112D01*
X132045714Y-102993400D01*
X132165086Y-102993400D01*
X132282164Y-102970112D01*
X132392449Y-102924430D01*
X132491702Y-102858111D01*
X132576111Y-102773702D01*
X132642430Y-102674449D01*
X132688112Y-102564164D01*
X132711400Y-102447086D01*
X132711400Y-102327714D01*
X132688112Y-102210636D01*
X132642430Y-102100351D01*
X132576111Y-102001098D01*
X132549087Y-101974074D01*
X139946481Y-101974074D01*
X140026324Y-102197176D01*
X140148231Y-102384964D01*
X140304431Y-102545361D01*
X140488922Y-102672203D01*
X140694613Y-102760615D01*
X140913600Y-102807200D01*
X141463600Y-102807200D01*
X141463600Y-101799200D01*
X141717600Y-101799200D01*
X141717600Y-102807200D01*
X142267600Y-102807200D01*
X142486587Y-102760615D01*
X142692278Y-102672203D01*
X142876769Y-102545361D01*
X143032969Y-102384964D01*
X143154876Y-102197176D01*
X143234719Y-101974074D01*
X143108554Y-101799200D01*
X141717600Y-101799200D01*
X141463600Y-101799200D01*
X140072646Y-101799200D01*
X139946481Y-101974074D01*
X132549087Y-101974074D01*
X132491702Y-101916689D01*
X132392449Y-101850370D01*
X132282164Y-101804688D01*
X132165086Y-101781400D01*
X132045714Y-101781400D01*
X131928636Y-101804688D01*
X131818351Y-101850370D01*
X131719098Y-101916689D01*
X131634689Y-102001098D01*
X131568370Y-102100351D01*
X131522688Y-102210636D01*
X131499400Y-102327714D01*
X106828400Y-102327714D01*
X106828400Y-101616514D01*
X126775000Y-101616514D01*
X126775000Y-101735886D01*
X126798288Y-101852964D01*
X126843970Y-101963249D01*
X126910289Y-102062502D01*
X126994698Y-102146911D01*
X127093951Y-102213230D01*
X127204236Y-102258912D01*
X127321314Y-102282200D01*
X127440686Y-102282200D01*
X127557764Y-102258912D01*
X127668049Y-102213230D01*
X127767302Y-102146911D01*
X127851711Y-102062502D01*
X127918030Y-101963249D01*
X127963712Y-101852964D01*
X127987000Y-101735886D01*
X127987000Y-101616514D01*
X127963712Y-101499436D01*
X127918030Y-101389151D01*
X127905452Y-101370326D01*
X139946481Y-101370326D01*
X140072646Y-101545200D01*
X141463600Y-101545200D01*
X141463600Y-101525200D01*
X141717600Y-101525200D01*
X141717600Y-101545200D01*
X143108554Y-101545200D01*
X143231833Y-101374326D01*
X144376481Y-101374326D01*
X144502646Y-101549200D01*
X145643600Y-101549200D01*
X145643600Y-100541200D01*
X145897600Y-100541200D01*
X145897600Y-101549200D01*
X147038554Y-101549200D01*
X147164719Y-101374326D01*
X147084876Y-101151224D01*
X146962969Y-100963436D01*
X146806769Y-100803039D01*
X146622278Y-100676197D01*
X146416587Y-100587785D01*
X146197600Y-100541200D01*
X145897600Y-100541200D01*
X145643600Y-100541200D01*
X145343600Y-100541200D01*
X145124613Y-100587785D01*
X144918922Y-100676197D01*
X144734431Y-100803039D01*
X144578231Y-100963436D01*
X144456324Y-101151224D01*
X144376481Y-101374326D01*
X143231833Y-101374326D01*
X143234719Y-101370326D01*
X143154876Y-101147224D01*
X143032969Y-100959436D01*
X142876769Y-100799039D01*
X142692278Y-100672197D01*
X142635299Y-100647706D01*
X142660749Y-100609616D01*
X142713969Y-100481133D01*
X142741100Y-100344735D01*
X142741100Y-100205665D01*
X142713969Y-100069267D01*
X142660749Y-99940784D01*
X142583486Y-99825151D01*
X142485149Y-99726814D01*
X142369516Y-99649551D01*
X142241033Y-99596331D01*
X142104635Y-99569200D01*
X141965565Y-99569200D01*
X141829167Y-99596331D01*
X141700684Y-99649551D01*
X141585051Y-99726814D01*
X141486714Y-99825151D01*
X141409451Y-99940784D01*
X141356231Y-100069267D01*
X141329100Y-100205665D01*
X141329100Y-100344735D01*
X141356231Y-100481133D01*
X141379455Y-100537200D01*
X140913600Y-100537200D01*
X140694613Y-100583785D01*
X140488922Y-100672197D01*
X140304431Y-100799039D01*
X140148231Y-100959436D01*
X140026324Y-101147224D01*
X139946481Y-101370326D01*
X127905452Y-101370326D01*
X127851711Y-101289898D01*
X127767302Y-101205489D01*
X127668049Y-101139170D01*
X127557764Y-101093488D01*
X127440686Y-101070200D01*
X127321314Y-101070200D01*
X127204236Y-101093488D01*
X127093951Y-101139170D01*
X126994698Y-101205489D01*
X126910289Y-101289898D01*
X126843970Y-101389151D01*
X126798288Y-101499436D01*
X126775000Y-101616514D01*
X106828400Y-101616514D01*
X106828400Y-99482914D01*
X121771200Y-99482914D01*
X121771200Y-99602286D01*
X121794488Y-99719364D01*
X121840170Y-99829649D01*
X121906489Y-99928902D01*
X121990898Y-100013311D01*
X122090151Y-100079630D01*
X122200436Y-100125312D01*
X122317514Y-100148600D01*
X122436886Y-100148600D01*
X122553964Y-100125312D01*
X122664249Y-100079630D01*
X122763502Y-100013311D01*
X122847911Y-99928902D01*
X122914230Y-99829649D01*
X122959912Y-99719364D01*
X122983200Y-99602286D01*
X122983200Y-99482914D01*
X122959912Y-99365836D01*
X122914230Y-99255551D01*
X122847911Y-99156298D01*
X122763502Y-99071889D01*
X122664249Y-99005570D01*
X122553964Y-98959888D01*
X122436886Y-98936600D01*
X122317514Y-98936600D01*
X122200436Y-98959888D01*
X122090151Y-99005570D01*
X121990898Y-99071889D01*
X121906489Y-99156298D01*
X121840170Y-99255551D01*
X121794488Y-99365836D01*
X121771200Y-99482914D01*
X106828400Y-99482914D01*
X106828400Y-97720078D01*
X107391400Y-97720078D01*
X107391400Y-97873922D01*
X107421413Y-98024809D01*
X107480287Y-98166942D01*
X107565758Y-98294859D01*
X107674541Y-98403642D01*
X107802458Y-98489113D01*
X107944591Y-98547987D01*
X108095478Y-98578000D01*
X108249322Y-98578000D01*
X108400209Y-98547987D01*
X108542342Y-98489113D01*
X108670259Y-98403642D01*
X108779042Y-98294859D01*
X108864513Y-98166942D01*
X108923387Y-98024809D01*
X108953400Y-97873922D01*
X108953400Y-97720078D01*
X108923387Y-97569191D01*
X108864513Y-97427058D01*
X108779042Y-97299141D01*
X108670259Y-97190358D01*
X108542342Y-97104887D01*
X108400209Y-97046013D01*
X108249322Y-97016000D01*
X108095478Y-97016000D01*
X107944591Y-97046013D01*
X107802458Y-97104887D01*
X107674541Y-97190358D01*
X107565758Y-97299141D01*
X107480287Y-97427058D01*
X107421413Y-97569191D01*
X107391400Y-97720078D01*
X106828400Y-97720078D01*
X106828400Y-95420078D01*
X107391400Y-95420078D01*
X107391400Y-95573922D01*
X107421413Y-95724809D01*
X107480287Y-95866942D01*
X107565758Y-95994859D01*
X107674541Y-96103642D01*
X107802458Y-96189113D01*
X107944591Y-96247987D01*
X108095478Y-96278000D01*
X108249322Y-96278000D01*
X108400209Y-96247987D01*
X108542342Y-96189113D01*
X108670259Y-96103642D01*
X108779042Y-95994859D01*
X108864513Y-95866942D01*
X108923387Y-95724809D01*
X108953400Y-95573922D01*
X108953400Y-95420078D01*
X108923387Y-95269191D01*
X108864513Y-95127058D01*
X108779042Y-94999141D01*
X108670259Y-94890358D01*
X108542342Y-94804887D01*
X108400209Y-94746013D01*
X108249322Y-94716000D01*
X108095478Y-94716000D01*
X107944591Y-94746013D01*
X107802458Y-94804887D01*
X107674541Y-94890358D01*
X107565758Y-94999141D01*
X107480287Y-95127058D01*
X107421413Y-95269191D01*
X107391400Y-95420078D01*
X106828400Y-95420078D01*
X106828400Y-86779067D01*
X106874314Y-86788200D01*
X106993686Y-86788200D01*
X107110764Y-86764912D01*
X107221049Y-86719230D01*
X107304903Y-86663200D01*
X109147764Y-86663200D01*
X109975727Y-87491164D01*
X109975728Y-91525727D01*
X109972675Y-91556727D01*
X109984857Y-91680424D01*
X110020938Y-91799368D01*
X110079531Y-91908987D01*
X110138624Y-91980992D01*
X110138627Y-91980995D01*
X110158385Y-92005070D01*
X110182460Y-92024828D01*
X116473499Y-98315868D01*
X116493257Y-98339943D01*
X116589339Y-98418796D01*
X116698958Y-98477389D01*
X116817902Y-98513470D01*
X116910602Y-98522600D01*
X116910611Y-98522600D01*
X116941599Y-98525652D01*
X116972587Y-98522600D01*
X123144798Y-98522600D01*
X123237498Y-98513470D01*
X123356442Y-98477389D01*
X123466061Y-98418796D01*
X123562143Y-98339943D01*
X123640996Y-98243861D01*
X123699589Y-98134242D01*
X123735670Y-98015298D01*
X123747853Y-97891600D01*
X123735670Y-97767902D01*
X123699589Y-97648958D01*
X123640996Y-97539339D01*
X123562143Y-97443257D01*
X123466061Y-97364404D01*
X123356442Y-97305811D01*
X123237498Y-97269730D01*
X123144798Y-97260600D01*
X117202969Y-97260600D01*
X112592683Y-92650314D01*
X115218000Y-92650314D01*
X115218000Y-92769686D01*
X115241288Y-92886764D01*
X115286970Y-92997049D01*
X115353289Y-93096302D01*
X115437698Y-93180711D01*
X115536951Y-93247030D01*
X115647236Y-93292712D01*
X115764314Y-93316000D01*
X115883686Y-93316000D01*
X116000764Y-93292712D01*
X116111049Y-93247030D01*
X116210302Y-93180711D01*
X116294711Y-93096302D01*
X116361030Y-92997049D01*
X116406712Y-92886764D01*
X116430000Y-92769686D01*
X116430000Y-92650314D01*
X116406712Y-92533236D01*
X116361030Y-92422951D01*
X116294711Y-92323698D01*
X116210302Y-92239289D01*
X116111049Y-92172970D01*
X116000764Y-92127288D01*
X115883686Y-92104000D01*
X115764314Y-92104000D01*
X115647236Y-92127288D01*
X115536951Y-92172970D01*
X115437698Y-92239289D01*
X115353289Y-92323698D01*
X115286970Y-92422951D01*
X115241288Y-92533236D01*
X115218000Y-92650314D01*
X112592683Y-92650314D01*
X111237727Y-91295359D01*
X111237727Y-87410929D01*
X111228597Y-87318229D01*
X111212607Y-87265514D01*
X111865200Y-87265514D01*
X111865200Y-87384886D01*
X111888488Y-87501964D01*
X111934170Y-87612249D01*
X111990200Y-87696104D01*
X111990201Y-88266765D01*
X111990200Y-88266775D01*
X111990201Y-89964109D01*
X111959570Y-90009951D01*
X111913888Y-90120236D01*
X111890600Y-90237314D01*
X111890600Y-90356686D01*
X111913888Y-90473764D01*
X111959570Y-90584049D01*
X112025889Y-90683302D01*
X112110298Y-90767711D01*
X112209551Y-90834030D01*
X112319836Y-90879712D01*
X112436914Y-90903000D01*
X112556286Y-90903000D01*
X112673364Y-90879712D01*
X112783649Y-90834030D01*
X112882902Y-90767711D01*
X112967311Y-90683302D01*
X113033630Y-90584049D01*
X113079312Y-90473764D01*
X113102600Y-90356686D01*
X113102600Y-90237314D01*
X113079312Y-90120236D01*
X113033630Y-90009951D01*
X112967311Y-89910698D01*
X112952200Y-89895587D01*
X112952200Y-88485597D01*
X112971028Y-88520822D01*
X113031136Y-88594064D01*
X113049494Y-88609130D01*
X114281813Y-89841450D01*
X114301488Y-89940364D01*
X114347170Y-90050649D01*
X114413489Y-90149902D01*
X114497898Y-90234311D01*
X114597151Y-90300630D01*
X114707436Y-90346312D01*
X114824514Y-90369600D01*
X114943886Y-90369600D01*
X115060964Y-90346312D01*
X115171249Y-90300630D01*
X115270502Y-90234311D01*
X115354911Y-90149902D01*
X115421230Y-90050649D01*
X115466912Y-89940364D01*
X115490200Y-89823286D01*
X115490200Y-89703914D01*
X115469991Y-89602314D01*
X115548200Y-89602314D01*
X115548200Y-89721686D01*
X115571488Y-89838764D01*
X115617170Y-89949049D01*
X115683489Y-90048302D01*
X115767898Y-90132711D01*
X115867151Y-90199030D01*
X115977436Y-90244712D01*
X116094514Y-90268000D01*
X116213886Y-90268000D01*
X116330964Y-90244712D01*
X116441249Y-90199030D01*
X116540502Y-90132711D01*
X116624911Y-90048302D01*
X116691230Y-89949049D01*
X116736912Y-89838764D01*
X116760200Y-89721686D01*
X116760200Y-89602314D01*
X116736912Y-89485236D01*
X116691230Y-89374951D01*
X116624911Y-89275698D01*
X116540502Y-89191289D01*
X116441249Y-89124970D01*
X116330964Y-89079288D01*
X116213886Y-89056000D01*
X116094514Y-89056000D01*
X115977436Y-89079288D01*
X115867151Y-89124970D01*
X115767898Y-89191289D01*
X115683489Y-89275698D01*
X115617170Y-89374951D01*
X115571488Y-89485236D01*
X115548200Y-89602314D01*
X115469991Y-89602314D01*
X115466912Y-89586836D01*
X115421230Y-89476551D01*
X115354911Y-89377298D01*
X115270502Y-89292889D01*
X115171249Y-89226570D01*
X115060964Y-89180888D01*
X114962050Y-89161213D01*
X113853900Y-88053064D01*
X113853900Y-86833714D01*
X115319600Y-86833714D01*
X115319600Y-86953086D01*
X115342888Y-87070164D01*
X115388570Y-87180449D01*
X115454889Y-87279702D01*
X115539298Y-87364111D01*
X115638551Y-87430430D01*
X115748836Y-87476112D01*
X115865914Y-87499400D01*
X115985286Y-87499400D01*
X116102364Y-87476112D01*
X116212649Y-87430430D01*
X116311902Y-87364111D01*
X116396311Y-87279702D01*
X116462630Y-87180449D01*
X116508312Y-87070164D01*
X116531600Y-86953086D01*
X116531600Y-86833714D01*
X116508312Y-86716636D01*
X116462630Y-86606351D01*
X116396311Y-86507098D01*
X116311902Y-86422689D01*
X116212649Y-86356370D01*
X116102364Y-86310688D01*
X115985286Y-86287400D01*
X115865914Y-86287400D01*
X115748836Y-86310688D01*
X115638551Y-86356370D01*
X115539298Y-86422689D01*
X115454889Y-86507098D01*
X115388570Y-86606351D01*
X115342888Y-86716636D01*
X115319600Y-86833714D01*
X113853900Y-86833714D01*
X113853900Y-83619403D01*
X113909930Y-83535549D01*
X113955612Y-83425264D01*
X113978900Y-83308186D01*
X113978900Y-83188814D01*
X113955612Y-83071736D01*
X113909930Y-82961451D01*
X113843611Y-82862198D01*
X113759202Y-82777789D01*
X113659949Y-82711470D01*
X113549664Y-82665788D01*
X113432586Y-82642500D01*
X113313214Y-82642500D01*
X113196136Y-82665788D01*
X113085851Y-82711470D01*
X112986598Y-82777789D01*
X112902189Y-82862198D01*
X112835870Y-82961451D01*
X112790188Y-83071736D01*
X112766900Y-83188814D01*
X112766900Y-83308186D01*
X112790188Y-83425264D01*
X112835870Y-83535549D01*
X112891901Y-83619405D01*
X112891900Y-86888887D01*
X112857502Y-86854489D01*
X112758249Y-86788170D01*
X112647964Y-86742488D01*
X112530886Y-86719200D01*
X112411514Y-86719200D01*
X112294436Y-86742488D01*
X112184151Y-86788170D01*
X112084898Y-86854489D01*
X112000489Y-86938898D01*
X111934170Y-87038151D01*
X111888488Y-87148436D01*
X111865200Y-87265514D01*
X111212607Y-87265514D01*
X111192516Y-87199285D01*
X111133923Y-87089666D01*
X111055070Y-86993584D01*
X110958987Y-86914731D01*
X110849368Y-86856138D01*
X110730424Y-86820057D01*
X110657956Y-86812920D01*
X109703830Y-85858794D01*
X109688764Y-85840436D01*
X109615522Y-85780328D01*
X109531961Y-85735664D01*
X109441292Y-85708160D01*
X109370626Y-85701200D01*
X109347000Y-85698873D01*
X109323374Y-85701200D01*
X107415000Y-85701200D01*
X107415000Y-85060636D01*
X108332650Y-84142987D01*
X108431564Y-84123312D01*
X108541849Y-84077630D01*
X108641102Y-84011311D01*
X108725511Y-83926902D01*
X108791830Y-83827649D01*
X108837512Y-83717364D01*
X108860800Y-83600286D01*
X108860800Y-83480914D01*
X108837512Y-83363836D01*
X108791830Y-83253551D01*
X108735800Y-83169697D01*
X108735800Y-83130236D01*
X109323250Y-82542787D01*
X109422164Y-82523112D01*
X109532449Y-82477430D01*
X109631702Y-82411111D01*
X109716111Y-82326702D01*
X109782430Y-82227449D01*
X109828112Y-82117164D01*
X109851400Y-82000086D01*
X109851400Y-81880714D01*
X109828112Y-81763636D01*
X109782430Y-81653351D01*
X109716111Y-81554098D01*
X109631702Y-81469689D01*
X109532449Y-81403370D01*
X109422164Y-81357688D01*
X109305086Y-81334400D01*
X109185714Y-81334400D01*
X109068636Y-81357688D01*
X108958351Y-81403370D01*
X108859098Y-81469689D01*
X108774689Y-81554098D01*
X108708370Y-81653351D01*
X108662688Y-81763636D01*
X108643013Y-81862550D01*
X107931389Y-82574175D01*
X107913037Y-82589236D01*
X107897976Y-82607588D01*
X107852929Y-82662478D01*
X107808265Y-82746039D01*
X107780760Y-82836708D01*
X107771473Y-82931000D01*
X107773801Y-82954636D01*
X107773801Y-83169696D01*
X107717770Y-83253551D01*
X107672088Y-83363836D01*
X107652413Y-83462750D01*
X106828400Y-84286764D01*
X106828400Y-69713271D01*
X106888587Y-70015850D01*
X107083148Y-70485562D01*
X107365607Y-70908291D01*
X107725109Y-71267793D01*
X108147838Y-71550252D01*
X108617550Y-71744813D01*
X109116194Y-71844000D01*
X109624606Y-71844000D01*
X110123250Y-71744813D01*
X110592962Y-71550252D01*
X111015691Y-71267793D01*
X111375193Y-70908291D01*
X111657652Y-70485562D01*
X111852213Y-70015850D01*
X111951400Y-69517206D01*
X111951400Y-69008794D01*
X111852213Y-68510150D01*
X111657652Y-68040438D01*
X111375193Y-67617709D01*
X111015691Y-67258207D01*
X110592962Y-66975748D01*
X110123250Y-66781187D01*
X109824718Y-66721805D01*
X118388835Y-66721803D01*
X118325215Y-66774015D01*
X118268176Y-66843517D01*
X118256400Y-66842357D01*
X117506400Y-66842357D01*
X117431711Y-66849713D01*
X117359892Y-66871499D01*
X117293704Y-66906878D01*
X117246400Y-66945699D01*
X117199096Y-66906878D01*
X117132908Y-66871499D01*
X117061089Y-66849713D01*
X116986400Y-66842357D01*
X116236400Y-66842357D01*
X116161711Y-66849713D01*
X116089892Y-66871499D01*
X116023704Y-66906878D01*
X115976400Y-66945699D01*
X115929096Y-66906878D01*
X115862908Y-66871499D01*
X115791089Y-66849713D01*
X115716400Y-66842357D01*
X114966400Y-66842357D01*
X114891711Y-66849713D01*
X114819892Y-66871499D01*
X114753704Y-66906878D01*
X114695689Y-66954489D01*
X114648078Y-67012504D01*
X114612699Y-67078692D01*
X114590913Y-67150511D01*
X114583557Y-67225200D01*
X114583557Y-69325200D01*
X114590913Y-69399889D01*
X114612699Y-69471708D01*
X114648078Y-69537896D01*
X114695689Y-69595911D01*
X114710400Y-69607984D01*
X114710400Y-69752708D01*
X108397181Y-76065928D01*
X108377874Y-76081773D01*
X108314642Y-76158821D01*
X108298446Y-76189122D01*
X108267655Y-76246726D01*
X108238722Y-76342108D01*
X108228953Y-76441300D01*
X108231401Y-76466156D01*
X108231400Y-79778111D01*
X108200370Y-79824551D01*
X108154688Y-79934836D01*
X108131400Y-80051914D01*
X108131400Y-80171286D01*
X108154688Y-80288364D01*
X108200370Y-80398649D01*
X108266689Y-80497902D01*
X108351098Y-80582311D01*
X108450351Y-80648630D01*
X108560636Y-80694312D01*
X108677714Y-80717600D01*
X108797086Y-80717600D01*
X108823660Y-80712314D01*
X114964000Y-80712314D01*
X114964000Y-80831686D01*
X114987288Y-80948764D01*
X115032970Y-81059049D01*
X115099289Y-81158302D01*
X115183698Y-81242711D01*
X115282951Y-81309030D01*
X115393236Y-81354712D01*
X115510314Y-81378000D01*
X115629686Y-81378000D01*
X115746764Y-81354712D01*
X115857049Y-81309030D01*
X115956302Y-81242711D01*
X116040711Y-81158302D01*
X116107030Y-81059049D01*
X116152712Y-80948764D01*
X116176000Y-80831686D01*
X116176000Y-80712314D01*
X116152712Y-80595236D01*
X116107030Y-80484951D01*
X116040711Y-80385698D01*
X115956302Y-80301289D01*
X115857049Y-80234970D01*
X115746764Y-80189288D01*
X115629686Y-80166000D01*
X115510314Y-80166000D01*
X115393236Y-80189288D01*
X115282951Y-80234970D01*
X115183698Y-80301289D01*
X115099289Y-80385698D01*
X115032970Y-80484951D01*
X114987288Y-80595236D01*
X114964000Y-80712314D01*
X108823660Y-80712314D01*
X108914164Y-80694312D01*
X109024449Y-80648630D01*
X109123702Y-80582311D01*
X109208111Y-80497902D01*
X109274430Y-80398649D01*
X109320112Y-80288364D01*
X109343400Y-80171286D01*
X109343400Y-80051914D01*
X109320112Y-79934836D01*
X109274430Y-79824551D01*
X109243400Y-79778112D01*
X109243400Y-76650891D01*
X114583557Y-71310735D01*
X114583557Y-72925200D01*
X114590913Y-72999889D01*
X114612699Y-73071708D01*
X114648078Y-73137896D01*
X114695689Y-73195911D01*
X114753704Y-73243522D01*
X114819892Y-73278901D01*
X114891711Y-73300687D01*
X114966400Y-73308043D01*
X115716400Y-73308043D01*
X115791089Y-73300687D01*
X115862908Y-73278901D01*
X115929096Y-73243522D01*
X115976400Y-73204701D01*
X116023704Y-73243522D01*
X116089892Y-73278901D01*
X116161711Y-73300687D01*
X116236400Y-73308043D01*
X116986400Y-73308043D01*
X117061089Y-73300687D01*
X117132908Y-73278901D01*
X117199096Y-73243522D01*
X117246400Y-73204701D01*
X117293704Y-73243522D01*
X117359892Y-73278901D01*
X117400400Y-73291189D01*
X117400401Y-90466222D01*
X117398073Y-90489858D01*
X117407360Y-90584150D01*
X117428496Y-90653824D01*
X117434865Y-90674819D01*
X117479529Y-90758380D01*
X117539637Y-90831622D01*
X117557989Y-90846683D01*
X118815306Y-92104000D01*
X118812314Y-92104000D01*
X118695236Y-92127288D01*
X118584951Y-92172970D01*
X118485698Y-92239289D01*
X118401289Y-92323698D01*
X118334970Y-92422951D01*
X118289288Y-92533236D01*
X118266000Y-92650314D01*
X118266000Y-92769686D01*
X118289288Y-92886764D01*
X118334970Y-92997049D01*
X118401289Y-93096302D01*
X118485698Y-93180711D01*
X118584951Y-93247030D01*
X118695236Y-93292712D01*
X118812314Y-93316000D01*
X118931686Y-93316000D01*
X119048764Y-93292712D01*
X119159049Y-93247030D01*
X119258302Y-93180711D01*
X119342711Y-93096302D01*
X119409030Y-92997049D01*
X119454712Y-92886764D01*
X119478000Y-92769686D01*
X119478000Y-92766695D01*
X120437386Y-93726081D01*
X120437392Y-93726086D01*
X120633718Y-93922412D01*
X124906101Y-98194796D01*
X124906101Y-98269996D01*
X124850070Y-98353851D01*
X124804388Y-98464136D01*
X124781100Y-98581214D01*
X124781100Y-98700586D01*
X124804388Y-98817664D01*
X124850070Y-98927949D01*
X124916389Y-99027202D01*
X125000798Y-99111611D01*
X125100051Y-99177930D01*
X125210336Y-99223612D01*
X125327414Y-99246900D01*
X125446786Y-99246900D01*
X125563864Y-99223612D01*
X125674149Y-99177930D01*
X125758003Y-99121900D01*
X131778817Y-99121900D01*
X131805651Y-99139830D01*
X131915936Y-99185512D01*
X132033014Y-99208800D01*
X132152386Y-99208800D01*
X132269464Y-99185512D01*
X132379749Y-99139830D01*
X132479002Y-99073511D01*
X132563411Y-98989102D01*
X132629730Y-98889849D01*
X132675412Y-98779564D01*
X132692968Y-98691303D01*
X141739811Y-98691303D01*
X141739811Y-98810675D01*
X141763099Y-98927753D01*
X141808781Y-99038038D01*
X141875100Y-99137291D01*
X141959509Y-99221700D01*
X142058762Y-99288019D01*
X142169047Y-99333701D01*
X142286125Y-99356989D01*
X142405497Y-99356989D01*
X142522575Y-99333701D01*
X142632860Y-99288019D01*
X142732113Y-99221700D01*
X142816522Y-99137291D01*
X142882841Y-99038038D01*
X142928523Y-98927753D01*
X142951811Y-98810675D01*
X142951811Y-98691303D01*
X142928523Y-98574225D01*
X142882841Y-98463940D01*
X142816522Y-98364687D01*
X142732113Y-98280278D01*
X142632860Y-98213959D01*
X142522575Y-98168277D01*
X142405497Y-98144989D01*
X142286125Y-98144989D01*
X142169047Y-98168277D01*
X142058762Y-98213959D01*
X141959509Y-98280278D01*
X141875100Y-98364687D01*
X141808781Y-98463940D01*
X141763099Y-98574225D01*
X141739811Y-98691303D01*
X132692968Y-98691303D01*
X132698700Y-98662486D01*
X132698700Y-98543114D01*
X132675412Y-98426036D01*
X132629730Y-98315751D01*
X132563411Y-98216498D01*
X132479002Y-98132089D01*
X132379749Y-98065770D01*
X132269464Y-98020088D01*
X132152386Y-97996800D01*
X132033014Y-97996800D01*
X131915936Y-98020088D01*
X131805651Y-98065770D01*
X131706398Y-98132089D01*
X131678587Y-98159900D01*
X125868100Y-98159900D01*
X125868100Y-98019184D01*
X125870427Y-97995558D01*
X125861140Y-97901265D01*
X125837788Y-97824286D01*
X125833636Y-97810597D01*
X125788972Y-97727036D01*
X125728864Y-97653794D01*
X125710512Y-97638733D01*
X121313954Y-93242176D01*
X121117628Y-93045850D01*
X121117623Y-93045844D01*
X118362400Y-90290622D01*
X118362400Y-89990101D01*
X118401289Y-90048302D01*
X118485698Y-90132711D01*
X118584951Y-90199030D01*
X118695236Y-90244712D01*
X118812314Y-90268000D01*
X118931686Y-90268000D01*
X119048764Y-90244712D01*
X119159049Y-90199030D01*
X119258302Y-90132711D01*
X119342711Y-90048302D01*
X119409030Y-89949049D01*
X119454712Y-89838764D01*
X119478000Y-89721686D01*
X119478000Y-89602314D01*
X119454712Y-89485236D01*
X119409030Y-89374951D01*
X119342711Y-89275698D01*
X119258302Y-89191289D01*
X119159049Y-89124970D01*
X119048764Y-89079288D01*
X118931686Y-89056000D01*
X118812314Y-89056000D01*
X118695236Y-89079288D01*
X118584951Y-89124970D01*
X118485698Y-89191289D01*
X118401289Y-89275698D01*
X118362400Y-89333899D01*
X118362400Y-88713314D01*
X120729800Y-88713314D01*
X120729800Y-88832686D01*
X120753088Y-88949764D01*
X120798770Y-89060049D01*
X120865089Y-89159302D01*
X120949498Y-89243711D01*
X121048751Y-89310030D01*
X121159036Y-89355712D01*
X121276114Y-89379000D01*
X121395486Y-89379000D01*
X121512564Y-89355712D01*
X121622849Y-89310030D01*
X121722102Y-89243711D01*
X121806511Y-89159302D01*
X121872830Y-89060049D01*
X121918512Y-88949764D01*
X121941800Y-88832686D01*
X121941800Y-88713314D01*
X121918512Y-88596236D01*
X121872830Y-88485951D01*
X121806511Y-88386698D01*
X121722102Y-88302289D01*
X121622849Y-88235970D01*
X121512564Y-88190288D01*
X121395486Y-88167000D01*
X121276114Y-88167000D01*
X121159036Y-88190288D01*
X121048751Y-88235970D01*
X120949498Y-88302289D01*
X120865089Y-88386698D01*
X120798770Y-88485951D01*
X120753088Y-88596236D01*
X120729800Y-88713314D01*
X118362400Y-88713314D01*
X118362400Y-81322057D01*
X118441236Y-81354712D01*
X118558314Y-81378000D01*
X118677686Y-81378000D01*
X118794764Y-81354712D01*
X118905049Y-81309030D01*
X119004302Y-81242711D01*
X119088711Y-81158302D01*
X119155030Y-81059049D01*
X119200712Y-80948764D01*
X119224000Y-80831686D01*
X119224000Y-80737436D01*
X122112100Y-83625537D01*
X122112101Y-85485468D01*
X122109773Y-85509104D01*
X122119060Y-85603396D01*
X122139438Y-85670570D01*
X122146565Y-85694065D01*
X122191229Y-85777626D01*
X122251337Y-85850868D01*
X122269689Y-85865929D01*
X125432413Y-89028654D01*
X125452088Y-89127568D01*
X125497770Y-89237853D01*
X125564089Y-89337106D01*
X125648498Y-89421515D01*
X125747751Y-89487834D01*
X125858036Y-89533516D01*
X125956951Y-89553191D01*
X127809190Y-91405431D01*
X127728379Y-91448625D01*
X127655137Y-91508733D01*
X127640076Y-91527085D01*
X125838398Y-93328764D01*
X125820040Y-93343830D01*
X125759932Y-93417072D01*
X125715268Y-93500634D01*
X125699014Y-93554218D01*
X125687764Y-93591302D01*
X125678477Y-93685594D01*
X125680804Y-93709221D01*
X125680804Y-93990096D01*
X125624774Y-94073951D01*
X125579092Y-94184236D01*
X125555804Y-94301314D01*
X125555804Y-94419402D01*
X125535686Y-94415400D01*
X125416314Y-94415400D01*
X125299236Y-94438688D01*
X125188951Y-94484370D01*
X125089698Y-94550689D01*
X125005289Y-94635098D01*
X124938970Y-94734351D01*
X124893288Y-94844636D01*
X124870000Y-94961714D01*
X124870000Y-95081086D01*
X124893288Y-95198164D01*
X124938970Y-95308449D01*
X125005289Y-95407702D01*
X125089698Y-95492111D01*
X125188951Y-95558430D01*
X125299236Y-95604112D01*
X125416314Y-95627400D01*
X125535686Y-95627400D01*
X125652764Y-95604112D01*
X125763049Y-95558430D01*
X125862302Y-95492111D01*
X125946711Y-95407702D01*
X126013030Y-95308449D01*
X126058712Y-95198164D01*
X126082000Y-95081086D01*
X126082000Y-94962998D01*
X126102118Y-94967000D01*
X126221490Y-94967000D01*
X126338568Y-94943712D01*
X126448853Y-94898030D01*
X126548106Y-94831711D01*
X126632515Y-94747302D01*
X126698834Y-94648049D01*
X126744516Y-94537764D01*
X126767804Y-94420686D01*
X126767804Y-94301314D01*
X126757980Y-94251924D01*
X126772436Y-94257912D01*
X126889514Y-94281200D01*
X127008886Y-94281200D01*
X127125964Y-94257912D01*
X127236249Y-94212230D01*
X127320103Y-94156200D01*
X131360176Y-94156200D01*
X131383802Y-94158527D01*
X131407428Y-94156200D01*
X131478094Y-94149240D01*
X131568763Y-94121736D01*
X131652324Y-94077072D01*
X131725566Y-94016964D01*
X131740632Y-93998606D01*
X131971324Y-93767914D01*
X132998000Y-93767914D01*
X132998000Y-93887286D01*
X133021288Y-94004364D01*
X133066970Y-94114649D01*
X133133289Y-94213902D01*
X133217698Y-94298311D01*
X133316951Y-94364630D01*
X133427236Y-94410312D01*
X133544314Y-94433600D01*
X133663686Y-94433600D01*
X133780764Y-94410312D01*
X133891049Y-94364630D01*
X133990302Y-94298311D01*
X134074711Y-94213902D01*
X134141030Y-94114649D01*
X134186712Y-94004364D01*
X134210000Y-93887286D01*
X134210000Y-93767914D01*
X134186712Y-93650836D01*
X134141030Y-93540551D01*
X134074711Y-93441298D01*
X133990302Y-93356889D01*
X133891049Y-93290570D01*
X133780764Y-93244888D01*
X133663686Y-93221600D01*
X133544314Y-93221600D01*
X133427236Y-93244888D01*
X133316951Y-93290570D01*
X133217698Y-93356889D01*
X133133289Y-93441298D01*
X133066970Y-93540551D01*
X133021288Y-93650836D01*
X132998000Y-93767914D01*
X131971324Y-93767914D01*
X134930784Y-90808454D01*
X134927928Y-91216800D01*
X134940188Y-91341282D01*
X134976498Y-91460980D01*
X135035463Y-91571294D01*
X135114815Y-91667985D01*
X135211506Y-91747337D01*
X135321820Y-91806302D01*
X135441518Y-91842612D01*
X135566000Y-91854872D01*
X136280250Y-91851800D01*
X136439000Y-91693050D01*
X136439000Y-90618800D01*
X136419000Y-90618800D01*
X136419000Y-90364800D01*
X136439000Y-90364800D01*
X136439000Y-89290550D01*
X136693000Y-89290550D01*
X136693000Y-90364800D01*
X138042250Y-90364800D01*
X138201000Y-90206050D01*
X138204072Y-89766800D01*
X138191812Y-89642318D01*
X138155502Y-89522620D01*
X138096537Y-89412306D01*
X138017185Y-89315615D01*
X137920494Y-89236263D01*
X137810180Y-89177298D01*
X137690482Y-89140988D01*
X137566000Y-89128728D01*
X136851750Y-89131800D01*
X136693000Y-89290550D01*
X136439000Y-89290550D01*
X136280250Y-89131800D01*
X135609000Y-89128913D01*
X135609000Y-84368703D01*
X135665030Y-84284849D01*
X135667837Y-84278073D01*
X138945213Y-87555450D01*
X138964888Y-87654364D01*
X139010570Y-87764649D01*
X139076889Y-87863902D01*
X139161298Y-87948311D01*
X139260551Y-88014630D01*
X139370836Y-88060312D01*
X139487914Y-88083600D01*
X139607286Y-88083600D01*
X139724364Y-88060312D01*
X139834649Y-88014630D01*
X139933902Y-87948311D01*
X140018311Y-87863902D01*
X140084630Y-87764649D01*
X140130312Y-87654364D01*
X140135874Y-87626400D01*
X140191486Y-87626400D01*
X140308564Y-87603112D01*
X140418849Y-87557430D01*
X140518102Y-87491111D01*
X140602511Y-87406702D01*
X140668830Y-87307449D01*
X140714512Y-87197164D01*
X140737800Y-87080086D01*
X140737800Y-86960714D01*
X140714512Y-86843636D01*
X140668830Y-86733351D01*
X140602511Y-86634098D01*
X140518102Y-86549689D01*
X140418849Y-86483370D01*
X140308564Y-86437688D01*
X140191486Y-86414400D01*
X140072114Y-86414400D01*
X139993145Y-86430108D01*
X138660837Y-85097800D01*
X141142427Y-85097800D01*
X141162299Y-85163308D01*
X141164166Y-85166800D01*
X141162299Y-85170292D01*
X141140513Y-85242111D01*
X141133157Y-85316800D01*
X141133157Y-86116800D01*
X141140513Y-86191489D01*
X141162299Y-86263308D01*
X141164166Y-86266800D01*
X141162299Y-86270292D01*
X141140513Y-86342111D01*
X141133157Y-86416800D01*
X141133157Y-87216800D01*
X141140513Y-87291489D01*
X141162299Y-87363308D01*
X141197678Y-87429496D01*
X141245289Y-87487511D01*
X141303304Y-87535122D01*
X141369492Y-87570501D01*
X141441311Y-87592287D01*
X141516000Y-87599643D01*
X142977165Y-87599643D01*
X141899780Y-88677028D01*
X141880474Y-88692873D01*
X141817242Y-88769921D01*
X141792127Y-88816908D01*
X141770255Y-88857826D01*
X141741322Y-88953208D01*
X141731553Y-89052400D01*
X141734001Y-89077256D01*
X141734000Y-89960408D01*
X140383158Y-91311250D01*
X140338630Y-91203751D01*
X140272311Y-91104498D01*
X140187902Y-91020089D01*
X140088649Y-90953770D01*
X139978364Y-90908088D01*
X139861286Y-90884800D01*
X139741914Y-90884800D01*
X139624836Y-90908088D01*
X139514551Y-90953770D01*
X139430697Y-91009800D01*
X138555223Y-91009800D01*
X138531599Y-91007473D01*
X138507975Y-91009800D01*
X138507974Y-91009800D01*
X138437308Y-91016760D01*
X138346639Y-91044264D01*
X138263078Y-91088928D01*
X138203520Y-91137806D01*
X138201000Y-90777550D01*
X138042250Y-90618800D01*
X136693000Y-90618800D01*
X136693000Y-91693050D01*
X136851750Y-91851800D01*
X137487628Y-91854535D01*
X134059551Y-95282613D01*
X133960636Y-95302288D01*
X133850351Y-95347970D01*
X133751098Y-95414289D01*
X133666689Y-95498698D01*
X133600370Y-95597951D01*
X133554688Y-95708236D01*
X133531400Y-95825314D01*
X133531400Y-95944686D01*
X133554688Y-96061764D01*
X133598030Y-96166400D01*
X131346688Y-96166400D01*
X131300249Y-96135370D01*
X131189964Y-96089688D01*
X131072886Y-96066400D01*
X130953514Y-96066400D01*
X130836436Y-96089688D01*
X130726151Y-96135370D01*
X130626898Y-96201689D01*
X130542489Y-96286098D01*
X130476170Y-96385351D01*
X130430488Y-96495636D01*
X130407200Y-96612714D01*
X130407200Y-96732086D01*
X130430488Y-96849164D01*
X130476170Y-96959449D01*
X130542489Y-97058702D01*
X130626898Y-97143111D01*
X130726151Y-97209430D01*
X130836436Y-97255112D01*
X130953514Y-97278400D01*
X131072886Y-97278400D01*
X131189964Y-97255112D01*
X131300249Y-97209430D01*
X131346688Y-97178400D01*
X134440588Y-97178400D01*
X134418288Y-97232236D01*
X134395000Y-97349314D01*
X134395000Y-97468686D01*
X134418288Y-97585764D01*
X134463970Y-97696049D01*
X134530289Y-97795302D01*
X134614698Y-97879711D01*
X134713951Y-97946030D01*
X134824236Y-97991712D01*
X134941314Y-98015000D01*
X135060686Y-98015000D01*
X135177764Y-97991712D01*
X135288049Y-97946030D01*
X135387302Y-97879711D01*
X135471711Y-97795302D01*
X135532106Y-97704914D01*
X142523000Y-97704914D01*
X142523000Y-97824286D01*
X142546288Y-97941364D01*
X142591970Y-98051649D01*
X142658289Y-98150902D01*
X142742698Y-98235311D01*
X142841951Y-98301630D01*
X142952236Y-98347312D01*
X143069314Y-98370600D01*
X143188686Y-98370600D01*
X143305764Y-98347312D01*
X143416049Y-98301630D01*
X143515302Y-98235311D01*
X143599711Y-98150902D01*
X143666030Y-98051649D01*
X143711712Y-97941364D01*
X143735000Y-97824286D01*
X143735000Y-97704914D01*
X143711712Y-97587836D01*
X143666030Y-97477551D01*
X143610000Y-97393697D01*
X143610000Y-97247714D01*
X145113800Y-97247714D01*
X145113800Y-97367086D01*
X145137088Y-97484164D01*
X145182770Y-97594449D01*
X145249089Y-97693702D01*
X145333498Y-97778111D01*
X145432751Y-97844430D01*
X145543036Y-97890112D01*
X145660114Y-97913400D01*
X145779486Y-97913400D01*
X145896564Y-97890112D01*
X146006849Y-97844430D01*
X146106102Y-97778111D01*
X146190511Y-97693702D01*
X146256830Y-97594449D01*
X146302512Y-97484164D01*
X146325800Y-97367086D01*
X146325800Y-97247714D01*
X146302512Y-97130636D01*
X146256830Y-97020351D01*
X146190511Y-96921098D01*
X146106102Y-96836689D01*
X146006849Y-96770370D01*
X145896564Y-96724688D01*
X145779486Y-96701400D01*
X145660114Y-96701400D01*
X145543036Y-96724688D01*
X145432751Y-96770370D01*
X145333498Y-96836689D01*
X145249089Y-96921098D01*
X145182770Y-97020351D01*
X145137088Y-97130636D01*
X145113800Y-97247714D01*
X143610000Y-97247714D01*
X143610000Y-96027617D01*
X143624049Y-96021798D01*
X143723302Y-95955479D01*
X143807711Y-95871070D01*
X143874030Y-95771817D01*
X143919712Y-95661532D01*
X143943000Y-95544454D01*
X143943000Y-95425082D01*
X143919712Y-95308004D01*
X143874030Y-95197719D01*
X143807711Y-95098466D01*
X143723302Y-95014057D01*
X143624049Y-94947738D01*
X143513764Y-94902056D01*
X143396686Y-94878768D01*
X143277314Y-94878768D01*
X143160236Y-94902056D01*
X143049951Y-94947738D01*
X142950698Y-95014057D01*
X142866289Y-95098466D01*
X142799970Y-95197719D01*
X142754288Y-95308004D01*
X142732458Y-95417753D01*
X142727129Y-95424246D01*
X142682465Y-95507807D01*
X142654960Y-95598476D01*
X142645673Y-95692768D01*
X142648001Y-95716404D01*
X142648000Y-97393696D01*
X142591970Y-97477551D01*
X142546288Y-97587836D01*
X142523000Y-97704914D01*
X135532106Y-97704914D01*
X135538030Y-97696049D01*
X135583712Y-97585764D01*
X135607000Y-97468686D01*
X135607000Y-97349314D01*
X135583712Y-97232236D01*
X135561412Y-97178400D01*
X135713956Y-97178400D01*
X135738802Y-97180847D01*
X135763648Y-97178400D01*
X135763656Y-97178400D01*
X135837995Y-97171078D01*
X135933377Y-97142145D01*
X136021281Y-97095159D01*
X136098329Y-97031927D01*
X136114178Y-97012615D01*
X139354420Y-93772374D01*
X139373727Y-93756529D01*
X139395077Y-93730514D01*
X139966389Y-93159202D01*
X140072645Y-93159202D01*
X139946481Y-93334074D01*
X140026324Y-93557176D01*
X140148231Y-93744964D01*
X140304431Y-93905361D01*
X140488922Y-94032203D01*
X140694613Y-94120615D01*
X140913600Y-94167200D01*
X141381112Y-94167200D01*
X141356231Y-94227267D01*
X141329100Y-94363665D01*
X141329100Y-94502735D01*
X141356231Y-94639133D01*
X141409451Y-94767616D01*
X141486714Y-94883249D01*
X141536639Y-94933174D01*
X141499770Y-94988351D01*
X141454088Y-95098636D01*
X141430800Y-95215714D01*
X141430800Y-95335086D01*
X141454088Y-95452164D01*
X141499770Y-95562449D01*
X141566089Y-95661702D01*
X141650498Y-95746111D01*
X141749751Y-95812430D01*
X141860036Y-95858112D01*
X141977114Y-95881400D01*
X142096486Y-95881400D01*
X142213564Y-95858112D01*
X142323849Y-95812430D01*
X142423102Y-95746111D01*
X142507511Y-95661702D01*
X142573830Y-95562449D01*
X142619512Y-95452164D01*
X142642800Y-95335086D01*
X142642800Y-95215714D01*
X142619512Y-95098636D01*
X142573830Y-94988351D01*
X142535600Y-94931135D01*
X142583486Y-94883249D01*
X142660749Y-94767616D01*
X142713969Y-94639133D01*
X142741100Y-94502735D01*
X142741100Y-94363665D01*
X142713969Y-94227267D01*
X142660749Y-94098784D01*
X142633222Y-94057587D01*
X142692278Y-94032203D01*
X142876769Y-93905361D01*
X143032969Y-93744964D01*
X143154876Y-93557176D01*
X143233287Y-93338074D01*
X144376481Y-93338074D01*
X144456324Y-93561176D01*
X144578231Y-93748964D01*
X144734431Y-93909361D01*
X144918922Y-94036203D01*
X145124613Y-94124615D01*
X145343600Y-94171200D01*
X145643600Y-94171200D01*
X145643600Y-93163200D01*
X145897600Y-93163200D01*
X145897600Y-94171200D01*
X146197600Y-94171200D01*
X146416587Y-94124615D01*
X146622278Y-94036203D01*
X146806769Y-93909361D01*
X146962969Y-93748964D01*
X147084876Y-93561176D01*
X147164719Y-93338074D01*
X147038554Y-93163200D01*
X145897600Y-93163200D01*
X145643600Y-93163200D01*
X144502646Y-93163200D01*
X144376481Y-93338074D01*
X143233287Y-93338074D01*
X143234719Y-93334074D01*
X143108554Y-93159200D01*
X141717600Y-93159200D01*
X141717600Y-93179200D01*
X141463600Y-93179200D01*
X141463600Y-93159200D01*
X141443600Y-93159200D01*
X141443600Y-92905200D01*
X141463600Y-92905200D01*
X141463600Y-91897200D01*
X141717600Y-91897200D01*
X141717600Y-92905200D01*
X143108554Y-92905200D01*
X143231833Y-92734326D01*
X144376481Y-92734326D01*
X144502646Y-92909200D01*
X145643600Y-92909200D01*
X145643600Y-91901200D01*
X145897600Y-91901200D01*
X145897600Y-92909200D01*
X147038554Y-92909200D01*
X147164719Y-92734326D01*
X147084876Y-92511224D01*
X146962969Y-92323436D01*
X146806769Y-92163039D01*
X146622278Y-92036197D01*
X146416587Y-91947785D01*
X146197600Y-91901200D01*
X145897600Y-91901200D01*
X145643600Y-91901200D01*
X145343600Y-91901200D01*
X145124613Y-91947785D01*
X144918922Y-92036197D01*
X144734431Y-92163039D01*
X144578231Y-92323436D01*
X144456324Y-92511224D01*
X144376481Y-92734326D01*
X143231833Y-92734326D01*
X143234719Y-92730326D01*
X143154876Y-92507224D01*
X143032969Y-92319436D01*
X142876769Y-92159039D01*
X142692278Y-92032197D01*
X142486587Y-91943785D01*
X142267600Y-91897200D01*
X141717600Y-91897200D01*
X141463600Y-91897200D01*
X141228392Y-91897200D01*
X141908792Y-91216800D01*
X143227928Y-91216800D01*
X143240188Y-91341282D01*
X143276498Y-91460980D01*
X143335463Y-91571294D01*
X143414815Y-91667985D01*
X143511506Y-91747337D01*
X143621820Y-91806302D01*
X143741518Y-91842612D01*
X143866000Y-91854872D01*
X144580250Y-91851800D01*
X144739000Y-91693050D01*
X144739000Y-90618800D01*
X143389750Y-90618800D01*
X143231000Y-90777550D01*
X143227928Y-91216800D01*
X141908792Y-91216800D01*
X142580220Y-90545372D01*
X142599527Y-90529527D01*
X142662759Y-90452479D01*
X142709745Y-90364575D01*
X142729142Y-90300630D01*
X142738678Y-90269194D01*
X142741818Y-90237314D01*
X142746000Y-90194854D01*
X142746000Y-90194847D01*
X142748447Y-90170001D01*
X142746000Y-90145155D01*
X142746000Y-89261991D01*
X143602162Y-88405830D01*
X143582570Y-88435151D01*
X143536888Y-88545436D01*
X143513600Y-88662514D01*
X143513600Y-88781886D01*
X143536888Y-88898964D01*
X143582570Y-89009249D01*
X143648889Y-89108502D01*
X143695373Y-89154986D01*
X143621820Y-89177298D01*
X143511506Y-89236263D01*
X143414815Y-89315615D01*
X143335463Y-89412306D01*
X143276498Y-89522620D01*
X143240188Y-89642318D01*
X143227928Y-89766800D01*
X143231000Y-90206050D01*
X143389750Y-90364800D01*
X144739000Y-90364800D01*
X144739000Y-89290550D01*
X144993000Y-89290550D01*
X144993000Y-90364800D01*
X145013000Y-90364800D01*
X145013000Y-90618800D01*
X144993000Y-90618800D01*
X144993000Y-91693050D01*
X145151750Y-91851800D01*
X145866000Y-91854872D01*
X145990482Y-91842612D01*
X146110180Y-91806302D01*
X146220494Y-91747337D01*
X146317185Y-91667985D01*
X146396537Y-91571294D01*
X146455502Y-91460980D01*
X146491812Y-91341282D01*
X146504072Y-91216800D01*
X146501188Y-90804498D01*
X146506164Y-90803508D01*
X146616449Y-90757826D01*
X146715702Y-90691507D01*
X146800111Y-90607098D01*
X146866430Y-90507845D01*
X146912112Y-90397560D01*
X146935400Y-90280482D01*
X146935400Y-90161110D01*
X146912112Y-90044032D01*
X146866430Y-89933747D01*
X146800111Y-89834494D01*
X146715702Y-89750085D01*
X146616449Y-89683766D01*
X146506164Y-89638084D01*
X146489524Y-89634774D01*
X146455502Y-89522620D01*
X146396537Y-89412306D01*
X146317185Y-89315615D01*
X146220494Y-89236263D01*
X146110180Y-89177298D01*
X145990482Y-89140988D01*
X145866000Y-89128728D01*
X145151750Y-89131800D01*
X144993000Y-89290550D01*
X144739000Y-89290550D01*
X144580250Y-89131800D01*
X144567070Y-89131743D01*
X144590311Y-89108502D01*
X144656630Y-89009249D01*
X144702312Y-88898964D01*
X144725600Y-88781886D01*
X144725600Y-88662514D01*
X144702312Y-88545436D01*
X144656630Y-88435151D01*
X144590311Y-88335898D01*
X144505902Y-88251489D01*
X144406649Y-88185170D01*
X144296364Y-88139488D01*
X144179286Y-88116200D01*
X144059914Y-88116200D01*
X143942836Y-88139488D01*
X143832551Y-88185170D01*
X143803230Y-88204762D01*
X144231220Y-87776772D01*
X144250527Y-87760927D01*
X144313759Y-87683879D01*
X144360745Y-87595975D01*
X144389678Y-87500593D01*
X144393841Y-87458323D01*
X144399448Y-87401400D01*
X144397000Y-87376546D01*
X144397000Y-86620391D01*
X145018620Y-85998772D01*
X145037927Y-85982927D01*
X145101159Y-85905879D01*
X145148145Y-85817975D01*
X145177078Y-85722593D01*
X145184400Y-85648254D01*
X145184400Y-85648253D01*
X145186848Y-85623400D01*
X145184400Y-85598546D01*
X145184400Y-83975688D01*
X145215430Y-83929249D01*
X145261112Y-83818964D01*
X145284400Y-83701886D01*
X145284400Y-83582514D01*
X145261112Y-83465436D01*
X145215430Y-83355151D01*
X145149111Y-83255898D01*
X145064702Y-83171489D01*
X144965449Y-83105170D01*
X144855164Y-83059488D01*
X144738086Y-83036200D01*
X144618714Y-83036200D01*
X144501636Y-83059488D01*
X144391351Y-83105170D01*
X144292098Y-83171489D01*
X144207689Y-83255898D01*
X144184821Y-83290123D01*
X144148630Y-83202751D01*
X144082311Y-83103498D01*
X143997902Y-83019089D01*
X143898649Y-82952770D01*
X143788364Y-82907088D01*
X143671286Y-82883800D01*
X143551914Y-82883800D01*
X143434836Y-82907088D01*
X143379845Y-82929866D01*
X143391487Y-82891489D01*
X143398843Y-82816800D01*
X143398843Y-82224072D01*
X143467185Y-82167985D01*
X143546537Y-82071294D01*
X143605502Y-81960980D01*
X143641812Y-81841282D01*
X143654072Y-81716800D01*
X143651650Y-81626714D01*
X145063000Y-81626714D01*
X145063000Y-81746086D01*
X145086288Y-81863164D01*
X145131970Y-81973449D01*
X145198289Y-82072702D01*
X145282698Y-82157111D01*
X145381951Y-82223430D01*
X145492236Y-82269112D01*
X145609314Y-82292400D01*
X145728686Y-82292400D01*
X145845764Y-82269112D01*
X145956049Y-82223430D01*
X146055302Y-82157111D01*
X146139711Y-82072702D01*
X146206030Y-81973449D01*
X146251712Y-81863164D01*
X146275000Y-81746086D01*
X146275000Y-81626714D01*
X146251712Y-81509636D01*
X146206030Y-81399351D01*
X146139711Y-81300098D01*
X146055302Y-81215689D01*
X145956049Y-81149370D01*
X145845764Y-81103688D01*
X145728686Y-81080400D01*
X145609314Y-81080400D01*
X145492236Y-81103688D01*
X145381951Y-81149370D01*
X145282698Y-81215689D01*
X145198289Y-81300098D01*
X145131970Y-81399351D01*
X145086288Y-81509636D01*
X145063000Y-81626714D01*
X143651650Y-81626714D01*
X143651000Y-81602550D01*
X143492250Y-81443800D01*
X142393000Y-81443800D01*
X142393000Y-81463800D01*
X142139000Y-81463800D01*
X142139000Y-81443800D01*
X141039750Y-81443800D01*
X140881000Y-81602550D01*
X140877928Y-81716800D01*
X140890188Y-81841282D01*
X140926498Y-81960980D01*
X140985463Y-82071294D01*
X141064815Y-82167985D01*
X141088717Y-82187601D01*
X138736035Y-82187601D01*
X139820213Y-81103424D01*
X139838564Y-81088364D01*
X139898672Y-81015122D01*
X139943336Y-80931561D01*
X139970840Y-80840892D01*
X139977800Y-80770226D01*
X139977800Y-80770225D01*
X139980127Y-80746601D01*
X139977800Y-80722977D01*
X139977800Y-79558755D01*
X139993236Y-79577564D01*
X140011594Y-79592630D01*
X140959170Y-80540206D01*
X140974236Y-80558564D01*
X140983430Y-80566109D01*
X140926498Y-80672620D01*
X140890188Y-80792318D01*
X140877928Y-80916800D01*
X140881000Y-81031050D01*
X141039750Y-81189800D01*
X142139000Y-81189800D01*
X142139000Y-81169800D01*
X142393000Y-81169800D01*
X142393000Y-81189800D01*
X143492250Y-81189800D01*
X143651000Y-81031050D01*
X143654072Y-80916800D01*
X143641812Y-80792318D01*
X143605502Y-80672620D01*
X143546537Y-80562306D01*
X143467185Y-80465615D01*
X143398843Y-80409528D01*
X143398843Y-79816800D01*
X143391487Y-79742111D01*
X143369701Y-79670292D01*
X143367834Y-79666800D01*
X143369701Y-79663308D01*
X143391487Y-79591489D01*
X143398843Y-79516800D01*
X143398843Y-79257256D01*
X143428498Y-79286911D01*
X143527751Y-79353230D01*
X143638036Y-79398912D01*
X143755114Y-79422200D01*
X143874486Y-79422200D01*
X143991564Y-79398912D01*
X144101849Y-79353230D01*
X144201102Y-79286911D01*
X144285511Y-79202502D01*
X144351830Y-79103249D01*
X144397512Y-78992964D01*
X144420800Y-78875886D01*
X144420800Y-78756514D01*
X144397512Y-78639436D01*
X144351830Y-78529151D01*
X144285511Y-78429898D01*
X144201102Y-78345489D01*
X144101849Y-78279170D01*
X143991564Y-78233488D01*
X143874486Y-78210200D01*
X143755114Y-78210200D01*
X143638036Y-78233488D01*
X143527751Y-78279170D01*
X143428498Y-78345489D01*
X143344089Y-78429898D01*
X143312375Y-78477361D01*
X143286711Y-78446089D01*
X143228696Y-78398478D01*
X143162508Y-78363099D01*
X143090689Y-78341313D01*
X143016000Y-78333957D01*
X141516000Y-78333957D01*
X141441311Y-78341313D01*
X141369492Y-78363099D01*
X141303304Y-78398478D01*
X141245289Y-78446089D01*
X141197678Y-78504104D01*
X141162299Y-78570292D01*
X141140513Y-78642111D01*
X141133157Y-78716800D01*
X141133157Y-79353721D01*
X140816000Y-79036564D01*
X140816000Y-78140628D01*
X140818327Y-78117001D01*
X140809040Y-78022709D01*
X140798787Y-77988909D01*
X140781536Y-77932041D01*
X140736872Y-77848480D01*
X140676764Y-77775238D01*
X140658412Y-77760177D01*
X140365035Y-77466800D01*
X143227928Y-77466800D01*
X143240188Y-77591282D01*
X143276498Y-77710980D01*
X143335463Y-77821294D01*
X143414815Y-77917985D01*
X143511506Y-77997337D01*
X143621820Y-78056302D01*
X143741518Y-78092612D01*
X143866000Y-78104872D01*
X144580250Y-78101800D01*
X144739000Y-77943050D01*
X144739000Y-76868800D01*
X144993000Y-76868800D01*
X144993000Y-77943050D01*
X145151750Y-78101800D01*
X145866000Y-78104872D01*
X145990482Y-78092612D01*
X146110180Y-78056302D01*
X146220494Y-77997337D01*
X146317185Y-77917985D01*
X146396537Y-77821294D01*
X146455502Y-77710980D01*
X146491812Y-77591282D01*
X146504072Y-77466800D01*
X146501000Y-77027550D01*
X146342250Y-76868800D01*
X144993000Y-76868800D01*
X144739000Y-76868800D01*
X143389750Y-76868800D01*
X143231000Y-77027550D01*
X143227928Y-77466800D01*
X140365035Y-77466800D01*
X138915035Y-76016800D01*
X143227928Y-76016800D01*
X143231000Y-76456050D01*
X143389750Y-76614800D01*
X144739000Y-76614800D01*
X144739000Y-75540550D01*
X144993000Y-75540550D01*
X144993000Y-76614800D01*
X146342250Y-76614800D01*
X146501000Y-76456050D01*
X146504072Y-76016800D01*
X146491812Y-75892318D01*
X146455502Y-75772620D01*
X146396537Y-75662306D01*
X146317185Y-75565615D01*
X146220494Y-75486263D01*
X146110180Y-75427298D01*
X145990482Y-75390988D01*
X145866000Y-75378728D01*
X145151750Y-75381800D01*
X144993000Y-75540550D01*
X144739000Y-75540550D01*
X144580250Y-75381800D01*
X143866000Y-75378728D01*
X143741518Y-75390988D01*
X143621820Y-75427298D01*
X143511506Y-75486263D01*
X143414815Y-75565615D01*
X143335463Y-75662306D01*
X143276498Y-75772620D01*
X143240188Y-75892318D01*
X143227928Y-76016800D01*
X138915035Y-76016800D01*
X137835028Y-74936794D01*
X137819962Y-74918436D01*
X137746720Y-74858328D01*
X137663159Y-74813664D01*
X137572490Y-74786160D01*
X137535931Y-74782559D01*
X137447049Y-74723170D01*
X137336764Y-74677488D01*
X137237850Y-74657813D01*
X136062630Y-73482594D01*
X136047564Y-73464236D01*
X135974322Y-73404128D01*
X135890761Y-73359464D01*
X135800092Y-73331960D01*
X135729426Y-73325000D01*
X135705800Y-73322673D01*
X135682174Y-73325000D01*
X132145580Y-73325000D01*
X132120203Y-73308043D01*
X132226400Y-73308043D01*
X132301089Y-73300687D01*
X132372908Y-73278901D01*
X132439096Y-73243522D01*
X132486400Y-73204701D01*
X132533704Y-73243522D01*
X132599892Y-73278901D01*
X132671711Y-73300687D01*
X132746400Y-73308043D01*
X133496400Y-73308043D01*
X133571089Y-73300687D01*
X133642908Y-73278901D01*
X133709096Y-73243522D01*
X133756400Y-73204701D01*
X133803704Y-73243522D01*
X133869892Y-73278901D01*
X133941711Y-73300687D01*
X134016400Y-73308043D01*
X134766400Y-73308043D01*
X134841089Y-73300687D01*
X134912908Y-73278901D01*
X134979096Y-73243522D01*
X135026400Y-73204701D01*
X135073704Y-73243522D01*
X135139892Y-73278901D01*
X135211711Y-73300687D01*
X135286400Y-73308043D01*
X136036400Y-73308043D01*
X136111089Y-73300687D01*
X136182908Y-73278901D01*
X136249096Y-73243522D01*
X136296400Y-73204701D01*
X136343704Y-73243522D01*
X136409892Y-73278901D01*
X136481711Y-73300687D01*
X136556400Y-73308043D01*
X137306400Y-73308043D01*
X137381089Y-73300687D01*
X137452908Y-73278901D01*
X137519096Y-73243522D01*
X137566400Y-73204701D01*
X137613704Y-73243522D01*
X137679892Y-73278901D01*
X137751711Y-73300687D01*
X137826400Y-73308043D01*
X138576400Y-73308043D01*
X138588176Y-73306883D01*
X138645215Y-73376385D01*
X138741906Y-73455737D01*
X138852220Y-73514702D01*
X138971918Y-73551012D01*
X139096400Y-73563272D01*
X139185650Y-73560200D01*
X139344400Y-73401450D01*
X139344400Y-72002200D01*
X139324400Y-72002200D01*
X139324400Y-71748200D01*
X139344400Y-71748200D01*
X139344400Y-70348950D01*
X139185650Y-70190200D01*
X139096400Y-70187128D01*
X138971918Y-70199388D01*
X138852220Y-70235698D01*
X138741906Y-70294663D01*
X138645215Y-70374015D01*
X138588176Y-70443517D01*
X138576400Y-70442357D01*
X137826400Y-70442357D01*
X137751711Y-70449713D01*
X137679892Y-70471499D01*
X137613704Y-70506878D01*
X137566400Y-70545699D01*
X137543394Y-70526819D01*
X137579911Y-70490302D01*
X137646230Y-70391049D01*
X137691912Y-70280764D01*
X137715200Y-70163686D01*
X137715200Y-70044314D01*
X137691912Y-69927236D01*
X137646230Y-69816951D01*
X137579911Y-69717698D01*
X137510389Y-69648176D01*
X137519096Y-69643522D01*
X137566400Y-69604701D01*
X137613704Y-69643522D01*
X137679892Y-69678901D01*
X137751711Y-69700687D01*
X137826400Y-69708043D01*
X138576400Y-69708043D01*
X138651089Y-69700687D01*
X138722908Y-69678901D01*
X138789096Y-69643522D01*
X138836400Y-69604701D01*
X138883704Y-69643522D01*
X138949892Y-69678901D01*
X139021711Y-69700687D01*
X139096400Y-69708043D01*
X139846400Y-69708043D01*
X139921089Y-69700687D01*
X139992908Y-69678901D01*
X140059096Y-69643522D01*
X140117111Y-69595911D01*
X140133401Y-69576061D01*
X140133401Y-70258587D01*
X140090580Y-70235698D01*
X139970882Y-70199388D01*
X139846400Y-70187128D01*
X139757150Y-70190200D01*
X139598400Y-70348950D01*
X139598400Y-71748200D01*
X139618400Y-71748200D01*
X139618400Y-72002200D01*
X139598400Y-72002200D01*
X139598400Y-73401450D01*
X139757150Y-73560200D01*
X139846400Y-73563272D01*
X139970882Y-73551012D01*
X140010492Y-73538996D01*
X140008400Y-73549514D01*
X140008400Y-73668886D01*
X140031688Y-73785964D01*
X140077370Y-73896249D01*
X140143689Y-73995502D01*
X140228098Y-74079911D01*
X140327351Y-74146230D01*
X140437636Y-74191912D01*
X140554714Y-74215200D01*
X140674086Y-74215200D01*
X140791164Y-74191912D01*
X140901449Y-74146230D01*
X141000702Y-74079911D01*
X141085111Y-73995502D01*
X141151430Y-73896249D01*
X141197112Y-73785964D01*
X141220400Y-73668886D01*
X141220400Y-73549514D01*
X141197112Y-73432436D01*
X141151430Y-73322151D01*
X141095400Y-73238297D01*
X141095400Y-70670892D01*
X141164314Y-70684600D01*
X141283686Y-70684600D01*
X141400764Y-70661312D01*
X141511049Y-70615630D01*
X141610302Y-70549311D01*
X141694711Y-70464902D01*
X141761030Y-70365649D01*
X141806712Y-70255364D01*
X141830000Y-70138286D01*
X141830000Y-70018914D01*
X141806712Y-69901836D01*
X141761030Y-69791551D01*
X141694711Y-69692298D01*
X141610302Y-69607889D01*
X141511049Y-69541570D01*
X141400764Y-69495888D01*
X141283686Y-69472600D01*
X141164314Y-69472600D01*
X141095400Y-69486308D01*
X141095400Y-68832226D01*
X141097727Y-68808599D01*
X141088440Y-68714307D01*
X141073203Y-68664079D01*
X141060936Y-68623639D01*
X141016272Y-68540078D01*
X140956164Y-68466836D01*
X140937811Y-68451774D01*
X140443630Y-67957594D01*
X140428564Y-67939236D01*
X140355322Y-67879128D01*
X140271761Y-67834464D01*
X140229243Y-67821566D01*
X140229243Y-67225200D01*
X140221887Y-67150511D01*
X140200101Y-67078692D01*
X140164722Y-67012504D01*
X140117111Y-66954489D01*
X140059096Y-66906878D01*
X139992908Y-66871499D01*
X139921089Y-66849713D01*
X139846400Y-66842357D01*
X139096400Y-66842357D01*
X139021711Y-66849713D01*
X138949892Y-66871499D01*
X138883704Y-66906878D01*
X138836400Y-66945699D01*
X138789096Y-66906878D01*
X138722908Y-66871499D01*
X138651089Y-66849713D01*
X138576400Y-66842357D01*
X137826400Y-66842357D01*
X137751711Y-66849713D01*
X137679892Y-66871499D01*
X137613704Y-66906878D01*
X137566400Y-66945699D01*
X137519096Y-66906878D01*
X137452908Y-66871499D01*
X137381089Y-66849713D01*
X137306400Y-66842357D01*
X136556400Y-66842357D01*
X136481711Y-66849713D01*
X136409892Y-66871499D01*
X136343704Y-66906878D01*
X136296400Y-66945699D01*
X136249096Y-66906878D01*
X136182908Y-66871499D01*
X136111089Y-66849713D01*
X136036400Y-66842357D01*
X135286400Y-66842357D01*
X135274624Y-66843517D01*
X135217585Y-66774015D01*
X135153961Y-66721801D01*
X144916512Y-66721799D01*
X144617950Y-66781187D01*
G36*
X139514551Y-92027830D02*
G01*
X139622051Y-92072358D01*
X138673985Y-93020424D01*
X138654673Y-93036273D01*
X138633327Y-93062283D01*
X138195119Y-93500491D01*
X138189511Y-93492098D01*
X138105102Y-93407689D01*
X138005849Y-93341370D01*
X137895564Y-93295688D01*
X137778486Y-93272400D01*
X137659114Y-93272400D01*
X137542036Y-93295688D01*
X137431751Y-93341370D01*
X137332498Y-93407689D01*
X137248089Y-93492098D01*
X137181770Y-93591351D01*
X137136088Y-93701636D01*
X137112800Y-93818714D01*
X137112800Y-93938086D01*
X137136088Y-94055164D01*
X137181770Y-94165449D01*
X137248089Y-94264702D01*
X137332498Y-94349111D01*
X137340891Y-94354719D01*
X135529211Y-96166400D01*
X134676770Y-96166400D01*
X134720112Y-96061764D01*
X134739787Y-95962849D01*
X138730837Y-91971800D01*
X139430697Y-91971800D01*
X139514551Y-92027830D01*
G37*
X139514551Y-92027830D02*
X139622051Y-92072358D01*
X138673985Y-93020424D01*
X138654673Y-93036273D01*
X138633327Y-93062283D01*
X138195119Y-93500491D01*
X138189511Y-93492098D01*
X138105102Y-93407689D01*
X138005849Y-93341370D01*
X137895564Y-93295688D01*
X137778486Y-93272400D01*
X137659114Y-93272400D01*
X137542036Y-93295688D01*
X137431751Y-93341370D01*
X137332498Y-93407689D01*
X137248089Y-93492098D01*
X137181770Y-93591351D01*
X137136088Y-93701636D01*
X137112800Y-93818714D01*
X137112800Y-93938086D01*
X137136088Y-94055164D01*
X137181770Y-94165449D01*
X137248089Y-94264702D01*
X137332498Y-94349111D01*
X137340891Y-94354719D01*
X135529211Y-96166400D01*
X134676770Y-96166400D01*
X134720112Y-96061764D01*
X134739787Y-95962849D01*
X138730837Y-91971800D01*
X139430697Y-91971800D01*
X139514551Y-92027830D01*
G36*
X129391200Y-92337124D02*
G01*
X129391200Y-92456496D01*
X129414488Y-92573574D01*
X129460170Y-92683859D01*
X129526489Y-92783112D01*
X129610898Y-92867521D01*
X129710151Y-92933840D01*
X129820436Y-92979522D01*
X129937514Y-93002810D01*
X130056886Y-93002810D01*
X130173964Y-92979522D01*
X130284249Y-92933840D01*
X130383502Y-92867521D01*
X130467911Y-92783112D01*
X130534230Y-92683859D01*
X130579912Y-92573574D01*
X130603200Y-92456496D01*
X130603200Y-92337124D01*
X130602081Y-92331497D01*
X131022284Y-92331497D01*
X131033298Y-92342511D01*
X131132551Y-92408830D01*
X131242836Y-92454512D01*
X131359914Y-92477800D01*
X131479286Y-92477800D01*
X131596364Y-92454512D01*
X131706649Y-92408830D01*
X131732195Y-92391761D01*
X131761689Y-92435902D01*
X131846098Y-92520311D01*
X131853505Y-92525261D01*
X131184566Y-93194200D01*
X127333434Y-93194200D01*
X128196138Y-92331497D01*
X129392319Y-92331497D01*
X129391200Y-92337124D01*
G37*
X129391200Y-92337124D02*
X129391200Y-92456496D01*
X129414488Y-92573574D01*
X129460170Y-92683859D01*
X129526489Y-92783112D01*
X129610898Y-92867521D01*
X129710151Y-92933840D01*
X129820436Y-92979522D01*
X129937514Y-93002810D01*
X130056886Y-93002810D01*
X130173964Y-92979522D01*
X130284249Y-92933840D01*
X130383502Y-92867521D01*
X130467911Y-92783112D01*
X130534230Y-92683859D01*
X130579912Y-92573574D01*
X130603200Y-92456496D01*
X130603200Y-92337124D01*
X130602081Y-92331497D01*
X131022284Y-92331497D01*
X131033298Y-92342511D01*
X131132551Y-92408830D01*
X131242836Y-92454512D01*
X131359914Y-92477800D01*
X131479286Y-92477800D01*
X131596364Y-92454512D01*
X131706649Y-92408830D01*
X131732195Y-92391761D01*
X131761689Y-92435902D01*
X131846098Y-92520311D01*
X131853505Y-92525261D01*
X131184566Y-93194200D01*
X127333434Y-93194200D01*
X128196138Y-92331497D01*
X129392319Y-92331497D01*
X129391200Y-92337124D01*
G36*
X123940436Y-84618964D02*
G01*
X123958794Y-84634030D01*
X129427181Y-90102418D01*
X129442242Y-90120770D01*
X129515484Y-90180878D01*
X129550370Y-90199525D01*
X129599044Y-90225542D01*
X129689713Y-90253046D01*
X129784006Y-90262333D01*
X129807632Y-90260006D01*
X134081567Y-90260006D01*
X134103862Y-90274904D01*
X132709597Y-91669169D01*
X132706440Y-91637110D01*
X132678936Y-91546441D01*
X132634272Y-91462880D01*
X132574164Y-91389638D01*
X132555811Y-91374576D01*
X132136482Y-90955248D01*
X132121416Y-90936890D01*
X132048174Y-90876782D01*
X131964613Y-90832118D01*
X131873944Y-90804614D01*
X131803278Y-90797654D01*
X131779652Y-90795327D01*
X131756026Y-90797654D01*
X128561887Y-90797654D01*
X128539014Y-90774781D01*
X128649964Y-90752712D01*
X128760249Y-90707030D01*
X128859502Y-90640711D01*
X128943911Y-90556302D01*
X129010230Y-90457049D01*
X129055912Y-90346764D01*
X129079200Y-90229686D01*
X129079200Y-90110314D01*
X129055912Y-89993236D01*
X129010230Y-89882951D01*
X128943911Y-89783698D01*
X128859502Y-89699289D01*
X128760249Y-89632970D01*
X128649964Y-89587288D01*
X128532886Y-89564000D01*
X128413514Y-89564000D01*
X128296436Y-89587288D01*
X128186151Y-89632970D01*
X128086898Y-89699289D01*
X128002489Y-89783698D01*
X127936170Y-89882951D01*
X127890488Y-89993236D01*
X127868419Y-90104186D01*
X126637187Y-88872955D01*
X126617512Y-88774040D01*
X126571830Y-88663755D01*
X126505511Y-88564502D01*
X126421102Y-88480093D01*
X126329614Y-88418962D01*
X126363249Y-88405030D01*
X126462502Y-88338711D01*
X126546911Y-88254302D01*
X126613230Y-88155049D01*
X126658912Y-88044764D01*
X126682200Y-87927686D01*
X126682200Y-87808314D01*
X126658912Y-87691236D01*
X126613230Y-87580951D01*
X126546911Y-87481698D01*
X126462502Y-87397289D01*
X126363249Y-87330970D01*
X126252964Y-87285288D01*
X126135886Y-87262000D01*
X126016514Y-87262000D01*
X125899436Y-87285288D01*
X125789151Y-87330970D01*
X125689898Y-87397289D01*
X125605489Y-87481698D01*
X125539170Y-87580951D01*
X125493488Y-87691236D01*
X125487180Y-87722948D01*
X123074100Y-85309868D01*
X123074100Y-84835186D01*
X123080751Y-84839630D01*
X123191036Y-84885312D01*
X123308114Y-84908600D01*
X123427486Y-84908600D01*
X123544564Y-84885312D01*
X123654849Y-84839630D01*
X123754102Y-84773311D01*
X123838511Y-84688902D01*
X123904830Y-84589649D01*
X123908703Y-84580298D01*
X123940436Y-84618964D01*
G37*
X123940436Y-84618964D02*
X123958794Y-84634030D01*
X129427181Y-90102418D01*
X129442242Y-90120770D01*
X129515484Y-90180878D01*
X129550370Y-90199525D01*
X129599044Y-90225542D01*
X129689713Y-90253046D01*
X129784006Y-90262333D01*
X129807632Y-90260006D01*
X134081567Y-90260006D01*
X134103862Y-90274904D01*
X132709597Y-91669169D01*
X132706440Y-91637110D01*
X132678936Y-91546441D01*
X132634272Y-91462880D01*
X132574164Y-91389638D01*
X132555811Y-91374576D01*
X132136482Y-90955248D01*
X132121416Y-90936890D01*
X132048174Y-90876782D01*
X131964613Y-90832118D01*
X131873944Y-90804614D01*
X131803278Y-90797654D01*
X131779652Y-90795327D01*
X131756026Y-90797654D01*
X128561887Y-90797654D01*
X128539014Y-90774781D01*
X128649964Y-90752712D01*
X128760249Y-90707030D01*
X128859502Y-90640711D01*
X128943911Y-90556302D01*
X129010230Y-90457049D01*
X129055912Y-90346764D01*
X129079200Y-90229686D01*
X129079200Y-90110314D01*
X129055912Y-89993236D01*
X129010230Y-89882951D01*
X128943911Y-89783698D01*
X128859502Y-89699289D01*
X128760249Y-89632970D01*
X128649964Y-89587288D01*
X128532886Y-89564000D01*
X128413514Y-89564000D01*
X128296436Y-89587288D01*
X128186151Y-89632970D01*
X128086898Y-89699289D01*
X128002489Y-89783698D01*
X127936170Y-89882951D01*
X127890488Y-89993236D01*
X127868419Y-90104186D01*
X126637187Y-88872955D01*
X126617512Y-88774040D01*
X126571830Y-88663755D01*
X126505511Y-88564502D01*
X126421102Y-88480093D01*
X126329614Y-88418962D01*
X126363249Y-88405030D01*
X126462502Y-88338711D01*
X126546911Y-88254302D01*
X126613230Y-88155049D01*
X126658912Y-88044764D01*
X126682200Y-87927686D01*
X126682200Y-87808314D01*
X126658912Y-87691236D01*
X126613230Y-87580951D01*
X126546911Y-87481698D01*
X126462502Y-87397289D01*
X126363249Y-87330970D01*
X126252964Y-87285288D01*
X126135886Y-87262000D01*
X126016514Y-87262000D01*
X125899436Y-87285288D01*
X125789151Y-87330970D01*
X125689898Y-87397289D01*
X125605489Y-87481698D01*
X125539170Y-87580951D01*
X125493488Y-87691236D01*
X125487180Y-87722948D01*
X123074100Y-85309868D01*
X123074100Y-84835186D01*
X123080751Y-84839630D01*
X123191036Y-84885312D01*
X123308114Y-84908600D01*
X123427486Y-84908600D01*
X123544564Y-84885312D01*
X123654849Y-84839630D01*
X123754102Y-84773311D01*
X123838511Y-84688902D01*
X123904830Y-84589649D01*
X123908703Y-84580298D01*
X123940436Y-84618964D01*
G36*
X130178149Y-74825986D02*
G01*
X130095063Y-74909072D01*
X130028744Y-75008325D01*
X129995879Y-75087666D01*
X129926302Y-75018089D01*
X129827049Y-74951770D01*
X129716764Y-74906088D01*
X129599686Y-74882800D01*
X129480314Y-74882800D01*
X129363236Y-74906088D01*
X129252951Y-74951770D01*
X129153698Y-75018089D01*
X129069289Y-75102498D01*
X129002970Y-75201751D01*
X128957288Y-75312036D01*
X128934000Y-75429114D01*
X128934000Y-75548486D01*
X128957288Y-75665564D01*
X129002970Y-75775849D01*
X129069289Y-75875102D01*
X129153698Y-75959511D01*
X129194283Y-75986629D01*
X128835594Y-76345318D01*
X128817236Y-76360384D01*
X128757128Y-76433626D01*
X128712464Y-76517188D01*
X128693304Y-76580352D01*
X128684960Y-76607856D01*
X128675673Y-76702148D01*
X128678000Y-76725774D01*
X128678001Y-79283495D01*
X128621970Y-79367351D01*
X128576288Y-79477636D01*
X128553000Y-79594714D01*
X128553000Y-79714086D01*
X128576288Y-79831164D01*
X128621970Y-79941449D01*
X128688289Y-80040702D01*
X128772698Y-80125111D01*
X128871951Y-80191430D01*
X128982236Y-80237112D01*
X129099314Y-80260400D01*
X129218686Y-80260400D01*
X129335764Y-80237112D01*
X129446049Y-80191430D01*
X129481811Y-80167535D01*
X129490688Y-80212164D01*
X129536370Y-80322449D01*
X129602689Y-80421702D01*
X129687098Y-80506111D01*
X129772772Y-80563357D01*
X129770088Y-80569836D01*
X129746800Y-80686914D01*
X129746800Y-80806286D01*
X129770088Y-80923364D01*
X129815770Y-81033649D01*
X129882089Y-81132902D01*
X129966498Y-81217311D01*
X130065751Y-81283630D01*
X130176036Y-81329312D01*
X130293114Y-81352600D01*
X130412486Y-81352600D01*
X130529564Y-81329312D01*
X130639849Y-81283630D01*
X130739102Y-81217311D01*
X130823511Y-81132902D01*
X130889830Y-81033649D01*
X130935512Y-80923364D01*
X130954909Y-80825845D01*
X131005071Y-80764723D01*
X131040842Y-80697800D01*
X131049735Y-80681163D01*
X131077239Y-80590494D01*
X131086526Y-80496201D01*
X131084199Y-80472575D01*
X131084199Y-80224519D01*
X131166351Y-80279411D01*
X131276636Y-80325093D01*
X131393714Y-80348381D01*
X131513086Y-80348381D01*
X131630164Y-80325093D01*
X131690051Y-80300287D01*
X134847727Y-83457963D01*
X134840951Y-83460770D01*
X134741698Y-83527089D01*
X134657289Y-83611498D01*
X134590970Y-83710751D01*
X134545288Y-83821036D01*
X134522000Y-83938114D01*
X134522000Y-84057486D01*
X134545288Y-84174564D01*
X134590970Y-84284849D01*
X134647001Y-84368705D01*
X134647000Y-89188143D01*
X134568164Y-89155488D01*
X134451086Y-89132200D01*
X134331714Y-89132200D01*
X134324913Y-89133553D01*
X134313712Y-89077241D01*
X134268030Y-88966956D01*
X134201711Y-88867703D01*
X134117302Y-88783294D01*
X134018049Y-88716975D01*
X133907764Y-88671293D01*
X133790686Y-88648005D01*
X133671314Y-88648005D01*
X133554236Y-88671293D01*
X133478604Y-88702621D01*
X132700116Y-88702621D01*
X133224650Y-88178088D01*
X133323564Y-88158413D01*
X133433849Y-88112731D01*
X133533102Y-88046412D01*
X133617511Y-87962003D01*
X133683830Y-87862750D01*
X133729512Y-87752465D01*
X133752800Y-87635387D01*
X133752800Y-87516015D01*
X133729512Y-87398937D01*
X133683830Y-87288652D01*
X133617511Y-87189399D01*
X133533102Y-87104990D01*
X133433849Y-87038671D01*
X133323564Y-86992989D01*
X133206486Y-86969701D01*
X133087114Y-86969701D01*
X132970036Y-86992989D01*
X132859751Y-87038671D01*
X132785765Y-87088107D01*
X132744030Y-86987351D01*
X132677711Y-86888098D01*
X132593302Y-86803689D01*
X132494049Y-86737370D01*
X132383764Y-86691688D01*
X132266686Y-86668400D01*
X132147314Y-86668400D01*
X132030236Y-86691688D01*
X131919951Y-86737370D01*
X131820698Y-86803689D01*
X131736289Y-86888098D01*
X131677703Y-86975778D01*
X131663457Y-86904157D01*
X131617775Y-86793872D01*
X131551456Y-86694619D01*
X131467047Y-86610210D01*
X131367794Y-86543891D01*
X131257509Y-86498209D01*
X131160318Y-86478877D01*
X131118430Y-86377751D01*
X131052111Y-86278498D01*
X130967702Y-86194089D01*
X130868449Y-86127770D01*
X130758164Y-86082088D01*
X130688969Y-86068324D01*
X130681512Y-86030836D01*
X130635830Y-85920551D01*
X130569511Y-85821298D01*
X130485102Y-85736889D01*
X130385849Y-85670570D01*
X130275564Y-85624888D01*
X130176650Y-85605213D01*
X128200599Y-83629163D01*
X128200599Y-76044000D01*
X128304286Y-76044000D01*
X128421364Y-76020712D01*
X128531649Y-75975030D01*
X128630902Y-75908711D01*
X128715311Y-75824302D01*
X128781630Y-75725049D01*
X128827312Y-75614764D01*
X128850600Y-75497686D01*
X128850600Y-75378314D01*
X128827312Y-75261236D01*
X128781630Y-75150951D01*
X128715311Y-75051698D01*
X128677704Y-75014091D01*
X128726918Y-74964877D01*
X128793237Y-74865624D01*
X128838919Y-74755339D01*
X128862207Y-74638261D01*
X128862207Y-74609803D01*
X128921514Y-74621600D01*
X129040886Y-74621600D01*
X129157964Y-74598312D01*
X129268249Y-74552630D01*
X129352103Y-74496600D01*
X129848764Y-74496600D01*
X130178149Y-74825986D01*
G37*
X130178149Y-74825986D02*
X130095063Y-74909072D01*
X130028744Y-75008325D01*
X129995879Y-75087666D01*
X129926302Y-75018089D01*
X129827049Y-74951770D01*
X129716764Y-74906088D01*
X129599686Y-74882800D01*
X129480314Y-74882800D01*
X129363236Y-74906088D01*
X129252951Y-74951770D01*
X129153698Y-75018089D01*
X129069289Y-75102498D01*
X129002970Y-75201751D01*
X128957288Y-75312036D01*
X128934000Y-75429114D01*
X128934000Y-75548486D01*
X128957288Y-75665564D01*
X129002970Y-75775849D01*
X129069289Y-75875102D01*
X129153698Y-75959511D01*
X129194283Y-75986629D01*
X128835594Y-76345318D01*
X128817236Y-76360384D01*
X128757128Y-76433626D01*
X128712464Y-76517188D01*
X128693304Y-76580352D01*
X128684960Y-76607856D01*
X128675673Y-76702148D01*
X128678000Y-76725774D01*
X128678001Y-79283495D01*
X128621970Y-79367351D01*
X128576288Y-79477636D01*
X128553000Y-79594714D01*
X128553000Y-79714086D01*
X128576288Y-79831164D01*
X128621970Y-79941449D01*
X128688289Y-80040702D01*
X128772698Y-80125111D01*
X128871951Y-80191430D01*
X128982236Y-80237112D01*
X129099314Y-80260400D01*
X129218686Y-80260400D01*
X129335764Y-80237112D01*
X129446049Y-80191430D01*
X129481811Y-80167535D01*
X129490688Y-80212164D01*
X129536370Y-80322449D01*
X129602689Y-80421702D01*
X129687098Y-80506111D01*
X129772772Y-80563357D01*
X129770088Y-80569836D01*
X129746800Y-80686914D01*
X129746800Y-80806286D01*
X129770088Y-80923364D01*
X129815770Y-81033649D01*
X129882089Y-81132902D01*
X129966498Y-81217311D01*
X130065751Y-81283630D01*
X130176036Y-81329312D01*
X130293114Y-81352600D01*
X130412486Y-81352600D01*
X130529564Y-81329312D01*
X130639849Y-81283630D01*
X130739102Y-81217311D01*
X130823511Y-81132902D01*
X130889830Y-81033649D01*
X130935512Y-80923364D01*
X130954909Y-80825845D01*
X131005071Y-80764723D01*
X131040842Y-80697800D01*
X131049735Y-80681163D01*
X131077239Y-80590494D01*
X131086526Y-80496201D01*
X131084199Y-80472575D01*
X131084199Y-80224519D01*
X131166351Y-80279411D01*
X131276636Y-80325093D01*
X131393714Y-80348381D01*
X131513086Y-80348381D01*
X131630164Y-80325093D01*
X131690051Y-80300287D01*
X134847727Y-83457963D01*
X134840951Y-83460770D01*
X134741698Y-83527089D01*
X134657289Y-83611498D01*
X134590970Y-83710751D01*
X134545288Y-83821036D01*
X134522000Y-83938114D01*
X134522000Y-84057486D01*
X134545288Y-84174564D01*
X134590970Y-84284849D01*
X134647001Y-84368705D01*
X134647000Y-89188143D01*
X134568164Y-89155488D01*
X134451086Y-89132200D01*
X134331714Y-89132200D01*
X134324913Y-89133553D01*
X134313712Y-89077241D01*
X134268030Y-88966956D01*
X134201711Y-88867703D01*
X134117302Y-88783294D01*
X134018049Y-88716975D01*
X133907764Y-88671293D01*
X133790686Y-88648005D01*
X133671314Y-88648005D01*
X133554236Y-88671293D01*
X133478604Y-88702621D01*
X132700116Y-88702621D01*
X133224650Y-88178088D01*
X133323564Y-88158413D01*
X133433849Y-88112731D01*
X133533102Y-88046412D01*
X133617511Y-87962003D01*
X133683830Y-87862750D01*
X133729512Y-87752465D01*
X133752800Y-87635387D01*
X133752800Y-87516015D01*
X133729512Y-87398937D01*
X133683830Y-87288652D01*
X133617511Y-87189399D01*
X133533102Y-87104990D01*
X133433849Y-87038671D01*
X133323564Y-86992989D01*
X133206486Y-86969701D01*
X133087114Y-86969701D01*
X132970036Y-86992989D01*
X132859751Y-87038671D01*
X132785765Y-87088107D01*
X132744030Y-86987351D01*
X132677711Y-86888098D01*
X132593302Y-86803689D01*
X132494049Y-86737370D01*
X132383764Y-86691688D01*
X132266686Y-86668400D01*
X132147314Y-86668400D01*
X132030236Y-86691688D01*
X131919951Y-86737370D01*
X131820698Y-86803689D01*
X131736289Y-86888098D01*
X131677703Y-86975778D01*
X131663457Y-86904157D01*
X131617775Y-86793872D01*
X131551456Y-86694619D01*
X131467047Y-86610210D01*
X131367794Y-86543891D01*
X131257509Y-86498209D01*
X131160318Y-86478877D01*
X131118430Y-86377751D01*
X131052111Y-86278498D01*
X130967702Y-86194089D01*
X130868449Y-86127770D01*
X130758164Y-86082088D01*
X130688969Y-86068324D01*
X130681512Y-86030836D01*
X130635830Y-85920551D01*
X130569511Y-85821298D01*
X130485102Y-85736889D01*
X130385849Y-85670570D01*
X130275564Y-85624888D01*
X130176650Y-85605213D01*
X128200599Y-83629163D01*
X128200599Y-76044000D01*
X128304286Y-76044000D01*
X128421364Y-76020712D01*
X128531649Y-75975030D01*
X128630902Y-75908711D01*
X128715311Y-75824302D01*
X128781630Y-75725049D01*
X128827312Y-75614764D01*
X128850600Y-75497686D01*
X128850600Y-75378314D01*
X128827312Y-75261236D01*
X128781630Y-75150951D01*
X128715311Y-75051698D01*
X128677704Y-75014091D01*
X128726918Y-74964877D01*
X128793237Y-74865624D01*
X128838919Y-74755339D01*
X128862207Y-74638261D01*
X128862207Y-74609803D01*
X128921514Y-74621600D01*
X129040886Y-74621600D01*
X129157964Y-74598312D01*
X129268249Y-74552630D01*
X129352103Y-74496600D01*
X129848764Y-74496600D01*
X130178149Y-74825986D01*
G36*
X131624288Y-87451164D02*
G01*
X131669970Y-87561449D01*
X131726000Y-87645304D01*
X131726000Y-87750565D01*
X131573965Y-87902601D01*
X130492837Y-87902601D01*
X130261037Y-87670801D01*
X130940017Y-87670801D01*
X131021059Y-87686921D01*
X131140431Y-87686921D01*
X131257509Y-87663633D01*
X131367794Y-87617951D01*
X131467047Y-87551632D01*
X131551456Y-87467223D01*
X131610042Y-87379543D01*
X131624288Y-87451164D01*
G37*
X131624288Y-87451164D02*
X131669970Y-87561449D01*
X131726000Y-87645304D01*
X131726000Y-87750565D01*
X131573965Y-87902601D01*
X130492837Y-87902601D01*
X130261037Y-87670801D01*
X130940017Y-87670801D01*
X131021059Y-87686921D01*
X131140431Y-87686921D01*
X131257509Y-87663633D01*
X131367794Y-87617951D01*
X131467047Y-87551632D01*
X131551456Y-87467223D01*
X131610042Y-87379543D01*
X131624288Y-87451164D01*
G36*
X138406088Y-83160636D02*
G01*
X138382800Y-83277714D01*
X138382800Y-83397086D01*
X138406088Y-83514164D01*
X138451770Y-83624449D01*
X138518089Y-83723702D01*
X138602498Y-83808111D01*
X138701751Y-83874430D01*
X138812036Y-83920112D01*
X138929114Y-83943400D01*
X139048486Y-83943400D01*
X139165564Y-83920112D01*
X139275849Y-83874430D01*
X139375102Y-83808111D01*
X139459511Y-83723702D01*
X139525830Y-83624449D01*
X139571512Y-83514164D01*
X139594800Y-83397086D01*
X139594800Y-83277714D01*
X139571512Y-83160636D01*
X139566941Y-83149601D01*
X141133157Y-83149601D01*
X141133157Y-83916800D01*
X141140513Y-83991489D01*
X141162299Y-84063308D01*
X141164166Y-84066800D01*
X141162299Y-84070292D01*
X141142427Y-84135800D01*
X138638637Y-84135800D01*
X137652438Y-83149601D01*
X138410659Y-83149601D01*
X138406088Y-83160636D01*
G37*
X138406088Y-83160636D02*
X138382800Y-83277714D01*
X138382800Y-83397086D01*
X138406088Y-83514164D01*
X138451770Y-83624449D01*
X138518089Y-83723702D01*
X138602498Y-83808111D01*
X138701751Y-83874430D01*
X138812036Y-83920112D01*
X138929114Y-83943400D01*
X139048486Y-83943400D01*
X139165564Y-83920112D01*
X139275849Y-83874430D01*
X139375102Y-83808111D01*
X139459511Y-83723702D01*
X139525830Y-83624449D01*
X139571512Y-83514164D01*
X139594800Y-83397086D01*
X139594800Y-83277714D01*
X139571512Y-83160636D01*
X139566941Y-83149601D01*
X141133157Y-83149601D01*
X141133157Y-83916800D01*
X141140513Y-83991489D01*
X141162299Y-84063308D01*
X141164166Y-84066800D01*
X141162299Y-84070292D01*
X141142427Y-84135800D01*
X138638637Y-84135800D01*
X137652438Y-83149601D01*
X138410659Y-83149601D01*
X138406088Y-83160636D01*
G36*
X126183704Y-73243522D02*
G01*
X126249892Y-73278901D01*
X126290400Y-73291189D01*
X126290400Y-73419101D01*
X126262364Y-73407488D01*
X126145286Y-73384200D01*
X126025914Y-73384200D01*
X125908836Y-73407488D01*
X125798551Y-73453170D01*
X125699298Y-73519489D01*
X125614889Y-73603898D01*
X125548570Y-73703151D01*
X125502888Y-73813436D01*
X125479600Y-73930514D01*
X125479600Y-74049886D01*
X125502888Y-74166964D01*
X125548570Y-74277249D01*
X125614889Y-74376502D01*
X125699298Y-74460911D01*
X125798551Y-74527230D01*
X125908836Y-74572912D01*
X126025914Y-74596200D01*
X126145286Y-74596200D01*
X126262364Y-74572912D01*
X126290400Y-74561299D01*
X126290401Y-83061666D01*
X125982400Y-82753665D01*
X125982400Y-78272703D01*
X126038430Y-78188849D01*
X126084112Y-78078564D01*
X126107400Y-77961486D01*
X126107400Y-77842114D01*
X126084112Y-77725036D01*
X126038430Y-77614751D01*
X125972111Y-77515498D01*
X125887702Y-77431089D01*
X125788449Y-77364770D01*
X125678164Y-77319088D01*
X125561086Y-77295800D01*
X125441714Y-77295800D01*
X125324636Y-77319088D01*
X125214351Y-77364770D01*
X125115098Y-77431089D01*
X125030689Y-77515498D01*
X124964370Y-77614751D01*
X124918688Y-77725036D01*
X124895400Y-77842114D01*
X124895400Y-77961486D01*
X124918688Y-78078564D01*
X124964370Y-78188849D01*
X125020400Y-78272704D01*
X125020401Y-82430165D01*
X124713888Y-82123652D01*
X124713888Y-77763215D01*
X124769918Y-77679361D01*
X124815600Y-77569076D01*
X124838888Y-77451998D01*
X124838888Y-77332626D01*
X124815600Y-77215548D01*
X124769918Y-77105263D01*
X124703599Y-77006010D01*
X124619190Y-76921601D01*
X124519937Y-76855282D01*
X124409652Y-76809600D01*
X124292574Y-76786312D01*
X124173202Y-76786312D01*
X124056124Y-76809600D01*
X123945839Y-76855282D01*
X123846586Y-76921601D01*
X123762177Y-77006010D01*
X123695858Y-77105263D01*
X123650176Y-77215548D01*
X123626888Y-77332626D01*
X123626888Y-77451998D01*
X123650176Y-77569076D01*
X123695858Y-77679361D01*
X123751888Y-77763216D01*
X123751889Y-81872853D01*
X123467800Y-81588764D01*
X123467800Y-76875703D01*
X123523830Y-76791849D01*
X123569512Y-76681564D01*
X123592800Y-76564486D01*
X123592800Y-76445114D01*
X123569512Y-76328036D01*
X123523830Y-76217751D01*
X123457511Y-76118498D01*
X123373102Y-76034089D01*
X123273849Y-75967770D01*
X123163564Y-75922088D01*
X123046486Y-75898800D01*
X122927114Y-75898800D01*
X122810036Y-75922088D01*
X122699751Y-75967770D01*
X122600498Y-76034089D01*
X122516089Y-76118498D01*
X122449770Y-76217751D01*
X122404088Y-76328036D01*
X122380800Y-76445114D01*
X122380800Y-76564486D01*
X122404088Y-76681564D01*
X122449770Y-76791849D01*
X122505800Y-76875704D01*
X122505801Y-81236365D01*
X122172400Y-80902964D01*
X122172400Y-76418503D01*
X122228430Y-76334649D01*
X122274112Y-76224364D01*
X122297400Y-76107286D01*
X122297400Y-75987914D01*
X122274112Y-75870836D01*
X122228430Y-75760551D01*
X122162111Y-75661298D01*
X122077702Y-75576889D01*
X121978449Y-75510570D01*
X121868164Y-75464888D01*
X121751086Y-75441600D01*
X121631714Y-75441600D01*
X121514636Y-75464888D01*
X121404351Y-75510570D01*
X121305098Y-75576889D01*
X121220689Y-75661298D01*
X121154370Y-75760551D01*
X121108688Y-75870836D01*
X121085400Y-75987914D01*
X121085400Y-76107286D01*
X121108688Y-76224364D01*
X121154370Y-76334649D01*
X121210400Y-76418504D01*
X121210401Y-80506663D01*
X120902400Y-80198662D01*
X120902400Y-74495620D01*
X120905036Y-74496712D01*
X121022114Y-74520000D01*
X121141486Y-74520000D01*
X121258564Y-74496712D01*
X121368849Y-74451030D01*
X121468102Y-74384711D01*
X121552511Y-74300302D01*
X121618830Y-74201049D01*
X121648042Y-74130526D01*
X121687770Y-74226437D01*
X121754089Y-74325690D01*
X121838498Y-74410099D01*
X121937751Y-74476418D01*
X122048036Y-74522100D01*
X122165114Y-74545388D01*
X122284486Y-74545388D01*
X122401564Y-74522100D01*
X122511849Y-74476418D01*
X122611102Y-74410099D01*
X122695511Y-74325690D01*
X122761830Y-74226437D01*
X122807512Y-74116152D01*
X122830800Y-73999074D01*
X122830800Y-73905114D01*
X122965000Y-73905114D01*
X122965000Y-74024486D01*
X122988288Y-74141564D01*
X123033970Y-74251849D01*
X123100289Y-74351102D01*
X123184698Y-74435511D01*
X123283951Y-74501830D01*
X123394236Y-74547512D01*
X123511314Y-74570800D01*
X123630686Y-74570800D01*
X123747764Y-74547512D01*
X123858049Y-74501830D01*
X123957302Y-74435511D01*
X124041711Y-74351102D01*
X124108030Y-74251849D01*
X124153712Y-74141564D01*
X124177000Y-74024486D01*
X124177000Y-73930514D01*
X124209600Y-73930514D01*
X124209600Y-74049886D01*
X124232888Y-74166964D01*
X124278570Y-74277249D01*
X124344889Y-74376502D01*
X124429298Y-74460911D01*
X124528551Y-74527230D01*
X124638836Y-74572912D01*
X124755914Y-74596200D01*
X124875286Y-74596200D01*
X124992364Y-74572912D01*
X125102649Y-74527230D01*
X125201902Y-74460911D01*
X125286311Y-74376502D01*
X125352630Y-74277249D01*
X125398312Y-74166964D01*
X125421600Y-74049886D01*
X125421600Y-73930514D01*
X125398312Y-73813436D01*
X125352630Y-73703151D01*
X125286311Y-73603898D01*
X125201902Y-73519489D01*
X125102649Y-73453170D01*
X124992364Y-73407488D01*
X124875286Y-73384200D01*
X124755914Y-73384200D01*
X124638836Y-73407488D01*
X124528551Y-73453170D01*
X124429298Y-73519489D01*
X124344889Y-73603898D01*
X124278570Y-73703151D01*
X124232888Y-73813436D01*
X124209600Y-73930514D01*
X124177000Y-73930514D01*
X124177000Y-73905114D01*
X124153712Y-73788036D01*
X124108030Y-73677751D01*
X124041711Y-73578498D01*
X123957302Y-73494089D01*
X123858049Y-73427770D01*
X123747764Y-73382088D01*
X123630686Y-73358800D01*
X123511314Y-73358800D01*
X123394236Y-73382088D01*
X123283951Y-73427770D01*
X123184698Y-73494089D01*
X123100289Y-73578498D01*
X123033970Y-73677751D01*
X122988288Y-73788036D01*
X122965000Y-73905114D01*
X122830800Y-73905114D01*
X122830800Y-73879702D01*
X122807512Y-73762624D01*
X122761830Y-73652339D01*
X122695511Y-73553086D01*
X122611102Y-73468677D01*
X122511849Y-73402358D01*
X122401564Y-73356676D01*
X122284486Y-73333388D01*
X122165114Y-73333388D01*
X122048036Y-73356676D01*
X121937751Y-73402358D01*
X121838498Y-73468677D01*
X121754089Y-73553086D01*
X121687770Y-73652339D01*
X121658558Y-73722862D01*
X121618830Y-73626951D01*
X121552511Y-73527698D01*
X121468102Y-73443289D01*
X121368849Y-73376970D01*
X121258564Y-73331288D01*
X121141486Y-73308000D01*
X121022114Y-73308000D01*
X120905036Y-73331288D01*
X120902400Y-73332380D01*
X120902400Y-73291189D01*
X120942908Y-73278901D01*
X121009096Y-73243522D01*
X121056400Y-73204701D01*
X121103704Y-73243522D01*
X121169892Y-73278901D01*
X121241711Y-73300687D01*
X121316400Y-73308043D01*
X122066400Y-73308043D01*
X122141089Y-73300687D01*
X122212908Y-73278901D01*
X122279096Y-73243522D01*
X122326400Y-73204701D01*
X122373704Y-73243522D01*
X122439892Y-73278901D01*
X122511711Y-73300687D01*
X122586400Y-73308043D01*
X123336400Y-73308043D01*
X123411089Y-73300687D01*
X123482908Y-73278901D01*
X123549096Y-73243522D01*
X123596400Y-73204701D01*
X123643704Y-73243522D01*
X123709892Y-73278901D01*
X123781711Y-73300687D01*
X123856400Y-73308043D01*
X124606400Y-73308043D01*
X124681089Y-73300687D01*
X124752908Y-73278901D01*
X124819096Y-73243522D01*
X124866400Y-73204701D01*
X124913704Y-73243522D01*
X124979892Y-73278901D01*
X125051711Y-73300687D01*
X125126400Y-73308043D01*
X125876400Y-73308043D01*
X125951089Y-73300687D01*
X126022908Y-73278901D01*
X126089096Y-73243522D01*
X126136400Y-73204701D01*
X126183704Y-73243522D01*
G37*
X126183704Y-73243522D02*
X126249892Y-73278901D01*
X126290400Y-73291189D01*
X126290400Y-73419101D01*
X126262364Y-73407488D01*
X126145286Y-73384200D01*
X126025914Y-73384200D01*
X125908836Y-73407488D01*
X125798551Y-73453170D01*
X125699298Y-73519489D01*
X125614889Y-73603898D01*
X125548570Y-73703151D01*
X125502888Y-73813436D01*
X125479600Y-73930514D01*
X125479600Y-74049886D01*
X125502888Y-74166964D01*
X125548570Y-74277249D01*
X125614889Y-74376502D01*
X125699298Y-74460911D01*
X125798551Y-74527230D01*
X125908836Y-74572912D01*
X126025914Y-74596200D01*
X126145286Y-74596200D01*
X126262364Y-74572912D01*
X126290400Y-74561299D01*
X126290401Y-83061666D01*
X125982400Y-82753665D01*
X125982400Y-78272703D01*
X126038430Y-78188849D01*
X126084112Y-78078564D01*
X126107400Y-77961486D01*
X126107400Y-77842114D01*
X126084112Y-77725036D01*
X126038430Y-77614751D01*
X125972111Y-77515498D01*
X125887702Y-77431089D01*
X125788449Y-77364770D01*
X125678164Y-77319088D01*
X125561086Y-77295800D01*
X125441714Y-77295800D01*
X125324636Y-77319088D01*
X125214351Y-77364770D01*
X125115098Y-77431089D01*
X125030689Y-77515498D01*
X124964370Y-77614751D01*
X124918688Y-77725036D01*
X124895400Y-77842114D01*
X124895400Y-77961486D01*
X124918688Y-78078564D01*
X124964370Y-78188849D01*
X125020400Y-78272704D01*
X125020401Y-82430165D01*
X124713888Y-82123652D01*
X124713888Y-77763215D01*
X124769918Y-77679361D01*
X124815600Y-77569076D01*
X124838888Y-77451998D01*
X124838888Y-77332626D01*
X124815600Y-77215548D01*
X124769918Y-77105263D01*
X124703599Y-77006010D01*
X124619190Y-76921601D01*
X124519937Y-76855282D01*
X124409652Y-76809600D01*
X124292574Y-76786312D01*
X124173202Y-76786312D01*
X124056124Y-76809600D01*
X123945839Y-76855282D01*
X123846586Y-76921601D01*
X123762177Y-77006010D01*
X123695858Y-77105263D01*
X123650176Y-77215548D01*
X123626888Y-77332626D01*
X123626888Y-77451998D01*
X123650176Y-77569076D01*
X123695858Y-77679361D01*
X123751888Y-77763216D01*
X123751889Y-81872853D01*
X123467800Y-81588764D01*
X123467800Y-76875703D01*
X123523830Y-76791849D01*
X123569512Y-76681564D01*
X123592800Y-76564486D01*
X123592800Y-76445114D01*
X123569512Y-76328036D01*
X123523830Y-76217751D01*
X123457511Y-76118498D01*
X123373102Y-76034089D01*
X123273849Y-75967770D01*
X123163564Y-75922088D01*
X123046486Y-75898800D01*
X122927114Y-75898800D01*
X122810036Y-75922088D01*
X122699751Y-75967770D01*
X122600498Y-76034089D01*
X122516089Y-76118498D01*
X122449770Y-76217751D01*
X122404088Y-76328036D01*
X122380800Y-76445114D01*
X122380800Y-76564486D01*
X122404088Y-76681564D01*
X122449770Y-76791849D01*
X122505800Y-76875704D01*
X122505801Y-81236365D01*
X122172400Y-80902964D01*
X122172400Y-76418503D01*
X122228430Y-76334649D01*
X122274112Y-76224364D01*
X122297400Y-76107286D01*
X122297400Y-75987914D01*
X122274112Y-75870836D01*
X122228430Y-75760551D01*
X122162111Y-75661298D01*
X122077702Y-75576889D01*
X121978449Y-75510570D01*
X121868164Y-75464888D01*
X121751086Y-75441600D01*
X121631714Y-75441600D01*
X121514636Y-75464888D01*
X121404351Y-75510570D01*
X121305098Y-75576889D01*
X121220689Y-75661298D01*
X121154370Y-75760551D01*
X121108688Y-75870836D01*
X121085400Y-75987914D01*
X121085400Y-76107286D01*
X121108688Y-76224364D01*
X121154370Y-76334649D01*
X121210400Y-76418504D01*
X121210401Y-80506663D01*
X120902400Y-80198662D01*
X120902400Y-74495620D01*
X120905036Y-74496712D01*
X121022114Y-74520000D01*
X121141486Y-74520000D01*
X121258564Y-74496712D01*
X121368849Y-74451030D01*
X121468102Y-74384711D01*
X121552511Y-74300302D01*
X121618830Y-74201049D01*
X121648042Y-74130526D01*
X121687770Y-74226437D01*
X121754089Y-74325690D01*
X121838498Y-74410099D01*
X121937751Y-74476418D01*
X122048036Y-74522100D01*
X122165114Y-74545388D01*
X122284486Y-74545388D01*
X122401564Y-74522100D01*
X122511849Y-74476418D01*
X122611102Y-74410099D01*
X122695511Y-74325690D01*
X122761830Y-74226437D01*
X122807512Y-74116152D01*
X122830800Y-73999074D01*
X122830800Y-73905114D01*
X122965000Y-73905114D01*
X122965000Y-74024486D01*
X122988288Y-74141564D01*
X123033970Y-74251849D01*
X123100289Y-74351102D01*
X123184698Y-74435511D01*
X123283951Y-74501830D01*
X123394236Y-74547512D01*
X123511314Y-74570800D01*
X123630686Y-74570800D01*
X123747764Y-74547512D01*
X123858049Y-74501830D01*
X123957302Y-74435511D01*
X124041711Y-74351102D01*
X124108030Y-74251849D01*
X124153712Y-74141564D01*
X124177000Y-74024486D01*
X124177000Y-73930514D01*
X124209600Y-73930514D01*
X124209600Y-74049886D01*
X124232888Y-74166964D01*
X124278570Y-74277249D01*
X124344889Y-74376502D01*
X124429298Y-74460911D01*
X124528551Y-74527230D01*
X124638836Y-74572912D01*
X124755914Y-74596200D01*
X124875286Y-74596200D01*
X124992364Y-74572912D01*
X125102649Y-74527230D01*
X125201902Y-74460911D01*
X125286311Y-74376502D01*
X125352630Y-74277249D01*
X125398312Y-74166964D01*
X125421600Y-74049886D01*
X125421600Y-73930514D01*
X125398312Y-73813436D01*
X125352630Y-73703151D01*
X125286311Y-73603898D01*
X125201902Y-73519489D01*
X125102649Y-73453170D01*
X124992364Y-73407488D01*
X124875286Y-73384200D01*
X124755914Y-73384200D01*
X124638836Y-73407488D01*
X124528551Y-73453170D01*
X124429298Y-73519489D01*
X124344889Y-73603898D01*
X124278570Y-73703151D01*
X124232888Y-73813436D01*
X124209600Y-73930514D01*
X124177000Y-73930514D01*
X124177000Y-73905114D01*
X124153712Y-73788036D01*
X124108030Y-73677751D01*
X124041711Y-73578498D01*
X123957302Y-73494089D01*
X123858049Y-73427770D01*
X123747764Y-73382088D01*
X123630686Y-73358800D01*
X123511314Y-73358800D01*
X123394236Y-73382088D01*
X123283951Y-73427770D01*
X123184698Y-73494089D01*
X123100289Y-73578498D01*
X123033970Y-73677751D01*
X122988288Y-73788036D01*
X122965000Y-73905114D01*
X122830800Y-73905114D01*
X122830800Y-73879702D01*
X122807512Y-73762624D01*
X122761830Y-73652339D01*
X122695511Y-73553086D01*
X122611102Y-73468677D01*
X122511849Y-73402358D01*
X122401564Y-73356676D01*
X122284486Y-73333388D01*
X122165114Y-73333388D01*
X122048036Y-73356676D01*
X121937751Y-73402358D01*
X121838498Y-73468677D01*
X121754089Y-73553086D01*
X121687770Y-73652339D01*
X121658558Y-73722862D01*
X121618830Y-73626951D01*
X121552511Y-73527698D01*
X121468102Y-73443289D01*
X121368849Y-73376970D01*
X121258564Y-73331288D01*
X121141486Y-73308000D01*
X121022114Y-73308000D01*
X120905036Y-73331288D01*
X120902400Y-73332380D01*
X120902400Y-73291189D01*
X120942908Y-73278901D01*
X121009096Y-73243522D01*
X121056400Y-73204701D01*
X121103704Y-73243522D01*
X121169892Y-73278901D01*
X121241711Y-73300687D01*
X121316400Y-73308043D01*
X122066400Y-73308043D01*
X122141089Y-73300687D01*
X122212908Y-73278901D01*
X122279096Y-73243522D01*
X122326400Y-73204701D01*
X122373704Y-73243522D01*
X122439892Y-73278901D01*
X122511711Y-73300687D01*
X122586400Y-73308043D01*
X123336400Y-73308043D01*
X123411089Y-73300687D01*
X123482908Y-73278901D01*
X123549096Y-73243522D01*
X123596400Y-73204701D01*
X123643704Y-73243522D01*
X123709892Y-73278901D01*
X123781711Y-73300687D01*
X123856400Y-73308043D01*
X124606400Y-73308043D01*
X124681089Y-73300687D01*
X124752908Y-73278901D01*
X124819096Y-73243522D01*
X124866400Y-73204701D01*
X124913704Y-73243522D01*
X124979892Y-73278901D01*
X125051711Y-73300687D01*
X125126400Y-73308043D01*
X125876400Y-73308043D01*
X125951089Y-73300687D01*
X126022908Y-73278901D01*
X126089096Y-73243522D01*
X126136400Y-73204701D01*
X126183704Y-73243522D01*
G36*
X139208300Y-77670539D02*
G01*
X139110498Y-77735889D01*
X139026089Y-77820298D01*
X138959770Y-77919551D01*
X138914088Y-78029836D01*
X138913578Y-78032400D01*
X138852914Y-78032400D01*
X138735836Y-78055688D01*
X138625551Y-78101370D01*
X138526298Y-78167689D01*
X138441889Y-78252098D01*
X138375570Y-78351351D01*
X138329888Y-78461636D01*
X138306600Y-78578714D01*
X138306600Y-78698086D01*
X138329888Y-78815164D01*
X138375570Y-78925449D01*
X138431600Y-79009304D01*
X138431601Y-80039362D01*
X137476952Y-80994011D01*
X137463312Y-80925436D01*
X137417630Y-80815151D01*
X137361600Y-80731297D01*
X137361600Y-78231234D01*
X137361712Y-78230964D01*
X137385000Y-78113886D01*
X137385000Y-78104094D01*
X137566000Y-78104872D01*
X137690482Y-78092612D01*
X137810180Y-78056302D01*
X137920494Y-77997337D01*
X138017185Y-77917985D01*
X138096537Y-77821294D01*
X138155502Y-77710980D01*
X138191812Y-77591282D01*
X138204072Y-77466800D01*
X138201000Y-77027550D01*
X138042250Y-76868800D01*
X136693000Y-76868800D01*
X136693000Y-76888800D01*
X136439000Y-76888800D01*
X136439000Y-76868800D01*
X136419000Y-76868800D01*
X136419000Y-76614800D01*
X136439000Y-76614800D01*
X136439000Y-76594800D01*
X136693000Y-76594800D01*
X136693000Y-76614800D01*
X138042250Y-76614800D01*
X138097406Y-76559644D01*
X139208300Y-77670539D01*
G37*
X139208300Y-77670539D02*
X139110498Y-77735889D01*
X139026089Y-77820298D01*
X138959770Y-77919551D01*
X138914088Y-78029836D01*
X138913578Y-78032400D01*
X138852914Y-78032400D01*
X138735836Y-78055688D01*
X138625551Y-78101370D01*
X138526298Y-78167689D01*
X138441889Y-78252098D01*
X138375570Y-78351351D01*
X138329888Y-78461636D01*
X138306600Y-78578714D01*
X138306600Y-78698086D01*
X138329888Y-78815164D01*
X138375570Y-78925449D01*
X138431600Y-79009304D01*
X138431601Y-80039362D01*
X137476952Y-80994011D01*
X137463312Y-80925436D01*
X137417630Y-80815151D01*
X137361600Y-80731297D01*
X137361600Y-78231234D01*
X137361712Y-78230964D01*
X137385000Y-78113886D01*
X137385000Y-78104094D01*
X137566000Y-78104872D01*
X137690482Y-78092612D01*
X137810180Y-78056302D01*
X137920494Y-77997337D01*
X138017185Y-77917985D01*
X138096537Y-77821294D01*
X138155502Y-77710980D01*
X138191812Y-77591282D01*
X138204072Y-77466800D01*
X138201000Y-77027550D01*
X138042250Y-76868800D01*
X136693000Y-76868800D01*
X136693000Y-76888800D01*
X136439000Y-76888800D01*
X136439000Y-76868800D01*
X136419000Y-76868800D01*
X136419000Y-76614800D01*
X136439000Y-76614800D01*
X136439000Y-76594800D01*
X136693000Y-76594800D01*
X136693000Y-76614800D01*
X138042250Y-76614800D01*
X138097406Y-76559644D01*
X139208300Y-77670539D01*
G36*
X130585000Y-75980286D02*
G01*
X130608288Y-76097364D01*
X130653970Y-76207649D01*
X130720289Y-76306902D01*
X130804698Y-76391311D01*
X130903951Y-76457630D01*
X130934999Y-76470491D01*
X130935000Y-78803542D01*
X130279793Y-79458750D01*
X130274764Y-79462878D01*
X130250164Y-79452688D01*
X130133086Y-79429400D01*
X130013714Y-79429400D01*
X129896636Y-79452688D01*
X129786351Y-79498370D01*
X129750589Y-79522265D01*
X129741712Y-79477636D01*
X129696030Y-79367351D01*
X129640000Y-79283497D01*
X129640000Y-76901384D01*
X130585000Y-75956385D01*
X130585000Y-75980286D01*
G37*
X130585000Y-75980286D02*
X130608288Y-76097364D01*
X130653970Y-76207649D01*
X130720289Y-76306902D01*
X130804698Y-76391311D01*
X130903951Y-76457630D01*
X130934999Y-76470491D01*
X130935000Y-78803542D01*
X130279793Y-79458750D01*
X130274764Y-79462878D01*
X130250164Y-79452688D01*
X130133086Y-79429400D01*
X130013714Y-79429400D01*
X129896636Y-79452688D01*
X129786351Y-79498370D01*
X129750589Y-79522265D01*
X129741712Y-79477636D01*
X129696030Y-79367351D01*
X129640000Y-79283497D01*
X129640000Y-76901384D01*
X130585000Y-75956385D01*
X130585000Y-75980286D01*
G36*
X135028401Y-76930149D02*
G01*
X135028401Y-76868802D01*
X135089748Y-76868802D01*
X135028401Y-76930149D01*
G37*
X135028401Y-76930149D02*
X135028401Y-76868802D01*
X135089748Y-76868802D01*
X135028401Y-76930149D01*
G36*
X128168400Y-71748200D02*
G01*
X128188400Y-71748200D01*
X128188400Y-72002200D01*
X128168400Y-72002200D01*
X128168400Y-73401450D01*
X128327150Y-73560200D01*
X128416400Y-73563272D01*
X128540882Y-73551012D01*
X128623027Y-73526093D01*
X128594898Y-73544889D01*
X128510489Y-73629298D01*
X128444170Y-73728551D01*
X128398488Y-73838836D01*
X128375200Y-73955914D01*
X128375200Y-73984372D01*
X128315893Y-73972575D01*
X128196521Y-73972575D01*
X128079443Y-73995863D01*
X127969158Y-74041545D01*
X127927235Y-74069557D01*
X127936200Y-74024486D01*
X127936200Y-73905114D01*
X127912912Y-73788036D01*
X127867230Y-73677751D01*
X127800911Y-73578498D01*
X127769132Y-73546719D01*
X127914400Y-73401450D01*
X127914400Y-72002200D01*
X127894400Y-72002200D01*
X127894400Y-71748200D01*
X127914400Y-71748200D01*
X127914400Y-71728200D01*
X128168400Y-71728200D01*
X128168400Y-71748200D01*
G37*
X128168400Y-71748200D02*
X128188400Y-71748200D01*
X128188400Y-72002200D01*
X128168400Y-72002200D01*
X128168400Y-73401450D01*
X128327150Y-73560200D01*
X128416400Y-73563272D01*
X128540882Y-73551012D01*
X128623027Y-73526093D01*
X128594898Y-73544889D01*
X128510489Y-73629298D01*
X128444170Y-73728551D01*
X128398488Y-73838836D01*
X128375200Y-73955914D01*
X128375200Y-73984372D01*
X128315893Y-73972575D01*
X128196521Y-73972575D01*
X128079443Y-73995863D01*
X127969158Y-74041545D01*
X127927235Y-74069557D01*
X127936200Y-74024486D01*
X127936200Y-73905114D01*
X127912912Y-73788036D01*
X127867230Y-73677751D01*
X127800911Y-73578498D01*
X127769132Y-73546719D01*
X127914400Y-73401450D01*
X127914400Y-72002200D01*
X127894400Y-72002200D01*
X127894400Y-71748200D01*
X127914400Y-71748200D01*
X127914400Y-71728200D01*
X128168400Y-71728200D01*
X128168400Y-71748200D01*
G36*
X134518400Y-68148200D02*
G01*
X134538400Y-68148200D01*
X134538400Y-68402200D01*
X134518400Y-68402200D01*
X134518400Y-68422200D01*
X134264400Y-68422200D01*
X134264400Y-68402200D01*
X134244400Y-68402200D01*
X134244400Y-68148200D01*
X134264400Y-68148200D01*
X134264400Y-68128200D01*
X134518400Y-68128200D01*
X134518400Y-68148200D01*
G37*
X134518400Y-68148200D02*
X134538400Y-68148200D01*
X134538400Y-68402200D01*
X134518400Y-68402200D01*
X134518400Y-68422200D01*
X134264400Y-68422200D01*
X134264400Y-68402200D01*
X134244400Y-68402200D01*
X134244400Y-68148200D01*
X134264400Y-68148200D01*
X134264400Y-68128200D01*
X134518400Y-68128200D01*
X134518400Y-68148200D01*
G36*
X119278400Y-68148200D02*
G01*
X119298400Y-68148200D01*
X119298400Y-68402200D01*
X119278400Y-68402200D01*
X119278400Y-68422200D01*
X119024400Y-68422200D01*
X119024400Y-68402200D01*
X119004400Y-68402200D01*
X119004400Y-68148200D01*
X119024400Y-68148200D01*
X119024400Y-68128200D01*
X119278400Y-68128200D01*
X119278400Y-68148200D01*
G37*
X119278400Y-68148200D02*
X119298400Y-68148200D01*
X119298400Y-68402200D01*
X119278400Y-68402200D01*
X119278400Y-68422200D01*
X119024400Y-68422200D01*
X119024400Y-68402200D01*
X119004400Y-68402200D01*
X119004400Y-68148200D01*
X119024400Y-68148200D01*
X119024400Y-68128200D01*
X119278400Y-68128200D01*
X119278400Y-68148200D01*
M02*
