G04 #@! TF.GenerationSoftware,KiCad,Pcbnew,(5.1.6)-1*
G04 #@! TF.CreationDate,2020-11-06T20:40:43+01:00*
G04 #@! TF.ProjectId,DynOSSAT-EDU-OBC,44796e4f-5353-4415-942d-4544552d4f42,rev?*
G04 #@! TF.SameCoordinates,Original*
G04 #@! TF.FileFunction,Paste,Bot*
G04 #@! TF.FilePolarity,Positive*
%FSLAX46Y46*%
G04 Gerber Fmt 4.6, Leading zero omitted, Abs format (unit mm)*
G04 Created by KiCad (PCBNEW (5.1.6)-1) date 2020-11-06 20:40:43*
%MOMM*%
%LPD*%
G01*
G04 APERTURE LIST*
%ADD10R,0.750000X2.100000*%
%ADD11R,2.000000X1.450000*%
%ADD12R,1.500000X0.800000*%
G04 APERTURE END LIST*
D10*
X139471400Y-68275200D03*
X139471400Y-71875200D03*
X138201400Y-68275200D03*
X138201400Y-71875200D03*
X136931400Y-68275200D03*
X136931400Y-71875200D03*
X135661400Y-68275200D03*
X135661400Y-71875200D03*
X134391400Y-68275200D03*
X134391400Y-71875200D03*
X133121400Y-68275200D03*
X133121400Y-71875200D03*
X131851400Y-68275200D03*
X131851400Y-71875200D03*
X130581400Y-68275200D03*
X130581400Y-71875200D03*
X129311400Y-68275200D03*
X129311400Y-71875200D03*
X128041400Y-68275200D03*
X128041400Y-71875200D03*
X126771400Y-68275200D03*
X126771400Y-71875200D03*
X125501400Y-68275200D03*
X125501400Y-71875200D03*
X124231400Y-68275200D03*
X124231400Y-71875200D03*
X122961400Y-68275200D03*
X122961400Y-71875200D03*
X121691400Y-68275200D03*
X121691400Y-71875200D03*
X120421400Y-68275200D03*
X120421400Y-71875200D03*
X119151400Y-68275200D03*
X119151400Y-71875200D03*
X117881400Y-68275200D03*
X117881400Y-71875200D03*
X116611400Y-68275200D03*
X116611400Y-71875200D03*
X115341400Y-68275200D03*
X115341400Y-71875200D03*
D11*
X144866000Y-76741800D03*
X144866000Y-90491800D03*
X136566000Y-90491800D03*
X136566000Y-76741800D03*
D12*
X142266000Y-79116800D03*
X142266000Y-80216800D03*
X142266000Y-81316800D03*
X142266000Y-82416800D03*
X142266000Y-83516800D03*
X142266000Y-84616800D03*
X142266000Y-85716800D03*
X142266000Y-86816800D03*
M02*
