G04 #@! TF.GenerationSoftware,KiCad,Pcbnew,(5.1.6)-1*
G04 #@! TF.CreationDate,2020-10-14T11:51:14+02:00*
G04 #@! TF.ProjectId,DynOSSAT-EDU-OBC,44796e4f-5353-4415-942d-4544552d4f42,rev?*
G04 #@! TF.SameCoordinates,Original*
G04 #@! TF.FileFunction,Paste,Top*
G04 #@! TF.FilePolarity,Positive*
%FSLAX46Y46*%
G04 Gerber Fmt 4.6, Leading zero omitted, Abs format (unit mm)*
G04 Created by KiCad (PCBNEW (5.1.6)-1) date 2020-10-14 11:51:14*
%MOMM*%
%LPD*%
G01*
G04 APERTURE LIST*
%ADD10R,0.800000X0.900000*%
%ADD11R,0.740000X2.400000*%
%ADD12R,0.900000X0.800000*%
%ADD13R,1.150000X0.300000*%
%ADD14R,1.000000X1.450000*%
%ADD15R,1.000000X0.900000*%
%ADD16R,0.650000X1.060000*%
%ADD17C,0.100000*%
%ADD18R,0.400000X0.550000*%
%ADD19R,1.400000X0.900000*%
%ADD20R,0.800000X0.200000*%
%ADD21R,0.250000X0.600000*%
%ADD22R,0.850000X1.600000*%
G04 APERTURE END LIST*
D10*
X124421900Y-101545900D03*
X123471900Y-99545900D03*
X125371900Y-99545900D03*
G36*
G01*
X126969300Y-99771700D02*
X126624300Y-99771700D01*
G75*
G02*
X126476800Y-99624200I0J147500D01*
G01*
X126476800Y-99329200D01*
G75*
G02*
X126624300Y-99181700I147500J0D01*
G01*
X126969300Y-99181700D01*
G75*
G02*
X127116800Y-99329200I0J-147500D01*
G01*
X127116800Y-99624200D01*
G75*
G02*
X126969300Y-99771700I-147500J0D01*
G01*
G37*
G36*
G01*
X126969300Y-100741700D02*
X126624300Y-100741700D01*
G75*
G02*
X126476800Y-100594200I0J147500D01*
G01*
X126476800Y-100299200D01*
G75*
G02*
X126624300Y-100151700I147500J0D01*
G01*
X126969300Y-100151700D01*
G75*
G02*
X127116800Y-100299200I0J-147500D01*
G01*
X127116800Y-100594200D01*
G75*
G02*
X126969300Y-100741700I-147500J0D01*
G01*
G37*
D11*
X139471400Y-68281000D03*
X139471400Y-72181000D03*
X138201400Y-68281000D03*
X138201400Y-72181000D03*
X136931400Y-68281000D03*
X136931400Y-72181000D03*
X135661400Y-68281000D03*
X135661400Y-72181000D03*
X134391400Y-68281000D03*
X134391400Y-72181000D03*
X133121400Y-68281000D03*
X133121400Y-72181000D03*
X131851400Y-68281000D03*
X131851400Y-72181000D03*
X130581400Y-68281000D03*
X130581400Y-72181000D03*
X129311400Y-68281000D03*
X129311400Y-72181000D03*
X128041400Y-68281000D03*
X128041400Y-72181000D03*
X126771400Y-68281000D03*
X126771400Y-72181000D03*
X125501400Y-68281000D03*
X125501400Y-72181000D03*
X124231400Y-68281000D03*
X124231400Y-72181000D03*
X122961400Y-68281000D03*
X122961400Y-72181000D03*
X121691400Y-68281000D03*
X121691400Y-72181000D03*
X120421400Y-68281000D03*
X120421400Y-72181000D03*
X119151400Y-68281000D03*
X119151400Y-72181000D03*
X117881400Y-68281000D03*
X117881400Y-72181000D03*
X116611400Y-68281000D03*
X116611400Y-72181000D03*
X115341400Y-68281000D03*
X115341400Y-72181000D03*
G36*
G01*
X134981200Y-103197950D02*
X134981200Y-103710450D01*
G75*
G02*
X134762450Y-103929200I-218750J0D01*
G01*
X134324950Y-103929200D01*
G75*
G02*
X134106200Y-103710450I0J218750D01*
G01*
X134106200Y-103197950D01*
G75*
G02*
X134324950Y-102979200I218750J0D01*
G01*
X134762450Y-102979200D01*
G75*
G02*
X134981200Y-103197950I0J-218750D01*
G01*
G37*
G36*
G01*
X136556200Y-103197950D02*
X136556200Y-103710450D01*
G75*
G02*
X136337450Y-103929200I-218750J0D01*
G01*
X135899950Y-103929200D01*
G75*
G02*
X135681200Y-103710450I0J218750D01*
G01*
X135681200Y-103197950D01*
G75*
G02*
X135899950Y-102979200I218750J0D01*
G01*
X136337450Y-102979200D01*
G75*
G02*
X136556200Y-103197950I0J-218750D01*
G01*
G37*
G36*
G01*
X129636000Y-103608850D02*
X129636000Y-103096350D01*
G75*
G02*
X129854750Y-102877600I218750J0D01*
G01*
X130292250Y-102877600D01*
G75*
G02*
X130511000Y-103096350I0J-218750D01*
G01*
X130511000Y-103608850D01*
G75*
G02*
X130292250Y-103827600I-218750J0D01*
G01*
X129854750Y-103827600D01*
G75*
G02*
X129636000Y-103608850I0J218750D01*
G01*
G37*
G36*
G01*
X128061000Y-103608850D02*
X128061000Y-103096350D01*
G75*
G02*
X128279750Y-102877600I218750J0D01*
G01*
X128717250Y-102877600D01*
G75*
G02*
X128936000Y-103096350I0J-218750D01*
G01*
X128936000Y-103608850D01*
G75*
G02*
X128717250Y-103827600I-218750J0D01*
G01*
X128279750Y-103827600D01*
G75*
G02*
X128061000Y-103608850I0J218750D01*
G01*
G37*
G36*
G01*
X147114550Y-89783400D02*
X147627050Y-89783400D01*
G75*
G02*
X147845800Y-90002150I0J-218750D01*
G01*
X147845800Y-90439650D01*
G75*
G02*
X147627050Y-90658400I-218750J0D01*
G01*
X147114550Y-90658400D01*
G75*
G02*
X146895800Y-90439650I0J218750D01*
G01*
X146895800Y-90002150D01*
G75*
G02*
X147114550Y-89783400I218750J0D01*
G01*
G37*
G36*
G01*
X147114550Y-88208400D02*
X147627050Y-88208400D01*
G75*
G02*
X147845800Y-88427150I0J-218750D01*
G01*
X147845800Y-88864650D01*
G75*
G02*
X147627050Y-89083400I-218750J0D01*
G01*
X147114550Y-89083400D01*
G75*
G02*
X146895800Y-88864650I0J218750D01*
G01*
X146895800Y-88427150D01*
G75*
G02*
X147114550Y-88208400I218750J0D01*
G01*
G37*
G36*
G01*
X129686800Y-98198650D02*
X129686800Y-97686150D01*
G75*
G02*
X129905550Y-97467400I218750J0D01*
G01*
X130343050Y-97467400D01*
G75*
G02*
X130561800Y-97686150I0J-218750D01*
G01*
X130561800Y-98198650D01*
G75*
G02*
X130343050Y-98417400I-218750J0D01*
G01*
X129905550Y-98417400D01*
G75*
G02*
X129686800Y-98198650I0J218750D01*
G01*
G37*
G36*
G01*
X128111800Y-98198650D02*
X128111800Y-97686150D01*
G75*
G02*
X128330550Y-97467400I218750J0D01*
G01*
X128768050Y-97467400D01*
G75*
G02*
X128986800Y-97686150I0J-218750D01*
G01*
X128986800Y-98198650D01*
G75*
G02*
X128768050Y-98417400I-218750J0D01*
G01*
X128330550Y-98417400D01*
G75*
G02*
X128111800Y-98198650I0J218750D01*
G01*
G37*
D10*
X112471200Y-86376000D03*
X113421200Y-88376000D03*
X111521200Y-88376000D03*
X112471200Y-82642200D03*
X113421200Y-84642200D03*
X111521200Y-84642200D03*
G36*
G01*
X139796300Y-99886000D02*
X139451300Y-99886000D01*
G75*
G02*
X139303800Y-99738500I0J147500D01*
G01*
X139303800Y-99443500D01*
G75*
G02*
X139451300Y-99296000I147500J0D01*
G01*
X139796300Y-99296000D01*
G75*
G02*
X139943800Y-99443500I0J-147500D01*
G01*
X139943800Y-99738500D01*
G75*
G02*
X139796300Y-99886000I-147500J0D01*
G01*
G37*
G36*
G01*
X139796300Y-100856000D02*
X139451300Y-100856000D01*
G75*
G02*
X139303800Y-100708500I0J147500D01*
G01*
X139303800Y-100413500D01*
G75*
G02*
X139451300Y-100266000I147500J0D01*
G01*
X139796300Y-100266000D01*
G75*
G02*
X139943800Y-100413500I0J-147500D01*
G01*
X139943800Y-100708500D01*
G75*
G02*
X139796300Y-100856000I-147500J0D01*
G01*
G37*
G36*
G01*
X139451300Y-94830400D02*
X139796300Y-94830400D01*
G75*
G02*
X139943800Y-94977900I0J-147500D01*
G01*
X139943800Y-95272900D01*
G75*
G02*
X139796300Y-95420400I-147500J0D01*
G01*
X139451300Y-95420400D01*
G75*
G02*
X139303800Y-95272900I0J147500D01*
G01*
X139303800Y-94977900D01*
G75*
G02*
X139451300Y-94830400I147500J0D01*
G01*
G37*
G36*
G01*
X139451300Y-93860400D02*
X139796300Y-93860400D01*
G75*
G02*
X139943800Y-94007900I0J-147500D01*
G01*
X139943800Y-94302900D01*
G75*
G02*
X139796300Y-94450400I-147500J0D01*
G01*
X139451300Y-94450400D01*
G75*
G02*
X139303800Y-94302900I0J147500D01*
G01*
X139303800Y-94007900D01*
G75*
G02*
X139451300Y-93860400I147500J0D01*
G01*
G37*
G36*
G01*
X137129100Y-98198650D02*
X137129100Y-97686150D01*
G75*
G02*
X137347850Y-97467400I218750J0D01*
G01*
X137785350Y-97467400D01*
G75*
G02*
X138004100Y-97686150I0J-218750D01*
G01*
X138004100Y-98198650D01*
G75*
G02*
X137785350Y-98417400I-218750J0D01*
G01*
X137347850Y-98417400D01*
G75*
G02*
X137129100Y-98198650I0J218750D01*
G01*
G37*
G36*
G01*
X135554100Y-98198650D02*
X135554100Y-97686150D01*
G75*
G02*
X135772850Y-97467400I218750J0D01*
G01*
X136210350Y-97467400D01*
G75*
G02*
X136429100Y-97686150I0J-218750D01*
G01*
X136429100Y-98198650D01*
G75*
G02*
X136210350Y-98417400I-218750J0D01*
G01*
X135772850Y-98417400D01*
G75*
G02*
X135554100Y-98198650I0J218750D01*
G01*
G37*
D12*
X134096000Y-100457000D03*
X132096000Y-101407000D03*
X132096000Y-99507000D03*
G36*
G01*
X134327575Y-75414926D02*
X134571527Y-75170975D01*
G75*
G02*
X134780123Y-75170975I104298J-104298D01*
G01*
X134988719Y-75379571D01*
G75*
G02*
X134988719Y-75588167I-104298J-104298D01*
G01*
X134744767Y-75832119D01*
G75*
G02*
X134536171Y-75832119I-104298J104298D01*
G01*
X134327575Y-75623523D01*
G75*
G02*
X134327575Y-75414927I104298J104298D01*
G01*
G37*
G36*
G01*
X133641681Y-74729032D02*
X133885633Y-74485081D01*
G75*
G02*
X134094229Y-74485081I104298J-104298D01*
G01*
X134302825Y-74693677D01*
G75*
G02*
X134302825Y-74902273I-104298J-104298D01*
G01*
X134058873Y-75146225D01*
G75*
G02*
X133850277Y-75146225I-104298J104298D01*
G01*
X133641681Y-74937629D01*
G75*
G02*
X133641681Y-74729033I104298J104298D01*
G01*
G37*
G36*
G01*
X131737425Y-77467674D02*
X131493473Y-77711625D01*
G75*
G02*
X131284877Y-77711625I-104298J104298D01*
G01*
X131076281Y-77503029D01*
G75*
G02*
X131076281Y-77294433I104298J104298D01*
G01*
X131320233Y-77050481D01*
G75*
G02*
X131528829Y-77050481I104298J-104298D01*
G01*
X131737425Y-77259077D01*
G75*
G02*
X131737425Y-77467673I-104298J-104298D01*
G01*
G37*
G36*
G01*
X132423319Y-78153568D02*
X132179367Y-78397519D01*
G75*
G02*
X131970771Y-78397519I-104298J104298D01*
G01*
X131762175Y-78188923D01*
G75*
G02*
X131762175Y-77980327I104298J104298D01*
G01*
X132006127Y-77736375D01*
G75*
G02*
X132214723Y-77736375I104298J-104298D01*
G01*
X132423319Y-77944971D01*
G75*
G02*
X132423319Y-78153567I-104298J-104298D01*
G01*
G37*
G36*
G01*
X130188025Y-78991674D02*
X129944073Y-79235625D01*
G75*
G02*
X129735477Y-79235625I-104298J104298D01*
G01*
X129526881Y-79027029D01*
G75*
G02*
X129526881Y-78818433I104298J104298D01*
G01*
X129770833Y-78574481D01*
G75*
G02*
X129979429Y-78574481I104298J-104298D01*
G01*
X130188025Y-78783077D01*
G75*
G02*
X130188025Y-78991673I-104298J-104298D01*
G01*
G37*
G36*
G01*
X130873919Y-79677568D02*
X130629967Y-79921519D01*
G75*
G02*
X130421371Y-79921519I-104298J104298D01*
G01*
X130212775Y-79712923D01*
G75*
G02*
X130212775Y-79504327I104298J104298D01*
G01*
X130456727Y-79260375D01*
G75*
G02*
X130665323Y-79260375I104298J-104298D01*
G01*
X130873919Y-79468971D01*
G75*
G02*
X130873919Y-79677567I-104298J-104298D01*
G01*
G37*
G36*
G01*
X138889526Y-92951625D02*
X138645575Y-92707673D01*
G75*
G02*
X138645575Y-92499077I104298J104298D01*
G01*
X138854171Y-92290481D01*
G75*
G02*
X139062767Y-92290481I104298J-104298D01*
G01*
X139306719Y-92534433D01*
G75*
G02*
X139306719Y-92743029I-104298J-104298D01*
G01*
X139098123Y-92951625D01*
G75*
G02*
X138889527Y-92951625I-104298J104298D01*
G01*
G37*
G36*
G01*
X138203632Y-93637519D02*
X137959681Y-93393567D01*
G75*
G02*
X137959681Y-93184971I104298J104298D01*
G01*
X138168277Y-92976375D01*
G75*
G02*
X138376873Y-92976375I104298J-104298D01*
G01*
X138620825Y-93220327D01*
G75*
G02*
X138620825Y-93428923I-104298J-104298D01*
G01*
X138412229Y-93637519D01*
G75*
G02*
X138203633Y-93637519I-104298J104298D01*
G01*
G37*
G36*
G01*
X129374575Y-90223126D02*
X129618527Y-89979175D01*
G75*
G02*
X129827123Y-89979175I104298J-104298D01*
G01*
X130035719Y-90187771D01*
G75*
G02*
X130035719Y-90396367I-104298J-104298D01*
G01*
X129791767Y-90640319D01*
G75*
G02*
X129583171Y-90640319I-104298J104298D01*
G01*
X129374575Y-90431723D01*
G75*
G02*
X129374575Y-90223127I104298J104298D01*
G01*
G37*
G36*
G01*
X128688681Y-89537232D02*
X128932633Y-89293281D01*
G75*
G02*
X129141229Y-89293281I104298J-104298D01*
G01*
X129349825Y-89501877D01*
G75*
G02*
X129349825Y-89710473I-104298J-104298D01*
G01*
X129105873Y-89954425D01*
G75*
G02*
X128897277Y-89954425I-104298J104298D01*
G01*
X128688681Y-89745829D01*
G75*
G02*
X128688681Y-89537233I104298J104298D01*
G01*
G37*
G36*
G01*
X130975425Y-78229674D02*
X130731473Y-78473625D01*
G75*
G02*
X130522877Y-78473625I-104298J104298D01*
G01*
X130314281Y-78265029D01*
G75*
G02*
X130314281Y-78056433I104298J104298D01*
G01*
X130558233Y-77812481D01*
G75*
G02*
X130766829Y-77812481I104298J-104298D01*
G01*
X130975425Y-78021077D01*
G75*
G02*
X130975425Y-78229673I-104298J-104298D01*
G01*
G37*
G36*
G01*
X131661319Y-78915568D02*
X131417367Y-79159519D01*
G75*
G02*
X131208771Y-79159519I-104298J104298D01*
G01*
X131000175Y-78950923D01*
G75*
G02*
X131000175Y-78742327I104298J104298D01*
G01*
X131244127Y-78498375D01*
G75*
G02*
X131452723Y-78498375I104298J-104298D01*
G01*
X131661319Y-78706971D01*
G75*
G02*
X131661319Y-78915567I-104298J-104298D01*
G01*
G37*
G36*
G01*
X126943900Y-87363800D02*
X126598900Y-87363800D01*
G75*
G02*
X126451400Y-87216300I0J147500D01*
G01*
X126451400Y-86921300D01*
G75*
G02*
X126598900Y-86773800I147500J0D01*
G01*
X126943900Y-86773800D01*
G75*
G02*
X127091400Y-86921300I0J-147500D01*
G01*
X127091400Y-87216300D01*
G75*
G02*
X126943900Y-87363800I-147500J0D01*
G01*
G37*
G36*
G01*
X126943900Y-88333800D02*
X126598900Y-88333800D01*
G75*
G02*
X126451400Y-88186300I0J147500D01*
G01*
X126451400Y-87891300D01*
G75*
G02*
X126598900Y-87743800I147500J0D01*
G01*
X126943900Y-87743800D01*
G75*
G02*
X127091400Y-87891300I0J-147500D01*
G01*
X127091400Y-88186300D01*
G75*
G02*
X126943900Y-88333800I-147500J0D01*
G01*
G37*
G36*
G01*
X121222000Y-89667300D02*
X121222000Y-90012300D01*
G75*
G02*
X121074500Y-90159800I-147500J0D01*
G01*
X120779500Y-90159800D01*
G75*
G02*
X120632000Y-90012300I0J147500D01*
G01*
X120632000Y-89667300D01*
G75*
G02*
X120779500Y-89519800I147500J0D01*
G01*
X121074500Y-89519800D01*
G75*
G02*
X121222000Y-89667300I0J-147500D01*
G01*
G37*
G36*
G01*
X122192000Y-89667300D02*
X122192000Y-90012300D01*
G75*
G02*
X122044500Y-90159800I-147500J0D01*
G01*
X121749500Y-90159800D01*
G75*
G02*
X121602000Y-90012300I0J147500D01*
G01*
X121602000Y-89667300D01*
G75*
G02*
X121749500Y-89519800I147500J0D01*
G01*
X122044500Y-89519800D01*
G75*
G02*
X122192000Y-89667300I0J-147500D01*
G01*
G37*
G36*
G01*
X124751600Y-90012300D02*
X124751600Y-89667300D01*
G75*
G02*
X124899100Y-89519800I147500J0D01*
G01*
X125194100Y-89519800D01*
G75*
G02*
X125341600Y-89667300I0J-147500D01*
G01*
X125341600Y-90012300D01*
G75*
G02*
X125194100Y-90159800I-147500J0D01*
G01*
X124899100Y-90159800D01*
G75*
G02*
X124751600Y-90012300I0J147500D01*
G01*
G37*
G36*
G01*
X123781600Y-90012300D02*
X123781600Y-89667300D01*
G75*
G02*
X123929100Y-89519800I147500J0D01*
G01*
X124224100Y-89519800D01*
G75*
G02*
X124371600Y-89667300I0J-147500D01*
G01*
X124371600Y-90012300D01*
G75*
G02*
X124224100Y-90159800I-147500J0D01*
G01*
X123929100Y-90159800D01*
G75*
G02*
X123781600Y-90012300I0J147500D01*
G01*
G37*
G36*
G01*
X108444800Y-88589900D02*
X108444800Y-88244900D01*
G75*
G02*
X108592300Y-88097400I147500J0D01*
G01*
X108887300Y-88097400D01*
G75*
G02*
X109034800Y-88244900I0J-147500D01*
G01*
X109034800Y-88589900D01*
G75*
G02*
X108887300Y-88737400I-147500J0D01*
G01*
X108592300Y-88737400D01*
G75*
G02*
X108444800Y-88589900I0J147500D01*
G01*
G37*
G36*
G01*
X107474800Y-88589900D02*
X107474800Y-88244900D01*
G75*
G02*
X107622300Y-88097400I147500J0D01*
G01*
X107917300Y-88097400D01*
G75*
G02*
X108064800Y-88244900I0J-147500D01*
G01*
X108064800Y-88589900D01*
G75*
G02*
X107917300Y-88737400I-147500J0D01*
G01*
X107622300Y-88737400D01*
G75*
G02*
X107474800Y-88589900I0J147500D01*
G01*
G37*
G36*
G01*
X122676700Y-94323400D02*
X122331700Y-94323400D01*
G75*
G02*
X122184200Y-94175900I0J147500D01*
G01*
X122184200Y-93880900D01*
G75*
G02*
X122331700Y-93733400I147500J0D01*
G01*
X122676700Y-93733400D01*
G75*
G02*
X122824200Y-93880900I0J-147500D01*
G01*
X122824200Y-94175900D01*
G75*
G02*
X122676700Y-94323400I-147500J0D01*
G01*
G37*
G36*
G01*
X122676700Y-95293400D02*
X122331700Y-95293400D01*
G75*
G02*
X122184200Y-95145900I0J147500D01*
G01*
X122184200Y-94850900D01*
G75*
G02*
X122331700Y-94703400I147500J0D01*
G01*
X122676700Y-94703400D01*
G75*
G02*
X122824200Y-94850900I0J-147500D01*
G01*
X122824200Y-95145900D01*
G75*
G02*
X122676700Y-95293400I-147500J0D01*
G01*
G37*
G36*
G01*
X137967500Y-103429300D02*
X137622500Y-103429300D01*
G75*
G02*
X137475000Y-103281800I0J147500D01*
G01*
X137475000Y-102986800D01*
G75*
G02*
X137622500Y-102839300I147500J0D01*
G01*
X137967500Y-102839300D01*
G75*
G02*
X138115000Y-102986800I0J-147500D01*
G01*
X138115000Y-103281800D01*
G75*
G02*
X137967500Y-103429300I-147500J0D01*
G01*
G37*
G36*
G01*
X137967500Y-104399300D02*
X137622500Y-104399300D01*
G75*
G02*
X137475000Y-104251800I0J147500D01*
G01*
X137475000Y-103956800D01*
G75*
G02*
X137622500Y-103809300I147500J0D01*
G01*
X137967500Y-103809300D01*
G75*
G02*
X138115000Y-103956800I0J-147500D01*
G01*
X138115000Y-104251800D01*
G75*
G02*
X137967500Y-104399300I-147500J0D01*
G01*
G37*
G36*
G01*
X114711700Y-86804000D02*
X115056700Y-86804000D01*
G75*
G02*
X115204200Y-86951500I0J-147500D01*
G01*
X115204200Y-87246500D01*
G75*
G02*
X115056700Y-87394000I-147500J0D01*
G01*
X114711700Y-87394000D01*
G75*
G02*
X114564200Y-87246500I0J147500D01*
G01*
X114564200Y-86951500D01*
G75*
G02*
X114711700Y-86804000I147500J0D01*
G01*
G37*
G36*
G01*
X114711700Y-85834000D02*
X115056700Y-85834000D01*
G75*
G02*
X115204200Y-85981500I0J-147500D01*
G01*
X115204200Y-86276500D01*
G75*
G02*
X115056700Y-86424000I-147500J0D01*
G01*
X114711700Y-86424000D01*
G75*
G02*
X114564200Y-86276500I0J147500D01*
G01*
X114564200Y-85981500D01*
G75*
G02*
X114711700Y-85834000I147500J0D01*
G01*
G37*
G36*
G01*
X130169700Y-93663000D02*
X129824700Y-93663000D01*
G75*
G02*
X129677200Y-93515500I0J147500D01*
G01*
X129677200Y-93220500D01*
G75*
G02*
X129824700Y-93073000I147500J0D01*
G01*
X130169700Y-93073000D01*
G75*
G02*
X130317200Y-93220500I0J-147500D01*
G01*
X130317200Y-93515500D01*
G75*
G02*
X130169700Y-93663000I-147500J0D01*
G01*
G37*
G36*
G01*
X130169700Y-94633000D02*
X129824700Y-94633000D01*
G75*
G02*
X129677200Y-94485500I0J147500D01*
G01*
X129677200Y-94190500D01*
G75*
G02*
X129824700Y-94043000I147500J0D01*
G01*
X130169700Y-94043000D01*
G75*
G02*
X130317200Y-94190500I0J-147500D01*
G01*
X130317200Y-94485500D01*
G75*
G02*
X130169700Y-94633000I-147500J0D01*
G01*
G37*
G36*
G01*
X145376400Y-82671700D02*
X145376400Y-82326700D01*
G75*
G02*
X145523900Y-82179200I147500J0D01*
G01*
X145818900Y-82179200D01*
G75*
G02*
X145966400Y-82326700I0J-147500D01*
G01*
X145966400Y-82671700D01*
G75*
G02*
X145818900Y-82819200I-147500J0D01*
G01*
X145523900Y-82819200D01*
G75*
G02*
X145376400Y-82671700I0J147500D01*
G01*
G37*
G36*
G01*
X144406400Y-82671700D02*
X144406400Y-82326700D01*
G75*
G02*
X144553900Y-82179200I147500J0D01*
G01*
X144848900Y-82179200D01*
G75*
G02*
X144996400Y-82326700I0J-147500D01*
G01*
X144996400Y-82671700D01*
G75*
G02*
X144848900Y-82819200I-147500J0D01*
G01*
X144553900Y-82819200D01*
G75*
G02*
X144406400Y-82671700I0J147500D01*
G01*
G37*
G36*
G01*
X147198300Y-86600800D02*
X147543300Y-86600800D01*
G75*
G02*
X147690800Y-86748300I0J-147500D01*
G01*
X147690800Y-87043300D01*
G75*
G02*
X147543300Y-87190800I-147500J0D01*
G01*
X147198300Y-87190800D01*
G75*
G02*
X147050800Y-87043300I0J147500D01*
G01*
X147050800Y-86748300D01*
G75*
G02*
X147198300Y-86600800I147500J0D01*
G01*
G37*
G36*
G01*
X147198300Y-85630800D02*
X147543300Y-85630800D01*
G75*
G02*
X147690800Y-85778300I0J-147500D01*
G01*
X147690800Y-86073300D01*
G75*
G02*
X147543300Y-86220800I-147500J0D01*
G01*
X147198300Y-86220800D01*
G75*
G02*
X147050800Y-86073300I0J147500D01*
G01*
X147050800Y-85778300D01*
G75*
G02*
X147198300Y-85630800I147500J0D01*
G01*
G37*
G36*
G01*
X108268000Y-73258900D02*
X108268000Y-73603900D01*
G75*
G02*
X108120500Y-73751400I-147500J0D01*
G01*
X107825500Y-73751400D01*
G75*
G02*
X107678000Y-73603900I0J147500D01*
G01*
X107678000Y-73258900D01*
G75*
G02*
X107825500Y-73111400I147500J0D01*
G01*
X108120500Y-73111400D01*
G75*
G02*
X108268000Y-73258900I0J-147500D01*
G01*
G37*
G36*
G01*
X109238000Y-73258900D02*
X109238000Y-73603900D01*
G75*
G02*
X109090500Y-73751400I-147500J0D01*
G01*
X108795500Y-73751400D01*
G75*
G02*
X108648000Y-73603900I0J147500D01*
G01*
X108648000Y-73258900D01*
G75*
G02*
X108795500Y-73111400I147500J0D01*
G01*
X109090500Y-73111400D01*
G75*
G02*
X109238000Y-73258900I0J-147500D01*
G01*
G37*
G36*
G01*
X108444800Y-89834500D02*
X108444800Y-89489500D01*
G75*
G02*
X108592300Y-89342000I147500J0D01*
G01*
X108887300Y-89342000D01*
G75*
G02*
X109034800Y-89489500I0J-147500D01*
G01*
X109034800Y-89834500D01*
G75*
G02*
X108887300Y-89982000I-147500J0D01*
G01*
X108592300Y-89982000D01*
G75*
G02*
X108444800Y-89834500I0J147500D01*
G01*
G37*
G36*
G01*
X107474800Y-89834500D02*
X107474800Y-89489500D01*
G75*
G02*
X107622300Y-89342000I147500J0D01*
G01*
X107917300Y-89342000D01*
G75*
G02*
X108064800Y-89489500I0J-147500D01*
G01*
X108064800Y-89834500D01*
G75*
G02*
X107917300Y-89982000I-147500J0D01*
G01*
X107622300Y-89982000D01*
G75*
G02*
X107474800Y-89834500I0J147500D01*
G01*
G37*
G36*
G01*
X108268000Y-80878900D02*
X108268000Y-81223900D01*
G75*
G02*
X108120500Y-81371400I-147500J0D01*
G01*
X107825500Y-81371400D01*
G75*
G02*
X107678000Y-81223900I0J147500D01*
G01*
X107678000Y-80878900D01*
G75*
G02*
X107825500Y-80731400I147500J0D01*
G01*
X108120500Y-80731400D01*
G75*
G02*
X108268000Y-80878900I0J-147500D01*
G01*
G37*
G36*
G01*
X109238000Y-80878900D02*
X109238000Y-81223900D01*
G75*
G02*
X109090500Y-81371400I-147500J0D01*
G01*
X108795500Y-81371400D01*
G75*
G02*
X108648000Y-81223900I0J147500D01*
G01*
X108648000Y-80878900D01*
G75*
G02*
X108795500Y-80731400I147500J0D01*
G01*
X109090500Y-80731400D01*
G75*
G02*
X109238000Y-80878900I0J-147500D01*
G01*
G37*
G36*
G01*
X130815300Y-94043000D02*
X131160300Y-94043000D01*
G75*
G02*
X131307800Y-94190500I0J-147500D01*
G01*
X131307800Y-94485500D01*
G75*
G02*
X131160300Y-94633000I-147500J0D01*
G01*
X130815300Y-94633000D01*
G75*
G02*
X130667800Y-94485500I0J147500D01*
G01*
X130667800Y-94190500D01*
G75*
G02*
X130815300Y-94043000I147500J0D01*
G01*
G37*
G36*
G01*
X130815300Y-93073000D02*
X131160300Y-93073000D01*
G75*
G02*
X131307800Y-93220500I0J-147500D01*
G01*
X131307800Y-93515500D01*
G75*
G02*
X131160300Y-93663000I-147500J0D01*
G01*
X130815300Y-93663000D01*
G75*
G02*
X130667800Y-93515500I0J147500D01*
G01*
X130667800Y-93220500D01*
G75*
G02*
X130815300Y-93073000I147500J0D01*
G01*
G37*
G36*
G01*
X112661200Y-81223900D02*
X112661200Y-80878900D01*
G75*
G02*
X112808700Y-80731400I147500J0D01*
G01*
X113103700Y-80731400D01*
G75*
G02*
X113251200Y-80878900I0J-147500D01*
G01*
X113251200Y-81223900D01*
G75*
G02*
X113103700Y-81371400I-147500J0D01*
G01*
X112808700Y-81371400D01*
G75*
G02*
X112661200Y-81223900I0J147500D01*
G01*
G37*
G36*
G01*
X111691200Y-81223900D02*
X111691200Y-80878900D01*
G75*
G02*
X111838700Y-80731400I147500J0D01*
G01*
X112133700Y-80731400D01*
G75*
G02*
X112281200Y-80878900I0J-147500D01*
G01*
X112281200Y-81223900D01*
G75*
G02*
X112133700Y-81371400I-147500J0D01*
G01*
X111838700Y-81371400D01*
G75*
G02*
X111691200Y-81223900I0J147500D01*
G01*
G37*
D13*
X141019100Y-100719700D03*
X141019100Y-100419700D03*
X141019100Y-99619700D03*
X141019100Y-99919700D03*
X141019100Y-99119700D03*
X141019100Y-98619700D03*
X141019100Y-98119700D03*
X141019100Y-97619700D03*
X141019100Y-97119700D03*
X141019100Y-96619700D03*
X141019100Y-96119700D03*
X141019100Y-95619700D03*
X141019100Y-94819700D03*
X141019100Y-95119700D03*
X141019100Y-94021200D03*
X141019100Y-94321200D03*
D14*
X107272400Y-93247000D03*
X107272400Y-100047000D03*
D15*
X109372400Y-98747000D03*
X109372400Y-94547000D03*
D16*
X135905200Y-99484000D03*
X137805200Y-99484000D03*
X137805200Y-101684000D03*
X136855200Y-101684000D03*
X135905200Y-101684000D03*
X128412200Y-99484000D03*
X130312200Y-99484000D03*
X130312200Y-101684000D03*
X129362200Y-101684000D03*
X128412200Y-101684000D03*
D17*
G36*
X122671000Y-85743000D02*
G01*
X122591000Y-85743000D01*
X122471000Y-85623000D01*
X122471000Y-84993000D01*
X122671000Y-84993000D01*
X122671000Y-85743000D01*
G37*
G36*
G01*
X122871000Y-85693000D02*
X122871000Y-85043000D01*
G75*
G02*
X122921000Y-84993000I50000J0D01*
G01*
X123021000Y-84993000D01*
G75*
G02*
X123071000Y-85043000I0J-50000D01*
G01*
X123071000Y-85693000D01*
G75*
G02*
X123021000Y-85743000I-50000J0D01*
G01*
X122921000Y-85743000D01*
G75*
G02*
X122871000Y-85693000I0J50000D01*
G01*
G37*
G36*
G01*
X123271000Y-85693000D02*
X123271000Y-85043000D01*
G75*
G02*
X123321000Y-84993000I50000J0D01*
G01*
X123421000Y-84993000D01*
G75*
G02*
X123471000Y-85043000I0J-50000D01*
G01*
X123471000Y-85693000D01*
G75*
G02*
X123421000Y-85743000I-50000J0D01*
G01*
X123321000Y-85743000D01*
G75*
G02*
X123271000Y-85693000I0J50000D01*
G01*
G37*
G36*
G01*
X123671000Y-85693000D02*
X123671000Y-85043000D01*
G75*
G02*
X123721000Y-84993000I50000J0D01*
G01*
X123821000Y-84993000D01*
G75*
G02*
X123871000Y-85043000I0J-50000D01*
G01*
X123871000Y-85693000D01*
G75*
G02*
X123821000Y-85743000I-50000J0D01*
G01*
X123721000Y-85743000D01*
G75*
G02*
X123671000Y-85693000I0J50000D01*
G01*
G37*
G36*
G01*
X124071000Y-85693000D02*
X124071000Y-85043000D01*
G75*
G02*
X124121000Y-84993000I50000J0D01*
G01*
X124221000Y-84993000D01*
G75*
G02*
X124271000Y-85043000I0J-50000D01*
G01*
X124271000Y-85693000D01*
G75*
G02*
X124221000Y-85743000I-50000J0D01*
G01*
X124121000Y-85743000D01*
G75*
G02*
X124071000Y-85693000I0J50000D01*
G01*
G37*
G36*
X124671000Y-85623000D02*
G01*
X124551000Y-85743000D01*
X124471000Y-85743000D01*
X124471000Y-84993000D01*
X124671000Y-84993000D01*
X124671000Y-85623000D01*
G37*
G36*
X125446000Y-85968000D02*
G01*
X124696000Y-85968000D01*
X124696000Y-85888000D01*
X124816000Y-85768000D01*
X125446000Y-85768000D01*
X125446000Y-85968000D01*
G37*
G36*
G01*
X124696000Y-86318000D02*
X124696000Y-86218000D01*
G75*
G02*
X124746000Y-86168000I50000J0D01*
G01*
X125396000Y-86168000D01*
G75*
G02*
X125446000Y-86218000I0J-50000D01*
G01*
X125446000Y-86318000D01*
G75*
G02*
X125396000Y-86368000I-50000J0D01*
G01*
X124746000Y-86368000D01*
G75*
G02*
X124696000Y-86318000I0J50000D01*
G01*
G37*
G36*
G01*
X124696000Y-86718000D02*
X124696000Y-86618000D01*
G75*
G02*
X124746000Y-86568000I50000J0D01*
G01*
X125396000Y-86568000D01*
G75*
G02*
X125446000Y-86618000I0J-50000D01*
G01*
X125446000Y-86718000D01*
G75*
G02*
X125396000Y-86768000I-50000J0D01*
G01*
X124746000Y-86768000D01*
G75*
G02*
X124696000Y-86718000I0J50000D01*
G01*
G37*
G36*
G01*
X124696000Y-87118000D02*
X124696000Y-87018000D01*
G75*
G02*
X124746000Y-86968000I50000J0D01*
G01*
X125396000Y-86968000D01*
G75*
G02*
X125446000Y-87018000I0J-50000D01*
G01*
X125446000Y-87118000D01*
G75*
G02*
X125396000Y-87168000I-50000J0D01*
G01*
X124746000Y-87168000D01*
G75*
G02*
X124696000Y-87118000I0J50000D01*
G01*
G37*
G36*
G01*
X124696000Y-87518000D02*
X124696000Y-87418000D01*
G75*
G02*
X124746000Y-87368000I50000J0D01*
G01*
X125396000Y-87368000D01*
G75*
G02*
X125446000Y-87418000I0J-50000D01*
G01*
X125446000Y-87518000D01*
G75*
G02*
X125396000Y-87568000I-50000J0D01*
G01*
X124746000Y-87568000D01*
G75*
G02*
X124696000Y-87518000I0J50000D01*
G01*
G37*
G36*
X125446000Y-87968000D02*
G01*
X124816000Y-87968000D01*
X124696000Y-87848000D01*
X124696000Y-87768000D01*
X125446000Y-87768000D01*
X125446000Y-87968000D01*
G37*
G36*
X124671000Y-88113000D02*
G01*
X124671000Y-88743000D01*
X124471000Y-88743000D01*
X124471000Y-87993000D01*
X124551000Y-87993000D01*
X124671000Y-88113000D01*
G37*
G36*
G01*
X124071000Y-88693000D02*
X124071000Y-88043000D01*
G75*
G02*
X124121000Y-87993000I50000J0D01*
G01*
X124221000Y-87993000D01*
G75*
G02*
X124271000Y-88043000I0J-50000D01*
G01*
X124271000Y-88693000D01*
G75*
G02*
X124221000Y-88743000I-50000J0D01*
G01*
X124121000Y-88743000D01*
G75*
G02*
X124071000Y-88693000I0J50000D01*
G01*
G37*
G36*
G01*
X123671000Y-88693000D02*
X123671000Y-88043000D01*
G75*
G02*
X123721000Y-87993000I50000J0D01*
G01*
X123821000Y-87993000D01*
G75*
G02*
X123871000Y-88043000I0J-50000D01*
G01*
X123871000Y-88693000D01*
G75*
G02*
X123821000Y-88743000I-50000J0D01*
G01*
X123721000Y-88743000D01*
G75*
G02*
X123671000Y-88693000I0J50000D01*
G01*
G37*
G36*
G01*
X123271000Y-88693000D02*
X123271000Y-88043000D01*
G75*
G02*
X123321000Y-87993000I50000J0D01*
G01*
X123421000Y-87993000D01*
G75*
G02*
X123471000Y-88043000I0J-50000D01*
G01*
X123471000Y-88693000D01*
G75*
G02*
X123421000Y-88743000I-50000J0D01*
G01*
X123321000Y-88743000D01*
G75*
G02*
X123271000Y-88693000I0J50000D01*
G01*
G37*
G36*
G01*
X122871000Y-88693000D02*
X122871000Y-88043000D01*
G75*
G02*
X122921000Y-87993000I50000J0D01*
G01*
X123021000Y-87993000D01*
G75*
G02*
X123071000Y-88043000I0J-50000D01*
G01*
X123071000Y-88693000D01*
G75*
G02*
X123021000Y-88743000I-50000J0D01*
G01*
X122921000Y-88743000D01*
G75*
G02*
X122871000Y-88693000I0J50000D01*
G01*
G37*
G36*
X122671000Y-88743000D02*
G01*
X122471000Y-88743000D01*
X122471000Y-88113000D01*
X122591000Y-87993000D01*
X122671000Y-87993000D01*
X122671000Y-88743000D01*
G37*
G36*
X122446000Y-87848000D02*
G01*
X122326000Y-87968000D01*
X121696000Y-87968000D01*
X121696000Y-87768000D01*
X122446000Y-87768000D01*
X122446000Y-87848000D01*
G37*
G36*
G01*
X121696000Y-87518000D02*
X121696000Y-87418000D01*
G75*
G02*
X121746000Y-87368000I50000J0D01*
G01*
X122396000Y-87368000D01*
G75*
G02*
X122446000Y-87418000I0J-50000D01*
G01*
X122446000Y-87518000D01*
G75*
G02*
X122396000Y-87568000I-50000J0D01*
G01*
X121746000Y-87568000D01*
G75*
G02*
X121696000Y-87518000I0J50000D01*
G01*
G37*
G36*
G01*
X121696000Y-87118000D02*
X121696000Y-87018000D01*
G75*
G02*
X121746000Y-86968000I50000J0D01*
G01*
X122396000Y-86968000D01*
G75*
G02*
X122446000Y-87018000I0J-50000D01*
G01*
X122446000Y-87118000D01*
G75*
G02*
X122396000Y-87168000I-50000J0D01*
G01*
X121746000Y-87168000D01*
G75*
G02*
X121696000Y-87118000I0J50000D01*
G01*
G37*
G36*
G01*
X121696000Y-86718000D02*
X121696000Y-86618000D01*
G75*
G02*
X121746000Y-86568000I50000J0D01*
G01*
X122396000Y-86568000D01*
G75*
G02*
X122446000Y-86618000I0J-50000D01*
G01*
X122446000Y-86718000D01*
G75*
G02*
X122396000Y-86768000I-50000J0D01*
G01*
X121746000Y-86768000D01*
G75*
G02*
X121696000Y-86718000I0J50000D01*
G01*
G37*
G36*
G01*
X121696000Y-86318000D02*
X121696000Y-86218000D01*
G75*
G02*
X121746000Y-86168000I50000J0D01*
G01*
X122396000Y-86168000D01*
G75*
G02*
X122446000Y-86218000I0J-50000D01*
G01*
X122446000Y-86318000D01*
G75*
G02*
X122396000Y-86368000I-50000J0D01*
G01*
X121746000Y-86368000D01*
G75*
G02*
X121696000Y-86318000I0J50000D01*
G01*
G37*
G36*
X122446000Y-85888000D02*
G01*
X122446000Y-85968000D01*
X121696000Y-85968000D01*
X121696000Y-85768000D01*
X122326000Y-85768000D01*
X122446000Y-85888000D01*
G37*
D18*
X107429400Y-86781800D03*
X108229400Y-86781800D03*
X109029400Y-86781800D03*
X109029400Y-84261800D03*
X108229400Y-84261800D03*
X107429400Y-84261800D03*
D19*
X108229400Y-85521800D03*
G36*
G01*
X124963400Y-94905800D02*
X124963400Y-95105800D01*
G75*
G02*
X124863400Y-95205800I-100000J0D01*
G01*
X123438400Y-95205800D01*
G75*
G02*
X123338400Y-95105800I0J100000D01*
G01*
X123338400Y-94905800D01*
G75*
G02*
X123438400Y-94805800I100000J0D01*
G01*
X124863400Y-94805800D01*
G75*
G02*
X124963400Y-94905800I0J-100000D01*
G01*
G37*
G36*
G01*
X124963400Y-94255800D02*
X124963400Y-94455800D01*
G75*
G02*
X124863400Y-94555800I-100000J0D01*
G01*
X123438400Y-94555800D01*
G75*
G02*
X123338400Y-94455800I0J100000D01*
G01*
X123338400Y-94255800D01*
G75*
G02*
X123438400Y-94155800I100000J0D01*
G01*
X124863400Y-94155800D01*
G75*
G02*
X124963400Y-94255800I0J-100000D01*
G01*
G37*
G36*
G01*
X124963400Y-93605800D02*
X124963400Y-93805800D01*
G75*
G02*
X124863400Y-93905800I-100000J0D01*
G01*
X123438400Y-93905800D01*
G75*
G02*
X123338400Y-93805800I0J100000D01*
G01*
X123338400Y-93605800D01*
G75*
G02*
X123438400Y-93505800I100000J0D01*
G01*
X124863400Y-93505800D01*
G75*
G02*
X124963400Y-93605800I0J-100000D01*
G01*
G37*
G36*
G01*
X124963400Y-92955800D02*
X124963400Y-93155800D01*
G75*
G02*
X124863400Y-93255800I-100000J0D01*
G01*
X123438400Y-93255800D01*
G75*
G02*
X123338400Y-93155800I0J100000D01*
G01*
X123338400Y-92955800D01*
G75*
G02*
X123438400Y-92855800I100000J0D01*
G01*
X124863400Y-92855800D01*
G75*
G02*
X124963400Y-92955800I0J-100000D01*
G01*
G37*
G36*
G01*
X129188400Y-92955800D02*
X129188400Y-93155800D01*
G75*
G02*
X129088400Y-93255800I-100000J0D01*
G01*
X127663400Y-93255800D01*
G75*
G02*
X127563400Y-93155800I0J100000D01*
G01*
X127563400Y-92955800D01*
G75*
G02*
X127663400Y-92855800I100000J0D01*
G01*
X129088400Y-92855800D01*
G75*
G02*
X129188400Y-92955800I0J-100000D01*
G01*
G37*
G36*
G01*
X129188400Y-93605800D02*
X129188400Y-93805800D01*
G75*
G02*
X129088400Y-93905800I-100000J0D01*
G01*
X127663400Y-93905800D01*
G75*
G02*
X127563400Y-93805800I0J100000D01*
G01*
X127563400Y-93605800D01*
G75*
G02*
X127663400Y-93505800I100000J0D01*
G01*
X129088400Y-93505800D01*
G75*
G02*
X129188400Y-93605800I0J-100000D01*
G01*
G37*
G36*
G01*
X129188400Y-94255800D02*
X129188400Y-94455800D01*
G75*
G02*
X129088400Y-94555800I-100000J0D01*
G01*
X127663400Y-94555800D01*
G75*
G02*
X127563400Y-94455800I0J100000D01*
G01*
X127563400Y-94255800D01*
G75*
G02*
X127663400Y-94155800I100000J0D01*
G01*
X129088400Y-94155800D01*
G75*
G02*
X129188400Y-94255800I0J-100000D01*
G01*
G37*
G36*
G01*
X129188400Y-94905800D02*
X129188400Y-95105800D01*
G75*
G02*
X129088400Y-95205800I-100000J0D01*
G01*
X127663400Y-95205800D01*
G75*
G02*
X127563400Y-95105800I0J100000D01*
G01*
X127563400Y-94905800D01*
G75*
G02*
X127663400Y-94805800I100000J0D01*
G01*
X129088400Y-94805800D01*
G75*
G02*
X129188400Y-94905800I0J-100000D01*
G01*
G37*
D17*
G36*
X133691552Y-76534666D02*
G01*
X132913734Y-75756848D01*
X133337998Y-75332584D01*
X134115816Y-76110402D01*
X133691552Y-76534666D01*
G37*
G36*
X132701602Y-77524616D02*
G01*
X131923784Y-76746798D01*
X132348048Y-76322534D01*
X133125866Y-77100352D01*
X132701602Y-77524616D01*
G37*
G36*
X136298727Y-79332383D02*
G01*
X137338174Y-78292936D01*
X137536163Y-78490925D01*
X136496716Y-79530372D01*
X136298727Y-79332383D01*
G37*
G36*
X136652280Y-79685937D02*
G01*
X137691727Y-78646490D01*
X137889716Y-78844479D01*
X136850269Y-79883926D01*
X136652280Y-79685937D01*
G37*
G36*
X137005834Y-80039490D02*
G01*
X138045281Y-79000043D01*
X138243270Y-79198032D01*
X137203823Y-80237479D01*
X137005834Y-80039490D01*
G37*
G36*
X137359387Y-80393043D02*
G01*
X138398834Y-79353596D01*
X138596823Y-79551585D01*
X137557376Y-80591032D01*
X137359387Y-80393043D01*
G37*
G36*
X137712941Y-80746597D02*
G01*
X138752388Y-79707150D01*
X138950377Y-79905139D01*
X137910930Y-80944586D01*
X137712941Y-80746597D01*
G37*
G36*
X138066494Y-81100150D02*
G01*
X139105941Y-80060703D01*
X139303930Y-80258692D01*
X138264483Y-81298139D01*
X138066494Y-81100150D01*
G37*
G36*
X138420047Y-81453703D02*
G01*
X139459494Y-80414256D01*
X139657483Y-80612245D01*
X138618036Y-81651692D01*
X138420047Y-81453703D01*
G37*
G36*
X138773601Y-81807257D02*
G01*
X139813048Y-80767810D01*
X140011037Y-80965799D01*
X138971590Y-82005246D01*
X138773601Y-81807257D01*
G37*
G36*
X139127154Y-82160810D02*
G01*
X140166601Y-81121363D01*
X140364590Y-81319352D01*
X139325143Y-82358799D01*
X139127154Y-82160810D01*
G37*
G36*
X139480708Y-82514364D02*
G01*
X140520155Y-81474917D01*
X140718144Y-81672906D01*
X139678697Y-82712353D01*
X139480708Y-82514364D01*
G37*
G36*
X139834261Y-82867917D02*
G01*
X140873708Y-81828470D01*
X141071697Y-82026459D01*
X140032250Y-83065906D01*
X139834261Y-82867917D01*
G37*
G36*
X140187814Y-83221470D02*
G01*
X141227261Y-82182023D01*
X141425250Y-82380012D01*
X140385803Y-83419459D01*
X140187814Y-83221470D01*
G37*
G36*
X140541368Y-83575024D02*
G01*
X141580815Y-82535577D01*
X141778804Y-82733566D01*
X140739357Y-83773013D01*
X140541368Y-83575024D01*
G37*
G36*
X140894921Y-83928577D02*
G01*
X141934368Y-82889130D01*
X142132357Y-83087119D01*
X141092910Y-84126566D01*
X140894921Y-83928577D01*
G37*
G36*
X141248474Y-84282131D02*
G01*
X142287921Y-83242684D01*
X142485910Y-83440673D01*
X141446463Y-84480120D01*
X141248474Y-84282131D01*
G37*
G36*
X141602028Y-84635684D02*
G01*
X142641475Y-83596237D01*
X142839464Y-83794226D01*
X141800017Y-84833673D01*
X141602028Y-84635684D01*
G37*
G36*
X141602028Y-86509516D02*
G01*
X141800017Y-86311527D01*
X142839464Y-87350974D01*
X142641475Y-87548963D01*
X141602028Y-86509516D01*
G37*
G36*
X141248474Y-86863069D02*
G01*
X141446463Y-86665080D01*
X142485910Y-87704527D01*
X142287921Y-87902516D01*
X141248474Y-86863069D01*
G37*
G36*
X140894921Y-87216623D02*
G01*
X141092910Y-87018634D01*
X142132357Y-88058081D01*
X141934368Y-88256070D01*
X140894921Y-87216623D01*
G37*
G36*
X140541368Y-87570176D02*
G01*
X140739357Y-87372187D01*
X141778804Y-88411634D01*
X141580815Y-88609623D01*
X140541368Y-87570176D01*
G37*
G36*
X140187814Y-87923730D02*
G01*
X140385803Y-87725741D01*
X141425250Y-88765188D01*
X141227261Y-88963177D01*
X140187814Y-87923730D01*
G37*
G36*
X139834261Y-88277283D02*
G01*
X140032250Y-88079294D01*
X141071697Y-89118741D01*
X140873708Y-89316730D01*
X139834261Y-88277283D01*
G37*
G36*
X139480708Y-88630836D02*
G01*
X139678697Y-88432847D01*
X140718144Y-89472294D01*
X140520155Y-89670283D01*
X139480708Y-88630836D01*
G37*
G36*
X139127154Y-88984390D02*
G01*
X139325143Y-88786401D01*
X140364590Y-89825848D01*
X140166601Y-90023837D01*
X139127154Y-88984390D01*
G37*
G36*
X138773601Y-89337943D02*
G01*
X138971590Y-89139954D01*
X140011037Y-90179401D01*
X139813048Y-90377390D01*
X138773601Y-89337943D01*
G37*
G36*
X138420047Y-89691497D02*
G01*
X138618036Y-89493508D01*
X139657483Y-90532955D01*
X139459494Y-90730944D01*
X138420047Y-89691497D01*
G37*
G36*
X138066494Y-90045050D02*
G01*
X138264483Y-89847061D01*
X139303930Y-90886508D01*
X139105941Y-91084497D01*
X138066494Y-90045050D01*
G37*
G36*
X137712941Y-90398603D02*
G01*
X137910930Y-90200614D01*
X138950377Y-91240061D01*
X138752388Y-91438050D01*
X137712941Y-90398603D01*
G37*
G36*
X137359387Y-90752157D02*
G01*
X137557376Y-90554168D01*
X138596823Y-91593615D01*
X138398834Y-91791604D01*
X137359387Y-90752157D01*
G37*
G36*
X137005834Y-91105710D02*
G01*
X137203823Y-90907721D01*
X138243270Y-91947168D01*
X138045281Y-92145157D01*
X137005834Y-91105710D01*
G37*
G36*
X136652280Y-91459263D02*
G01*
X136850269Y-91261274D01*
X137889716Y-92300721D01*
X137691727Y-92498710D01*
X136652280Y-91459263D01*
G37*
G36*
X136298727Y-91812817D02*
G01*
X136496716Y-91614828D01*
X137536163Y-92654275D01*
X137338174Y-92852264D01*
X136298727Y-91812817D01*
G37*
G36*
X133583437Y-92654275D02*
G01*
X134622884Y-91614828D01*
X134820873Y-91812817D01*
X133781426Y-92852264D01*
X133583437Y-92654275D01*
G37*
G36*
X133229884Y-92300721D02*
G01*
X134269331Y-91261274D01*
X134467320Y-91459263D01*
X133427873Y-92498710D01*
X133229884Y-92300721D01*
G37*
G36*
X132876330Y-91947168D02*
G01*
X133915777Y-90907721D01*
X134113766Y-91105710D01*
X133074319Y-92145157D01*
X132876330Y-91947168D01*
G37*
G36*
X132522777Y-91593615D02*
G01*
X133562224Y-90554168D01*
X133760213Y-90752157D01*
X132720766Y-91791604D01*
X132522777Y-91593615D01*
G37*
G36*
X132169223Y-91240061D02*
G01*
X133208670Y-90200614D01*
X133406659Y-90398603D01*
X132367212Y-91438050D01*
X132169223Y-91240061D01*
G37*
G36*
X131815670Y-90886508D02*
G01*
X132855117Y-89847061D01*
X133053106Y-90045050D01*
X132013659Y-91084497D01*
X131815670Y-90886508D01*
G37*
G36*
X131462117Y-90532955D02*
G01*
X132501564Y-89493508D01*
X132699553Y-89691497D01*
X131660106Y-90730944D01*
X131462117Y-90532955D01*
G37*
G36*
X131108563Y-90179401D02*
G01*
X132148010Y-89139954D01*
X132345999Y-89337943D01*
X131306552Y-90377390D01*
X131108563Y-90179401D01*
G37*
G36*
X130755010Y-89825848D02*
G01*
X131794457Y-88786401D01*
X131992446Y-88984390D01*
X130952999Y-90023837D01*
X130755010Y-89825848D01*
G37*
G36*
X130401456Y-89472294D02*
G01*
X131440903Y-88432847D01*
X131638892Y-88630836D01*
X130599445Y-89670283D01*
X130401456Y-89472294D01*
G37*
G36*
X130047903Y-89118741D02*
G01*
X131087350Y-88079294D01*
X131285339Y-88277283D01*
X130245892Y-89316730D01*
X130047903Y-89118741D01*
G37*
G36*
X129694350Y-88765188D02*
G01*
X130733797Y-87725741D01*
X130931786Y-87923730D01*
X129892339Y-88963177D01*
X129694350Y-88765188D01*
G37*
G36*
X129340796Y-88411634D02*
G01*
X130380243Y-87372187D01*
X130578232Y-87570176D01*
X129538785Y-88609623D01*
X129340796Y-88411634D01*
G37*
G36*
X128987243Y-88058081D02*
G01*
X130026690Y-87018634D01*
X130224679Y-87216623D01*
X129185232Y-88256070D01*
X128987243Y-88058081D01*
G37*
G36*
X128633690Y-87704527D02*
G01*
X129673137Y-86665080D01*
X129871126Y-86863069D01*
X128831679Y-87902516D01*
X128633690Y-87704527D01*
G37*
G36*
X128280136Y-87350974D02*
G01*
X129319583Y-86311527D01*
X129517572Y-86509516D01*
X128478125Y-87548963D01*
X128280136Y-87350974D01*
G37*
G36*
X128280136Y-83794226D02*
G01*
X128478125Y-83596237D01*
X129517572Y-84635684D01*
X129319583Y-84833673D01*
X128280136Y-83794226D01*
G37*
G36*
X128633690Y-83440673D02*
G01*
X128831679Y-83242684D01*
X129871126Y-84282131D01*
X129673137Y-84480120D01*
X128633690Y-83440673D01*
G37*
G36*
X128987243Y-83087119D02*
G01*
X129185232Y-82889130D01*
X130224679Y-83928577D01*
X130026690Y-84126566D01*
X128987243Y-83087119D01*
G37*
G36*
X129340796Y-82733566D02*
G01*
X129538785Y-82535577D01*
X130578232Y-83575024D01*
X130380243Y-83773013D01*
X129340796Y-82733566D01*
G37*
G36*
X129694350Y-82380012D02*
G01*
X129892339Y-82182023D01*
X130931786Y-83221470D01*
X130733797Y-83419459D01*
X129694350Y-82380012D01*
G37*
G36*
X130047903Y-82026459D02*
G01*
X130245892Y-81828470D01*
X131285339Y-82867917D01*
X131087350Y-83065906D01*
X130047903Y-82026459D01*
G37*
G36*
X130401456Y-81672906D02*
G01*
X130599445Y-81474917D01*
X131638892Y-82514364D01*
X131440903Y-82712353D01*
X130401456Y-81672906D01*
G37*
G36*
X130755010Y-81319352D02*
G01*
X130952999Y-81121363D01*
X131992446Y-82160810D01*
X131794457Y-82358799D01*
X130755010Y-81319352D01*
G37*
G36*
X131108563Y-80965799D02*
G01*
X131306552Y-80767810D01*
X132345999Y-81807257D01*
X132148010Y-82005246D01*
X131108563Y-80965799D01*
G37*
G36*
X131462117Y-80612245D02*
G01*
X131660106Y-80414256D01*
X132699553Y-81453703D01*
X132501564Y-81651692D01*
X131462117Y-80612245D01*
G37*
G36*
X131815670Y-80258692D02*
G01*
X132013659Y-80060703D01*
X133053106Y-81100150D01*
X132855117Y-81298139D01*
X131815670Y-80258692D01*
G37*
G36*
X132169223Y-79905139D02*
G01*
X132367212Y-79707150D01*
X133406659Y-80746597D01*
X133208670Y-80944586D01*
X132169223Y-79905139D01*
G37*
G36*
X132522777Y-79551585D02*
G01*
X132720766Y-79353596D01*
X133760213Y-80393043D01*
X133562224Y-80591032D01*
X132522777Y-79551585D01*
G37*
G36*
X132876330Y-79198032D02*
G01*
X133074319Y-79000043D01*
X134113766Y-80039490D01*
X133915777Y-80237479D01*
X132876330Y-79198032D01*
G37*
G36*
X133229884Y-78844479D02*
G01*
X133427873Y-78646490D01*
X134467320Y-79685937D01*
X134269331Y-79883926D01*
X133229884Y-78844479D01*
G37*
G36*
X133583437Y-78490925D02*
G01*
X133781426Y-78292936D01*
X134820873Y-79332383D01*
X134622884Y-79530372D01*
X133583437Y-78490925D01*
G37*
D20*
X134848600Y-95224600D03*
X136423400Y-95224600D03*
D21*
X136803400Y-93824600D03*
X136003400Y-93824600D03*
X135203400Y-93824600D03*
X136803400Y-96624600D03*
X136003400Y-96624600D03*
X135203400Y-96624600D03*
X134403400Y-93824600D03*
X134403400Y-96624600D03*
G36*
G01*
X132593300Y-95437600D02*
X132938300Y-95437600D01*
G75*
G02*
X133085800Y-95585100I0J-147500D01*
G01*
X133085800Y-95880100D01*
G75*
G02*
X132938300Y-96027600I-147500J0D01*
G01*
X132593300Y-96027600D01*
G75*
G02*
X132445800Y-95880100I0J147500D01*
G01*
X132445800Y-95585100D01*
G75*
G02*
X132593300Y-95437600I147500J0D01*
G01*
G37*
G36*
G01*
X132593300Y-94467600D02*
X132938300Y-94467600D01*
G75*
G02*
X133085800Y-94615100I0J-147500D01*
G01*
X133085800Y-94910100D01*
G75*
G02*
X132938300Y-95057600I-147500J0D01*
G01*
X132593300Y-95057600D01*
G75*
G02*
X132445800Y-94910100I0J147500D01*
G01*
X132445800Y-94615100D01*
G75*
G02*
X132593300Y-94467600I147500J0D01*
G01*
G37*
G36*
G01*
X141872025Y-81125274D02*
X141628073Y-81369225D01*
G75*
G02*
X141419477Y-81369225I-104298J104298D01*
G01*
X141210881Y-81160629D01*
G75*
G02*
X141210881Y-80952033I104298J104298D01*
G01*
X141454833Y-80708081D01*
G75*
G02*
X141663429Y-80708081I104298J-104298D01*
G01*
X141872025Y-80916677D01*
G75*
G02*
X141872025Y-81125273I-104298J-104298D01*
G01*
G37*
G36*
G01*
X142557919Y-81811168D02*
X142313967Y-82055119D01*
G75*
G02*
X142105371Y-82055119I-104298J104298D01*
G01*
X141896775Y-81846523D01*
G75*
G02*
X141896775Y-81637927I104298J104298D01*
G01*
X142140727Y-81393975D01*
G75*
G02*
X142349323Y-81393975I104298J-104298D01*
G01*
X142557919Y-81602571D01*
G75*
G02*
X142557919Y-81811167I-104298J-104298D01*
G01*
G37*
G36*
G01*
X142634025Y-80439474D02*
X142390073Y-80683425D01*
G75*
G02*
X142181477Y-80683425I-104298J104298D01*
G01*
X141972881Y-80474829D01*
G75*
G02*
X141972881Y-80266233I104298J104298D01*
G01*
X142216833Y-80022281D01*
G75*
G02*
X142425429Y-80022281I104298J-104298D01*
G01*
X142634025Y-80230877D01*
G75*
G02*
X142634025Y-80439473I-104298J-104298D01*
G01*
G37*
G36*
G01*
X143319919Y-81125368D02*
X143075967Y-81369319D01*
G75*
G02*
X142867371Y-81369319I-104298J104298D01*
G01*
X142658775Y-81160723D01*
G75*
G02*
X142658775Y-80952127I104298J104298D01*
G01*
X142902727Y-80708175D01*
G75*
G02*
X143111323Y-80708175I104298J-104298D01*
G01*
X143319919Y-80916771D01*
G75*
G02*
X143319919Y-81125367I-104298J-104298D01*
G01*
G37*
G36*
G01*
X144045726Y-87719225D02*
X143801775Y-87475273D01*
G75*
G02*
X143801775Y-87266677I104298J104298D01*
G01*
X144010371Y-87058081D01*
G75*
G02*
X144218967Y-87058081I104298J-104298D01*
G01*
X144462919Y-87302033D01*
G75*
G02*
X144462919Y-87510629I-104298J-104298D01*
G01*
X144254323Y-87719225D01*
G75*
G02*
X144045727Y-87719225I-104298J104298D01*
G01*
G37*
G36*
G01*
X143359832Y-88405119D02*
X143115881Y-88161167D01*
G75*
G02*
X143115881Y-87952571I104298J104298D01*
G01*
X143324477Y-87743975D01*
G75*
G02*
X143533073Y-87743975I104298J-104298D01*
G01*
X143777025Y-87987927D01*
G75*
G02*
X143777025Y-88196523I-104298J-104298D01*
G01*
X143568429Y-88405119D01*
G75*
G02*
X143359833Y-88405119I-104298J104298D01*
G01*
G37*
G36*
G01*
X143496975Y-80113926D02*
X143740927Y-79869975D01*
G75*
G02*
X143949523Y-79869975I104298J-104298D01*
G01*
X144158119Y-80078571D01*
G75*
G02*
X144158119Y-80287167I-104298J-104298D01*
G01*
X143914167Y-80531119D01*
G75*
G02*
X143705571Y-80531119I-104298J104298D01*
G01*
X143496975Y-80322523D01*
G75*
G02*
X143496975Y-80113927I104298J104298D01*
G01*
G37*
G36*
G01*
X142811081Y-79428032D02*
X143055033Y-79184081D01*
G75*
G02*
X143263629Y-79184081I104298J-104298D01*
G01*
X143472225Y-79392677D01*
G75*
G02*
X143472225Y-79601273I-104298J-104298D01*
G01*
X143228273Y-79845225D01*
G75*
G02*
X143019677Y-79845225I-104298J104298D01*
G01*
X142811081Y-79636629D01*
G75*
G02*
X142811081Y-79428033I104298J104298D01*
G01*
G37*
D22*
X107659200Y-78940600D03*
X109409200Y-78940600D03*
X107659200Y-75440600D03*
X109409200Y-75440600D03*
M02*
